<svg width="718" height="540" viewBox="0 0 718 540" fill="none" xmlns="http://www.w3.org/2000/svg">
<path opacity="0.3" d="M433.133 103.725C369.303 86.1713 301.506 75.693 237.101 83.4846C207.556 87.0669 176.682 95.2884 153.939 115.511C123.855 142.235 107.879 186.549 99.6402 224.898C87.8471 279.744 103.823 331.957 144.946 370.753C179.213 402.995 224.106 421.838 269.411 434.824C320.192 449.36 372.606 457.448 425.415 458.897C474.885 460.259 520.909 456.39 559.394 421.892C585.385 398.606 603.766 367.494 614.051 334.124C628.16 288.431 624.319 241.233 597.896 200.914C572.766 162.708 532.684 135.894 489.837 121.243C471.421 114.991 452.465 109.027 433.133 103.725Z" fill="#F5F799"/>
<path d="M584.273 123.231H396.354V459.524H584.273V123.231Z" fill="#C9C9C9"/>
<path d="M567.435 161.58H411.898V398.266H567.435V161.58Z" fill="white"/>
<path opacity="0.56" d="M490.879 446.897C501.03 446.897 509.26 438.685 509.26 428.555C509.26 418.425 501.03 410.213 490.879 410.213C480.727 410.213 472.498 418.425 472.498 428.555C472.498 438.685 480.727 446.897 490.879 446.897Z" fill="white"/>
<path opacity="0.12" d="M527.102 136.378H474.418V144.045H527.102V136.378Z" fill="black"/>
<path d="M455.337 149.615C460.076 149.615 463.918 145.782 463.918 141.053C463.918 136.324 460.076 132.491 455.337 132.491C450.599 132.491 446.757 136.324 446.757 141.053C446.757 145.782 450.599 149.615 455.337 149.615Z" fill="white"/>
<path d="M457.097 316.123L443.042 330.757C441.918 331.923 440.539 332.813 439.013 333.359C437.487 333.904 435.855 334.09 434.245 333.901C432.635 333.712 431.091 333.153 429.733 332.269C428.376 331.385 427.242 330.199 426.42 328.804L408.273 297.907C407.769 297.052 407.394 296.129 407.16 295.166C406.37 291.852 404.18 283.774 401.775 282.861C398.723 281.732 397.969 289.202 397.969 289.202C397.969 289.202 389.192 283.362 385.404 289.202C383.143 292.694 388.689 297.316 393.572 300.504C397.651 303.153 400.688 307.127 402.17 311.752C406.819 326.458 418.199 357.66 431.59 360.222C449.145 363.607 480.055 337.223 480.055 337.223L457.097 316.123Z" fill="#F4A28C"/>
<path d="M491.184 267.653C491.184 267.653 435.269 276.699 442.126 315.245C447.098 343.169 461.692 341.181 460.938 362.46L460.615 376.002L520.101 374.21C520.101 374.21 516.314 347.522 523.691 328.518C531.068 309.513 551.585 262.584 491.184 267.653Z" fill="#007AFF"/>
<path d="M504.126 234.338L506.71 267.994L488.024 268.084L493.643 243.562L504.126 234.338Z" fill="#F4A28C"/>
<path opacity="0.09" d="M507.985 274.836C507.985 274.836 478.924 283.523 488.079 308.492C497.233 333.461 511.844 349.295 497.143 357.266C482.442 365.237 460.669 376.002 460.669 376.002H510.929L522.884 362.98L533.223 325.365L507.985 274.836Z" fill="black"/>
<path opacity="0.31" d="M492.189 248.882C494.551 248.483 496.747 247.406 498.507 245.784C498.507 245.784 497.735 251.91 490.465 257.444L492.189 248.882Z" fill="#CE8172"/>
<path d="M485.368 231.507C485.368 231.507 484.237 241.753 485.799 248.613C486.111 249.951 486.941 251.112 488.109 251.84C489.276 252.569 490.685 252.806 492.027 252.5C494.201 252.132 496.221 251.145 497.845 249.658C499.469 248.171 500.628 246.247 501.182 244.117L504.485 235.161C504.961 233.306 504.848 231.349 504.159 229.561C503.471 227.774 502.242 226.244 500.643 225.185C494.935 220.904 485.745 225.22 485.368 231.507Z" fill="#F4A28C"/>
<path d="M460.615 376.002L453.309 398.051H528.879L520.101 374.21L460.615 376.002Z" fill="#24285B"/>
<path d="M496.12 240.589C496.12 240.589 496.3 236.631 499.279 237.007C502.259 237.383 502.044 243.115 497.969 243.544L496.12 240.589Z" fill="#F4A28C"/>
<path d="M484.991 237.992L482.011 241.896C481.842 242.117 481.731 242.378 481.689 242.653C481.647 242.928 481.676 243.21 481.773 243.471C481.87 243.732 482.031 243.964 482.242 244.146C482.454 244.328 482.708 244.454 482.981 244.512L486.912 245.336L484.991 237.992Z" fill="#F4A28C"/>
<path d="M499.279 237.007C499.279 237.007 486.858 267.457 496.802 273.171C506.746 278.884 524.463 277.72 526.797 264.77C529.13 251.82 516.422 248.649 516.314 230.469C516.206 212.288 481.311 213.632 480.934 224.039C480.557 234.445 499.279 237.007 499.279 237.007Z" fill="#FFD200"/>
<path d="M507.985 274.836C509.605 273.501 511.491 272.523 513.517 271.969C515.544 271.414 517.665 271.294 519.741 271.617C521.818 271.941 523.801 272.7 525.562 273.844C527.323 274.989 528.82 276.493 529.956 278.257C539.307 292.459 543.855 309.275 542.934 326.243C540.887 362.263 548.66 384.098 510.875 376.002C483.322 370.091 449.845 324.971 449.845 324.971C449.845 324.971 438.644 317.573 447.296 306.665C455.948 295.757 462.572 321.639 462.572 321.639C462.572 321.639 507.859 359.254 517.014 348.364C524.966 338.745 484.435 294.682 507.985 274.836Z" fill="#F4A28C"/>
<path d="M321.646 80.4575H133.728V416.751H321.646V80.4575Z" fill="#C9C9C9"/>
<path d="M304.809 118.807H149.272V355.493H304.809V118.807Z" fill="white"/>
<path opacity="0.56" d="M228.252 404.123C238.404 404.123 246.633 395.911 246.633 385.782C246.633 375.652 238.404 367.44 228.252 367.44C218.101 367.44 209.872 375.652 209.872 385.782C209.872 395.911 218.101 404.123 228.252 404.123Z" fill="white"/>
<path opacity="0.12" d="M264.475 93.605H211.792V101.271H264.475V93.605Z" fill="black"/>
<path d="M192.711 106.842C197.45 106.842 201.291 103.009 201.291 98.2801C201.291 93.5515 197.45 89.7183 192.711 89.7183C187.972 89.7183 184.131 93.5515 184.131 98.2801C184.131 103.009 187.972 106.842 192.711 106.842Z" fill="white"/>
<path d="M268.909 266.758C268.909 266.758 267.76 307.668 286.859 315.765C310.589 325.867 336.957 303.226 348.32 291.655C351.602 288.274 355.924 286.086 360.597 285.44C364.716 284.993 368.538 283.086 371.367 280.066C377.847 272.902 363.739 266.346 358.013 271.684C358.281 271.228 358.445 270.719 358.493 270.192C358.541 269.666 358.471 269.135 358.289 268.639C358.108 268.142 357.818 267.692 357.441 267.32C357.064 266.949 356.61 266.665 356.11 266.489C354.315 265.486 352.735 268.03 351.676 270.878C350.93 272.936 349.739 274.805 348.188 276.353C346.637 277.901 344.764 279.089 342.701 279.834L316.781 289.004C315.048 289.682 313.165 289.888 311.326 289.601C309.487 289.314 307.757 288.544 306.314 287.37C304.871 286.197 303.767 284.661 303.114 282.921C302.462 281.182 302.285 279.3 302.601 277.469L304.809 264.519L268.909 266.758Z" fill="#F4A28C"/>
<path d="M276.681 203.923C276.681 203.923 311.612 218.79 306.263 273.242L272.158 270.322L276.681 203.923Z" fill="#007AFF"/>
<path opacity="0.36" d="M276.681 203.923C276.681 203.923 311.612 218.79 306.263 273.242L272.158 270.322L276.681 203.923Z" fill="white"/>
<path d="M240.315 157.281L230.622 191.349L249.828 195.344L249.164 168.942L240.315 157.281Z" fill="#F4A28C"/>
<path opacity="0.31" d="M249.505 174.709C247.154 173.816 245.119 172.252 243.653 170.213C243.653 170.213 243.168 176.68 249.487 183.88L249.505 174.709Z" fill="#CE8172"/>
<path d="M230.621 191.349L242.02 193.714C242.02 193.714 294.075 199.32 296.247 228.678C298.419 258.035 268.909 333.014 268.909 333.014H189.929C189.929 333.014 126.709 183.594 230.621 191.349Z" fill="#007AFF"/>
<path d="M260.275 158.266C260.275 158.266 259.306 169.013 256.254 175.766C255.965 176.418 255.549 177.006 255.03 177.495C254.511 177.985 253.9 178.367 253.232 178.619C252.564 178.87 251.852 178.987 251.138 178.961C250.424 178.936 249.723 178.769 249.074 178.471C246.89 177.653 244.992 176.218 243.612 174.341C242.231 172.465 241.429 170.227 241.302 167.903L239.758 158.051C239.662 156.044 240.189 154.056 241.269 152.36C242.349 150.664 243.928 149.342 245.789 148.576C252.575 145.37 261.119 151.782 260.275 158.266Z" fill="#F4A28C"/>
<path opacity="0.09" d="M207.304 205.034C207.304 205.034 234.229 220.689 228.037 256.101C221.844 291.512 211.343 303.71 233.619 298.749C255.895 293.787 265.05 282.628 265.05 282.628C265.05 282.628 281.079 295.668 265.05 305.573C249.02 315.478 227.355 315.442 223.765 332.978H189.965C189.965 332.978 187.218 325.294 183.592 315.621C179.967 305.949 207.304 205.034 207.304 205.034Z" fill="black"/>
<path d="M257.475 158.248C254.157 157.79 250.905 156.948 247.782 155.741C248.477 157.361 248.677 159.15 248.357 160.883C248.038 162.616 247.214 164.217 245.987 165.485C244.837 166.743 243.284 167.564 241.594 167.805C239.904 168.047 238.183 167.695 236.725 166.81L239.345 153.179C239.648 151.221 240.475 149.38 241.739 147.851C243.003 146.322 244.656 145.162 246.525 144.492C248.15 143.907 249.811 143.429 251.497 143.059C255.716 142.181 261.029 145.835 265.05 143.811C265.453 143.61 265.901 143.516 266.351 143.539C266.801 143.562 267.238 143.701 267.618 143.943C267.998 144.185 268.308 144.521 268.519 144.919C268.729 145.317 268.833 145.762 268.819 146.212C268.694 150.475 266.791 156.959 260.742 158.159C259.664 158.358 258.562 158.388 257.475 158.248Z" fill="#FFD200"/>
<path d="M247.243 165.377C247.243 165.377 247.889 161.258 244.748 161.025C241.607 160.792 240.638 166.739 244.748 168.028L247.243 165.377Z" fill="#F4A28C"/>
<path opacity="0.08" d="M318.918 345.892C353.942 345.892 382.335 317.56 382.335 282.61C382.335 247.66 353.942 219.328 318.918 219.328C283.893 219.328 255.5 247.66 255.5 282.61C255.5 317.56 283.893 345.892 318.918 345.892Z" fill="black"/>
<path d="M318.918 345.892C353.942 345.892 382.335 317.56 382.335 282.61C382.335 247.66 353.942 219.328 318.918 219.328C283.893 219.328 255.5 247.66 255.5 282.61C255.5 317.56 283.893 345.892 318.918 345.892Z" fill="#FFD200"/>
<g opacity="0.08">
<path d="M319.959 332.62C354.983 332.62 383.376 304.287 383.376 269.337C383.376 234.388 354.983 206.055 319.959 206.055C284.934 206.055 256.542 234.388 256.542 269.337C256.542 304.287 284.934 332.62 319.959 332.62Z" fill="black"/>
</g>
<path opacity="0.08" d="M318.918 345.892C353.942 345.892 382.335 317.56 382.335 282.61C382.335 247.66 353.942 219.328 318.918 219.328C283.893 219.328 255.5 247.66 255.5 282.61C255.5 317.56 283.893 345.892 318.918 345.892Z" fill="black"/>
<path d="M319.959 332.62C354.983 332.62 383.376 304.287 383.376 269.337C383.376 234.388 354.983 206.055 319.959 206.055C284.934 206.055 256.542 234.388 256.542 269.337C256.542 304.287 284.934 332.62 319.959 332.62Z" fill="#FFD200"/>
<path d="M316.333 241.198C318.128 240.84 318.756 241.341 319.115 243.097L319.869 246.84C327.049 246.41 331.86 249.097 336.024 254.596C337.317 256.244 337.137 257.301 335.252 258.644L331.896 261.044C330.316 262.226 329.401 262.011 328.036 260.381C326.865 258.643 325.165 257.327 323.187 256.627C321.209 255.927 319.058 255.881 317.051 256.495C310.553 257.802 307.968 260.31 308.848 264.662C309.422 267.475 312.438 268.71 315.166 268.71C317.061 268.741 318.955 268.651 320.838 268.442C324.338 267.932 327.893 267.932 331.393 268.442C333.144 268.63 334.843 269.146 336.401 269.964C338.044 271.114 339.441 272.579 340.51 274.274C341.58 275.968 342.3 277.858 342.63 279.834C344.299 288.145 339.865 294.915 330.316 298.354L331.106 302.313C331.465 304.104 331.106 304.785 329.311 305.143L325.111 305.985C323.316 306.343 322.615 305.859 322.256 304.194L321.467 300.307C313.623 300.862 307.717 297.996 303.804 291.655C303.571 291.347 303.413 290.989 303.339 290.61C303.266 290.231 303.28 289.841 303.38 289.468C303.48 289.095 303.664 288.75 303.918 288.459C304.172 288.167 304.489 287.937 304.845 287.786L308.309 285.655C310.104 284.58 311.02 284.867 312.258 286.604C314.807 290.545 318.666 291.978 323.872 290.939C330.908 289.506 333.96 286.586 333.062 282.091C332.908 281.037 332.406 280.065 331.635 279.328C330.865 278.592 329.87 278.133 328.808 278.025C326.202 277.641 323.553 277.641 320.946 278.025C317.4 278.535 313.797 278.486 310.266 277.881C308.531 277.644 306.853 277.098 305.312 276.269C303.67 275.192 302.269 273.788 301.198 272.145C300.126 270.502 299.406 268.656 299.083 266.722C297.414 258.483 301.488 251.945 311.02 248.667L310.266 244.942C309.907 243.15 310.392 242.452 312.061 242.094L316.333 241.198Z" fill="white"/>
<path d="M165.643 267.636C165.643 267.636 161.191 313.132 183.593 315.657C200.484 317.574 227.57 308.062 244.12 303.352C251.3 301.31 254.765 300.36 260.275 295.345C266.863 289.327 276.017 285.046 268.909 279.332C256.344 269.176 247.369 286.497 247.369 286.497C236.811 289.549 225.931 291.352 214.951 291.87C212.891 291.926 210.846 291.501 208.98 290.629C207.113 289.758 205.475 288.464 204.198 286.85C202.92 285.236 202.038 283.347 201.621 281.333C201.203 279.319 201.263 277.235 201.794 275.248L205.976 259.575C205.976 259.575 176.287 231.937 165.643 267.636Z" fill="#F4A28C"/>
<path d="M259.234 165.019L261.478 169.694C261.59 169.958 261.638 170.245 261.616 170.531C261.594 170.817 261.504 171.094 261.353 171.338C261.201 171.582 260.994 171.786 260.747 171.934C260.5 172.081 260.221 172.167 259.934 172.184H255.716L259.234 165.019Z" fill="#F4A28C"/>
<path d="M188.906 201.469C177.328 210.425 159.773 230.128 160.186 267.277L208.005 270.322C208.005 270.322 221.826 229.483 207.376 205.034C206.472 203.506 205.252 202.188 203.799 201.165C202.345 200.143 200.691 199.44 198.945 199.103C197.199 198.766 195.402 198.803 193.671 199.211C191.94 199.619 190.316 200.389 188.906 201.469Z" fill="#007AFF"/>
<path opacity="0.36" d="M188.906 201.469C177.328 210.425 159.773 230.128 160.186 267.277L208.005 270.322C208.005 270.322 221.826 229.483 207.376 205.034C206.472 203.506 205.252 202.188 203.799 201.165C202.345 200.143 200.691 199.44 198.945 199.103C197.199 198.766 195.402 198.803 193.671 199.211C191.94 199.619 190.316 200.389 188.906 201.469Z" fill="white"/>
<path d="M189.965 333.014V356.245H276.125L268.909 333.014H189.965Z" fill="#24285B"/>
<path d="M378.17 262.226C376.575 264.055 375.634 266.361 375.496 268.782C375.333 270.084 375.578 271.404 376.196 272.561C376.635 273.218 377.203 273.778 377.865 274.209C380.468 276 384.471 276.287 386.553 273.887C387.651 272.418 388.204 270.613 388.115 268.782C388.115 266.633 388.366 262.388 386.643 260.74C384.327 258.519 379.983 260.31 378.17 262.226Z" fill="#F4A28C"/>
</svg>
