<svg width="108" height="60" viewBox="0 0 108 60" fill="none" xmlns="http://www.w3.org/2000/svg">
<path d="M0.401245 50.6991C-0.0410978 51.0298 -0.131616 51.6564 0.199068 52.0988L5.58786 59.3071C5.91855 59.7495 6.54521 59.84 6.98755 59.5093C7.42989 59.1786 7.52041 58.552 7.18973 58.1096L2.39969 51.7022L8.80714 46.9121C9.24949 46.5815 9.34 45.9548 9.00932 45.5124C8.67864 45.0701 8.05198 44.9796 7.60963 45.3103L0.401245 50.6991ZM0.857039 52.4897C8.49177 53.5925 20.8258 53.4121 33.1409 49.3113C45.4746 45.2043 57.8421 37.1438 65.3894 22.4571L63.6106 21.5429C56.3579 35.6562 44.4754 43.4291 32.5091 47.4137C20.5242 51.4046 8.50823 51.5741 1.14296 50.5103L0.857039 52.4897Z" fill="#007AFF"/>
<path d="M34.32 15V0.999999H36.96V15H34.32ZM43.4734 15C42.8201 15 42.2868 14.8 41.8734 14.4C41.4734 13.9867 41.2734 13.44 41.2734 12.76V7.16H38.7934V5.08H41.2734V2H43.7934V5.08H46.5134V7.16H43.7934V12.32C43.7934 12.72 43.9801 12.92 44.3534 12.92H46.2734V15H43.4734ZM49.1698 7.14V5.78H49.9498C50.5632 5.78 50.8698 5.47333 50.8698 4.86V4.22H50.5298C49.9965 4.22 49.5498 4.06 49.1898 3.74C48.8432 3.42 48.6698 3.01333 48.6698 2.52C48.6698 1.98667 48.8432 1.55333 49.1898 1.22C49.5498 0.886666 49.9965 0.719999 50.5298 0.719999C51.0765 0.719999 51.5232 0.893333 51.8698 1.24C52.2165 1.57333 52.3898 2.02667 52.3898 2.6V4.9C52.3898 6.39333 51.6432 7.14 50.1498 7.14H49.1698ZM58.7934 15.28C57.5001 15.28 56.4401 15 55.6134 14.44C54.7868 13.88 54.2868 13.08 54.1134 12.04L56.4334 11.44C56.5268 11.9067 56.6801 12.2733 56.8934 12.54C57.1201 12.8067 57.3934 13 57.7134 13.12C58.0468 13.2267 58.4068 13.28 58.7934 13.28C59.3801 13.28 59.8134 13.18 60.0934 12.98C60.3734 12.7667 60.5134 12.5067 60.5134 12.2C60.5134 11.8933 60.3801 11.66 60.1134 11.5C59.8468 11.3267 59.4201 11.1867 58.8334 11.08L58.2734 10.98C57.5801 10.8467 56.9468 10.6667 56.3734 10.44C55.8001 10.2 55.3401 9.87333 54.9934 9.46C54.6468 9.04667 54.4734 8.51333 54.4734 7.86C54.4734 6.87333 54.8334 6.12 55.5534 5.6C56.2734 5.06667 57.2201 4.8 58.3934 4.8C59.5001 4.8 60.4201 5.04667 61.1534 5.54C61.8868 6.03333 62.3668 6.68 62.5934 7.48L60.2534 8.2C60.1468 7.69333 59.9268 7.33333 59.5934 7.12C59.2734 6.90667 58.8734 6.8 58.3934 6.8C57.9134 6.8 57.5468 6.88667 57.2934 7.06C57.0401 7.22 56.9134 7.44667 56.9134 7.74C56.9134 8.06 57.0468 8.3 57.3134 8.46C57.5801 8.60667 57.9401 8.72 58.3934 8.8L58.9534 8.9C59.7001 9.03333 60.3734 9.21333 60.9734 9.44C61.5868 9.65333 62.0668 9.96667 62.4134 10.38C62.7734 10.78 62.9534 11.3267 62.9534 12.02C62.9534 13.06 62.5734 13.8667 61.8134 14.44C61.0668 15 60.0601 15.28 58.7934 15.28ZM71.8798 15V7.16H69.3598V5.08H71.8798V3.24C71.8798 2.56 72.0798 2.02 72.4798 1.62C72.8932 1.20667 73.4265 0.999999 74.0798 0.999999H76.6798V3.08H74.9598C74.5865 3.08 74.3998 3.28 74.3998 3.68V5.08H76.9998V7.16H74.3998V15H71.8798ZM78.9508 15V5.08H81.4308V6.2H81.7908C81.9374 5.8 82.1774 5.50667 82.5108 5.32C82.8574 5.13333 83.2574 5.04 83.7108 5.04H84.9108V7.28H83.6708C83.0308 7.28 82.5041 7.45333 82.0908 7.8C81.6774 8.13333 81.4708 8.65333 81.4708 9.36V15H78.9508ZM91.0489 15.28C90.0622 15.28 89.1889 15.0733 88.4289 14.66C87.6822 14.2333 87.0956 13.64 86.6689 12.88C86.2556 12.1067 86.0489 11.2 86.0489 10.16V9.92C86.0489 8.88 86.2556 7.98 86.6689 7.22C87.0822 6.44667 87.6622 5.85333 88.4089 5.44C89.1556 5.01333 90.0222 4.8 91.0089 4.8C91.9822 4.8 92.8289 5.02 93.5489 5.46C94.2689 5.88667 94.8289 6.48667 95.2289 7.26C95.6289 8.02 95.8289 8.90667 95.8289 9.92V10.78H88.6089C88.6356 11.46 88.8889 12.0133 89.3689 12.44C89.8489 12.8667 90.4356 13.08 91.1289 13.08C91.8356 13.08 92.3556 12.9267 92.6889 12.62C93.0222 12.3133 93.2756 11.9733 93.4489 11.6L95.5089 12.68C95.3222 13.0267 95.0489 13.4067 94.6889 13.82C94.3422 14.22 93.8756 14.5667 93.2889 14.86C92.7022 15.14 91.9556 15.28 91.0489 15.28ZM88.6289 8.9H93.2689C93.2156 8.32667 92.9822 7.86667 92.5689 7.52C92.1689 7.17333 91.6422 7 90.9889 7C90.3089 7 89.7689 7.17333 89.3689 7.52C88.9689 7.86667 88.7222 8.32667 88.6289 8.9ZM102.592 15.28C101.605 15.28 100.732 15.0733 99.9719 14.66C99.2252 14.2333 98.6385 13.64 98.2119 12.88C97.7985 12.1067 97.5919 11.2 97.5919 10.16V9.92C97.5919 8.88 97.7985 7.98 98.2119 7.22C98.6252 6.44667 99.2052 5.85333 99.9519 5.44C100.699 5.01333 101.565 4.8 102.552 4.8C103.525 4.8 104.372 5.02 105.092 5.46C105.812 5.88667 106.372 6.48667 106.772 7.26C107.172 8.02 107.372 8.90667 107.372 9.92V10.78H100.152C100.179 11.46 100.432 12.0133 100.912 12.44C101.392 12.8667 101.979 13.08 102.672 13.08C103.379 13.08 103.899 12.9267 104.232 12.62C104.565 12.3133 104.819 11.9733 104.992 11.6L107.052 12.68C106.865 13.0267 106.592 13.4067 106.232 13.82C105.885 14.22 105.419 14.5667 104.832 14.86C104.245 15.14 103.499 15.28 102.592 15.28ZM100.172 8.9H104.812C104.759 8.32667 104.525 7.86667 104.112 7.52C103.712 7.17333 103.185 7 102.532 7C101.852 7 101.312 7.17333 100.912 7.52C100.512 7.86667 100.265 8.32667 100.172 8.9Z" fill="#007AFF"/>
</svg>
