<svg width="731" height="551" viewBox="0 0 731 551" fill="none" xmlns="http://www.w3.org/2000/svg">
<path d="M457.512 75.0461C516.423 65.1897 595.516 50.8204 632.162 97.9014C670.91 147.681 621.763 220.37 619.669 283.373C618.276 325.307 636.504 367.741 621.888 407.08C607.772 445.073 575.991 474.637 540.983 495.154C510.133 513.235 472.272 507.158 437.415 515.195C404.81 522.712 375.052 547.241 342.18 540.991C309.039 534.69 291.822 498.071 262.238 481.888C219.297 458.398 161.338 462.026 129.674 424.745C95.4619 384.465 79.6966 327.438 86.5867 275.081C93.6748 221.219 119.273 161.818 167.571 136.773C216.917 111.185 276.764 159.843 331.149 148.265C379.607 137.948 408.645 83.2221 457.512 75.0461Z" fill="#DAE1FF"/>
<path d="M305.686 443.791C291.249 451.833 273.339 452.82 256.526 452.546C241.066 452.29 225.459 451.248 210.839 446.058C196.219 440.867 182.805 431.052 176.116 417.089C168.952 402.011 163.561 328.009 162.172 305.967C161.277 291.73 161.003 276.98 166.321 263.73C172.425 248.652 185.309 237.119 199.874 229.808C214.439 222.498 230.685 219.446 246.822 217.563C266.779 215.205 287.356 214.748 306.618 220.487C325.88 226.226 343.789 238.947 352.086 257.223C356.6 267.202 358.099 278.296 358.446 289.244C359.378 317.5 353.091 345.39 344.813 372.238C337.832 394.792 331.71 424.254 311.918 439.588C309.952 441.147 307.868 442.552 305.686 443.791Z" fill="#24285B"/>
<path d="M400.953 199.615C400.953 199.615 423.852 247.299 402.909 305.62C381.966 363.941 427.635 393.494 339.184 401.316C250.733 409.139 400.953 199.615 400.953 199.615Z" fill="#007AFF"/>
<path opacity="0.46" d="M400.953 199.615C400.953 199.615 423.852 247.299 402.909 305.62C381.966 363.941 427.635 393.494 339.184 401.316C250.733 409.139 400.953 199.615 400.953 199.615Z" fill="white"/>
<path d="M356.143 106.386C356.143 106.386 354.169 121.008 349.582 130.146C349.137 131.021 348.524 131.799 347.778 132.437C347.031 133.074 346.166 133.558 345.232 133.86C344.298 134.162 343.314 134.277 342.336 134.198C341.357 134.119 340.404 133.847 339.531 133.399C334.999 131.023 329.571 126.491 329.681 118.485L328.182 104.851C328.169 102.092 329.013 99.3966 330.598 97.1376C332.182 94.8787 334.429 93.1674 337.027 92.2401C346.512 88.2193 357.806 97.4855 356.143 106.386Z" fill="#F4A28C"/>
<path d="M329.589 108.689L300.276 147.527L322.846 162.148L334.798 128.885L329.589 108.689Z" fill="#F4A28C"/>
<path d="M354.425 115.598L357.203 122.086C357.36 122.454 357.422 122.855 357.383 123.253C357.343 123.651 357.204 124.032 356.978 124.362C356.752 124.692 356.447 124.96 356.09 125.14C355.733 125.32 355.337 125.408 354.937 125.394L349.162 125.193L354.425 115.598Z" fill="#F4A28C"/>
<path opacity="0.31" d="M334.432 129.817C334.432 129.817 327.762 122.506 326.94 118.065C326.94 118.065 319.776 136.122 328.584 146.047L334.432 129.817Z" fill="#CE8172"/>
<path d="M337.283 112.948C337.283 112.948 338.416 107.355 334.14 106.843C329.864 106.332 328.146 114.41 333.683 116.439L337.283 112.948Z" fill="#F4A28C"/>
<path d="M324.308 99.6056L325.057 105.747C325.057 105.747 323.084 119.838 328.712 129.963C334.341 140.088 346.713 143.799 351.538 135.355C357.02 125.668 349.18 125.193 340.244 120.861C331.307 116.53 337.923 104.888 337.923 104.888C339.617 105.622 341.466 105.931 343.307 105.787C345.148 105.644 346.926 105.053 348.486 104.065L355.01 103.626C356.491 103.532 357.935 103.118 359.242 102.413C360.548 101.709 361.687 100.731 362.581 99.5456C363.475 98.3602 364.102 96.9959 364.42 95.5457C364.737 94.0956 364.738 92.594 364.422 91.1436C364.118 89.3449 363.461 87.6243 362.488 86.081C361.516 84.5376 360.248 83.2021 358.757 82.1515C350.003 76.4674 321.64 81.1645 324.308 99.6056Z" fill="#24285B"/>
<path d="M331.709 104.266C331.709 104.266 326.757 97.5038 322.024 101.726C317.29 105.948 322.937 113.24 329.334 112.18C329.147 109.342 329.99 106.532 331.709 104.266Z" fill="#F4A28C"/>
<path d="M341.432 144.201L314.951 139.632C314.951 139.632 226.829 139.76 211.405 169.934C195.981 200.109 199.234 312.492 250.185 404.661L354.535 407.677C354.535 407.677 348.742 339.944 368.186 303.061C387.631 266.179 448.103 187.772 341.432 144.201Z" fill="#007AFF"/>
<path opacity="0.08" d="M259.139 180.754C259.139 180.754 288.069 206.122 282.257 234.122C281.325 238.654 280.43 244.119 279.37 250.114C275.601 273.34 277.01 297.113 283.496 319.732C289.982 342.35 301.385 363.257 316.888 380.956L335.163 401.792L250.239 404.661L242.929 390.423L203.291 324.628L259.139 180.754Z" fill="black"/>
<path d="M209.943 172.712C190.608 199.926 173.393 260.02 188.342 344.677C190.579 357.202 196.958 368.613 206.456 377.078C215.954 385.542 228.02 390.571 240.718 391.356L320.452 396.4V370.392L259.852 361.62C256.537 361.141 253.365 359.951 250.553 358.131C247.741 356.312 245.356 353.905 243.561 351.077C241.766 348.249 240.604 345.066 240.154 341.747C239.705 338.428 239.978 335.051 240.956 331.847C251.629 296.701 268.167 233.025 263.891 187.626C261.333 160.065 225.97 150.141 209.943 172.712Z" fill="#007AFF"/>
<path opacity="0.46" d="M209.943 172.712C190.608 199.926 173.393 260.02 188.342 344.677C190.579 357.202 196.958 368.613 206.456 377.078C215.954 385.542 228.02 390.571 240.718 391.356L320.452 396.4V370.392L259.852 361.62C256.537 361.141 253.365 359.951 250.553 358.131C247.741 356.312 245.356 353.905 243.561 351.077C241.766 348.249 240.604 345.066 240.154 341.747C239.705 338.428 239.978 335.051 240.956 331.847C251.629 296.701 268.167 233.025 263.891 187.626C261.333 160.065 225.97 150.141 209.943 172.712Z" fill="white"/>
<path d="M322.188 375.217C322.188 375.217 356.911 374.34 352.032 392.47C347.152 410.601 322.188 396.4 322.188 396.4V375.217Z" fill="#F4A28C"/>
<path d="M474.565 405.575L494.412 293.411H353.695L341.487 389.034L276.976 389.93V405.575H474.565Z" fill="#FFD200"/>
<path d="M418.534 361.29C426.316 361.29 432.624 354.982 432.624 347.199C432.624 339.417 426.316 333.108 418.534 333.108C410.752 333.108 404.444 339.417 404.444 347.199C404.444 354.982 410.752 361.29 418.534 361.29Z" fill="white"/>
<path d="M121.894 471.133L609.087 471.133V402.943L121.894 402.943V471.133Z" fill="#E6E6E6"/>
<path opacity="0.09" d="M258.573 402.925H121.913V471.115H258.573V402.925Z" fill="black"/>
<path opacity="0.58" d="M538.363 387.28C538.363 387.28 523.926 383.332 520.783 369.899C520.783 369.899 543.151 365.385 543.791 388.468L538.363 387.28Z" fill="#007AFF"/>
<path opacity="0.73" d="M540.136 385.854C540.136 385.854 530.048 369.899 538.93 355.003C538.93 355.003 555.925 365.805 548.378 385.891L540.136 385.854Z" fill="#007AFF"/>
<path d="M542.768 385.854C542.768 385.854 548.104 369.021 564.204 365.841C564.204 365.841 567.22 376.807 553.769 385.946L542.768 385.854Z" fill="#007AFF"/>
<path d="M532.259 385.489L535.183 405.502L553.623 405.575L556.327 385.58L532.259 385.489Z" fill="#24285B"/>
<path d="M435.768 193.31V250.552H469.522V276.414L489.003 250.552H544.303V193.31H435.768Z" fill="#E6E6E6"/>
<path d="M494.412 125.394H411.736V178.378H423.322V201.407L436.425 178.378H494.412V125.394Z" fill="#E6E6E6"/>
<path d="M564.46 119.692H511.042V165.42H547.446L556.474 176.916V165.42H564.46V119.692Z" fill="#E6E6E6"/>
</svg>
