<svg width="744" height="560" viewBox="0 0 744 560" fill="none" xmlns="http://www.w3.org/2000/svg">
<path d="M388.496 47.6681C432.857 43.5594 480.503 58.5421 513.302 88.7085C546.33 119.085 554.459 166.846 565.407 210.376C576.142 253.06 596.656 300.617 576.428 339.701C555.885 379.394 494.852 375.676 463.418 407.437C432.184 438.996 434.124 495.555 397.436 520.557C358.181 547.308 304.321 562.648 259.751 546.231C215.069 529.773 202.989 472.668 171.178 437.218C141.776 404.452 89.9176 388.109 79.4765 345.33C69.0218 302.495 93.509 257.629 118.478 221.297C139.758 190.335 177.65 178.168 208.793 157.168C233.649 140.408 257.953 125.587 283.552 109.988C318.898 88.4514 347.29 51.4848 388.496 47.6681Z" fill="#FFF0DA"/>
<path d="M438.42 76.4348H389.726V84.1249H438.42V76.4348Z" fill="#E6E6E6"/>
<path d="M438.421 68.7075H401.593V76.3976H438.421V68.7075Z" fill="#C9C9C9"/>
<path d="M491.208 144.754V178.877H513.286L518.103 192.455L523.813 178.877H545.892V144.754H491.208Z" fill="#E6E6E6"/>
<path opacity="0.12" d="M515.796 169.441C515.548 169.431 515.305 169.367 515.084 169.255C514.862 169.143 514.668 168.985 514.513 168.791L508.747 161.36C508.607 161.186 508.504 160.985 508.443 160.77C508.383 160.555 508.366 160.331 508.393 160.109C508.421 159.887 508.493 159.673 508.605 159.48C508.717 159.287 508.866 159.118 509.045 158.983C509.221 158.843 509.423 158.739 509.64 158.678C509.857 158.618 510.083 158.6 510.307 158.628C510.53 158.656 510.746 158.728 510.941 158.84C511.137 158.952 511.307 159.101 511.444 159.28L515.982 165.113L527.142 153.039C527.298 152.879 527.485 152.751 527.691 152.665C527.897 152.578 528.118 152.533 528.342 152.533C528.566 152.533 528.787 152.578 528.993 152.665C529.199 152.751 529.386 152.879 529.542 153.039C529.709 153.19 529.844 153.373 529.939 153.577C530.035 153.781 530.088 154.002 530.097 154.227C530.106 154.452 530.069 154.676 529.99 154.887C529.911 155.097 529.79 155.29 529.635 155.454L517.08 168.883C516.918 169.062 516.72 169.205 516.499 169.301C516.277 169.397 516.038 169.445 515.796 169.441Z" fill="black"/>
<path d="M196.397 152.686V186.808H218.476L223.312 200.387L229.022 186.808H251.1V152.686H196.397Z" fill="#E6E6E6"/>
<path opacity="0.12" d="M220.987 177.372C220.739 177.362 220.496 177.299 220.274 177.187C220.053 177.075 219.858 176.916 219.703 176.722L213.937 169.292C213.681 168.933 213.574 168.489 213.638 168.054C213.701 167.618 213.931 167.223 214.279 166.952C214.627 166.681 215.066 166.555 215.505 166.6C215.944 166.645 216.349 166.857 216.634 167.193L221.173 173.026L232.333 160.952C232.49 160.791 232.678 160.663 232.886 160.576C233.094 160.489 233.317 160.444 233.542 160.444C233.767 160.444 233.99 160.489 234.197 160.576C234.405 160.663 234.593 160.791 234.751 160.952C235.067 161.274 235.243 161.708 235.243 162.159C235.243 162.61 235.067 163.044 234.751 163.366L222.177 176.908C222.019 177.06 221.833 177.18 221.629 177.259C221.424 177.339 221.206 177.377 220.987 177.372Z" fill="black"/>
<path d="M483.321 84.1621H260.679V482.915H483.321V84.1621Z" fill="#C9C9C9"/>
<path d="M463.382 129.615H279.093V410.249H463.382V129.615Z" fill="white"/>
<path opacity="0.56" d="M372.67 467.943C384.699 467.943 394.45 458.205 394.45 446.192C394.45 434.179 384.699 424.44 372.67 424.44C360.641 424.44 350.889 434.179 350.889 446.192C350.889 458.205 360.641 467.943 372.67 467.943Z" fill="white"/>
<path opacity="0.12" d="M415.58 99.7466H353.158V108.83H415.58V99.7466Z" fill="black"/>
<path d="M330.559 115.443C336.178 115.443 340.733 110.893 340.733 105.282C340.733 99.6704 336.178 95.1213 330.559 95.1213C324.94 95.1213 320.385 99.6704 320.385 105.282C320.385 110.893 324.94 115.443 330.559 115.443Z" fill="white"/>
<path d="M508.394 228.231C507.854 232.25 507.854 236.323 508.394 240.342C508.604 241.29 509.177 242.118 509.99 242.649C510.803 243.18 511.793 243.372 512.746 243.184C514.288 242.954 515.731 242.285 516.902 241.257C518.073 240.229 518.923 238.886 519.349 237.389L521.804 231.11C522.162 229.805 522.107 228.421 521.647 227.148C521.188 225.874 520.346 224.774 519.237 223.996C515.313 220.875 508.747 223.81 508.394 228.231Z" fill="#F4A28C"/>
<path opacity="0.08" d="M260.4 355.489L261.367 375.662L280.897 371.613L289.211 336.431C290.777 329.796 294.363 323.808 299.476 319.291C304.589 314.774 310.977 311.95 317.762 311.206C332.642 309.59 351.094 308.067 362.867 308.884C385.057 310.426 431.929 305.169 447.683 318.618C463.438 332.066 465.093 368.325 483.358 381.625V356.381L478.02 288.452L457.876 281.597L386.564 292.167L378.956 293.467L371.07 297.739L354.33 289.38L257.926 285.35L260.4 355.489Z" fill="black"/>
<path d="M521.414 232.262L524.129 255.982L510.923 256.539L514.253 239.042L521.414 232.262Z" fill="#F4A28C"/>
<path d="M237.54 256.8L362.83 285.145L360.542 295.789C360.542 295.789 297.897 294.21 251.081 303.219C204.265 312.228 237.54 256.8 237.54 256.8Z" fill="#007AFF"/>
<path opacity="0.08" d="M237.54 256.8L362.83 285.145L360.542 295.789C360.542 295.789 297.897 294.21 251.081 303.219C204.265 312.228 237.54 256.8 237.54 256.8Z" fill="black"/>
<path d="M508.022 232.819L505.92 235.531C505.804 235.687 505.728 235.869 505.699 236.061C505.67 236.253 505.688 236.449 505.752 236.632C505.817 236.815 505.925 236.98 506.068 237.112C506.21 237.244 506.383 237.339 506.571 237.389L509.342 238.039L508.022 232.819Z" fill="#F4A28C"/>
<path d="M505.622 256.8L380.835 287.43L384.183 294.191C384.183 294.191 445.247 294.191 492.063 303.107C538.879 312.024 505.622 256.8 505.622 256.8Z" fill="#F4A28C"/>
<path opacity="0.31" d="M513.36 242.85C515.017 242.508 516.537 241.688 517.731 240.491C517.084 243.885 515.169 246.906 512.374 248.942L513.36 242.85Z" fill="#CE8172"/>
<path d="M448.967 297.386L452.166 269.951L496.267 258.62L501.307 304.148C483.58 305.517 465.761 303.216 448.967 297.386Z" fill="#007AFF"/>
<path opacity="0.08" d="M448.967 297.386L452.166 269.951L496.267 258.62L501.307 304.148C483.58 305.517 465.761 303.216 448.967 297.386Z" fill="black"/>
<path d="M496.267 258.62C496.267 258.62 552.885 245.97 573.159 257.32C593.433 268.669 553.629 375.662 553.629 375.662L491.133 373.693C491.133 373.693 436.431 269.486 496.267 258.62Z" fill="#007AFF"/>
<path d="M508.915 476.135C508.915 476.135 505.994 481.373 500.898 480.983C495.802 480.593 493.681 485.293 497.996 487.299C502.312 489.305 514.941 485.441 514.941 485.441L516.02 476.154L508.915 476.135Z" fill="#007AFF"/>
<path d="M554.708 475.039C554.708 475.039 556.791 480.612 561.888 481.058C566.984 481.503 568.36 486.426 563.748 487.745C559.135 489.063 547.305 483.287 547.305 483.287L547.64 473.999L554.708 475.039Z" fill="#007AFF"/>
<path d="M491.133 373.693L507.11 476.135H517.563C517.563 476.135 507.891 399.085 524.799 389.798C541.706 380.51 544.98 476.135 544.98 476.135L556.14 475.244L556.01 369.625L491.133 373.693Z" fill="#24285B"/>
<path d="M234.751 228.231C235.301 232.249 235.301 236.324 234.751 240.342C234.541 241.29 233.968 242.118 233.154 242.649C232.341 243.18 231.352 243.372 230.398 243.184C228.857 242.957 227.415 242.289 226.246 241.261C225.078 240.232 224.233 238.887 223.814 237.389L221.34 231.11C220.982 229.803 221.038 228.417 221.501 227.143C221.964 225.869 222.811 224.769 223.926 223.996C227.85 220.875 234.36 223.81 234.751 228.231Z" fill="#F4A28C"/>
<path d="M221.731 232.262L219.034 255.982L232.24 256.539L228.892 239.042L221.731 232.262Z" fill="#F4A28C"/>
<path d="M235.123 232.819L237.28 235.531C237.401 235.686 237.481 235.868 237.512 236.061C237.544 236.254 237.527 236.452 237.462 236.637C237.397 236.822 237.287 236.988 237.142 237.119C236.996 237.25 236.82 237.343 236.629 237.389L233.858 238.039L235.123 232.819Z" fill="#F4A28C"/>
<path opacity="0.31" d="M229.785 242.85C228.128 242.508 226.608 241.688 225.414 240.491C226.064 243.888 227.986 246.911 230.789 248.942L229.785 242.85Z" fill="#CE8172"/>
<path d="M246.878 258.62C246.878 258.62 190.26 245.97 169.986 257.32C149.712 268.669 189.516 375.662 189.516 375.662L252.03 373.693C252.03 373.693 306.714 269.486 246.878 258.62Z" fill="#007AFF"/>
<path d="M234.248 476.135C234.248 476.135 237.15 481.373 242.246 480.983C247.343 480.593 249.482 485.293 245.148 487.299C240.814 489.305 228.222 485.441 228.222 485.441L227.143 476.154L234.248 476.135Z" fill="#007AFF"/>
<path d="M188.436 475.039C188.436 475.039 186.372 480.612 181.275 481.058C176.179 481.503 174.784 486.426 179.415 487.745C184.047 489.063 195.876 483.287 195.876 483.287L195.523 473.999L188.436 475.039Z" fill="#007AFF"/>
<path opacity="0.08" d="M197.718 267.239C197.718 267.239 215.611 278.811 206.497 305.244C197.383 331.676 195.914 350.623 217.397 343.991C238.88 337.36 237.299 307.77 237.299 307.77L259.21 311.15L261.33 353.149L252.03 373.693L197.718 370.275L175.603 364.703L167.4 336.951L182.429 290.012L197.718 267.239Z" fill="black"/>
<path d="M252.03 373.693L236.034 476.135H225.581C225.581 476.135 235.271 399.085 218.364 389.798C201.457 380.51 198.127 476.135 198.127 476.135L186.967 475.244L187.079 369.625L252.03 373.693Z" fill="#24285B"/>
<path d="M186.688 253.995C186.688 253.995 151.479 248.069 151.479 303.405C151.479 358.74 159.942 408.002 241.224 358.647L235.048 349.23C235.048 349.23 191.264 368.474 181.945 351.57C172.627 334.667 218.513 263.282 186.688 253.995Z" fill="#007AFF"/>
<path opacity="0.46" d="M186.688 253.995C186.688 253.995 151.479 248.069 151.479 303.405C151.479 358.74 159.942 408.002 241.224 358.647L235.048 349.23C235.048 349.23 191.264 368.474 181.945 351.57C172.627 334.667 218.513 263.282 186.688 253.995Z" fill="white"/>
<path d="M239.841 347.767L269.658 355.257L280.884 310.691L251.067 303.2L239.841 347.767Z" fill="#FFD200"/>
<path opacity="0.08" d="M552.68 269.951C552.68 269.951 539.084 280.725 547.342 304.166C555.601 327.608 547.77 367.322 524.129 371.613L555.991 369.625L572.136 316.352L552.68 269.951Z" fill="black"/>
<path d="M233.356 228.547C232.814 228.724 232.261 228.867 231.7 228.974C230.914 229.152 230.148 229.407 229.413 229.736L228.817 229.996C228.395 230.181 228.036 230.485 227.785 230.871C227.534 231.257 227.401 231.708 227.404 232.169C227.494 233.057 227.398 233.955 227.121 234.804C226.845 235.653 226.393 236.435 225.796 237.099C225.199 237.764 224.469 238.296 223.654 238.663C222.838 239.029 221.955 239.222 221.061 239.227C221.061 239.227 215.314 230.664 219.908 224.089C221.253 222.269 222.988 220.773 224.986 219.709C226.985 218.645 229.196 218.041 231.459 217.94C232.753 217.925 234.012 218.369 235.009 219.193C236.007 220.017 236.68 221.168 236.907 222.441C237.135 223.714 236.903 225.026 236.253 226.144C235.602 227.262 234.576 228.114 233.356 228.547Z" fill="#24285B"/>
<path d="M227.292 236.2C227.497 235.941 227.629 235.633 227.674 235.306C227.72 234.98 227.678 234.647 227.553 234.342C227.143 233.376 226.344 232.076 225.004 232.262C223.665 232.448 223.386 234.639 224.335 235.977C224.508 236.204 224.732 236.388 224.988 236.515C225.245 236.642 225.527 236.708 225.813 236.708C226.1 236.708 226.382 236.642 226.638 236.515C226.895 236.388 227.119 236.204 227.292 235.977V236.2Z" fill="#F4A28C"/>
<path d="M504.786 220.764C505.749 222.179 506.385 223.791 506.646 225.482C506.642 226 506.762 226.511 506.997 226.974C507.231 227.436 507.573 227.835 507.993 228.139C508.414 228.442 508.901 228.641 509.414 228.718C509.927 228.796 510.451 228.75 510.942 228.584C516.522 227.618 514.662 238.113 521.972 236.924C523.077 236.885 524.14 236.492 525.005 235.803C525.869 235.114 526.488 234.165 526.771 233.098C527.025 231.99 527.523 230.952 528.227 230.059C528.931 229.166 529.825 228.44 530.844 227.934C532.388 227.191 533.578 225.686 532.853 222.696C531.235 215.934 525.989 224.349 524.148 217.123C522.307 209.897 519.238 211.031 517.75 212.331C516.262 213.631 514.737 215.581 512.393 213.204C510.049 210.826 501.512 215.544 504.786 220.764Z" fill="#24285B"/>
<path d="M515.871 236.2C515.666 235.941 515.534 235.633 515.489 235.306C515.443 234.98 515.485 234.647 515.61 234.342C516.02 233.376 516.82 232.076 518.14 232.262C519.461 232.448 519.758 234.639 518.828 235.977C518.655 236.204 518.431 236.388 518.175 236.515C517.918 236.642 517.636 236.708 517.35 236.708C517.063 236.708 516.781 236.642 516.525 236.515C516.268 236.388 516.044 236.204 515.871 235.977V236.2Z" fill="#F4A28C"/>
<path d="M362.495 286.706L367.331 288.154C368.661 288.537 369.861 289.274 370.804 290.284C371.748 291.295 372.399 292.543 372.688 293.894C373.209 296.42 373.246 299.188 371.256 300.024C367.35 301.64 361.063 293.374 361.063 293.374L362.495 286.706Z" fill="#F4A28C"/>
<path d="M383.476 286.706L378.938 288.062C377.462 288.495 376.138 289.334 375.118 290.484C374.099 291.634 373.424 293.048 373.172 294.563C372.781 296.885 372.911 299.262 374.715 300.024C378.621 301.64 384.908 293.374 384.908 293.374L383.476 286.706Z" fill="#F4A28C"/>
<path d="M371.07 267.239C400.234 267.239 423.875 243.629 423.875 214.504C423.875 185.379 400.234 161.769 371.07 161.769C341.906 161.769 318.265 185.379 318.265 214.504C318.265 243.629 341.906 267.239 371.07 267.239Z" fill="#24285B"/>
<path d="M351.745 215.08L364.486 235.81L390.414 198.864" stroke="white" stroke-width="5.075" stroke-linecap="round" stroke-linejoin="round"/>
<path d="M567.691 254.868C579.651 255.908 594.81 266.273 605.151 305.541L568.881 318.543L553.443 273.35C552.694 271.164 552.498 268.828 552.874 266.548C553.25 264.269 554.185 262.118 555.596 260.287C557.007 258.456 558.85 257.003 560.961 256.058C563.071 255.112 565.383 254.703 567.691 254.868Z" fill="#007AFF"/>
<path opacity="0.46" d="M567.691 254.868C579.651 255.908 594.81 266.273 605.151 305.541L568.881 318.543L553.443 273.35C552.694 271.164 552.498 268.828 552.874 266.548C553.25 264.269 554.185 262.118 555.596 260.287C557.007 258.456 558.85 257.003 560.961 256.058C563.071 255.112 565.383 254.703 567.691 254.868Z" fill="white"/>
<path d="M214.328 254.886C214.328 254.886 215.146 245.599 226.064 248.942C236.982 252.286 237.54 256.8 237.54 256.8L214.328 254.886Z" fill="#007AFF"/>
<path opacity="0.46" d="M214.328 254.886C214.328 254.886 215.146 245.599 226.064 248.942C236.982 252.286 237.54 256.8 237.54 256.8L214.328 254.886Z" fill="white"/>
<path d="M603.198 305.541L611.605 335.428C613.592 342.506 612.767 350.076 609.301 356.562C605.836 363.047 599.999 367.946 593.005 370.238L567.56 376.591C566.182 376.924 564.916 377.614 563.89 378.593C562.865 379.571 562.116 380.803 561.72 382.163C560.939 384.857 559.6 387.736 557.386 387.569C548.216 386.751 556.958 373.73 556.958 373.73L581.808 358.239C584.873 356.324 587.109 353.331 588.073 349.851C589.037 346.371 588.66 342.656 587.016 339.44L575.168 316.444L603.198 305.541Z" fill="#F4A28C"/>
<path d="M414.389 326.048H330.559V364.61H414.389V326.048Z" fill="#FFD200"/>
<path opacity="0.34" d="M399.36 379.117H345.997V390.429H399.36V379.117Z" fill="#C9C9C9"/>
<path d="M236.22 351.087C236.22 351.087 242.191 342.041 247.808 346.61C253.425 351.18 239.698 356.381 239.698 356.381L236.22 351.087Z" fill="#F4A28C"/>
<path opacity="0.46" d="M406.02 332.493H361.324V342.078H406.02V332.493Z" fill="white"/>
<path opacity="0.58" d="M434.291 66.9428C434.291 66.9428 420.676 63.2278 417.719 50.5781C417.719 50.5781 438.811 46.3244 439.406 68.0573L434.291 66.9428Z" fill="#007AFF"/>
<path opacity="0.73" d="M435.965 65.587C435.965 65.587 426.461 50.5782 434.831 36.5354C434.831 36.5354 450.864 46.7146 443.74 65.6241L435.965 65.587Z" fill="#007AFF"/>
<path d="M438.42 65.6055C438.42 65.6055 443.442 49.7423 458.62 46.7332C458.62 46.7332 461.466 57.0424 448.799 65.6427L438.42 65.6055Z" fill="#007AFF"/>
<path d="M428.544 65.2339L431.297 84.0877L448.669 84.162L451.236 65.3453L428.544 65.2339Z" fill="#24285B"/>
</svg>
