<svg width="122" height="84" viewBox="0 0 122 84" fill="none" xmlns="http://www.w3.org/2000/svg">
<g clip-path="url(#clip0_0_1)">
<path d="M11.9999 61.2C13.9723 61.2025 15.8632 61.9872 17.2579 63.3819C18.6527 64.7767 19.4373 66.6676 19.4399 68.64V75.36C19.4399 77.3332 18.656 79.2256 17.2607 80.6209C15.8655 82.0161 13.9731 82.8 11.9999 82.8C10.0267 82.8 8.13426 82.0161 6.73899 80.6209C5.34372 79.2256 4.55986 77.3332 4.55986 75.36V68.64C4.5624 66.6676 5.34707 64.7767 6.74179 63.3819C8.13651 61.9872 10.0274 61.2025 11.9999 61.2ZM11.9999 60C9.71034 60.0063 7.5164 60.9187 5.89746 62.5376C4.27851 64.1565 3.3662 66.3505 3.35986 68.64V75.36C3.35986 77.6515 4.27015 79.8491 5.89046 81.4694C7.51077 83.0897 9.70839 84 11.9999 84C14.2913 84 16.489 83.0897 18.1093 81.4694C19.7296 79.8491 20.6399 77.6515 20.6399 75.36V68.64C20.6335 66.3505 19.7212 64.1565 18.1023 62.5376C16.4833 60.9187 14.2894 60.0063 11.9999 60Z" fill="#212121"/>
<path d="M11.9999 69C11.8408 69 11.6882 68.9367 11.5756 68.8242C11.4631 68.7117 11.3999 68.5591 11.3999 68.4V64.68C11.3999 64.5208 11.4631 64.3682 11.5756 64.2557C11.6882 64.1432 11.8408 64.08 11.9999 64.08C12.159 64.08 12.3116 64.1432 12.4242 64.2557C12.5367 64.3682 12.5999 64.5208 12.5999 64.68V68.4C12.5999 68.5591 12.5367 68.7117 12.4242 68.8242C12.3116 68.9367 12.159 69 11.9999 69Z" fill="#212121"/>
</g>
<path d="M12.3536 47.0022C12.1583 47.1975 11.8417 47.1975 11.6464 47.0022L8.46447 43.8203C8.2692 43.625 8.2692 43.3084 8.46447 43.1131C8.65973 42.9179 8.97631 42.9179 9.17157 43.1131L12 45.9416L14.8284 43.1131C15.0237 42.9179 15.3403 42.9179 15.5355 43.1131C15.7308 43.3084 15.7308 43.625 15.5355 43.8203L12.3536 47.0022ZM11.5 46.6487C11.5 36.4843 12.8783 29.2935 16.0659 23.7151C19.2581 18.1287 24.2276 14.224 31.269 10.5565L31.731 11.4434C24.7724 15.0677 19.9919 18.8599 16.9341 24.2112C13.8717 29.5705 12.5 36.5581 12.5 46.6487H11.5Z" fill="#E5E5E5"/>
<path d="M38.48 12.224C37.5093 12.224 36.688 12 36.016 11.552C35.3547 11.104 34.9547 10.3947 34.816 9.424L36.016 9.152C36.1013 9.664 36.2613 10.0693 36.496 10.368C36.7307 10.656 37.0187 10.864 37.36 10.992C37.712 11.1093 38.0853 11.168 38.48 11.168C39.0667 11.168 39.5307 11.0507 39.872 10.816C40.2133 10.5813 40.384 10.2667 40.384 9.872C40.384 9.46667 40.2187 9.184 39.888 9.024C39.568 8.85333 39.1253 8.71467 38.56 8.608L37.904 8.496C37.4027 8.41067 36.944 8.27733 36.528 8.096C36.112 7.91467 35.7813 7.66933 35.536 7.36C35.2907 7.05067 35.168 6.66133 35.168 6.192C35.168 5.488 35.44 4.93867 35.984 4.544C36.528 4.14933 37.248 3.952 38.144 3.952C39.0293 3.952 39.744 4.15467 40.288 4.56C40.8427 4.95467 41.2 5.51467 41.36 6.24L40.176 6.544C40.08 5.97867 39.8507 5.584 39.488 5.36C39.1253 5.12533 38.6773 5.008 38.144 5.008C37.6107 5.008 37.1893 5.10933 36.88 5.312C36.5707 5.504 36.416 5.792 36.416 6.176C36.416 6.54933 36.56 6.82667 36.848 7.008C37.1467 7.17867 37.5413 7.30667 38.032 7.392L38.688 7.504C39.2427 7.6 39.7387 7.73333 40.176 7.904C40.624 8.064 40.976 8.29867 41.232 8.608C41.4987 8.91733 41.632 9.32267 41.632 9.824C41.632 10.592 41.344 11.184 40.768 11.6C40.2027 12.016 39.44 12.224 38.48 12.224ZM47.3655 12.224C46.6082 12.224 45.9255 12.064 45.3175 11.744C44.7202 11.4133 44.2455 10.944 43.8935 10.336C43.5522 9.728 43.3815 9.008 43.3815 8.176V8C43.3815 7.15733 43.5522 6.43733 43.8935 5.84C44.2455 5.232 44.7202 4.768 45.3175 4.448C45.9255 4.11733 46.6082 3.952 47.3655 3.952C48.1122 3.952 48.7468 4.09067 49.2695 4.368C49.8028 4.64533 50.2188 5.01333 50.5175 5.472C50.8268 5.93067 51.0242 6.42133 51.1095 6.944L49.8775 7.2C49.8242 6.816 49.6962 6.464 49.4935 6.144C49.3015 5.824 49.0295 5.568 48.6775 5.376C48.3255 5.184 47.8935 5.088 47.3815 5.088C46.8588 5.088 46.3895 5.20533 45.9735 5.44C45.5682 5.67467 45.2428 6.01067 44.9975 6.448C44.7628 6.88533 44.6455 7.408 44.6455 8.016V8.16C44.6455 8.768 44.7628 9.29067 44.9975 9.728C45.2428 10.1653 45.5682 10.5013 45.9735 10.736C46.3895 10.9707 46.8588 11.088 47.3815 11.088C48.1602 11.088 48.7522 10.8853 49.1575 10.48C49.5735 10.0747 49.8295 9.57333 49.9255 8.976L51.1735 9.248C51.0562 9.76 50.8428 10.2453 50.5335 10.704C50.2242 11.1627 49.8028 11.5307 49.2695 11.808C48.7468 12.0853 48.1122 12.224 47.3655 12.224ZM53.328 12V4.176H54.56V5.136H54.784C54.9227 4.79467 55.136 4.544 55.424 4.384C55.712 4.224 56.0907 4.144 56.56 4.144H57.488V5.296H56.48C55.9147 5.296 55.456 5.456 55.104 5.776C54.7627 6.08533 54.592 6.57067 54.592 7.232V12H53.328ZM62.694 12.224C61.9047 12.224 61.206 12.0587 60.598 11.728C60.0007 11.3973 59.5313 10.9333 59.19 10.336C58.8593 9.728 58.694 9.01333 58.694 8.192V7.984C58.694 7.17333 58.8593 6.464 59.19 5.856C59.5313 5.248 60.0007 4.77867 60.598 4.448C61.206 4.11733 61.9047 3.952 62.694 3.952C63.4833 3.952 64.1767 4.11733 64.774 4.448C65.382 4.77867 65.8513 5.248 66.182 5.856C66.5233 6.464 66.694 7.17333 66.694 7.984V8.192C66.694 9.01333 66.5233 9.728 66.182 10.336C65.8513 10.9333 65.382 11.3973 64.774 11.728C64.1767 12.0587 63.4833 12.224 62.694 12.224ZM62.694 11.088C63.526 11.088 64.1873 10.8267 64.678 10.304C65.1793 9.77067 65.43 9.056 65.43 8.16V8.016C65.43 7.12 65.1793 6.41067 64.678 5.888C64.1873 5.35467 63.526 5.088 62.694 5.088C61.8727 5.088 61.2113 5.35467 60.71 5.888C60.2087 6.41067 59.958 7.12 59.958 8.016V8.16C59.958 9.056 60.2087 9.77067 60.71 10.304C61.2113 10.8267 61.8727 11.088 62.694 11.088ZM68.9686 12V0.799999H70.2326V12H68.9686ZM72.8905 12V0.799999H74.1545V12H72.8905ZM84.2338 12.224C83.5618 12.224 82.9431 12.064 82.3778 11.744C81.8124 11.424 81.3644 10.96 81.0338 10.352C80.7031 9.744 80.5378 9.024 80.5378 8.192V7.984C80.5378 7.152 80.7031 6.43733 81.0338 5.84C81.3644 5.232 81.8071 4.768 82.3618 4.448C82.9271 4.11733 83.5511 3.952 84.2338 3.952C84.7778 3.952 85.2364 4.02667 85.6098 4.176C85.9938 4.31467 86.3031 4.496 86.5378 4.72C86.7724 4.93333 86.9538 5.16267 87.0818 5.408H87.3058V0.799999H88.5698V12H87.3378V10.704H87.1138C86.9004 11.0987 86.5698 11.4507 86.1218 11.76C85.6738 12.0693 85.0444 12.224 84.2338 12.224ZM84.5698 11.104C85.3804 11.104 86.0364 10.848 86.5378 10.336C87.0498 9.81333 87.3058 9.088 87.3058 8.16V8.016C87.3058 7.088 87.0498 6.368 86.5378 5.856C86.0364 5.33333 85.3804 5.072 84.5698 5.072C83.7698 5.072 83.1084 5.33333 82.5858 5.856C82.0738 6.368 81.8178 7.088 81.8178 8.016V8.16C81.8178 9.088 82.0738 9.81333 82.5858 10.336C83.1084 10.848 83.7698 11.104 84.5698 11.104ZM94.8346 12.224C94.0453 12.224 93.3466 12.0587 92.7386 11.728C92.1413 11.3973 91.672 10.9333 91.3306 10.336C91 9.728 90.8346 9.01333 90.8346 8.192V7.984C90.8346 7.17333 91 6.464 91.3306 5.856C91.672 5.248 92.1413 4.77867 92.7386 4.448C93.3466 4.11733 94.0453 3.952 94.8346 3.952C95.624 3.952 96.3173 4.11733 96.9146 4.448C97.5226 4.77867 97.992 5.248 98.3226 5.856C98.664 6.464 98.8346 7.17333 98.8346 7.984V8.192C98.8346 9.01333 98.664 9.728 98.3226 10.336C97.992 10.9333 97.5226 11.3973 96.9146 11.728C96.3173 12.0587 95.624 12.224 94.8346 12.224ZM94.8346 11.088C95.6666 11.088 96.328 10.8267 96.8186 10.304C97.32 9.77067 97.5706 9.056 97.5706 8.16V8.016C97.5706 7.12 97.32 6.41067 96.8186 5.888C96.328 5.35467 95.6666 5.088 94.8346 5.088C94.0133 5.088 93.352 5.35467 92.8506 5.888C92.3493 6.41067 92.0986 7.12 92.0986 8.016V8.16C92.0986 9.056 92.3493 9.77067 92.8506 10.304C93.352 10.8267 94.0133 11.088 94.8346 11.088ZM102.041 12L100.473 4.176H101.753L103.049 11.152H103.273L104.985 4.176H107.081L108.793 11.152H109.017L110.313 4.176H111.593L110.025 12H107.865L106.137 5.024H105.929L104.201 12H102.041ZM113.766 12V4.176H114.998V5.504H115.222C115.392 5.13067 115.68 4.79467 116.086 4.496C116.502 4.18667 117.11 4.032 117.91 4.032C118.496 4.032 119.019 4.15467 119.478 4.4C119.947 4.64533 120.32 5.008 120.598 5.488C120.875 5.968 121.014 6.56 121.014 7.264V12H119.75V7.36C119.75 6.58133 119.552 6.016 119.158 5.664C118.774 5.312 118.251 5.136 117.59 5.136C116.832 5.136 116.214 5.38133 115.734 5.872C115.264 6.36267 115.03 7.09333 115.03 8.064V12H113.766Z" fill="#C0C0C0"/>
<defs>
<clipPath id="clip0_0_1">
<rect width="24" height="24" fill="white" transform="translate(0 60)"/>
</clipPath>
</defs>
</svg>
