<svg width="472" height="376" viewBox="0 0 472 376" fill="none" xmlns="http://www.w3.org/2000/svg">
<path fill-rule="evenodd" clip-rule="evenodd" d="M152.444 83.5556V52.2222C152.444 23.3807 175.825 0 204.667 0H288.222C363.21 0 424 60.7898 424 135.778C424 199.981 379.438 253.777 319.556 267.922V323.778C319.556 352.619 296.175 376 267.333 376H100.222C71.3807 376 48 352.619 48 323.778V135.778C48 106.936 71.3807 83.5556 100.222 83.5556H152.444ZM131.556 104.444V240.222C131.556 269.064 154.936 292.444 183.778 292.444H267.333C278.118 292.444 288.608 291.187 298.667 288.811V156.667C298.667 127.825 275.286 104.444 246.444 104.444H131.556Z" fill="url(#paint0_linear_355_5108)"/>
<defs>
<linearGradient id="paint0_linear_355_5108" x1="236" y1="-188" x2="-140" y2="188" gradientUnits="userSpaceOnUse">
<stop stop-color="#007AFF"/>
<stop offset="1" stop-color="#007AFF" stop-opacity="0.12"/>
</linearGradient>
</defs>
</svg>
