<svg width="1440" height="1026" viewBox="0 0 1440 1026" fill="none" xmlns="http://www.w3.org/2000/svg">
<rect x="744" y="88" width="696" height="561" fill="url(#paint0_linear_738_3786)"/>
<g filter="url(#filter0_b_738_3786)">
<circle r="387.605" transform="matrix(-0.915384 0.402582 0.402582 0.915384 908.785 516.85)" fill="url(#paint1_radial_738_3786)" fill-opacity="0.52"/>
<circle r="387.605" transform="matrix(-0.915384 0.402582 0.402582 0.915384 908.785 516.85)" fill="url(#paint2_radial_738_3786)"/>
<circle r="387.605" transform="matrix(-0.915384 0.402582 0.402582 0.915384 908.785 516.85)" fill="url(#paint3_radial_738_3786)" fill-opacity="0.7"/>
<circle r="387.605" transform="matrix(-0.915384 0.402582 0.402582 0.915384 908.785 516.85)" fill="url(#paint4_radial_738_3786)" fill-opacity="0.7"/>
<circle r="387.605" transform="matrix(-0.915384 0.402582 0.402582 0.915384 908.785 516.85)" fill="url(#paint5_radial_738_3786)" fill-opacity="0.6"/>
<circle r="387.605" transform="matrix(-0.915384 0.402582 0.402582 0.915384 908.785 516.85)" fill="url(#paint6_radial_738_3786)" fill-opacity="0.6"/>
<circle r="387.605" transform="matrix(-0.915384 0.402582 0.402582 0.915384 908.785 516.85)" fill="url(#paint7_radial_738_3786)" fill-opacity="0.5"/>
</g>
<g filter="url(#filter1_i_738_3786)">
<path d="M1051.78 396.682L990.395 396.682L930.013 287.994L994.42 287.994L1053.68 394.669L1051.78 396.682Z" fill="url(#paint8_linear_738_3786)"/>
</g>
<g filter="url(#filter2_i_738_3786)">
<path d="M930.013 287.994L994.42 287.994L1053.68 181.318L1051.78 179.306H990.395L930.013 287.994Z" fill="url(#paint9_linear_738_3786)"/>
</g>
<g filter="url(#filter3_d_738_3786)">
<path d="M1251.69 136.711C1254.84 133.577 1254.86 128.479 1251.72 125.325C1248.59 122.171 1243.49 122.155 1240.34 125.289L1251.69 136.711ZM922.325 441.289C919.171 444.423 919.155 449.521 922.289 452.675C925.423 455.829 930.521 455.845 933.675 452.711L922.325 441.289ZM1240.34 125.289L922.325 441.289L933.675 452.711L1251.69 136.711L1240.34 125.289Z" fill="white"/>
</g>
<g filter="url(#filter4_i_738_3786)">
<path d="M1117.2 179.306H1181.61L1241.99 287.994H1177.58L1118.32 181.318L1117.2 179.306Z" fill="url(#paint10_linear_738_3786)"/>
</g>
<g filter="url(#filter5_i_738_3786)">
<path d="M1241.99 287.994H1177.58L1117.2 396.682H1181.61L1241.99 287.994Z" fill="url(#paint11_linear_738_3786)"/>
</g>
<g filter="url(#filter6_f_738_3786)">
<path fill-rule="evenodd" clip-rule="evenodd" d="M1273.22 549.254C1286.6 564.965 1306.53 574.929 1328.79 574.929C1348.16 574.929 1365.77 567.378 1378.83 555.059C1388.94 567.2 1404.16 574.929 1421.19 574.929C1451.6 574.929 1476.25 550.276 1476.25 519.865C1476.25 489.453 1451.6 464.8 1421.19 464.8C1411.73 464.8 1402.83 467.184 1395.05 471.384C1383.49 446.362 1358.16 429 1328.79 429C1293.06 429 1263.32 454.684 1257.04 488.596C1255.91 488.48 1254.75 488.42 1253.58 488.42C1235.04 488.42 1220 503.457 1220 522.005C1220 540.553 1235.04 555.589 1253.58 555.589C1260.91 555.589 1267.7 553.24 1273.22 549.254Z" fill="#FFF8F7"/>
</g>
<path fill-rule="evenodd" clip-rule="evenodd" d="M240 408H180V468H120V528H60V588H0V648H60H120H180H240V408Z" fill="url(#paint12_linear_738_3786)"/>
<rect y="543" width="1440" height="483" fill="url(#paint13_linear_738_3786)"/>
<defs>
<filter id="filter0_b_738_3786" x="421.082" y="29.1478" width="975.405" height="975.405" filterUnits="userSpaceOnUse" color-interpolation-filters="sRGB">
<feFlood flood-opacity="0" result="BackgroundImageFix"/>
<feGaussianBlur in="BackgroundImage" stdDeviation="50"/>
<feComposite in2="SourceAlpha" operator="in" result="effect1_backgroundBlur_738_3786"/>
<feBlend mode="normal" in="SourceGraphic" in2="effect1_backgroundBlur_738_3786" result="shape"/>
</filter>
<filter id="filter1_i_738_3786" x="930.013" y="287.994" width="123.672" height="108.688" filterUnits="userSpaceOnUse" color-interpolation-filters="sRGB">
<feFlood flood-opacity="0" result="BackgroundImageFix"/>
<feBlend mode="normal" in="SourceGraphic" in2="BackgroundImageFix" result="shape"/>
<feColorMatrix in="SourceAlpha" type="matrix" values="0 0 0 0 0 0 0 0 0 0 0 0 0 0 0 0 0 0 127 0" result="hardAlpha"/>
<feOffset dx="2.01274" dy="-2.01274"/>
<feComposite in2="hardAlpha" operator="arithmetic" k2="-1" k3="1"/>
<feColorMatrix type="matrix" values="0 0 0 0 0 0 0 0 0 0 0 0 0 0 0 0 0 0 0.08 0"/>
<feBlend mode="normal" in2="shape" result="effect1_innerShadow_738_3786"/>
</filter>
<filter id="filter2_i_738_3786" x="930.013" y="179.306" width="123.672" height="108.688" filterUnits="userSpaceOnUse" color-interpolation-filters="sRGB">
<feFlood flood-opacity="0" result="BackgroundImageFix"/>
<feBlend mode="normal" in="SourceGraphic" in2="BackgroundImageFix" result="shape"/>
<feColorMatrix in="SourceAlpha" type="matrix" values="0 0 0 0 0 0 0 0 0 0 0 0 0 0 0 0 0 0 127 0" result="hardAlpha"/>
<feOffset dx="2.01274" dy="2.01274"/>
<feComposite in2="hardAlpha" operator="arithmetic" k2="-1" k3="1"/>
<feColorMatrix type="matrix" values="0 0 0 0 0 0 0 0 0 0 0 0 0 0 0 0 0 0 0.12 0"/>
<feBlend mode="normal" in2="shape" result="effect1_innerShadow_738_3786"/>
</filter>
<filter id="filter3_d_738_3786" x="903.847" y="106.847" width="366.319" height="364.306" filterUnits="userSpaceOnUse" color-interpolation-filters="sRGB">
<feFlood flood-opacity="0" result="BackgroundImageFix"/>
<feColorMatrix in="SourceAlpha" type="matrix" values="0 0 0 0 0 0 0 0 0 0 0 0 0 0 0 0 0 0 127 0" result="hardAlpha"/>
<feOffset/>
<feGaussianBlur stdDeviation="8.05096"/>
<feComposite in2="hardAlpha" operator="out"/>
<feColorMatrix type="matrix" values="0 0 0 0 1 0 0 0 0 0.99 0 0 0 0 0.9 0 0 0 1 0"/>
<feBlend mode="normal" in2="BackgroundImageFix" result="effect1_dropShadow_738_3786"/>
<feBlend mode="normal" in="SourceGraphic" in2="effect1_dropShadow_738_3786" result="shape"/>
</filter>
<filter id="filter4_i_738_3786" x="1117.2" y="179.306" width="124.79" height="108.688" filterUnits="userSpaceOnUse" color-interpolation-filters="sRGB">
<feFlood flood-opacity="0" result="BackgroundImageFix"/>
<feBlend mode="normal" in="SourceGraphic" in2="BackgroundImageFix" result="shape"/>
<feColorMatrix in="SourceAlpha" type="matrix" values="0 0 0 0 0 0 0 0 0 0 0 0 0 0 0 0 0 0 127 0" result="hardAlpha"/>
<feOffset dx="3.01911"/>
<feComposite in2="hardAlpha" operator="arithmetic" k2="-1" k3="1"/>
<feColorMatrix type="matrix" values="0 0 0 0 0 0 0 0 0 0 0 0 0 0 0 0 0 0 0.12 0"/>
<feBlend mode="normal" in2="shape" result="effect1_innerShadow_738_3786"/>
</filter>
<filter id="filter5_i_738_3786" x="1117.2" y="287.994" width="124.79" height="108.688" filterUnits="userSpaceOnUse" color-interpolation-filters="sRGB">
<feFlood flood-opacity="0" result="BackgroundImageFix"/>
<feBlend mode="normal" in="SourceGraphic" in2="BackgroundImageFix" result="shape"/>
<feColorMatrix in="SourceAlpha" type="matrix" values="0 0 0 0 0 0 0 0 0 0 0 0 0 0 0 0 0 0 127 0" result="hardAlpha"/>
<feOffset dx="3.01911"/>
<feComposite in2="hardAlpha" operator="arithmetic" k2="-1" k3="1"/>
<feColorMatrix type="matrix" values="0 0 0 0 0 0 0 0 0 0 0 0 0 0 0 0 0 0 0.12 0"/>
<feBlend mode="normal" in2="shape" result="effect1_innerShadow_738_3786"/>
</filter>
<filter id="filter6_f_738_3786" x="1209" y="418" width="278.25" height="167.929" filterUnits="userSpaceOnUse" color-interpolation-filters="sRGB">
<feFlood flood-opacity="0" result="BackgroundImageFix"/>
<feBlend mode="normal" in="SourceGraphic" in2="BackgroundImageFix" result="shape"/>
<feGaussianBlur stdDeviation="5.5" result="effect1_foregroundBlur_738_3786"/>
</filter>
<linearGradient id="paint0_linear_738_3786" x1="1392.15" y1="98.0178" x2="918.718" y2="751.299" gradientUnits="userSpaceOnUse">
<stop stop-color="#FDE1E1"/>
<stop offset="0.12469" stop-color="#F4EECC"/>
<stop offset="1" stop-color="#FAF8F1"/>
</linearGradient>
<radialGradient id="paint1_radial_738_3786" cx="0" cy="0" r="1" gradientUnits="userSpaceOnUse" gradientTransform="translate(441.361 437.624) rotate(-130.667) scale(427.105 574.534)">
<stop stop-color="#FF6E4E" stop-opacity="0"/>
<stop offset="0.62944" stop-color="#FFB84E" stop-opacity="0"/>
<stop offset="0.848958" stop-color="#FF7272" stop-opacity="0.69"/>
<stop offset="1" stop-color="#FF784E" stop-opacity="0.12"/>
</radialGradient>
<radialGradient id="paint2_radial_738_3786" cx="0" cy="0" r="1" gradientUnits="userSpaceOnUse" gradientTransform="translate(420.309 346.018) rotate(94.3575) scale(430.436 469.028)">
<stop stop-color="#FFC69C" stop-opacity="0"/>
<stop offset="0.71875" stop-color="#FFC69C" stop-opacity="0.16"/>
<stop offset="0.87346" stop-color="#FFAE9C"/>
<stop offset="1" stop-color="#FFC69C" stop-opacity="0"/>
</radialGradient>
<radialGradient id="paint3_radial_738_3786" cx="0" cy="0" r="1" gradientUnits="userSpaceOnUse" gradientTransform="translate(130.885 252.183) rotate(37.7563) scale(208.13 391.427)">
<stop stop-color="#E7A4FF"/>
<stop offset="1" stop-color="#FFAE9C" stop-opacity="0"/>
</radialGradient>
<radialGradient id="paint4_radial_738_3786" cx="0" cy="0" r="1" gradientUnits="userSpaceOnUse" gradientTransform="translate(206.413 227.347) rotate(147.676) scale(163.04 108.253)">
<stop stop-color="#C9FFF5"/>
<stop offset="1" stop-color="#C9FFF5" stop-opacity="0"/>
</radialGradient>
<radialGradient id="paint5_radial_738_3786" cx="0" cy="0" r="1" gradientUnits="userSpaceOnUse" gradientTransform="translate(743.491 538.638) rotate(-118.354) scale(248.634 498.359)">
<stop stop-color="#FBF3FF"/>
<stop offset="0.385417" stop-color="#F0D8FF"/>
<stop offset="1" stop-color="#E7BFFF" stop-opacity="0"/>
</radialGradient>
<radialGradient id="paint6_radial_738_3786" cx="0" cy="0" r="1" gradientUnits="userSpaceOnUse" gradientTransform="translate(554.78 652.389) rotate(143.696) scale(207.443 106.436)">
<stop stop-color="#FFCB66"/>
<stop offset="1" stop-color="#FFB866" stop-opacity="0"/>
</radialGradient>
<radialGradient id="paint7_radial_738_3786" cx="0" cy="0" r="1" gradientUnits="userSpaceOnUse" gradientTransform="translate(205.73 592.859) rotate(-142.209) scale(130.44 103.822)">
<stop stop-color="white"/>
<stop offset="1" stop-color="white" stop-opacity="0"/>
</radialGradient>
<linearGradient id="paint8_linear_738_3786" x1="930.013" y1="287.994" x2="1071.76" y2="365.783" gradientUnits="userSpaceOnUse">
<stop stop-color="#F2D7E2"/>
<stop offset="0.338542" stop-color="#F2E5F1"/>
<stop offset="0.369792" stop-color="#F3EDFA"/>
<stop offset="1" stop-color="#FFFAE0"/>
</linearGradient>
<linearGradient id="paint9_linear_738_3786" x1="992.408" y1="179.306" x2="992.408" y2="287.994" gradientUnits="userSpaceOnUse">
<stop stop-color="#FF97A5"/>
<stop offset="1" stop-color="#EFBAC1"/>
</linearGradient>
<linearGradient id="paint10_linear_738_3786" x1="1100.09" y1="71.8816" x2="1213.92" y2="268.079" gradientUnits="userSpaceOnUse">
<stop stop-color="#F1EBFF"/>
<stop offset="1" stop-color="#FFFAE0"/>
</linearGradient>
<linearGradient id="paint11_linear_738_3786" x1="1177.58" y1="287.994" x2="1180.75" y2="396.648" gradientUnits="userSpaceOnUse">
<stop stop-color="#FF97A5"/>
<stop offset="1" stop-color="#FBC6B1"/>
</linearGradient>
<linearGradient id="paint12_linear_738_3786" x1="-8.56393e-06" y1="648" x2="240" y2="408" gradientUnits="userSpaceOnUse">
<stop stop-color="#FFCE63"/>
<stop offset="0.552083" stop-color="#F1EDDD"/>
<stop offset="1" stop-color="#F7E9FF"/>
</linearGradient>
<linearGradient id="paint13_linear_738_3786" x1="720" y1="718" x2="720" y2="543" gradientUnits="userSpaceOnUse">
<stop stop-color="white"/>
<stop offset="1" stop-color="white" stop-opacity="0"/>
</linearGradient>
</defs>
</svg>
