<svg width="44" height="44" viewBox="0 0 44 44" fill="none" xmlns="http://www.w3.org/2000/svg">
<circle cx="27.1667" cy="17.3334" r="16.6667" fill="#F59ED2"/>
<circle cx="27.1667" cy="17.3334" r="16.6667" fill="url(#paint0_linear_235_824)"/>
<path d="M16.0167 28.4999L18.5167 30.9999L25.1833 24.3333" stroke="#2656C9" stroke-width="2" stroke-linecap="round" stroke-linejoin="round"/>
<path d="M17.1666 13.9999H23.8333C27.1666 13.9999 27.1666 12.3333 27.1666 10.6666C27.1666 7.33325 25.5 7.33325 23.8333 7.33325H17.1666C15.5 7.33325 13.8333 7.33325 13.8333 10.6666C13.8333 13.9999 15.5 13.9999 17.1666 13.9999Z" stroke="#1F1F1F" stroke-width="2" stroke-linecap="round" stroke-linejoin="round"/>
<path d="M27.1667 10.7C32.7167 11 35.5 13.05 35.5 20.6666V30.6666C35.5 37.3333 33.8333 40.6666 25.5 40.6666H15.5C7.16667 40.6666 5.5 37.3333 5.5 30.6666V20.6666C5.5 13.0666 8.28333 11 13.8333 10.7" stroke="#1F1F1F" stroke-width="2" stroke-linecap="round" stroke-linejoin="round"/>
<defs>
<linearGradient id="paint0_linear_235_824" x1="27.1667" y1="0.666748" x2="27.1667" y2="34.0001" gradientUnits="userSpaceOnUse">
<stop stop-color="#73B6FF"/>
<stop offset="1" stop-color="#FFDAC5"/>
</linearGradient>
</defs>
</svg>
