<svg width="100" height="160" viewBox="0 0 100 160" fill="none" xmlns="http://www.w3.org/2000/svg">
<path d="M0 50C0 22.3858 22.3858 0 50 0V0C77.6142 0 100 22.3858 100 50V110C100 137.614 77.6142 160 50 160V160C22.3858 160 0 137.614 0 110V50Z" fill="#FD5045" fill-opacity="0.12"/>
<path d="M64.313 135.528H41.4896C41.0731 135.528 40.7399 135.855 40.7399 136.264C40.7399 136.673 41.0731 137 41.4896 137H67.961H86.8094C87.2207 137 87.5498 136.673 87.5498 136.264C87.5498 135.855 87.2207 135.528 86.8094 135.528H64.313Z" fill="#DE3190"/>
<path d="M87.031 135.544C87.0647 135.478 87.0902 135.407 87.106 135.331V135.315C87.106 135.233 87.1224 135.151 87.106 135.07C87.0895 134.971 87.0895 134.89 87.0566 134.791C86.8427 134.055 86.2668 133.434 85.8884 133.09C85.8391 133.041 85.8062 133.025 85.7568 132.992C85.0328 132.55 84.2924 132.141 83.5191 131.798C82.0054 131.111 78.6489 129.704 77.6453 129.197C76.3455 128.542 74.552 127.43 72.6763 125.434C72.5283 125.319 72.3637 125.27 72.1827 125.27L60.8793 125.336C60.4021 125.336 60.0237 125.728 60.0566 126.219L60.1629 130.116C59.6843 129.891 59.1976 129.642 58.6501 129.327C57.872 128.886 56.7794 128.166 55.5544 127.086C54.8757 126.497 54.1804 125.908 53.5017 125.319L43.2546 125.188L41.1144 135.667C41.2379 135.579 41.3903 135.528 41.5558 135.528H64.3792H86.8756C86.929 135.528 86.981 135.533 87.031 135.544Z" fill="#474961"/>
<path opacity="0.176986" d="M67.7879 135.528H86.849C86.8917 135.453 86.9234 135.37 86.9419 135.282V135.266C86.9419 135.184 86.9584 135.102 86.9419 135.02C86.9255 134.922 86.9255 134.84 86.8925 134.742C86.6787 134.006 86.1028 133.385 85.7244 133.041C85.675 132.992 85.6421 132.976 85.5927 132.943C84.8688 132.501 84.1284 132.092 83.3551 131.749C81.8414 131.061 78.4849 129.655 77.4812 129.147C76.1814 128.493 74.388 127.381 72.5123 125.385C72.3642 125.27 72.1997 125.221 72.0187 125.221L60.7152 125.287C60.2381 125.287 60.0202 125.631 60.0531 126.122L60.164 130.2C61.2959 130.721 62.427 131.139 64.2691 132.01C65.0589 132.387 65.8158 132.812 66.5562 133.286C66.9181 133.614 67.5434 134.284 67.7408 135.07C67.7737 135.2 67.7737 135.331 67.7902 135.446C67.7902 135.473 67.7894 135.501 67.7879 135.528Z" fill="#444444"/>
<path d="M62.3318 127.548C62.3882 127.555 62.4454 127.558 62.5032 127.558L73.1877 127.444H74.0512C74.9001 127.444 75.6173 126.793 75.6612 125.829C75.7637 123.884 75.8954 121.324 76.0564 118.365C76.4955 110.901 76.7297 108.523 76.9931 102.771C77.037 101.807 77.0809 100.943 77.1102 100.128C77.2273 96.2546 77.5346 92.6306 78.1347 87.8927C78.4714 85.266 78.6324 83.6369 78.647 82.2571C78.6616 80.977 78.325 79.7136 77.681 78.6662C77.359 78.1509 76.9931 77.702 76.554 77.3197C75.427 76.3389 73.9195 75.5076 72.7193 75.5908C69.6086 75.6053 66.4979 75.6071 63.3872 75.6183C62.7356 75.4647 62.0087 75.3887 61.2066 75.3905L59.6467 75.4068C59.6556 75.3882 53.0875 75.3536 39.9426 75.3031C35.8706 72.1249 31.3714 70.7922 26.445 71.3052C24.4787 71.5099 22.6971 72.0678 21.1002 72.979C19.3373 73.9712 17.798 75.3912 16.4824 77.239C15.6712 78.0824 13.2359 81.9319 13.7195 87.7951C13.8131 88.8748 14.0159 91.2796 15.3263 93.57C16.699 95.9584 18.3837 97.7089 21.2072 98.7068C23.7031 99.5902 26.6202 99.901 29.6464 99.5575C33.9102 98.7504 38.8416 98.0797 44.4405 97.5453C42.9286 101.659 41.9491 104.245 41.5019 105.303C40.8311 106.874 39.0102 113.654 38.3262 118.849C37.9917 121.389 38.1085 123.636 38.6766 125.587C39.0231 126.778 40.1199 127.597 41.3663 127.596L55.3697 127.581L61.6562 127.548H62.3318Z" fill="#3ABF7C"/>
<path opacity="0.176986" d="M63.1603 75.6191C64.548 75.9137 65.6069 76.5478 66.337 77.5214C67.9133 79.6233 67.4592 81.644 67.4592 82.8873V82.9691C67.4436 84.327 67.272 85.9302 66.9288 88.515C66.2892 93.1774 65.9616 96.7274 65.8368 100.555C65.8056 101.341 65.7588 102.208 65.712 103.157C65.4468 108.801 65.1817 111.14 64.7137 118.502C64.5265 121.414 64.3861 123.917 64.2925 125.847C64.2457 126.796 63.4813 127.548 62.5766 127.548H62.3271C62.385 127.556 62.4438 127.561 62.5032 127.561L73.1877 127.444H74.0512C74.9001 127.444 75.6612 126.745 75.6612 125.671C75.7637 123.732 75.8954 121.18 76.0564 118.23C76.4955 110.79 76.7297 108.42 76.9931 102.686C77.037 101.725 77.0809 100.863 77.1102 100.051C77.2273 96.1897 77.5346 92.577 78.1347 87.854C78.4714 85.2357 78.6324 83.6116 78.647 82.2361C78.6616 80.9601 78.325 79.7006 77.681 78.6566C77.359 78.1429 76.9931 77.6954 76.554 77.3143C75.427 76.3365 73.9195 75.5079 72.7193 75.5908C69.533 75.6056 66.3466 75.6072 63.1603 75.6191Z" fill="#444444"/>
<path d="M37.6493 45.4795C39.0807 46.5899 40.2369 48.2982 40.4535 48.9248C42.2502 54.1205 44.4141 53.9146 44.5869 55.0401C44.8453 56.7239 42.8628 56.9287 42.8628 56.9287C41.9421 57.0165 41.2421 57.0834 40.7628 57.1295L40.6489 61.7768L40.6382 61.9408L40.4467 70.083L40.4037 71.6724C40.4083 71.8032 40.3959 71.9182 40.384 72.0495C40.3728 72.1973 40.3609 72.3286 40.3496 72.4763C40.3135 72.8541 40.2439 73.2166 40.1415 73.5803C40.0973 73.7292 40.0696 73.8775 40.009 74.0269C26.3171 74.5023 19.4295 73.5519 19.346 71.1758L19.6872 56.9933L17.6107 56.9234C17.6107 56.9234 15.3538 56.7722 15.6115 55.0786C15.7837 53.9465 18.2589 54.0386 20.1948 48.7605C20.4606 48.0358 22.0854 45.8486 24.0053 44.723C24.0661 44.6873 24.1271 44.6528 24.1884 44.6193C25.4989 43.8833 27.0196 43.4784 28.6313 43.5166L32.4213 43.6142C34.4077 43.6534 36.2178 44.3462 37.6493 45.4795Z" fill="#DE3190"/>
<path opacity="0.176986" d="M39.4316 47.2777C39.975 47.9671 40.3535 48.6026 40.4682 48.9346C42.2649 54.1303 44.4147 53.9147 44.5875 55.0402C44.8459 56.724 42.8869 56.9237 42.8869 56.9237L40.8171 57.1228L40.9274 52.6261L40.9335 52.3313C40.9849 50.458 40.4251 48.711 39.4316 47.2777Z" fill="#444444"/>
<path d="M30.0684 36.7769C30.0386 36.7496 30.0092 36.7211 29.9802 36.6913C29.4591 36.1452 29.1541 35.2774 29.4416 34.4385C29.7093 33.6304 30.5067 32.9757 31.2973 33.0089C31.7426 33.0225 32.938 33.2945 32.9301 32.9003L32.8434 28.7274C32.8382 28.4646 33.0439 28.2401 33.3092 28.235C33.8905 28.2135 34.4606 28.1418 35.0738 27.9761C35.1409 27.9667 35.2081 27.9573 35.2753 27.9479C35.8308 27.8583 38.9483 27.478 40.7348 29.664C40.8976 29.8449 41.0406 30.0565 41.1801 30.3005C41.5014 30.8586 41.6652 31.4986 41.6618 32.1539L41.6502 35.0707C41.6356 35.3642 41.621 35.6578 41.5737 35.9479C41.0068 39.5773 39.494 42.141 38.1213 42.2931C37.9525 42.3247 37.0698 42.3803 36.0199 42.1398C35.9242 42.1136 36.0006 42.1537 34.6316 41.6756L34.4054 43.8889C33.7521 43.7195 33.0674 43.6231 32.3603 43.6092L29.5336 43.5367L29.8907 40.1699L30.0455 38.7106L30.0684 36.7769ZM40.4793 68.3205L40.6178 62.452L40.6323 61.9011L40.6406 61.775L40.7068 59.0825L40.7583 57.1342L42.0962 57.0063L46.7135 69.4992C47.1448 69.5804 47.6442 69.6815 48.2292 69.8054C49.1707 69.8003 49.95 69.8217 50.5672 69.8697C53.0667 70.064 55.2142 70.145 57.7286 71.6307C62.3123 74.339 62.6696 75.5859 58.8007 75.3716L50.9091 75.3261C50.8109 75.3617 50.7126 75.3848 50.6147 75.3933C50.6147 75.3933 39.0822 75.2924 16.0174 75.0905C15.0896 75.0824 14.2184 74.646 13.6597 73.9096C13.391 73.5554 13.1959 72.9073 13.0743 71.9654C12.6976 69.9779 13.7741 67.1317 15.8195 61.6027C16.47 59.8498 17.0861 58.2561 17.6659 56.8399L30.4151 57.3196C29.4317 59.7486 27.6968 65.5265 27.2053 66.4121C27.2041 66.4127 27.203 66.4132 27.2018 66.4138C30.8732 66.9056 35.2721 67.5152 40.4793 68.3205Z" fill="#F2A98A"/>
<path d="M34.5092 42.8876L32.9805 40.9601L34.6367 41.6748L34.5092 42.8876Z" fill="#482D1F"/>
<path d="M33.1912 34.2086C33.1238 34.0876 32.8658 33.663 32.3951 33.3346C32.3495 33.2969 31.9921 33.0786 31.5468 33.065C30.7562 33.0317 29.9588 33.6886 29.6911 34.4996C29.4036 35.3414 29.6923 36.2105 30.2134 36.7584C30.6158 37.1815 31.1043 37.3488 31.4032 37.4208C31.4003 37.9765 31.4119 38.5802 31.438 39.2319C30.162 39.1489 29.0376 38.5959 28.0649 37.5731C27.6626 37.1527 26.5945 35.9884 26.2618 34.1277C26.2236 33.8911 26.1477 33.439 26.1411 32.8791C23.6093 32.9205 21.5618 31.7961 20.8088 30.2008C20.1073 28.6985 20.5942 26.8998 20.6634 26.6451C21.3579 24.0824 23.6965 24.1119 23.8966 24.1068C23.8966 24.1068 27.2679 22.9424 29.9328 28.3038C29.9345 28.3073 29.9362 28.3107 29.9379 28.3141C30.7018 28.2547 31.6285 28.3083 33.0403 28.2234C33.5562 28.195 34.3087 28.0697 35.2327 27.936C35.2982 27.9428 36.0882 27.863 36.1553 27.8536C36.4891 27.8536 37.6076 27.7487 39.0539 28.3927C40.5001 29.0366 41.0339 30.005 41.0124 30.0456C40.9711 30.1235 40.2326 30.4555 39.7917 30.5574C38.5542 30.8393 37.4794 30.6777 36.8188 30.5099C36.6449 30.903 36.3987 31.3543 36.0706 31.7971C35.1209 33.1125 33.9239 33.7934 33.1773 34.1266C33.1819 34.1539 33.1865 34.1813 33.1912 34.2086Z" fill="#482D1F"/>
<path d="M40.5742 34.9136C40.5932 34.6897 40.7726 34.5232 40.9985 34.5246C41.1368 34.515 41.265 34.6088 41.3337 34.8437C41.4781 35.4157 40.9306 36.2756 40.6807 35.9334C40.5268 35.7216 40.5612 35.2227 40.5742 34.9136ZM36.9403 34.8383C36.9593 34.6144 37.1387 34.4479 37.3647 34.4493C37.503 34.4397 37.6312 34.5335 37.6998 34.7684C37.8443 35.3404 37.2967 36.2003 37.0468 35.8581C36.8929 35.6462 36.9273 35.1474 36.9403 34.8383Z" fill="#482D1F"/>
<path d="M39.7289 35.0884L39.9879 36.6606C40.0027 36.8604 39.8629 37.0551 39.6709 37.0685C39.5581 37.0852 39.4853 37.0903 39.1928 37.1052C39.062 37.1119 38.9724 37.117 38.8667 37.1244C38.776 37.1307 38.6974 37.0627 38.6911 36.9726C38.6847 36.8825 38.7531 36.8043 38.8437 36.798C38.9518 36.7905 39.0432 36.7852 39.1759 36.7785C39.4567 36.7641 39.525 36.7594 39.6358 36.7434C39.6432 36.7424 39.6626 36.7154 39.6614 36.6984L39.4042 35.1413C39.3895 35.0522 39.4503 34.9681 39.5399 34.9535C39.6296 34.9388 39.7142 34.9993 39.7289 35.0884Z" fill="#482D1F"/>
<path d="M38.6934 38.1265C38.5814 38.0984 38.3068 37.992 38.2629 37.8156C38.2604 37.7799 38.241 37.7275 38.2554 37.7085C38.3117 37.6149 38.52 37.6722 38.8053 37.7062C39.3121 37.7606 39.7344 37.7313 39.7344 37.7313C39.7344 37.7313 39.615 38.0445 39.5431 38.1392C39.3861 38.3654 38.8705 38.186 38.6934 38.1265Z" fill="#482D1F"/>
<path d="M34.4736 34.1556C34.7674 33.3164 35.5412 32.689 36.4892 32.6231C37.7583 32.5349 38.859 33.4863 38.9478 34.7481C38.949 34.7663 38.9501 34.7845 38.9509 34.8027C38.9717 34.7987 38.9932 34.7973 39.0153 34.7989L39.4786 34.8311C39.5802 33.733 40.4695 32.8383 41.6118 32.7589C42.8808 32.6707 43.9816 33.6221 44.0703 34.8839C44.159 36.1457 43.2022 37.2402 41.9331 37.3284C40.7047 37.4138 39.6339 36.5251 39.4862 35.3236L38.9809 35.2884C38.961 35.2871 38.9418 35.2834 38.9237 35.2777C38.7559 36.3029 37.8978 37.117 36.8106 37.1926C35.5415 37.2808 34.4408 36.3294 34.352 35.0676C34.3417 34.9203 34.3456 34.7753 34.3625 34.6339L33.1646 34.3414C33.0322 34.3091 32.9512 34.1762 32.9837 34.0446C33.0162 33.9129 33.1499 33.8325 33.2823 33.8648L34.4736 34.1556ZM39.9642 35.1192C39.9649 35.1358 39.9658 35.1525 39.967 35.1692C40.0367 36.1606 40.9016 36.9081 41.8987 36.8388C42.8958 36.7695 43.6476 35.9096 43.5779 34.9181C43.5082 33.9267 42.6433 33.1792 41.6462 33.2485C40.6873 33.3152 39.9553 34.1129 39.9626 35.0557C39.9654 35.0736 39.9662 35.0921 39.9649 35.1109C39.9647 35.1137 39.9644 35.1164 39.9642 35.1192ZM36.7761 36.703C37.7733 36.6337 38.5251 35.7737 38.4554 34.7823C38.3856 33.7909 37.5208 33.0434 36.5236 33.1127C35.5265 33.182 34.7747 34.0419 34.8444 35.0334C34.9142 36.0248 35.779 36.7723 36.7761 36.703Z" fill="#482D1F"/>
<path d="M25.3514 67.808C25.2318 67.8729 25.0818 67.8291 25.0165 67.7102C24.9512 67.5912 24.9953 67.4421 25.1149 67.3772L27.1716 66.2612C27.2913 66.1962 27.4412 66.24 27.5065 66.359C27.5718 66.478 27.5277 66.627 27.4081 66.692L25.3514 67.808ZM30.5771 57.4945C30.5239 57.6193 30.379 57.6775 30.2535 57.6246C30.128 57.5717 30.0695 57.4276 30.1227 57.3029L32.3263 52.1386C32.3795 52.0139 32.5244 51.9556 32.6499 52.0086C32.7753 52.0615 32.8339 52.2055 32.7807 52.3303L30.5771 57.4945Z" fill="#482D1F"/>
<path opacity="0.2" d="M40.4766 68.3677L40.6273 61.9558L40.638 61.7918L40.7523 57.1318L42.0912 57.0029L46.6988 69.5295L40.4766 68.3677Z" fill="#8C2A00"/>
<path d="M44.6862 97.678L49.4588 92.6984C49.5528 92.6003 49.5491 92.4449 49.4504 92.3514C49.3517 92.2579 49.1955 92.2617 49.1015 92.3598L44.3289 97.3394C44.2348 97.4375 44.2386 97.5928 44.3373 97.6863C44.436 97.7798 44.5922 97.7761 44.6862 97.678Z" fill="#482D1F"/>
</svg>
