<svg width="472" height="472" viewBox="0 0 472 472" fill="none" xmlns="http://www.w3.org/2000/svg">
<g clip-path="url(#clip0_386_5453)">
<g clip-path="url(#clip1_386_5453)">
<path d="M445.475 65.9453H30.8567C28.8551 65.9453 27.2324 67.568 27.2324 69.5696V345.378C27.2324 347.379 28.8551 349.002 30.8567 349.002H445.475C447.477 349.002 449.099 347.379 449.099 345.378V69.5696C449.099 67.568 447.477 65.9453 445.475 65.9453Z" fill="#F2F6FB"/>
<path d="M27.2324 61.2353C27.2324 57.2311 30.4756 53.9851 34.4826 53.9851H441.849C445.853 53.9851 449.099 57.2314 449.099 61.2353V69.932H27.2324V61.2353ZM312.951 235.735C312.951 231.731 316.197 228.485 320.201 228.485H416.922C420.925 228.485 424.171 231.731 424.171 235.735V297.937C424.171 301.941 420.925 305.188 416.922 305.188H320.201C316.197 305.188 312.951 301.941 312.951 297.937V235.735ZM182.556 235.735C182.556 231.731 185.802 228.485 189.805 228.485H286.526C290.53 228.485 293.776 231.731 293.776 235.735V297.937C293.776 301.941 290.53 305.188 286.526 305.188H189.805C185.802 305.188 182.556 301.941 182.556 297.937V235.735Z" fill="#D8DEED"/>
<path d="M37.9245 65.5829C39.8261 65.5829 41.3676 64.0414 41.3676 62.1398C41.3676 60.2383 39.8261 58.6968 37.9245 58.6968C36.023 58.6968 34.4814 60.2383 34.4814 62.1398C34.4814 64.0414 36.023 65.5829 37.9245 65.5829Z" fill="#FF5645"/>
<path d="M49.1589 65.5829C51.0604 65.5829 52.602 64.0414 52.602 62.1398C52.602 60.2383 51.0604 58.6968 49.1589 58.6968C47.2573 58.6968 45.7158 60.2383 45.7158 62.1398C45.7158 64.0414 47.2573 65.5829 49.1589 65.5829Z" fill="#FFCB3D"/>
<path d="M60.7575 65.5829C62.6591 65.5829 64.2006 64.0414 64.2006 62.1398C64.2006 60.2383 62.6591 58.6968 60.7575 58.6968C58.856 58.6968 57.3145 60.2383 57.3145 62.1398C57.3145 64.0414 58.856 65.5829 60.7575 65.5829Z" fill="#3ABF7C"/>
<path d="M187.992 314.775H272.998C276 314.775 278.434 317.209 278.434 320.212V324.679C278.434 327.682 276 330.116 272.998 330.116H187.992C184.989 330.116 182.555 327.682 182.555 324.679V320.212C182.555 317.209 184.989 314.775 187.992 314.775ZM318.387 314.775H403.393C406.395 314.775 408.829 317.209 408.829 320.212V324.679C408.829 327.682 406.395 330.116 403.393 330.116H318.387C315.385 330.116 312.951 327.682 312.951 324.679V320.212C312.951 317.209 315.385 314.775 318.387 314.775ZM57.5966 278.341H142.603C145.605 278.341 148.039 280.775 148.039 283.778V288.245C148.039 291.248 145.605 293.682 142.603 293.682H57.5966C54.5941 293.682 52.1602 291.248 52.1602 288.245V283.778C52.1602 280.775 54.5941 278.341 57.5966 278.341ZM57.5966 303.27H142.603C145.605 303.27 148.039 305.704 148.039 308.706V313.174C148.039 316.176 145.605 318.61 142.603 318.61H57.5966C54.5941 318.61 52.1602 316.176 52.1602 313.174V308.706C52.1602 305.704 54.5941 303.27 57.5966 303.27Z" fill="#E1E5F0"/>
<path d="M416.843 90.9529H59.4888C55.4855 90.9529 52.2402 94.1982 52.2402 98.2015V204.031C52.2402 208.034 55.4855 211.279 59.4888 211.279H416.843C420.847 211.279 424.092 208.034 424.092 204.031V98.2015C424.092 94.1982 420.847 90.9529 416.843 90.9529Z" fill="#E1E5F0"/>
<path d="M57.5976 228.485H138.768C141.771 228.485 144.205 230.919 144.205 233.921V238.389C144.205 241.391 141.771 243.825 138.768 243.825H57.5976C54.5951 243.825 52.1611 241.391 52.1611 238.389V233.921C52.1611 230.919 54.5951 228.485 57.5976 228.485ZM57.5976 253.413H127.263C130.265 253.413 132.699 255.847 132.699 258.85V263.317C132.699 266.32 130.265 268.754 127.263 268.754H57.5976C54.5951 268.754 52.1611 266.32 52.1611 263.317V258.85C52.1611 255.847 54.5951 253.413 57.5976 253.413Z" fill="#474BFF"/>
<path d="M385.171 268.119L353.745 283.832C353.566 283.922 353.348 283.849 353.259 283.67C353.234 283.62 353.221 283.564 353.221 283.508V252.082C353.221 251.882 353.383 251.72 353.583 251.72C353.639 251.72 353.695 251.733 353.745 251.758L385.171 267.471C385.35 267.56 385.423 267.778 385.333 267.957C385.298 268.027 385.241 268.084 385.171 268.119ZM241.88 285.025L239.529 285.052L239.546 285.025H211.653C211.253 285.025 211.101 284.749 211.314 284.408L231.189 252.543C231.402 252.202 231.753 252.196 231.974 252.531L246.227 274.291L251.824 265.3C252.035 264.96 252.39 264.95 252.62 265.283L265.458 283.902C265.686 284.232 265.549 284.51 265.148 284.523L252.965 284.899L252.841 284.901L252.915 285.025C252.915 285.025 252.589 285.025 252.191 285.025H241.88ZM252.651 257.651C250.172 257.651 248.162 255.627 248.162 253.13C248.162 250.633 250.172 248.609 252.651 248.609C255.13 248.609 257.14 250.633 257.14 253.13C257.14 255.627 255.13 257.651 252.651 257.651Z" fill="#F2F6FB"/>
<mask id="mask0_386_5453" style="mask-type:alpha" maskUnits="userSpaceOnUse" x="52" y="90" width="373" height="122">
<path d="M416.843 90.9529H59.4888C55.4855 90.9529 52.2402 94.1982 52.2402 98.2015V204.031C52.2402 208.034 55.4855 211.279 59.4888 211.279H416.843C420.847 211.279 424.092 208.034 424.092 204.031V98.2015C424.092 94.1982 420.847 90.9529 416.843 90.9529Z" fill="white"/>
</mask>
<g mask="url(#mask0_386_5453)">
<mask id="mask1_386_5453" style="mask-type:alpha" maskUnits="userSpaceOnUse" x="52" y="76" width="373" height="196">
<path d="M422.279 76.0933H54.4138C53.2128 76.0933 52.2393 77.0669 52.2393 78.2678V269.268C52.2393 270.469 53.2128 271.442 54.4138 271.442H422.279C423.48 271.442 424.453 270.469 424.453 269.268V78.2678C424.453 77.0669 423.48 76.0933 422.279 76.0933Z" fill="white"/>
</mask>
<g mask="url(#mask1_386_5453)">
<path d="M422.279 76.0933H54.4138C53.2128 76.0933 52.2393 77.0669 52.2393 78.2678V269.268C52.2393 270.469 53.2128 271.442 54.4138 271.442H422.279C423.48 271.442 424.453 270.469 424.453 269.268V78.2678C424.453 77.0669 423.48 76.0933 422.279 76.0933Z" fill="#E1E5F0"/>
<path d="M46.2646 291.534H478.704V90.9733C468.544 121.788 449.187 138.546 428.342 138.546C416.299 138.546 403.764 132.956 392.212 121.248C380.793 109.675 367.986 104.147 355.354 104.147C333.098 104.144 311.379 121.292 298.685 152.732C288.738 177.369 275.62 189.69 262.503 189.69C249.385 189.69 236.266 177.369 226.311 152.723C213.612 121.286 191.879 104.133 169.621 104.13C156.985 104.13 144.182 109.655 132.76 121.23C121.209 132.935 108.669 138.525 96.628 138.525C75.7813 138.525 56.4244 121.77 46.2646 90.9526V291.534Z" fill="#D8DEED"/>
</g>
<mask id="mask2_386_5453" style="mask-type:alpha" maskUnits="userSpaceOnUse" x="71" y="99" width="103" height="103">
<path d="M122.731 201.638C150.854 201.638 173.652 178.84 173.652 150.717C173.652 122.594 150.854 99.7957 122.731 99.7957C94.6078 99.7957 71.8096 122.594 71.8096 150.717C71.8096 178.84 94.6078 201.638 122.731 201.638Z" fill="white"/>
</mask>
<g mask="url(#mask2_386_5453)">
<path d="M122.731 201.638C150.854 201.638 173.652 178.84 173.652 150.717C173.652 122.594 150.854 99.7957 122.731 99.7957C94.6078 99.7957 71.8096 122.594 71.8096 150.717C71.8096 178.84 94.6078 201.638 122.731 201.638Z" fill="#A339FF"/>
<path d="M165.773 216.521L147.937 216.416L147.57 195.416L161.745 193.465L162.805 198.086" fill="#BF865F"/>
<path d="M110.045 146.317C107.446 145.1 99.8995 145.625 99.8295 145.662C97.1854 145.781 92.5571 146.281 87.7238 149.737C87.0079 150.257 85.9347 151.073 84.8316 152.252C83.8703 153.247 82.0249 153.817 79.8632 162.881C79.0854 166.084 78.2164 174.065 74.7591 179.505C74.0653 180.597 73.1591 184.965 72.0405 192.609C80.1282 193.527 86.2894 194.217 90.5239 194.677C89.6234 202.765 89.6827 209.508 90.4747 213.884C89.9004 216.553 89.7263 218.139 89.9526 218.642C101.957 218.723 109.107 218.779 111.404 218.811C117.06 218.894 132.562 220.067 146.956 218.771C150.519 215.266 150.141 203.6 150.141 203.6C150.02 201.305 149.902 199.122 149.786 197.048C156.563 195.472 162.027 193.736 166.178 191.841C164.672 184.585 163.691 180.333 163.234 179.085C161.903 175.519 158.977 169.247 158.254 166.008C156.016 155.977 153.212 153.161 152.216 152.199C151.073 151.059 146.307 147.092 139.165 146.211C137.599 146.018 134.543 145.792 129.997 145.533C127.989 145.222 126.075 145.102 124.433 145C119.693 144.733 114.73 144.442 110.045 146.317Z" fill="#FFCB3D"/>
<path fill-rule="evenodd" clip-rule="evenodd" d="M110.076 146.337C113.66 153.926 115.549 161.029 115.743 167.647C115.937 174.266 115.937 185.64 115.743 201.77L137.242 201.638C137.064 186.893 136.579 175.563 135.787 167.647C134.995 159.732 132.298 152.25 127.694 145.202C122.114 144.681 118.13 144.574 115.743 144.881C113.356 145.188 111.467 145.673 110.076 146.337Z" fill="white"/>
<path d="M114.059 134.832L113.462 146.74C113.457 147.004 113.561 147.27 113.777 147.387C114.708 148.007 116.037 148.71 117.698 149.117C120.693 149.886 123.275 149.403 124.732 148.975C125.023 148.905 125.246 148.607 125.251 148.305L125.523 141.285C127.411 142.025 127.306 141.953 127.491 142.018C129.764 142.638 131.722 142.599 132.086 142.533C133.392 142.447 134.788 141.384 136.052 139.558C137.762 137.123 139.315 133.307 140.193 128.719C140.349 128.069 140.397 127.418 140.444 126.766L140.702 120.282C140.764 118.833 140.426 117.414 139.761 116.061C139.481 115.476 139.2 115 138.844 114.595C136.706 111.751 133.55 110.722 130.999 110.393C129.643 110.195 128.403 110.182 127.51 110.262C127.184 110.293 126.021 110.418 124.353 110.497C123.445 110.554 122.721 110.541 122.285 110.57C116.882 110.693 114.755 110.004 112.012 111.406C111.501 111.65 110.33 112.282 109.293 113.533C106.367 117.071 106.975 121.721 107.132 123.101C107.712 127.244 110.06 129.822 110.766 130.885C111.609 132.177 113.042 133.764 114.059 134.832Z" fill="#DB9E75"/>
<path d="M96.2325 197.832C96.1559 198.122 96.329 198.419 96.6193 198.496C96.9096 198.573 97.2071 198.4 97.2838 198.109C98.5398 193.354 102.56 178.949 103.419 176.281C103.511 175.995 103.354 175.689 103.068 175.597C102.782 175.505 102.476 175.662 102.384 175.948C101.518 178.64 97.4934 193.058 96.2325 197.832ZM151.66 198.641C151.744 198.929 152.046 199.095 152.334 199.011C152.623 198.928 152.788 198.626 152.705 198.338C151.332 193.615 147.359 179.196 146.721 176.467C146.652 176.175 146.36 175.993 146.068 176.061C145.775 176.13 145.594 176.422 145.662 176.715C146.306 179.469 150.283 193.9 151.66 198.641ZM125.587 141.308L120.638 139.218L125.306 147.094L125.587 141.308ZM136.457 127.274C136.482 127.891 136.573 128.907 136.929 129.276C137.536 129.83 138.364 128.032 137.913 126.901C137.74 126.427 137.488 126.35 137.197 126.381C136.761 126.446 136.464 126.839 136.457 127.274ZM129.972 127.052C129.925 127.668 129.907 128.682 130.262 129.123C130.795 129.749 131.84 128.027 131.498 126.861C131.361 126.388 131.109 126.275 130.819 126.269C130.384 126.262 130.016 126.618 129.972 127.052ZM132.813 134.569C133.174 134.684 134.327 135.067 134.735 134.53C134.92 134.316 135.186 133.595 135.186 133.595C135.186 133.595 134.242 133.688 133.084 133.595C132.432 133.547 132 133.395 131.85 133.646C131.813 133.718 131.847 133.827 131.846 133.9C131.948 134.3 132.561 134.492 132.813 134.569ZM135.878 131.165L135.405 127.303L135.442 125.19C135.445 124.99 135.286 124.825 135.086 124.822C134.886 124.818 134.72 124.977 134.717 125.178L134.68 127.316L134.682 127.366L135.159 131.262C135.16 131.269 135.127 131.31 135.126 131.312L135.008 131.319C134.413 131.354 134.049 131.364 133.413 131.353C133.213 131.35 133.048 131.509 133.044 131.709C133.041 131.909 133.2 132.075 133.4 132.078C134.057 132.089 134.439 132.079 135.051 132.042C135.11 132.039 135.11 132.039 135.201 132.032C135.615 131.97 135.939 131.575 135.878 131.165Z" fill="#482D1F"/>
<path d="M112.809 124.738C112.853 123.806 113.141 122.871 113.747 122.057C114.935 120.446 117.126 119.578 118.855 120.188C119.828 120.531 120.467 121.304 120.538 121.378C120.814 121.738 121.027 122.104 121.19 122.442C126.646 119.963 130.894 118.641 133.934 118.475C136.259 118.348 138.519 118.863 140.714 120.019C140.734 118.647 140.398 117.304 139.767 116.021C139.487 115.436 139.205 114.96 138.85 114.555C136.712 111.711 133.555 110.682 131.005 110.352C129.648 110.155 128.409 110.141 127.516 110.222C127.189 110.253 126.027 110.377 124.358 110.457C123.451 110.514 122.726 110.501 122.291 110.53C116.888 110.653 114.761 109.963 112.018 111.365C111.506 111.61 110.335 112.242 109.299 113.493C106.373 117.03 106.981 121.681 107.138 123.061C107.264 123.96 107.473 124.786 107.731 125.538C109.239 125.355 110.932 125.088 112.809 124.738ZM139.328 124.75C139.692 124.684 139.809 124.215 139.559 123.957C139.238 123.661 138.664 123.361 137.939 123.349C136.453 123.323 134.842 124.273 136.501 124.737C137.474 125.044 138.636 124.92 139.328 124.75ZM131.859 124.874C132.222 124.808 132.339 124.338 132.054 124.08C131.733 123.784 131.158 123.484 130.397 123.471C128.911 123.445 127.299 124.432 128.959 124.859C130.004 125.204 131.131 125.006 131.859 124.874Z" fill="#482D1F"/>
<path d="M112.912 124.019C112.727 125.078 112.898 126.237 113.364 127.175C113.929 128.357 114.743 129.01 115.799 129.52C115.98 129.607 116.055 129.824 115.968 130.004C115.881 130.185 115.664 130.26 115.484 130.173C115.02 129.949 114.651 129.734 114.227 129.393C113.602 128.891 113.082 128.265 112.712 127.493C112.181 126.422 111.987 125.106 112.198 123.895C112.232 123.698 112.42 123.566 112.617 123.6C112.814 123.634 112.946 123.822 112.912 124.019Z" fill="#482D1F"/>
</g>
</g>
</g>
<g clip-path="url(#clip2_386_5453)">
<path d="M271.328 420.038C272.229 420.038 272.959 420.768 272.959 421.669C272.959 422.569 272.229 423.299 271.328 423.299H212.252C211.351 423.299 210.621 422.569 210.621 421.669C210.621 420.768 211.351 420.038 212.252 420.038H271.328ZM386.58 423.299H349.431C348.561 423.299 347.8 422.672 347.8 421.919V421.418C347.8 420.665 348.525 420.038 349.431 420.038H386.58C387.45 420.038 388.211 420.665 388.211 421.418V421.919C388.211 422.672 387.486 423.299 386.58 423.299Z" fill="#3ABF7C"/>
<path d="M271.519 420.049C271.456 420.042 271.393 420.038 271.328 420.038H212.509C212.47 419.839 212.45 419.589 212.456 419.265C212.497 419.012 212.502 418.723 212.579 418.434C213.044 416.702 213.608 415.552 215.257 414.53C216.906 413.507 218.59 412.594 220.344 411.791C226.813 408.75 229.023 408.789 233.277 406C235.037 404.834 236.655 403.485 238.167 402.025C239.175 401.052 241.353 399.471 244.702 397.282L271.74 397.282L271.519 420.049ZM386.779 420.049C386.713 420.042 386.647 420.038 386.581 420.038H349.556L352.486 401.549L378.436 398.034L386.779 420.049Z" fill="#474961"/>
<path d="M310.254 276.913C302.009 304.187 296.861 322.995 288.178 351.468C286.382 356.563 285.719 360.427 286.19 363.06C286.897 367.009 290.381 374.091 292.079 381.813C293.777 389.535 276.363 381.062 261.555 378.218C246.747 375.375 231.493 372.473 231.889 370.255C232.849 364.982 247.891 358.086 249.08 351.468C250.27 344.85 251.17 337.644 251.337 336.458C258.956 291.196 266.106 256.417 269.981 237.501C271.615 229.389 274.755 214.073 286.19 198.396C286.934 197.404 287.537 196.632 287.891 196.155C288.942 195.043 290.119 194.205 291.322 193.574C291.295 193.351 291.268 193.128 291.242 192.906C294.14 190.753 296.107 189.197 307.835 188.303C308.125 188.298 308.451 188.256 308.741 188.251C320.112 187.654 329.766 191.803 337.048 200.754C341.695 207.671 345.337 216.18 347.973 226.28C350.392 235.55 359.61 277.109 375.627 350.957C376.347 353.09 377.046 354.655 377.722 355.652C379.974 358.972 386.62 363.501 391.312 369.865C396.004 376.229 376.65 375.571 361.965 378.996C347.281 382.422 332.165 385.975 331.625 383.788C330.62 379.663 337.274 371.014 339.286 364.351C333.188 347.764 327.198 330.532 321.389 312.725C317.443 300.592 313.737 288.648 310.254 276.913Z" fill="#A339FF"/>
<path opacity="0.176986" d="M310.143 276.994C301.938 304.148 296.795 322.93 288.136 351.326C286.339 356.421 285.676 360.284 286.147 362.917C286.854 366.867 290.338 373.948 292.036 381.67C293.734 389.392 276.321 380.919 261.512 378.076C246.704 375.232 231.45 372.33 231.846 370.112C232.806 364.839 247.848 357.944 249.037 351.326C250.227 344.708 251.128 337.501 251.294 336.315C258.913 291.053 266.063 256.275 269.938 237.358C271.573 229.246 274.713 213.931 286.147 198.253C286.891 197.261 287.494 196.49 287.848 196.012C288.877 194.923 290.027 194.097 291.204 193.471C292.549 204.698 294.056 217.451 296.248 227.512C298.465 237.691 301.419 247.34 304.496 257.472C306.311 263.912 308.192 270.42 310.143 276.994Z" fill="#444444"/>
<path d="M324.157 137.103C326.152 137.681 328.042 138.525 329.681 139.573C336.707 144.071 340.844 152.643 337.633 161.082C336.964 162.841 334.718 164.97 330.894 167.469C330.583 167.504 330.276 167.534 329.97 167.56L328.768 180.547C328.732 180.945 328.695 181.308 328.695 181.706C328.659 183.519 328.333 186.201 326.775 188.158C324.6 190.912 321.374 194.899 307.892 195.044C293.395 195.189 289.916 191.202 287.668 188.375C286.11 186.454 285.711 184.135 285.675 182.25C285.675 181.851 285.639 181.489 285.603 181.09L284.323 167.461C277.525 166.322 276.487 161.818 275.366 158.332C273.08 151.231 277.962 142.882 284.023 138.888C288.34 136.044 293.635 134.85 298.563 135.868C300.827 135.2 303.274 134.825 305.862 134.808H307.928C314.186 134.771 319.895 135.321 324.157 137.103Z" fill="#3ABF7C"/>
<path opacity="0.176986" d="M284.31 167.323C277.65 166.143 276.619 161.68 275.506 158.221C273.221 151.12 278.102 142.77 284.163 138.777C288.522 135.905 293.878 134.716 298.845 135.786C291.198 137.945 285.598 143.426 283.682 149.74C283.102 151.625 282.993 153.655 283.21 155.612L284.31 167.323Z" fill="#444444"/>
<path d="M296.046 129.509C295.951 129.533 295.854 129.557 295.756 129.581C292.576 130.376 292.762 130.317 292.54 130.374C290.19 130.718 288.251 130.401 287.894 130.303C284.921 129.696 282.105 123.722 281.585 115.584C281.522 114.925 281.567 114.275 281.576 113.621L282.137 107.157C282.239 105.711 282.735 104.329 283.544 103.15C283.626 103.011 283.706 102.907 283.786 102.804C284.064 102.46 284.343 102.116 284.616 101.844C285.673 100.756 286.888 100.005 288.122 99.5101C291.023 98.5504 294.212 98.6644 295.966 99.0413C296.216 99.0952 297.004 99.2593 298.115 99.4823C299.146 99.8087 300.148 100.024 301.194 100.134C301.77 100.21 302.168 100.747 302.128 101.325L301.119 110.555C301.094 110.777 303.825 108.689 306.651 109.437C307.562 109.677 308.819 110.958 310.422 113.277C309.851 115.025 309.551 115.924 309.524 115.974C308.339 118.143 307.47 119.506 306.916 120.065L306.696 125.878L307.069 134.808H305.863C302.414 134.831 299.215 135.489 296.368 136.628L296.046 129.509ZM374.263 376.809L378.438 398.04L352.557 401.68L349.808 381.702C353.707 380.842 357.915 379.859 362.088 378.885C365.996 377.974 370.234 377.351 374.263 376.809ZM251.293 376.086C254.637 376.756 258.17 377.433 261.678 378.107C266.275 378.99 271.123 380.415 275.573 381.73L271.745 397.676H244.327L251.293 376.086ZM282.99 188.693C278.842 191.986 274.633 193.47 270.365 193.147C258.064 192.216 245.405 180.09 232.388 156.771L232.391 156.769L232.389 156.769L219.515 132.141C222.728 129.457 225.695 129.561 228.417 132.455C230.926 135.747 232.37 137.712 232.75 138.349C238.444 147.89 243.029 146.2 248.6 153.212L265.97 168.168L272.321 161.616C271.522 158.59 270.753 155.384 270.013 151.996C268.087 150.695 265.117 148.328 260.274 144.271C259.82 143.891 257.584 143.385 253.568 142.753C247.598 143.536 244.9 141.853 245.474 137.706L271.088 136.028C273.813 135.85 276.44 137.079 278.05 139.285C279.997 141.954 281.393 144.186 282.24 145.982L297.6 169.015L305.591 156.051C307.927 160.247 311.4 162.146 316.187 164.853C320.118 167.076 324.852 167.918 330.388 167.38C319.714 188.505 309.244 199.218 298.978 199.517C293.027 199.69 287.698 196.082 282.99 188.693Z" fill="#ED9474"/>
<path opacity="0.2" d="M283.217 188.645C279.049 191.971 274.821 193.472 270.532 193.147C258.231 192.216 245.572 180.09 232.555 156.771L232.558 156.769L232.556 156.769L219.682 132.141C222.895 129.457 225.862 129.561 228.584 132.455C231.093 135.747 232.537 137.712 232.917 138.349C238.611 147.89 243.196 146.2 248.767 153.212L266.137 168.168L272.525 161.577C275.637 173.346 279.202 182.369 283.217 188.645Z" fill="#8C2A00"/>
<path d="M296.186 132.565L300.467 128.376L296.055 129.506L296.186 132.565Z" fill="#482D1F"/>
<path d="M313.907 117.256C313.433 118.98 313.569 120.3 314.316 121.215C318.063 125.803 319.765 126.473 318.828 128.153C317.758 130.071 313.771 130.576 306.867 129.668C302.267 126.557 303.299 120.946 303.305 120.457C303.304 120.452 303.302 120.448 303.3 120.444C303.78 120.369 305.275 120.254 306.513 119.143C307.751 118.067 308.572 116.199 308.089 114.276C307.673 112.431 306.041 110.827 304.303 110.742C303.324 110.71 302.496 111.124 302.383 111.189C301.059 111.932 300.4 113.048 300.4 113.048L299.986 113.831C299.871 113.623 299.762 113.429 299.659 113.251C297.325 110.254 294.989 107.293 292.619 104.293C288.43 103.019 284.491 103.107 283.866 102.7C284.144 102.356 284.423 102.013 284.696 101.741C285.753 100.652 286.968 99.9016 288.202 99.4066C291.103 98.4468 294.292 98.5609 296.046 98.9378C296.296 98.9917 297.084 99.1558 298.195 99.3788C298.518 99.4377 298.841 99.4966 299.236 99.5605C300.171 99.6986 300.889 99.8214 301.32 99.8879C306.79 100.634 308.966 100.168 311.608 101.879C312.094 102.204 313.203 102.971 314.09 104.305C316.653 108.19 315.5 112.724 315.187 114.082C314.874 115.298 314.417 116.35 313.907 117.256ZM281.208 111.121C280.857 111.005 280.766 110.556 281.049 110.335C281.408 110.087 281.992 109.793 282.716 109.846C284.199 109.955 285.712 111.017 284.068 111.326C283.016 111.562 281.878 111.313 281.208 111.121ZM288.187 111.978C287.836 111.862 287.745 111.413 288.064 111.196C288.423 110.948 289.007 110.655 289.766 110.711C291.25 110.821 292.758 111.919 291.118 112.192C290.031 112.424 288.893 112.174 288.187 111.978Z" fill="#482D1F"/>
<path d="M221.868 119.363C222.832 118.733 223.918 118.674 224.297 119.26L242.179 145.672C242.557 146.258 242.134 147.241 241.174 147.907C240.21 148.537 239.124 148.595 238.745 148.01L220.863 121.597C220.445 120.979 220.905 119.993 221.868 119.363Z" fill="#474961"/>
<path d="M283.566 114.222C283.563 114.843 283.547 115.863 283.134 116.251C282.587 116.841 281.675 115.049 282.068 113.929C282.238 113.439 282.507 113.326 282.795 113.361C283.227 113.414 283.547 113.782 283.566 114.222ZM289.995 114.793C290.028 115.418 289.977 116.434 289.564 116.821C289.017 117.411 288.105 115.62 288.498 114.499C288.668 114.009 288.937 113.896 289.225 113.931C289.657 113.984 289.977 114.352 289.995 114.793Z" fill="#482D1F"/>
<path d="M287.304 121.838C287.565 121.797 288.203 121.657 288.359 121.274C288.368 121.202 288.417 121.099 288.39 121.022C288.273 120.789 287.792 120.839 287.136 120.832C285.971 120.798 285.049 120.576 285.049 120.576C285.049 120.576 285.249 121.33 285.407 121.532C285.696 122.152 286.895 121.898 287.304 121.838Z" fill="#482D1F"/>
<path d="M284.504 118.496L284.497 118.536C284.449 118.928 284.673 119.326 285.056 119.439C285.127 119.455 285.167 119.463 285.207 119.47C285.584 119.542 285.857 119.579 286.837 119.699C287.036 119.724 287.217 119.583 287.241 119.384C287.265 119.185 287.124 119.004 286.926 118.98C285.963 118.862 285.698 118.826 285.342 118.758C285.305 118.751 285.268 118.744 285.231 118.736C285.239 118.738 285.214 118.692 285.215 118.638L286.114 114.868L286.122 114.816L286.311 112.685C286.328 112.485 286.181 112.309 285.982 112.292C285.782 112.274 285.606 112.421 285.589 112.621L285.402 114.726L284.504 118.496Z" fill="#482D1F"/>
<path d="M244.69 123.781V123.934C244.629 123.908 244.569 123.883 244.509 123.858C244.448 123.883 244.388 123.908 244.327 123.934V123.781C236.956 120.628 234.082 117.043 235.707 113.024C237.335 108.997 240.269 108.36 244.509 111.114C248.749 108.36 251.682 108.997 253.31 113.024C254.935 117.043 252.061 120.628 244.69 123.781Z" fill="#FF5645"/>
<path d="M305.906 156.164C305.547 150.996 306.403 147.142 308.444 144.585C308.631 144.351 308.593 144.009 308.359 143.821C308.124 143.634 307.782 143.672 307.594 143.907C305.36 146.706 304.445 150.823 304.821 156.239C304.842 156.539 305.102 156.765 305.401 156.744C305.701 156.723 305.927 156.464 305.906 156.164Z" fill="#482D1F"/>
</g>
</g>
<defs>
<clipPath id="clip0_386_5453">
<rect width="472" height="472" fill="white"/>
</clipPath>
<clipPath id="clip1_386_5453">
<rect width="421.867" height="295.017" fill="white" transform="translate(27.2324 53.9851)"/>
</clipPath>
<clipPath id="clip2_386_5453">
<rect width="368.227" height="343.22" fill="white" transform="translate(117.478 80.0798)"/>
</clipPath>
</defs>
</svg>
