<svg width="472" height="472" viewBox="0 0 472 472" fill="none" xmlns="http://www.w3.org/2000/svg">
<path d="M422.162 90H107.179C99.9005 90 94 95.8698 94 103.111V331.889C94 339.13 99.9005 345 107.179 345H422.162C429.44 345 435.341 339.13 435.341 331.889V103.111C435.341 95.8698 429.44 90 422.162 90Z" fill="#E1E5F0"/>
<path d="M145.323 308.772C128.26 308.772 114.428 294.87 114.428 277.722C114.428 260.573 128.26 246.671 145.323 246.671C162.386 246.671 176.218 260.573 176.218 277.722C176.218 294.87 162.386 308.772 145.323 308.772ZM114.428 128.681C114.428 127.23 115.603 126.054 117.063 126.054H335.199C336.654 126.054 337.834 127.228 337.834 128.681V222.581C337.834 224.031 336.659 225.207 335.199 225.207H117.063C115.607 225.207 114.428 224.033 114.428 222.581V128.681ZM364.232 203.517H404.522C406.783 203.517 408.738 203.974 410.349 204.831C411.96 205.688 413.224 206.945 414.086 208.548C414.947 210.15 415.406 212.095 415.406 214.345V214.38C415.406 216.629 414.947 218.574 414.086 220.177C413.224 221.779 411.96 223.037 410.349 223.894C408.738 224.751 406.783 225.207 404.522 225.207H364.232C361.971 225.207 360.016 224.751 358.405 223.894C356.794 223.037 355.53 221.779 354.669 220.177C353.807 218.574 353.348 216.629 353.348 214.38V214.345C353.348 212.095 353.807 210.15 354.669 208.548C355.53 206.945 356.794 205.688 358.405 204.831C360.016 203.974 361.971 203.517 364.232 203.517ZM197.062 271.938H370.197C372.89 271.938 375.074 274.11 375.074 276.789V279.408C375.074 282.087 372.89 284.259 370.197 284.259H197.062C194.368 284.259 192.185 282.087 192.185 279.408V276.789C192.185 274.11 194.368 271.938 197.062 271.938ZM197.062 291.961H401.195C403.888 291.961 406.072 294.133 406.072 296.812V299.431C406.072 302.11 403.888 304.282 401.195 304.282H197.062C194.368 304.282 192.185 302.11 192.185 299.431V296.812C192.185 294.133 194.368 291.961 197.062 291.961ZM197.062 251.915H326.799C329.493 251.915 331.676 254.087 331.676 256.767V259.385C331.676 262.065 329.493 264.237 326.799 264.237H197.062C194.368 264.237 192.185 262.065 192.185 259.385V256.767C192.185 254.087 194.368 251.915 197.062 251.915Z" fill="#F2F6FB"/>
<path d="M145.39 277.591C143.11 277.591 141.262 275.758 141.262 273.496C141.262 271.234 143.11 269.4 145.39 269.4C147.67 269.4 149.518 271.234 149.518 273.496C149.518 275.758 147.67 277.591 145.39 277.591ZM145.39 279.639C149.522 279.639 152.872 282.962 152.872 287.062H137.908C137.908 282.962 141.258 279.639 145.39 279.639Z" fill="#D8DEED"/>
<path d="M359.864 60.9768H53.1361C45.8812 60.9768 40 66.8466 40 74.0873V281.889C40 289.13 45.8812 295 53.1361 295H359.864C367.119 295 373 289.13 373 281.889V74.0873C373 66.8466 367.119 60.9768 359.864 60.9768Z" fill="#F2F6FB"/>
<path d="M124.071 153.406C139.669 153.406 152.313 140.786 152.313 125.218C152.313 109.651 139.669 97.0308 124.071 97.0308C108.473 97.0308 95.8281 109.651 95.8281 125.218C95.8281 140.786 108.473 153.406 124.071 153.406Z" fill="#D8DEED"/>
<path d="M206.829 153.406C222.426 153.406 235.071 140.786 235.071 125.218C235.071 109.651 222.426 97.0308 206.829 97.0308C191.231 97.0308 178.586 109.651 178.586 125.218C178.586 140.786 191.231 153.406 206.829 153.406Z" fill="#D8DEED"/>
<path d="M289.585 153.406C305.183 153.406 317.828 140.786 317.828 125.218C317.828 109.651 305.183 97.0308 289.585 97.0308C273.987 97.0308 261.343 109.651 261.343 125.218C261.343 140.786 273.987 153.406 289.585 153.406Z" fill="#D8DEED"/>
<path d="M124.071 249.113C139.669 249.113 152.313 236.346 152.313 220.598C152.313 204.849 139.669 192.082 124.071 192.082C108.473 192.082 95.8281 204.849 95.8281 220.598C95.8281 236.346 108.473 249.113 124.071 249.113Z" fill="#D8DEED"/>
<path d="M206.829 249.113C222.426 249.113 235.071 236.346 235.071 220.598C235.071 204.849 222.426 192.082 206.829 192.082C191.231 192.082 178.586 204.849 178.586 220.598C178.586 236.346 191.231 249.113 206.829 249.113Z" fill="#D8DEED"/>
<path d="M289.258 249.113C305.037 249.113 317.829 236.346 317.829 220.598C317.829 204.849 305.037 192.082 289.258 192.082C273.478 192.082 260.687 204.849 260.687 220.598C260.687 236.346 273.478 249.113 289.258 249.113Z" fill="#D8DEED"/>
<path d="M124.071 125.218C120.08 125.218 116.846 122.137 116.846 118.335C116.846 114.534 120.08 111.452 124.071 111.452C128.061 111.452 131.296 114.534 131.296 118.335C131.296 122.137 128.061 125.218 124.071 125.218ZM124.071 128.496C131.326 128.496 137.207 134.072 137.207 140.951H110.935C110.935 134.072 116.816 128.496 124.071 128.496Z" fill="#F2F6FB"/>
<path d="M206.828 125.218C202.838 125.218 199.604 122.137 199.604 118.335C199.604 114.534 202.838 111.452 206.828 111.452C210.819 111.452 214.053 114.534 214.053 118.335C214.053 122.137 210.819 125.218 206.828 125.218ZM206.5 128.496C213.574 128.496 219.308 134.072 219.308 140.951H193.692C193.692 134.072 199.427 128.496 206.5 128.496Z" fill="#F2F6FB"/>
<path d="M289.586 125.218C285.596 125.218 282.361 122.137 282.361 118.335C282.361 114.534 285.596 111.452 289.586 111.452C293.576 111.452 296.811 114.534 296.811 118.335C296.811 122.137 293.576 125.218 289.586 125.218ZM289.258 128.496C296.331 128.496 302.066 134.072 302.066 140.951H276.45C276.45 134.072 282.184 128.496 289.258 128.496Z" fill="#F2F6FB"/>
<path d="M124.071 220.27C120.08 220.27 116.846 217.041 116.846 213.059C116.846 209.077 120.08 205.848 124.071 205.848C128.061 205.848 131.296 209.077 131.296 213.059C131.296 217.041 128.061 220.27 124.071 220.27ZM124.071 222.892C131.326 222.892 137.207 228.762 137.207 236.002H110.935C110.935 228.762 116.816 222.892 124.071 222.892Z" fill="#F2F6FB"/>
<path d="M206.828 220.27C202.838 220.27 199.604 217.041 199.604 213.059C199.604 209.077 202.838 205.848 206.828 205.848C210.819 205.848 214.053 209.077 214.053 213.059C214.053 217.041 210.819 220.27 206.828 220.27ZM206.5 222.892C213.574 222.892 219.308 228.762 219.308 236.002H193.692C193.692 228.762 199.427 222.892 206.5 222.892Z" fill="#F2F6FB"/>
<path d="M289.585 220.27C285.595 220.27 282.36 217.041 282.36 213.059C282.36 209.077 285.595 205.848 289.585 205.848C293.575 205.848 296.81 209.077 296.81 213.059C296.81 217.041 293.575 220.27 289.585 220.27ZM289.257 222.892C296.33 222.892 302.065 228.762 302.065 236.002H276.449C276.449 228.762 282.183 222.892 289.257 222.892Z" fill="#F2F6FB"/>
<path d="M147.033 160.617H101.109C98.1922 160.617 95.8281 162.976 95.8281 165.887V167.146C95.8281 170.057 98.1922 172.416 101.109 172.416H147.033C149.949 172.416 152.313 170.057 152.313 167.146V165.887C152.313 162.976 149.949 160.617 147.033 160.617Z" fill="#E1E5F0"/>
<path d="M229.791 160.617H183.866C180.95 160.617 178.586 162.976 178.586 165.887V167.146C178.586 170.057 180.95 172.416 183.866 172.416H229.791C232.707 172.416 235.071 170.057 235.071 167.146V165.887C235.071 162.976 232.707 160.617 229.791 160.617Z" fill="#E1E5F0"/>
<path d="M312.548 160.617H265.967C263.051 160.617 260.687 162.976 260.687 165.887V167.146C260.687 170.057 263.051 172.416 265.967 172.416H312.548C315.464 172.416 317.829 170.057 317.829 167.146V165.887C317.829 162.976 315.464 160.617 312.548 160.617Z" fill="#E1E5F0"/>
<path d="M147.033 255.668H101.109C98.1922 255.668 95.8281 258.028 95.8281 260.938V262.198C95.8281 265.108 98.1922 267.468 101.109 267.468H147.033C149.949 267.468 152.313 265.108 152.313 262.198V260.938C152.313 258.028 149.949 255.668 147.033 255.668Z" fill="#E1E5F0"/>
<path d="M229.791 255.668H183.866C180.95 255.668 178.586 258.028 178.586 260.938V262.198C178.586 265.108 180.95 267.468 183.866 267.468H229.791C232.707 267.468 235.071 265.108 235.071 262.198V260.938C235.071 258.028 232.707 255.668 229.791 255.668Z" fill="#E1E5F0"/>
<path d="M312.548 255.668H265.967C263.051 255.668 260.687 258.028 260.687 260.938V262.198C260.687 265.108 263.051 267.468 265.967 267.468H312.548C315.464 267.468 317.829 265.108 317.829 262.198V260.938C317.829 258.028 315.464 255.668 312.548 255.668Z" fill="#E1E5F0"/>
<path d="M40 53.1134C40 45.8711 45.8857 40 53.1309 40H359.869C367.121 40 373 45.8716 373 53.1134V68.8432H40V53.1134Z" fill="#E1E5F0"/>
<g clip-path="url(#clip0_588_5658)">
<path d="M262.14 437H329.442C330.501 437 331.348 436.154 331.348 435.095C331.348 434.037 330.501 433.191 329.442 433.191H262.14C261.082 433.191 260.235 434.037 260.235 435.095C260.235 436.154 261.082 437 262.14 437ZM386.028 437C387.087 437 387.934 436.268 387.934 435.388V434.802C387.934 433.923 387.044 433.191 386.028 433.191H342.614C341.555 433.191 340.708 433.923 340.708 434.802V435.388C340.708 436.268 341.598 437 342.614 437H386.028Z" fill="#A339FF"/>
<path d="M261.507 433.328C261.729 433.239 261.971 433.191 262.225 433.191H329.527C329.798 433.191 330.055 433.246 330.287 433.346C330.344 433.154 330.374 432.95 330.374 432.738L328.934 406.947L299.794 406.524C299.328 406.524 298.904 406.653 298.523 406.953C293.695 412.187 289.078 415.105 285.732 416.821C283.148 418.151 274.508 421.841 270.612 423.643C269.413 424.185 267.639 425.159 265.29 426.564C264.732 426.898 264.229 427.315 263.797 427.802C262.579 429.176 261.815 430.406 261.505 431.494C261.421 431.752 261.421 431.966 261.378 432.224C261.336 432.438 261.378 432.653 261.378 432.867V432.91C261.408 433.056 261.452 433.196 261.507 433.328ZM341.791 433.386C342.06 433.262 342.369 433.191 342.699 433.191H385.482L375.524 406.947L345.241 411.18L341.791 433.386Z" fill="#474961"/>
<path d="M331.774 332.888C332.995 333.495 334.135 334.062 335.195 334.589L335.414 337.937C335.668 342.334 335.965 346.196 336.303 349.598C336.558 352.275 339.819 382.593 341.005 393.718C341.259 396.242 343.08 398.383 345.579 399.071C349.349 400.141 351.763 400.753 361.547 401.097C362.182 401.135 362.817 401.097 363.41 401.059C372.898 400.294 377.642 398.918 378.7 398.459C380.056 397.886 380.776 397.618 381.496 396.968C384.037 394.751 383.868 391.233 383.91 389.933C384.124 381.649 384.7 359.343 384.875 340.151C385.131 340.152 385.388 340.153 385.647 340.154C388.056 340.154 390.375 339.138 392.512 337.36C395.241 335.074 404.833 327.515 405.428 311.611C405.841 300.547 403.913 292.142 399.644 286.397C399.644 286.355 394.329 277.974 391.101 277.974H343.549C340.244 278.087 325.49 278.469 299.286 279.12L299.301 279.221C299.155 279.218 299.008 279.215 298.862 279.212C288.146 279.015 279.464 287.553 279.718 297.98C279.718 298.059 279.718 298.098 279.718 298.177C280.395 330.52 288.316 376.595 288.866 392.177C288.909 392.767 289.078 394.065 289.968 395.442C292.721 399.652 299.159 398.708 314.194 399.062C326.985 399.377 332.153 400.321 334.779 396.859C336.219 394.97 336.176 392.806 336.134 391.822C335.087 372.082 333.562 352.155 331.774 332.888Z" fill="#474BFF"/>
<path opacity="0.176986" d="M331.865 332.806C333.087 333.414 334.227 333.98 335.286 334.507L333.344 304.851C333.302 303.131 333.09 292.732 341.519 286.118C347.66 281.339 355.114 281.033 360.07 280.841C367.694 280.536 373.623 282.524 374.767 282.906C376.207 283.403 376.927 283.671 377.647 284.015C385.864 287.991 385.228 307.107 385.144 310.586C385.059 314.983 385.017 321.826 385.017 329.779C385.017 333.014 384.998 336.465 384.966 340.024C385.192 340.025 385.419 340.026 385.647 340.027C388.056 340.027 390.375 339.011 392.512 337.233C395.241 334.947 404.833 327.388 405.428 311.484C405.841 300.42 403.913 292.015 399.644 286.27C399.644 286.228 394.329 277.847 391.101 277.847H343.549C340.329 277.957 325.884 278.39 300.212 279.148C303.341 279.217 306.446 279.287 309.583 279.356C319.113 279.592 327.033 286.635 328.05 295.842C329.395 307.717 330.687 320.119 331.865 332.806Z" fill="#444444"/>
<path d="M331.586 229.088C325.36 224.431 309.265 211.775 309.265 211.775C304.013 216.516 316.635 225.024 316.635 225.024" fill="#482D1F"/>
<path d="M302.85 209.977C306.008 204.703 305.103 197.765 300.36 193.497C294.971 188.648 286.669 189.083 281.817 194.468C276.965 199.854 277.4 208.15 282.789 213C287.42 217.167 294.203 217.432 299.098 214.006L314.141 227.542C314.489 227.855 315.025 227.827 315.338 227.479L317.888 224.648C318.201 224.301 318.173 223.766 317.826 223.453L302.85 209.977ZM298.184 209.196C294.897 212.844 289.273 213.139 285.623 209.854C281.972 206.569 281.678 200.949 284.964 197.3C288.251 193.652 293.875 193.358 297.526 196.643C301.176 199.927 301.471 205.548 298.184 209.196Z" fill="#474961"/>
<path d="M340.868 215.205C340.232 216.869 339.717 218.577 339.323 220.33C336.981 230.756 333.152 236.895 335.788 241.886C337.345 244.83 340.336 245.713 342.655 245.961L344.248 265.857C344.88 271.244 345.302 274.241 345.514 274.848C345.474 279.828 351.734 278.561 363.389 278.561C376.95 278.561 395.04 280.386 396.118 275.37C397.09 270.85 396.857 261.37 395.419 246.929C400.132 245.697 403.598 243.567 404.482 241.843C406.97 237.055 404.115 229.316 400.935 220.631C397.102 210.22 395.022 205.098 390.332 200.867C386.449 197.37 382.204 196.163 378.629 196.838C375.743 195.678 372.572 195.163 369.297 195.452L360.014 196.271C350.126 197.068 342.466 205.335 340.868 215.205Z" fill="#A339FF"/>
<path opacity="0.176986" d="M340.577 215.823C340.031 217.32 339.582 218.852 339.23 220.42C336.887 230.846 333.058 236.985 335.695 241.976C337.233 244.883 340.17 245.781 342.477 246.041L342.375 244.777L342.346 244.355L340.506 221.698L340.453 220.938C340.308 219.21 340.355 217.496 340.577 215.823Z" fill="#444444"/>
<path d="M373.295 195.629C372.562 193.17 371.508 189.107 370.133 183.438L370.011 181.053C370.096 180.587 370.175 180.572 370.598 180.445C371.699 180.149 372.291 179.434 373.054 178.588C374.452 176.979 374.833 174.609 374.155 172.45C373.308 170.376 371.106 168.81 369.073 168.979C368.31 169.064 367.59 169.36 366.912 169.783L366.87 169.826C366.658 170.037 366.362 170.08 366.065 170.122C365.345 170.122 364.752 169.614 364.71 168.895L364.329 157.847C364.329 157.127 363.778 156.619 363.058 156.619C361.491 156.619 359.966 156.535 358.399 156.196C358.187 156.196 358.018 156.154 357.849 156.154C356.324 155.984 348.149 155.477 343.744 161.529C343.363 162.122 342.982 162.715 342.686 163.307C341.923 164.831 341.584 166.524 341.711 168.302L342.177 176.006C342.262 176.768 342.347 177.529 342.516 178.334C344.549 187.857 348.869 194.461 352.512 194.672C354.375 194.715 356.239 194.503 358.06 193.953C358.287 193.84 358.143 193.928 360.689 192.9L361.208 195.701C356.151 196.524 353.338 198.132 353.029 198.289C353.93 199.283 354.056 199.618 354.833 200.246C363.534 207.272 377.655 198.021 379.437 196.836C377.265 196.277 375.217 195.886 373.295 195.629ZM336.141 253.954L335.461 258.819L301.831 265.162C300.837 264.991 299.878 264.896 298.952 264.869C295.767 264.737 293.025 265.355 291.168 265.84C286.524 265.619 281.924 265.355 277.325 265.134C273.565 264.252 265.162 262.928 264.897 268.222C264.897 268.222 268.524 269.193 273.433 270.472C274.581 270.771 275.801 271.089 277.061 271.416C283.572 273.662 292.09 278.295 296.995 279.866L347.243 278.114C346.484 277.183 345.918 276.127 345.581 274.938C345.369 274.331 344.947 271.333 344.315 265.946L343.708 258.359C352.885 263.573 361.407 267.936 369.274 271.448C374.042 273.576 379.87 275.245 384.546 276.841C395.442 279.058 397.5 275.136 398.744 273.85C400.192 272.354 405.016 268.104 402.843 243.703C398.896 246.668 389.463 249.555 380.05 246.998C377.617 246.337 375.444 245.713 373.529 245.126L373.682 246.598L323.37 225.494C323.25 225.401 323.118 225.317 322.977 225.247L308.449 218.347C307.348 217.84 305.993 218.305 305.442 219.406L304.934 220.379C304.418 221.45 304.832 222.67 305.793 223.272C304.77 223.057 303.757 223.539 303.325 224.511L302.816 225.484C302.384 226.382 302.605 227.385 303.254 228.04C302.7 228.208 302.204 228.584 301.899 229.14L301.341 230.085C300.731 231.198 301.17 232.535 302.241 233.142L309.825 237.243C319.091 243.456 327.863 249.026 336.141 253.954ZM299.587 398.829V406.524L328.934 406.947L328.754 399.349C325.507 399.562 320.9 399.224 314.203 399.059C307.971 398.913 303.215 398.989 299.587 398.829ZM346.072 399.205L345.241 411.18L375.524 406.947L374.346 399.617C371.836 400.121 368.24 400.668 363.419 401.056C362.826 401.094 362.191 401.133 361.556 401.094C352.196 400.765 349.581 400.191 346.072 399.205Z" fill="#BF865F"/>
<path d="M371.291 187.996C371.782 190.177 372.216 191.981 372.517 192.897C373.187 192.897 373.859 192.897 374.533 192.897C375.545 192.897 379.205 192.513 382.623 192.305C382.623 192.305 382.877 192.305 383.089 192.262C384.19 192.093 385.249 191.924 386.308 191.373C386.308 191.373 386.647 191.246 386.943 190.992C392.915 186.082 394.228 179.056 391.687 175.119C389.866 172.368 386.308 171.31 385.799 171.141C385.122 170.929 384.444 170.844 383.851 170.802C383.62 170.108 383.388 169.379 383.157 168.647C383.096 166.176 382.546 162.893 380.378 160.178C379.489 159.035 378.303 158.188 377.032 157.553C373.644 155.86 371.06 156.707 364.368 156.537C363.013 156.537 358.335 155.942 358.165 155.942C351.265 155.505 346.441 157.411 343.691 161.659C345.729 161.349 347.384 161.349 348.655 161.659C356.871 163.691 359.286 177.913 363.055 177.32C363.091 177.316 363.129 177.31 363.169 177.301L363.14 177.278L364.961 172.283C365.385 171.268 366.105 170.463 366.952 169.786C367.629 169.363 368.349 169.067 369.112 168.982C371.145 168.813 373.347 170.379 374.194 172.453C374.332 172.808 374.435 173.171 374.504 173.536C374.739 175.333 374.275 177.152 373.135 178.463C373.072 178.534 373.006 178.604 372.94 178.672C372.937 178.677 372.934 178.681 372.931 178.685C372.043 179.6 370.89 180.229 369.628 180.478C370.151 183.286 370.982 186.952 371.291 187.996ZM348.231 173.638C349.078 173.85 350.476 174.061 351.619 173.765C353.61 173.342 351.746 172.156 349.925 172.072C349.078 172.029 348.4 172.368 347.977 172.707C347.68 173.003 347.807 173.553 348.231 173.638ZM341.078 173.639C341.947 173.86 343.288 174.126 344.494 173.808C346.535 173.332 344.645 172.137 342.854 172.082C341.915 172.036 341.308 172.387 340.87 172.722C340.512 173.009 340.644 173.549 341.078 173.639Z" fill="#482D1F"/>
<path opacity="0.2" d="M336.874 254.092C336.667 253.971 336.459 253.85 336.251 253.728L335.541 258.736L301.916 265.038C300.921 264.866 299.96 264.772 299.033 264.745C295.849 264.613 293.107 265.23 291.249 265.716C286.605 265.495 282.006 265.23 277.406 265.01C273.647 264.127 265.244 262.804 264.978 268.098C264.978 268.098 268.605 269.069 273.514 270.348C274.662 270.647 275.882 270.964 277.143 271.292C283.653 273.538 292.171 278.17 297.077 279.742L347.324 277.989C346.565 277.058 346 276.003 345.663 274.814C345.45 274.206 345.028 271.209 344.397 265.822L343.827 258.71L343.787 258.549L343.814 258.543L343.789 258.235L336.874 254.092Z" fill="#8C2A00"/>
<path d="M245.893 252.594C245.508 253.894 246.224 255.232 247.525 255.616L305.724 273.487C307.025 273.871 308.363 273.156 308.748 271.856C309.132 270.557 308.416 269.219 307.116 268.834L248.916 250.963C247.658 250.58 246.277 251.294 245.893 252.594Z" fill="#474961"/>
<path d="M360.788 192.723L364.107 191.239L361.411 196.184L360.788 192.723Z" fill="#482D1F"/>
<path d="M344.165 178.802C344.546 178.294 344.419 177.151 344.292 176.389C344.25 175.839 343.741 175.5 343.276 175.5C342.979 175.543 342.598 175.712 342.513 176.305C342.217 177.702 343.657 179.649 344.165 178.802ZM351.154 178.844C351.577 178.336 351.408 177.151 351.281 176.432C351.238 175.881 350.73 175.543 350.264 175.543C349.968 175.585 349.586 175.754 349.502 176.347C349.205 177.744 350.603 179.691 351.154 178.844Z" fill="#482D1F"/>
<path d="M344.902 178.098L344.524 175.634C344.488 175.403 344.647 175.187 344.878 175.151C345.109 175.116 345.326 175.274 345.361 175.505L345.743 177.996L345.748 178.049L345.868 182.534C345.885 182.583 345.926 182.616 345.981 182.62C346.493 182.555 347.153 182.494 347.962 182.436C348.195 182.419 348.398 182.594 348.415 182.827C348.432 183.061 348.256 183.263 348.023 183.28C347.212 183.338 346.557 183.4 346.059 183.464L346.012 183.467C345.518 183.476 345.116 183.131 345.03 182.665L345.023 182.6L344.902 178.098Z" fill="#482D1F"/>
<path d="M348.315 186.717C348.612 186.675 349.374 186.506 349.543 186.04C349.543 185.956 349.628 185.829 349.586 185.744C349.459 185.532 348.146 185.532 348.146 185.532C346.409 185.575 345.986 185.49 345.859 185.702C345.816 185.829 345.816 185.998 346.113 186.379C346.494 187.098 347.892 186.844 348.315 186.717Z" fill="#482D1F"/>
<path d="M373.975 244.564L371.656 223.166C371.619 222.817 371.871 222.504 372.22 222.466C372.568 222.428 372.882 222.68 372.92 223.029L375.238 244.427C375.276 244.775 375.024 245.089 374.675 245.126C374.326 245.164 374.013 244.912 373.975 244.564Z" fill="#482D1F"/>
</g>
<defs>
<clipPath id="clip0_588_5658">
<rect width="221.091" height="320" fill="white" transform="translate(215 117)"/>
</clipPath>
</defs>
</svg>
