<svg width="100" height="160" viewBox="0 0 100 160" fill="none" xmlns="http://www.w3.org/2000/svg">
<path d="M0 50C0 22.3858 22.3858 0 50 0V0C77.6142 0 100 22.3858 100 50V110C100 137.614 77.6142 160 50 160V160C22.3858 160 0 137.614 0 110V50Z" fill="#FDAE46" fill-opacity="0.12"/>
<path d="M63.3449 136.848C63.2163 136.944 63.0577 137 62.8851 137H53.4636C53.0392 137 52.6828 136.646 52.6828 136.224C52.6828 135.802 53.0392 135.447 53.4636 135.447H62.643L79.5041 122.957C79.8436 122.704 80.3359 122.771 80.5906 123.109C80.8452 123.447 80.7773 123.936 80.4378 124.189L63.3943 136.814C63.3782 136.826 63.3617 136.838 63.3449 136.848ZM6.7639 136.982C6.35649 136.982 6 136.644 6 136.222C6 135.8 6.33951 135.463 6.7639 135.463H33.738C34.1624 135.463 34.5019 135.8 34.5019 136.222C34.5019 136.644 34.1624 136.982 33.738 136.982H6.7639Z" fill="#FFCB3D"/>
<path d="M79.5883 122.902C79.5594 122.919 79.5313 122.937 79.5041 122.957L62.643 135.447H53.4636C53.4355 135.447 53.4077 135.449 53.3802 135.452C53.3708 135.398 53.3642 135.344 53.3618 135.294C53.3788 135.176 53.3788 135.041 53.4127 134.906C53.4976 134.602 53.6334 134.315 53.7862 134.062C54.2785 133.285 55.1612 132.745 55.1612 132.745C56.1797 132.087 57.1134 131.648 58.2168 131.176C58.794 130.922 59.6088 130.585 60.5594 130.214C60.865 129.235 61.1706 128.256 61.4761 127.26C62.0533 125.353 62.6304 123.462 63.1906 121.572L73.4099 114.196L79.5883 122.902ZM34.067 135.536C33.9675 135.489 33.8561 135.463 33.7381 135.463H6.7639C6.68542 135.463 6.60984 135.474 6.53878 135.496C6.51085 135.436 6.48937 135.372 6.47532 135.305V135.288C6.47532 135.204 6.45834 135.12 6.47532 135.035C6.49229 134.934 6.49229 134.849 6.52624 134.748C6.74693 133.989 7.34107 133.347 7.73151 132.993C7.78244 132.942 7.81639 132.925 7.86731 132.892C8.61424 132.436 9.37814 132.014 10.176 131.659C11.7377 130.951 15.2008 129.499 16.2363 128.976C17.5773 128.301 19.4277 127.153 21.3629 125.094C21.4647 125.043 23.962 122.129 23.962 122.129C30.7397 124.48 34.1285 125.662 34.1285 125.673V135.221C34.1285 135.333 34.1066 135.439 34.067 135.536Z" fill="#474961"/>
<path d="M46.2764 108.617C43.9141 113.047 41.1556 118.5 38.0011 124.977C37.4331 126.143 36.0713 126.695 34.8455 126.255L22.2036 121.722C22.1293 121.695 22.0563 121.665 21.9848 121.632C20.7119 121.037 20.1648 119.53 20.7627 118.264L32.9684 92.4302C32.7214 92.0966 32.4789 91.7655 32.2411 91.4371C32.2262 91.4067 32.2035 91.3989 32.1887 91.3686C29.5311 87.6815 30.2614 82.6707 33.8337 80.2999C35.0168 79.5196 36.1999 78.7393 37.383 77.959C38.906 76.9599 40.692 76.6028 42.4291 76.8373C43.2976 76.2974 44.3004 75.8533 45.4401 75.6107C46.5936 75.3697 47.6731 75.3815 48.665 75.537L88.3225 75.3356C89.6126 89.4184 87.3188 96.879 81.4413 97.7174C77.2724 98.3121 71.1436 98.4738 63.0549 98.2026C66.7377 102.737 70.4156 107.372 73.9979 112.027C74.2527 112.354 74.8065 113.137 74.8046 114.133C74.7948 115.959 72.86 116.822 68.5859 119.609C63.5636 122.908 61.673 124.707 59.7321 123.827C59.0899 123.557 58.7072 123.122 58.5499 122.917C56.4386 120.082 51.5961 114.718 46.2764 108.617Z" fill="#A339FF"/>
<path opacity="0.176986" d="M46.3096 108.74C47.8405 105.867 49.2057 103.422 50.4053 101.405C51.1898 100.086 51.9328 98.8426 52.6093 97.7169C56.3768 97.9568 59.845 98.1306 63.0138 98.2383C66.7078 102.786 70.3972 107.434 73.9904 112.104C74.2452 112.431 74.799 113.214 74.7971 114.21C74.7873 116.036 72.8525 116.9 68.5784 119.686C63.5561 122.985 61.6655 124.784 59.7246 123.904C59.0824 123.634 58.6997 123.2 58.5424 122.994C56.4365 120.166 51.6132 114.823 46.3096 108.74V108.74ZM33.0023 92.5632C32.741 92.2107 32.4846 91.8609 32.2336 91.5142C32.2187 91.4838 32.196 91.4761 32.1812 91.4457C29.5236 87.7586 30.2539 82.7478 33.8262 80.377C35.0093 79.5967 36.1924 78.8164 37.3755 78.0362C38.9046 77.033 40.699 76.677 42.4429 76.9173C39.9028 78.5223 38.5292 80.9357 38.2548 81.4461L33.0023 92.5632Z" fill="#444444"/>
<path d="M57.8665 65.1067C56.337 64.9453 54.1542 64.7262 51.3182 64.4496C50.6401 64.3662 49.9964 63.6613 50.0404 62.9279C49.9024 61.1464 51.0957 57.6225 51.3554 56.8763C51.9496 55.2053 53.019 51.9815 53.4095 50.4962C54.4959 46.2935 55.837 44.7238 56.2953 44.268C56.8216 43.7279 57.3308 43.3566 57.6703 43.1203C59.962 41.5506 62.3895 41.3143 63.6288 41.2805C63.6627 41.2637 63.6967 41.2637 63.7306 41.2637L66.5062 41.2248C67.9504 40.8905 69.3691 40.7829 70.5266 40.6963C72.2205 40.579 73.9694 40.4552 75.6945 40.6743L80.4176 40.7404C80.4515 40.7404 80.4855 40.7404 80.5194 40.7573C81.7587 40.7911 84.1862 41.0274 86.4779 42.5971C86.8174 42.8334 87.3266 43.2047 87.8529 43.7448C88.3112 44.2005 89.6523 45.7702 90.7387 49.973C91.1292 51.4583 92.1986 54.6821 92.7928 56.3531C92.977 56.8823 93.371 58.5907 93.9748 61.4783C94.0254 61.5558 94.0609 61.6402 94.0782 61.7301C94.0905 61.8067 94.0887 61.8825 94.0743 61.956C94.1067 62.1117 94.1396 62.2705 94.173 62.4325C94.0341 62.435 93.8957 62.4379 93.7577 62.441C93.5652 62.5947 93.3008 62.7024 92.9998 62.7324L88.3948 63.2176C89.1379 67.7871 89.2253 71.6197 88.8091 74.0158C88.8091 74.0688 88.7902 74.1396 88.7714 74.1926C88.6771 74.7409 59.3686 75.3952 59.1613 75.2007C57.2765 73.5206 57.6912 69.506 57.6912 69.506C57.7502 67.9333 57.8087 66.4692 57.8665 65.1067Z" fill="#FFCB3D"/>
<path d="M69.1294 44.9835L71.9254 43.323L73.8286 45.3161L73.8265 45.3337C73.7783 45.7321 73.5035 46.0485 73.1459 46.1708L72.8888 63.5271C72.8881 63.575 72.867 63.6203 72.8307 63.6518L70.1698 65.9614C70.0999 66.0221 69.994 66.0157 69.932 65.9472L67.5211 63.2833C67.4879 63.2467 67.4725 63.1974 67.479 63.1484L69.7702 45.8225C69.4172 45.6848 69.1681 45.3599 69.1294 44.9835Z" fill="#DE3190"/>
<path opacity="0.176986" d="M72.2251 40.4518C71.2556 40.6233 67.6794 40.6634 67.5774 41.8222C67.5095 42.5947 67.5461 43.9338 67.6872 45.8395L71.9243 43.323L75.0387 46.5843C76.8614 43.6898 77.1526 41.8826 75.9123 41.1629C74.0518 40.0832 73.1947 40.2803 72.2251 40.4518Z" fill="#8C2A00"/>
<path d="M75.535 36.8189L74.7019 42.0199C74.6792 42.1359 74.6065 42.2422 74.4968 42.2726C74.0118 42.4539 73.3369 42.633 72.538 42.6505C71.0934 42.698 69.9556 42.2374 69.3279 41.9098C69.2011 41.8509 69.127 41.699 69.1529 41.5664L69.6563 38.6498C68.7147 38.8048 68.7702 38.7818 68.6788 38.7936C67.5772 38.8558 66.6838 38.6488 66.5237 38.5834C65.9335 38.4178 65.3975 37.7983 64.9961 36.8438C64.4498 35.569 64.11 33.6807 64.1547 31.5057C64.1464 31.1946 64.188 30.8931 64.2296 30.5917L64.7428 27.613C64.8557 26.9471 65.1486 26.3331 65.5851 25.7813C65.7702 25.5419 65.9457 25.3523 66.1479 25.2023C67.4044 24.1137 68.9508 23.9507 70.1512 24.0477C70.7922 24.0889 71.3613 24.2029 71.7625 24.3261C71.9092 24.3716 72.4295 24.541 73.1863 24.7388C73.5964 24.8525 73.9297 24.9169 74.1264 24.9721C76.5898 25.5514 77.6313 25.4432 78.7515 26.3475C78.9621 26.5085 79.4371 26.9098 79.7903 27.5799C80.786 29.4746 80.0548 31.5342 79.8484 32.1476C79.1792 33.9785 77.8527 34.9257 77.4255 35.3418C76.9142 35.8478 76.105 36.4307 75.535 36.8189ZM50.9654 71.3202L51.9051 64.5007L56.1457 64.9071L57.9406 65.1039L57.8319 68.9832C58.5271 68.8782 59.1536 68.8419 59.7115 68.8743C63.8066 67.9115 75.7063 65.1646 82.4521 64.139L82.416 63.8016L93.1185 62.674C93.4196 62.644 93.6839 62.5362 93.8765 62.3825C93.9361 62.3812 93.9958 62.3799 94.0556 62.3786C94.7082 67.4311 94.1835 73.7512 88.1003 75.5198H60.6818C60.6841 75.528 60.6866 75.536 60.6893 75.5439H48.11C48.0405 73.8973 48.9924 72.4893 50.9654 71.3202Z" fill="#DB9E75"/>
<path opacity="0.2" d="M50.9619 71.3442L51.905 64.5007L57.9404 65.0793L57.8232 68.9734C55.9818 69.276 54.6533 69.5682 53.8376 69.85C53.0219 70.1318 52.0633 70.6299 50.9619 71.3442Z" fill="#8C2A00"/>
<path d="M82.8218 63.8372C82.8506 63.974 82.7624 64.1082 82.6248 64.1369C82.4871 64.1656 82.3522 64.0779 82.3233 63.941C82.0558 62.6718 81.0052 58.4439 80.0179 54.5584C79.9835 54.4229 80.0661 54.2852 80.2024 54.2509C80.3388 54.2167 80.4772 54.2988 80.5117 54.4344C81.5019 58.3313 82.5521 62.5577 82.8218 63.8372ZM58.1408 64.9064C58.1184 65.0444 57.9877 65.1383 57.8489 65.116C57.71 65.0937 57.6157 64.9638 57.6381 64.8257C57.8458 63.5456 58.3888 59.2241 58.8675 55.2449C58.8842 55.106 59.0109 55.0069 59.1506 55.0235C59.2902 55.0401 59.3899 55.1662 59.3732 55.305C58.893 59.2959 58.3502 63.6158 58.1408 64.9064Z" fill="#482D1F"/>
<path d="M69.6185 38.6631L72.2033 38.081L69.3847 40.1478L69.6185 38.6631Z" fill="#482D1F"/>
<path d="M66.0068 31.2092C65.935 31.4877 65.7944 31.9419 65.5953 32.0754C65.2635 32.2692 65.0588 31.3699 65.3759 30.8982C65.5013 30.6989 65.6244 30.6883 65.7545 30.7306C65.948 30.8024 66.0456 31.0104 66.0068 31.2092ZM68.9993 31.736C68.9609 32.0209 68.8702 32.4848 68.6647 32.6514C68.3597 32.8848 68.0486 31.9993 68.3189 31.5013C68.4276 31.2988 68.554 31.2717 68.6873 31.2974C68.8873 31.3361 69.0215 31.534 68.9993 31.736Z" fill="#482D1F"/>
<path d="M66.9656 34.885C67.0887 34.8744 67.3882 34.8463 67.4738 34.6737C67.4803 34.6406 67.5067 34.5941 67.4965 34.5578C67.4525 34.4289 67.2396 34.4565 66.9364 34.4151C66.3967 34.3452 65.9732 34.2118 65.9732 34.2118C65.9732 34.2118 66.025 34.5657 66.0889 34.6812C66.2236 34.9651 66.7893 34.9025 66.9656 34.885Z" fill="#482D1F"/>
<path d="M66.4832 31.3358L66.4893 31.3132L66.4855 31.3243L66.4832 31.3358ZM65.8928 33.0377C65.8249 33.2184 65.9347 33.4301 66.1185 33.4983C66.1593 33.5102 66.1593 33.5102 66.1859 33.5174C66.4628 33.5933 66.6371 33.6352 66.9388 33.6936C67.0309 33.7113 67.12 33.6516 67.1379 33.5601C67.1557 33.4686 67.0956 33.38 67.0036 33.3622C66.7113 33.3057 66.5452 33.2657 66.276 33.192L66.2229 33.1774C66.2226 33.1766 66.2112 33.1546 66.2124 33.1516L66.8104 31.4229L66.8165 31.4003L67.0076 30.4227C67.0255 30.3312 66.9654 30.2426 66.8733 30.2248C66.7813 30.207 66.6922 30.2668 66.6743 30.3583L66.4855 31.3243L65.8928 33.0377Z" fill="#482D1F"/>
<path d="M77.1107 32.0062C77.0921 32.5064 76.9009 33.018 76.5962 33.4002C76.2221 33.8837 75.7858 34.1025 75.2521 34.2326C75.161 34.2548 75.1053 34.3462 75.1276 34.4368C75.1499 34.5273 75.2418 34.5827 75.3329 34.5605C75.5676 34.5033 75.7572 34.4409 75.9849 34.3267C76.3203 34.1585 76.6194 33.9239 76.8637 33.6079C77.2117 33.1716 77.4287 32.591 77.45 32.0187C77.4535 31.9256 77.3804 31.8472 77.2867 31.8438C77.193 31.8403 77.1142 31.9131 77.1107 32.0062Z" fill="#482D1F"/>
<path d="M77.1209 31.9486C77.12 31.6422 77.0581 31.3309 76.9198 31.0313C76.5324 30.1827 75.6135 29.5753 74.7618 29.6858C74.2828 29.7479 73.9148 30.0379 73.875 30.0646C73.7161 30.1997 73.5849 30.343 73.4784 30.4788L64.6445 28.1061C64.8392 26.1997 65.8106 24.9359 67.5586 24.3148C68.0309 24.147 69.3039 23.8998 70.4124 24.0428C72.1234 24.2635 73.768 24.7314 74.2301 24.8556C74.6069 24.9628 75.2495 25.0269 75.4232 25.0777C77.3104 25.2569 78.7405 26.089 79.2304 26.5238C79.4141 26.6797 79.8423 27.0719 80.1417 27.7316C81.0809 29.7358 80.3535 31.8132 80.1089 32.2818C79.9377 32.6098 79.7007 32.8047 79.7007 32.8047C78.9947 32.6316 78.1347 32.3462 77.1209 31.9486ZM64.9378 29.7816C64.7777 29.7163 64.7698 29.4912 64.9091 29.3978C65.085 29.2943 65.3775 29.2132 65.7108 29.2776C66.394 29.4097 67.0397 29.9987 66.2343 30.0494C65.7585 30.095 65.2382 29.9257 64.9378 29.7816ZM68.3478 30.5611C68.1877 30.4957 68.1798 30.2707 68.3358 30.1805C68.5117 30.0769 68.8042 29.9959 69.1541 30.0635C69.8374 30.1955 70.4799 30.8012 69.6777 30.8353C69.1653 30.891 68.6682 30.6917 68.3478 30.5611Z" fill="#482D1F"/>
</svg>
