<svg width="100" height="160" viewBox="0 0 100 160" fill="none" xmlns="http://www.w3.org/2000/svg">
<path d="M0 50C0 22.3858 22.3858 0 50 0V0C77.6142 0 100 22.3858 100 50V110C100 137.614 77.6142 160 50 160V160C22.3858 160 0 137.614 0 110V50Z" fill="#007AFF" fill-opacity="0.12"/>
<path d="M23.8951 136.497H51.2057C51.6354 136.497 51.9791 136.155 51.9791 135.728C51.9791 135.3 51.6354 134.958 51.2057 134.958H23.8951C23.4654 134.958 23.1216 135.3 23.1216 135.728C23.1216 136.155 23.4654 136.497 23.8951 136.497ZM74.168 136.497C74.5977 136.497 74.9414 136.201 74.9414 135.846V135.609C74.9414 135.254 74.5805 134.958 74.168 134.958H56.551C56.1213 134.958 55.7775 135.254 55.7775 135.609V135.846C55.7775 136.201 56.1385 136.497 56.551 136.497H74.168Z" fill="#A339FF"/>
<path d="M23.6377 135.014C23.7275 134.978 23.8258 134.958 23.929 134.958H51.2397C51.3496 134.958 51.4539 134.981 51.5483 135.021C51.5711 134.944 51.5834 134.861 51.5834 134.776L50.9992 124.363L39.1742 124.192C38.9851 124.192 38.8133 124.244 38.6586 124.365C36.6992 126.479 34.8258 127.656 33.468 128.349C32.4196 128.886 28.9133 130.376 27.3321 131.104C26.8459 131.322 26.1261 131.716 25.1727 132.283C24.9463 132.418 24.7419 132.586 24.5669 132.783C24.0728 133.337 23.7627 133.834 23.6368 134.273C23.6025 134.377 23.6025 134.464 23.5853 134.568C23.5681 134.654 23.5853 134.741 23.5853 134.828V134.845C23.5975 134.904 23.6152 134.96 23.6377 135.014ZM56.2164 135.037C56.3257 134.987 56.4512 134.958 56.5849 134.958H73.9463L69.9053 124.363L57.6163 126.072L56.2164 135.037Z" fill="#474961"/>
<path d="M52.1519 94.4632C52.6475 94.7082 53.1102 94.9371 53.5401 95.15L53.629 96.5018C53.7321 98.2769 53.8525 99.8359 53.99 101.21C54.0931 102.29 55.4165 114.531 55.8977 119.022C56.0009 120.041 56.7399 120.905 57.754 121.183C59.2837 121.615 60.2633 121.862 64.2336 122.001C64.4914 122.017 64.7492 122.001 64.9898 121.986C68.8398 121.677 70.7648 121.121 71.1945 120.936C71.7445 120.705 72.0366 120.597 72.3288 120.334C73.3601 119.439 73.2913 118.019 73.3085 117.494C73.3954 114.15 73.629 105.144 73.7001 97.3955C73.804 97.3958 73.9083 97.3962 74.0132 97.3965C74.9911 97.3965 75.9321 96.9864 76.7993 96.2686C77.9064 95.3458 81.799 92.294 82.0403 85.873C82.2081 81.406 81.4258 78.0128 79.6934 75.6933C79.6934 75.6762 77.5366 72.2926 76.2266 72.2926H56.93C55.5892 72.3382 49.6019 72.4924 38.9682 72.7554L38.9745 72.7963C38.9151 72.795 38.8558 72.7937 38.7964 72.7924C34.448 72.713 30.9246 76.1601 31.0277 80.3698C31.0277 80.4016 31.0277 80.4174 31.0277 80.4492C31.3027 93.5071 34.5167 112.109 34.7402 118.4C34.7573 118.638 34.8261 119.162 35.187 119.718C36.3042 121.418 38.9167 121.037 45.0182 121.18C50.2087 121.307 52.3056 121.688 53.3712 120.29C53.9556 119.528 53.9384 118.654 53.9212 118.257C53.4963 110.287 52.8776 102.242 52.1519 94.4632Z" fill="#474BFF"/>
<path opacity="0.176986" d="M52.1888 94.4303C52.6846 94.6754 53.1473 94.9043 53.5769 95.117L52.789 83.144C52.7719 82.4494 52.6859 78.2509 56.1062 75.5805C58.5984 73.6511 61.6233 73.5276 63.6342 73.4504C66.728 73.3269 69.1342 74.1296 69.5983 74.284C70.1826 74.4846 70.4748 74.5927 70.767 74.7316C74.1013 76.3369 73.8435 84.0546 73.8091 85.4593C73.7748 87.2344 73.7576 89.9973 73.7576 93.2079C73.7576 94.5139 73.75 95.9074 73.7369 97.3444C73.8286 97.3447 73.9207 97.345 74.0132 97.3453C74.9911 97.3453 75.9321 96.9351 76.7993 96.2174C77.9064 95.2946 81.799 92.2428 82.0403 85.8217C82.2081 81.3547 81.4258 77.9615 79.6934 75.6421C79.6934 75.625 77.5366 72.2413 76.2266 72.2413H56.93C55.6236 72.2857 49.7616 72.4608 39.3441 72.7666C40.6141 72.7946 41.8738 72.8226 43.147 72.8507C47.0141 72.946 50.2281 75.7895 50.6406 79.5067C51.1866 84.3008 51.7109 89.3078 52.1888 94.4303Z" fill="#444444"/>
<path d="M52.0742 52.5558C49.5477 50.676 43.0165 45.5664 43.0165 45.5664C40.8853 47.4804 46.0071 50.9153 46.0071 50.9153" fill="#482D1F"/>
<path d="M40.4132 44.84C41.695 42.7109 41.3275 39.9097 39.4029 38.1866C37.2161 36.2289 33.8472 36.4045 31.8782 38.5787C29.9092 40.753 30.0857 44.1027 32.2725 46.0605C34.1519 47.7429 36.9042 47.8498 38.8908 46.4666L44.9954 51.9317C45.1364 52.058 45.3538 52.0467 45.4808 51.9064L46.5159 50.7634C46.6429 50.6232 46.6315 50.4071 46.4904 50.2808L40.4132 44.84ZM38.52 44.5249C37.1861 45.9978 34.904 46.1167 33.4226 44.7905C31.9412 43.4643 31.8216 41.1951 33.1555 39.7222C34.4893 38.2493 36.7715 38.1304 38.2528 39.4566C39.7342 40.7828 39.8538 43.052 38.52 44.5249Z" fill="#474961"/>
<path d="M55.8408 46.9509C55.5829 47.6226 55.3741 48.3124 55.2142 49.0203C54.2636 53.2294 52.7097 55.708 53.7797 57.7229C54.4115 58.9114 55.6251 59.268 56.5661 59.368L57.2126 67.4006C57.4689 69.5755 57.6402 70.7856 57.7263 71.0308C57.7103 73.0413 60.2504 72.5298 64.9799 72.5298C70.483 72.5298 77.8237 73.2664 78.2613 71.2416C78.6557 69.4167 78.5611 65.5892 77.9777 59.7589C79.8899 59.2614 81.2967 58.4015 81.6554 57.7054C82.6648 55.7724 81.5065 52.648 80.2158 49.1416C78.6603 44.9384 77.8164 42.8704 75.9135 41.1622C74.3374 39.7506 72.6152 39.2633 71.1642 39.5356C69.993 39.0672 68.7065 38.8596 67.3774 38.9761L63.6102 39.3066C59.5978 39.6287 56.4894 42.966 55.8408 46.9509Z" fill="#A339FF"/>
<path opacity="0.176986" d="M55.7232 47.2004C55.5018 47.8046 55.3197 48.4233 55.1767 49.0564C54.226 53.2655 52.6722 55.7441 53.7422 57.759C54.3663 58.933 55.5582 59.2953 56.4941 59.4003L56.4531 58.8901L56.4411 58.7196L55.6944 49.5722L55.6728 49.2654C55.614 48.5678 55.6333 47.8757 55.7232 47.2004Z" fill="#444444"/>
<path d="M68.9999 39.0476C68.7025 38.055 68.2746 36.4143 67.7164 34.1257L67.6672 33.1626C67.7015 32.9746 67.7335 32.9686 67.9054 32.9173C68.3522 32.7977 68.5925 32.5092 68.9019 32.1674C69.4691 31.518 69.6238 30.5611 69.3488 29.6895C69.005 28.8521 68.1113 28.2198 67.2863 28.2882C66.9769 28.3224 66.6848 28.442 66.4098 28.6129L66.3926 28.63C66.3066 28.7154 66.1863 28.7325 66.066 28.7496C65.7738 28.7496 65.5332 28.5445 65.516 28.254L65.3613 23.7938C65.3613 23.5032 65.1379 23.2982 64.8457 23.2982C64.2098 23.2982 63.591 23.264 62.9551 23.1273C62.8692 23.1273 62.8004 23.1102 62.7317 23.1102C62.1129 23.0418 58.7958 22.8368 57.0083 25.2805C56.8536 25.5198 56.6989 25.759 56.5786 25.9983C56.2692 26.6135 56.1317 27.297 56.1833 28.0148L56.3724 31.125C56.4067 31.4326 56.4411 31.7402 56.5099 32.0649C57.3348 35.9099 59.088 38.5758 60.5661 38.6613C61.3223 38.6784 62.0786 38.5929 62.8176 38.3708C62.9095 38.3251 62.8512 38.3608 63.8842 37.9456L64.0949 39.0765C62.0428 39.4087 60.9011 40.0579 60.7758 40.1216C61.1415 40.5227 61.1925 40.658 61.5081 40.9116C65.0386 43.7481 70.7691 40.0132 71.492 39.5347C70.6108 39.3093 69.7795 39.1514 68.9999 39.0476ZM53.9227 62.5953L53.647 64.5591L39.9998 67.1201C39.5968 67.0509 39.2074 67.0129 38.8316 67.0019C37.5394 66.9485 36.4267 67.1979 35.6729 67.3938C33.7884 67.3048 31.9219 67.1979 30.0554 67.1088C28.5299 66.7526 25.12 66.2182 25.0123 68.3557C25.0123 68.3557 26.484 68.7475 28.4761 69.2641C28.9421 69.3848 29.437 69.5129 29.9485 69.6452C32.5905 70.552 36.0471 72.4222 38.0376 73.0565L58.4279 72.3491C58.12 71.9733 57.8904 71.5472 57.7537 71.0671C57.6675 70.8218 57.4962 69.6117 57.2399 67.4368L56.9934 64.3734C60.7174 66.4787 64.1756 68.2401 67.3681 69.6578C69.303 70.5171 71.6678 71.1908 73.5653 71.8352C77.9868 72.7303 78.822 71.147 79.3268 70.6279C79.9144 70.0236 81.8719 68.3079 80.9901 58.4565C79.3884 59.6534 75.5605 60.819 71.7411 59.7869C70.7538 59.5201 69.8716 59.2681 69.0947 59.0308L69.1567 59.6252L48.7405 51.105C48.6916 51.0672 48.6382 51.0337 48.581 51.0052L42.6857 48.2197C42.2388 48.0146 41.6888 48.2026 41.4654 48.6469L41.2592 49.04C41.0497 49.4724 41.2178 49.965 41.6077 50.208C41.1927 50.121 40.7814 50.3157 40.606 50.7079L40.3998 51.101C40.2242 51.4636 40.314 51.8684 40.5774 52.133C40.3526 52.2005 40.1512 52.3525 40.0277 52.5768L39.801 52.9586C39.5536 53.4077 39.7317 53.9475 40.1663 54.1926L43.2438 55.8484C47.004 58.3567 50.5636 60.6057 53.9227 62.5953ZM39.0895 121.085V124.192L50.9984 124.363L50.9251 121.295C49.6076 121.381 47.7381 121.245 45.0205 121.179C42.4914 121.119 40.5617 121.15 39.0895 121.085ZM57.9527 121.237L57.6155 126.072L69.9044 124.363L69.4264 121.404C68.4078 121.607 66.9485 121.828 64.9922 121.985C64.7516 122 64.4938 122.016 64.236 122C60.438 121.867 59.3767 121.635 57.9527 121.237Z" fill="#BF865F"/>
<path d="M68.1866 35.9657C68.3857 36.8462 68.5619 37.5748 68.6842 37.9446C68.9558 37.9446 69.2285 37.9446 69.5022 37.9446C69.9129 37.9446 71.3979 37.7895 72.785 37.7054C72.785 37.7054 72.8881 37.7054 72.9741 37.6883C73.4209 37.6199 73.8506 37.5516 74.2803 37.3294C74.2803 37.3294 74.4178 37.2781 74.5381 37.1756C76.9615 35.1933 77.4943 32.3565 76.4631 30.7672C75.724 29.6564 74.2803 29.2292 74.0741 29.1608C73.7991 29.0754 73.5241 29.0412 73.2834 29.0241C73.1895 28.744 73.0956 28.4496 73.0017 28.1541C72.977 27.1566 72.7538 25.8309 71.8741 24.7347C71.5132 24.2733 71.0319 23.9315 70.5163 23.6752C69.1413 22.9916 68.0929 23.3334 65.3773 23.2651C64.8273 23.2651 62.9289 23.0246 62.8602 23.0246C60.0602 22.8484 58.1024 23.6178 56.9867 25.3329C57.8138 25.2075 58.4852 25.2075 59.0008 25.3329C62.3351 26.1531 63.3148 31.8951 64.8445 31.6558C64.859 31.654 64.8745 31.6514 64.8909 31.6479L64.8788 31.6387L65.6179 29.6222C65.7898 29.2121 66.082 28.8874 66.4257 28.614C66.7007 28.4431 66.9929 28.3234 67.3023 28.2893C68.1272 28.2209 69.021 28.8532 69.3647 29.6906C69.4207 29.834 69.4625 29.9804 69.4904 30.1279C69.5858 30.8535 69.3976 31.5876 68.9351 32.1172C68.9091 32.1459 68.8826 32.174 68.8555 32.2016C68.8543 32.2033 68.8531 32.205 68.8519 32.2067C68.4917 32.576 68.0237 32.83 67.5117 32.9304C67.7242 34.0644 68.0614 35.5442 68.1866 35.9657ZM58.8289 30.1691C59.1727 30.2545 59.7398 30.34 60.2039 30.2203C61.0117 30.0494 60.2555 29.571 59.5164 29.5368C59.1727 29.5197 58.8977 29.6564 58.7258 29.7931C58.6055 29.9127 58.657 30.1349 58.8289 30.1691ZM55.9261 30.1695C56.279 30.2589 56.8232 30.3659 57.3123 30.2376C58.1408 30.0455 57.3737 29.5633 56.6471 29.5407C56.2659 29.5224 56.0196 29.6639 55.8417 29.7995C55.6966 29.915 55.7503 30.1333 55.9261 30.1695Z" fill="#482D1F"/>
<path opacity="0.2" d="M54.2203 62.6509C54.1362 62.602 54.052 62.553 53.9676 62.5038L53.6792 64.5257L40.0343 67.0702C39.6308 67.0008 39.2409 66.9627 38.8646 66.9518C37.5724 66.8983 36.4597 67.1477 35.7059 67.3436C33.8214 67.2546 31.9549 67.1477 30.0884 67.0586C28.5629 66.7024 25.153 66.168 25.0453 68.3055C25.0453 68.3055 26.517 68.6973 28.5091 69.2139C28.9751 69.3346 29.47 69.4627 29.9815 69.595C32.6235 70.5018 36.0801 72.372 38.0706 73.0063L58.4609 72.2989C58.153 71.9231 57.9234 71.497 57.7867 71.0169C57.7005 70.7716 57.5292 69.5615 57.2729 67.3866L57.0418 64.5152L57.0257 64.4502L57.0364 64.4478L57.0264 64.3234L54.2203 62.6509Z" fill="#8C2A00"/>
<path d="M17.3 62.0461C17.144 62.5708 17.4346 63.1109 17.9623 63.2661L41.5794 70.4813C42.1071 70.6364 42.6504 70.3475 42.8064 69.8228C42.9624 69.2981 42.6718 68.758 42.1441 68.6029L18.527 61.3876C18.0165 61.2331 17.456 61.5214 17.3 62.0461Z" fill="#474961"/>
<path d="M63.9243 37.8743L65.2715 37.2753L64.1774 39.2716L63.9243 37.8743Z" fill="#482D1F"/>
<path d="M57.1794 32.2539C57.3341 32.0488 57.2825 31.5874 57.231 31.2798C57.2138 31.0576 57.0075 30.9209 56.8185 30.9209C56.6981 30.938 56.5435 31.0063 56.5091 31.2456C56.3888 31.8095 56.9731 32.5956 57.1794 32.2539ZM60.0153 32.2709C60.1872 32.0659 60.1184 31.5874 60.0669 31.2969C60.0497 31.0747 59.8434 30.938 59.6544 30.938C59.5341 30.9551 59.3794 31.0234 59.345 31.2627C59.2247 31.8266 59.7919 32.6127 60.0153 32.2709Z" fill="#482D1F"/>
<path d="M57.4778 31.97L57.3243 30.9749C57.3099 30.8816 57.3742 30.7944 57.4681 30.78C57.5619 30.7657 57.6496 30.8298 57.664 30.923L57.8192 31.9288L57.8211 31.9501L57.8699 33.7605C57.8768 33.7807 57.8933 33.7939 57.9157 33.7956C58.1234 33.7694 58.3912 33.7446 58.7194 33.721C58.8141 33.7143 58.8964 33.7851 58.9032 33.8792C58.9101 33.9733 58.8388 34.0552 58.7442 34.0619C58.4152 34.0855 58.1494 34.1103 57.9472 34.1362L57.9283 34.1376C57.7276 34.1411 57.5645 34.002 57.5296 33.8137L57.5268 33.7872L57.4778 31.97Z" fill="#482D1F"/>
<path d="M58.8634 35.4496C58.9837 35.4325 59.293 35.3641 59.3618 35.1761C59.3618 35.142 59.3962 35.0907 59.379 35.0565C59.3274 34.9711 58.7946 34.9711 58.7946 34.9711C58.0899 34.9882 57.9181 34.954 57.8665 35.0394C57.8493 35.0907 57.8493 35.1591 57.9696 35.3129C58.1243 35.6034 58.6915 35.5008 58.8634 35.4496Z" fill="#482D1F"/>
<path d="M69.2749 58.8039L68.3339 50.1649C68.3186 50.0242 68.4209 49.8977 68.5625 49.8825C68.704 49.8673 68.8312 49.969 68.8466 50.1097L69.7875 58.7487C69.8029 58.8894 69.7005 59.0159 69.559 59.0311C69.4174 59.0464 69.2903 58.9446 69.2749 58.8039Z" fill="#482D1F"/>
</svg>
