<svg width="472" height="472" viewBox="0 0 472 472" fill="none" xmlns="http://www.w3.org/2000/svg">
<g clip-path="url(#clip0_386_5736)">
<g clip-path="url(#clip1_386_5736)">
<path d="M452.807 382.663H420.277C419.515 382.663 418.849 382.114 418.849 381.455V381.015C418.849 380.356 419.484 379.807 420.277 379.807H452.807C453.569 379.807 454.236 380.356 454.236 381.015V381.455C454.236 382.114 453.601 382.663 452.807 382.663ZM372.355 379.807C373.143 379.807 373.783 380.446 373.783 381.235C373.783 382.024 373.143 382.663 372.355 382.663H320.623C319.835 382.663 319.195 382.024 319.195 381.235C319.195 380.446 319.835 379.807 320.623 379.807H372.355Z" fill="#DE3190"/>
<path d="M372.512 379.815C372.461 379.81 372.41 379.807 372.358 379.807H320.848C320.814 379.633 320.797 379.414 320.802 379.131C320.837 378.909 320.842 378.655 320.91 378.403C321.317 376.886 321.811 375.879 323.255 374.984C324.699 374.088 326.173 373.289 327.709 372.586C333.373 369.923 335.309 369.957 339.034 367.514C340.575 366.494 341.992 365.312 343.316 364.034C344.199 363.182 346 361.797 348.721 359.88L372.512 360.428V379.815ZM452.927 379.811C452.889 379.809 452.85 379.807 452.811 379.807H420.389L423.263 361.839L444.59 359.399L452.927 379.811Z" fill="#474961"/>
<path d="M382.201 184.82C383.286 183.595 384.5 182.464 385.834 181.446C389.713 179.988 397.115 178.447 402.396 180.13C408.573 182.097 412.385 187.478 412.385 187.478C412.385 187.478 413.29 186.535 422.738 212.92C429.036 230.511 435.147 254.347 441.071 284.43C441.639 287.798 444.912 306.797 450.892 341.428C450.897 341.456 450.901 341.484 450.905 341.513C451.156 343.248 449.954 344.857 448.219 345.109L415.139 349.898C413.547 350.128 412.034 349.131 411.619 347.577C407.493 332.148 405.262 323.715 404.926 322.276C404.203 319.403 403.493 316.15 402.757 312.423L396.969 284.44C396.912 284.169 396.802 283.289 396.639 281.8C393.939 271.897 391.63 263.429 389.712 256.397C388.171 262.315 386.503 268.661 384.708 275.434C383.837 313.415 383.185 335.014 382.754 340.23C382.688 341.036 382.476 344.006 382.12 349.14C382 350.864 380.524 352.175 378.798 352.09L344.696 350.42C343.073 350.341 341.772 349.048 341.682 347.425C340.175 320.058 341.173 294.315 344.677 270.195C350.116 232.759 358.335 217.461 363.237 203.061C363.291 202.89 367.181 196.731 374.904 184.585C377.589 184.601 380.021 184.679 382.201 184.82Z" fill="#FFCB3D"/>
<path opacity="0.176986" d="M377.465 192.966C375.666 197.852 375.359 203.277 376.787 208.524C378.788 215.875 380.788 223.225 382.789 230.576C382.789 230.576 385.111 239.091 389.755 256.122C388.203 262.119 386.52 268.556 384.708 275.434C383.814 313.296 383.151 334.835 382.72 340.051C382.427 343.601 382.207 346.616 382.062 349.098C381.959 350.838 380.474 352.17 378.733 352.082L344.6 350.357C342.976 350.275 341.677 348.979 341.591 347.355C340.144 320.033 341.173 294.313 344.677 270.195C350.116 232.759 358.237 217.394 363.139 202.994C363.183 202.855 370.189 197.549 377.465 192.966Z" fill="#8C2A00"/>
<path d="M374.689 132.989C375.375 132.737 376.056 132.523 376.718 132.342L376.586 129.962C376.567 129.615 376.83 129.318 377.176 129.293L392.065 128.257C392.415 128.233 392.718 128.496 392.743 128.846L392.837 130.19C400.959 129.198 405.7 128.971 407.061 129.51C419.683 134.511 421.77 156.222 421.704 162.827C421.686 164.598 418.855 166.188 413.212 167.596C413.827 173.599 414.19 176.991 414.398 178.753C414.398 178.753 414.395 179.065 414.466 179.526C414.645 180.882 371.763 194.156 371.763 194.156C371.731 194.128 371.701 194.13 371.701 194.13C371.701 194.13 371.092 194.027 370.339 193.656C369.965 193.502 369.586 193.286 369.199 192.976C366.331 190.733 365.869 185.131 365.809 183.764C365.771 183.331 365.741 182.991 365.741 182.991C365.623 180.953 365.335 176.826 364.766 169.127C362.732 170.003 360.515 170.895 358.115 171.801L358.204 140.128C358.21 137.864 359.554 135.816 361.629 134.91C366.249 132.891 370.602 132.251 374.689 132.989Z" fill="#DE3190"/>
<path d="M372.517 360.44H366.779L348.722 359.88L349.647 350.581L372.668 351.699L372.517 360.44ZM420.293 349.085L442.744 345.842L444.591 359.399L423.263 361.839L420.293 349.085ZM391.602 116.596V128.327L379.31 129.166L379.482 126.608C377.726 127.056 377.827 127.003 377.658 127.04C375.617 127.334 373.919 127.094 373.61 126.998C372.484 126.786 371.384 125.721 370.48 124.013C369.254 121.732 368.311 118.279 368.038 114.23C367.971 113.653 368 113.086 368.028 112.519L368.495 106.902C368.596 105.646 369.013 104.423 369.764 103.362C370.069 102.887 370.365 102.507 370.717 102.195C374.514 98.2858 380.445 99.5372 381.501 99.8057C381.624 99.8501 381.75 99.8633 381.873 99.9078C383.008 100.343 384.103 100.552 385.204 100.698C385.709 100.751 386.073 101.232 386.02 101.733L385.139 109.745C385.443 109.587 390.229 107.68 391.564 108.642C392.664 109.447 393.132 114.477 391.602 116.596ZM365.996 187.449L366.321 187.163C366.468 187.163 366.552 187.17 366.579 187.185L392.893 175.309L393.435 170.523C405.084 169.262 413.141 167.774 417.606 166.059C417.684 178.369 416.776 185.45 414.883 187.303C410.589 191.504 388.234 201.884 365.854 204.687C360.851 206.904 352.577 208.519 341.03 209.531C337.736 207.424 335.967 203.744 335.722 198.491L343.74 195.734C343.415 195.622 343.249 195.539 343.249 195.539C341.514 191.576 363.493 188.069 366.297 187.313L365.996 187.449ZM359.429 171.038C348.624 176.012 331.226 179.794 326.576 174.375C320.486 167.28 319.685 147.959 324.171 116.414C314.379 114.245 307.596 111.888 303.823 109.342C302.801 108.652 302.202 107.493 302.23 106.265C302.277 104.269 303.939 102.689 305.942 102.736C315.531 102.96 321.607 102.941 324.171 102.681C324.235 102.674 324.299 102.668 324.363 102.662C332.141 101.979 339.001 107.708 339.687 115.457L342.627 148.695L358.197 141.206L358.181 171.514C358.603 171.355 359.019 171.196 359.429 171.038Z" fill="#DB9E75"/>
<path opacity="0.176986" d="M374.449 132.929C371.599 134.011 368.692 135.768 366.749 138.622C366.192 139.45 365.491 140.696 365.015 142.451C364.948 142.707 364.878 142.931 364.81 143.186C364.648 143.73 364.299 144.883 364.018 146.123C363.721 147.52 363.592 150.15 363.642 153.793L363.65 153.886L363.723 155.407C364.139 160.914 364.477 165.43 364.749 169.118C362.73 169.991 360.527 170.877 358.141 171.778L358.207 140.116C358.212 137.857 359.548 135.813 361.615 134.902C366.146 132.903 370.424 132.246 374.449 132.929V132.929Z" fill="#444444"/>
<path d="M379.487 126.682L384.355 125.468L379.31 129.274L379.487 126.682Z" fill="#482D1F"/>
<path d="M388.912 117.904L388.941 117.901C389.372 117.755 390.631 117.315 391.471 116.005C392.311 114.695 392.602 112.851 391.713 111.296C390.852 109.777 389.041 108.793 387.473 109.137C386.591 109.331 385.953 109.931 385.884 109.988C384.919 110.967 384.61 112.078 384.61 112.078L384.45 112.842C384.275 112.582 384.115 112.326 383.972 112.075C381.98 109.484 379.991 106.861 378.002 104.238C376.703 104.452 374.646 104.586 372.364 103.839C371.563 103.565 370.884 103.049 370.282 102.7C370.463 102.496 370.641 102.324 370.79 102.118C373.576 99.0095 378.704 99.1013 381.013 99.5971C381.294 99.6583 382.29 99.8896 383.732 100.136C384.515 100.281 385.146 100.347 385.522 100.418C390.205 101.099 392.126 100.728 394.361 102.233C394.78 102.499 395.73 103.17 396.498 104.363C398.663 107.735 397.638 111.694 397.354 112.872C396.408 116.395 394.19 118.171 393.462 119.017C392.004 120.739 390.11 119.017 390.11 119.017C390.11 119.017 389.624 118.588 388.912 117.904Z" fill="#482D1F"/>
<path d="M348.078 199.736C348.333 199.673 348.591 199.829 348.654 200.084C348.717 200.339 348.562 200.597 348.306 200.66C346.704 201.056 345.449 201.325 342.648 201.891C339.86 202.455 338.614 202.721 337.029 203.113C336.774 203.176 336.516 203.02 336.453 202.765C336.39 202.51 336.546 202.252 336.801 202.189C338.403 201.793 339.658 201.525 342.459 200.958C345.247 200.394 346.493 200.128 348.078 199.736ZM351.739 204.47C351.998 204.423 352.245 204.594 352.293 204.853C352.34 205.111 352.168 205.359 351.91 205.407C350.139 205.73 348.772 206.011 345.732 206.662C342.684 207.315 341.31 207.598 339.527 207.923C339.268 207.971 339.02 207.799 338.973 207.541C338.925 207.282 339.097 207.034 339.356 206.987C341.127 206.664 342.493 206.382 345.533 205.731C348.582 205.078 349.955 204.796 351.739 204.47Z" fill="#482D1F"/>
<path d="M369.93 112.777C369.93 113.323 369.957 114.258 369.661 114.655C369.202 115.248 368.257 113.671 368.543 112.598C368.714 112.179 368.935 112.025 369.19 112.038C369.577 112.041 369.902 112.387 369.93 112.777ZM376.754 113.136C376.785 113.687 376.813 114.622 376.486 115.014C376.026 115.607 375.081 114.03 375.368 112.957C375.539 112.538 375.759 112.384 376.015 112.397C376.401 112.4 376.726 112.746 376.754 113.136Z" fill="#482D1F"/>
<path d="M372.731 113.413L372.149 116.519C372.147 116.53 372.185 116.585 372.2 116.587C372.371 116.617 372.548 116.637 372.826 116.659C372.88 116.663 372.936 116.667 373.017 116.673C373.119 116.68 373.175 116.684 373.229 116.688C373.413 116.702 373.565 116.714 373.727 116.728C373.901 116.743 374.031 116.897 374.015 117.072C374 117.247 373.846 117.376 373.671 117.361C373.512 117.347 373.363 117.335 373.182 117.321C373.129 117.317 373.073 117.313 372.971 117.306C372.889 117.3 372.831 117.296 372.776 117.291C372.48 117.268 372.286 117.247 372.091 117.213C371.731 117.149 371.46 116.765 371.524 116.405L372.107 113.296C372.139 113.124 372.305 113.01 372.477 113.043C372.65 113.075 372.763 113.241 372.731 113.413Z" fill="#482D1F"/>
<path d="M382.46 113.2C382.486 113.562 382.468 113.932 382.402 114.306C381.97 116.747 379.632 118.377 377.182 117.947C375.121 117.585 373.635 115.881 373.472 113.896L372.433 113.822C371.994 116.256 369.661 117.878 367.215 117.448C364.764 117.018 363.127 114.69 363.56 112.248C363.992 109.806 366.329 108.177 368.78 108.607C370.915 108.982 372.433 110.797 372.503 112.873L373.495 112.943C373.504 112.878 373.514 112.812 373.526 112.746C373.958 110.305 376.296 108.675 378.746 109.105C380.49 109.411 381.822 110.678 382.29 112.263L384.417 111.959C384.678 111.922 384.919 112.102 384.956 112.363C384.993 112.623 384.812 112.864 384.552 112.901L382.46 113.2ZM371.549 113.186C371.63 111.437 370.395 109.857 368.615 109.545C366.681 109.205 364.838 110.49 364.497 112.414C364.156 114.337 365.447 116.171 367.38 116.511C369.314 116.85 371.158 115.565 371.498 113.641C371.514 113.553 371.526 113.464 371.535 113.375C371.531 113.344 371.53 113.313 371.533 113.281C371.535 113.248 371.54 113.216 371.549 113.186ZM381.465 114.14C381.805 112.217 380.515 110.382 378.582 110.043C376.648 109.704 374.804 110.989 374.463 112.912C374.123 114.835 375.413 116.67 377.346 117.009C379.28 117.348 381.124 116.063 381.465 114.14Z" fill="#482D1F"/>
<path d="M373.955 119.239C374.19 119.184 374.766 119.028 374.852 118.723C374.863 118.661 374.911 118.573 374.854 118.531C374.725 118.348 374.323 118.437 373.732 118.494C372.688 118.567 371.865 118.487 371.865 118.487C371.865 118.487 372.089 119.04 372.254 119.197C372.569 119.605 373.615 119.34 373.955 119.239Z" fill="#482D1F"/>
<path d="M394.11 170.481C394.043 167.686 393.991 165.241 393.954 163.147C393.917 161.052 393.865 157.611 393.798 152.824C393.794 152.562 393.578 152.351 393.315 152.355C393.052 152.359 392.842 152.575 392.846 152.838C392.913 157.625 392.965 161.067 393.002 163.164C393.039 165.26 393.091 167.707 393.158 170.504C393.164 170.766 393.382 170.974 393.645 170.968C393.908 170.962 394.116 170.744 394.11 170.481Z" fill="#482D1F"/>
</g>
<g clip-path="url(#clip2_386_5736)">
<path d="M190.891 388.929L190.894 389.119C190.874 389.85 190.248 390.432 189.478 390.445L136.106 390.361C135.336 390.343 134.723 389.751 134.71 389.021L134.707 388.83C134.727 388.1 135.353 387.518 136.123 387.504L189.461 387.589C190.265 387.575 190.878 388.167 190.891 388.929ZM48.8782 390.129L48.8003 390.145L17.5781 365.743C17.0069 365.298 16.8799 364.441 17.356 363.902L17.4512 363.743C17.7368 363.394 18.1811 363.204 18.6254 363.235C18.8793 363.235 19.1015 363.331 19.3236 363.489L50.4004 387.512L67.4069 387.55C68.1368 387.538 68.7185 388.13 68.7629 388.86L68.7662 389.05C68.7473 389.781 68.1543 390.362 67.4245 390.375L48.8229 390.319C48.8413 390.256 48.8597 390.192 48.8782 390.129Z" fill="#FF5645"/>
<path d="M190.441 388.06C190.185 387.816 189.829 387.67 189.425 387.677L136.087 387.592C136.002 387.594 135.919 387.602 135.838 387.617L137.98 367.875L162.356 367.806C165.288 369.722 167.196 371.107 168.078 371.959C169.402 373.238 170.819 374.419 172.361 375.44C176.085 377.882 178.021 377.848 183.686 380.511C185.221 381.214 186.696 382.014 188.14 382.909C189.584 383.804 190.077 384.811 190.485 386.328C190.553 386.581 190.557 386.835 190.593 387.056C190.601 387.556 190.541 387.856 190.441 388.06ZM19.2852 363.575L30.393 348.387L49.4352 362.827L50.0446 364.795C52.2661 372.581 53.4721 376.686 53.6626 377.109C53.8916 377.604 54.1291 378.062 54.3787 378.508C56.1043 379.21 58.0638 379.897 61.0572 381.394C62.5806 382.123 64.0405 382.949 65.4687 383.869C66.8968 384.789 67.3729 385.805 67.7537 387.328C67.7857 387.456 67.8016 387.584 67.8135 387.708C67.6751 387.66 67.5263 387.635 67.3707 387.638L50.3642 387.6L19.2874 363.577C19.2867 363.577 19.2859 363.576 19.2852 363.575Z" fill="#474961"/>
<path d="M112.836 210.095C112.93 210.108 113.025 210.123 113.12 210.141C114.039 210.315 114.896 210.724 115.609 211.329C143.079 234.64 159.326 253.92 164.35 269.171C167.198 277.82 169.713 300.072 171.894 335.929C172.298 342.577 167.237 348.295 160.589 348.699C160.449 348.707 160.308 348.713 160.168 348.717L140.165 349.234C133.609 349.404 128.119 344.303 127.807 337.752L125.14 281.777C120.756 277.141 116.935 273.058 113.679 269.527C112.897 273.787 111.692 278.285 109.743 284.302C106.496 294.328 93.2676 314.145 70.0575 343.751L69.1656 344.939C65.3851 349.976 58.3656 351.256 53.0507 347.878L38.1243 338.39C32.5032 334.817 30.8429 327.364 34.4159 321.743C34.5644 321.509 34.721 321.28 34.8854 321.057L68.127 275.951C68.9193 258.069 70.488 242.424 72.833 229.018C76.3504 208.908 102.681 209.342 112.646 209.673C112.71 209.811 112.773 209.952 112.836 210.095Z" fill="#3ABF7C"/>
<path opacity="0.176986" d="M112.815 210.091C112.917 210.104 113.019 210.12 113.121 210.14C114.039 210.313 114.897 210.723 115.609 211.327C143.079 234.638 159.326 253.919 164.35 269.17C167.199 277.818 169.714 300.071 171.895 335.927C172.299 342.576 167.237 348.293 160.589 348.697C160.449 348.706 160.309 348.712 160.169 348.715L140.165 349.233C133.609 349.402 128.119 344.302 127.807 337.751L125.141 281.775C120.759 277.143 116.94 273.062 113.685 269.532C115.124 261.665 115.118 254.595 115.677 240.239C116.238 225.798 115.285 215.748 112.815 210.091Z" fill="#444444"/>
<path d="M131.735 135.609L329.924 121.75L338.846 249.338C339.09 252.835 336.454 255.868 332.957 256.113L147.432 269.086C143.935 269.33 140.902 266.694 140.657 263.197L131.735 135.609Z" fill="#FCFFFF"/>
<path d="M131.138 127.061C130.894 123.564 133.53 120.531 137.03 120.286L322.549 107.313C326.048 107.069 329.082 109.707 329.327 113.202L329.969 122.383L131.78 136.242L131.138 127.061Z" fill="#E1E5F0"/>
<path d="M141.781 131.407C143.617 131.278 145.002 129.686 144.873 127.85C144.745 126.014 143.152 124.63 141.316 124.758C139.481 124.887 138.096 126.479 138.225 128.315C138.353 130.151 139.945 131.535 141.781 131.407Z" fill="#FF5645"/>
<path d="M152.862 130.632C154.698 130.503 156.083 128.911 155.954 127.075C155.826 125.239 154.233 123.855 152.397 123.983C150.562 124.112 149.177 125.704 149.306 127.54C149.434 129.376 151.026 130.76 152.862 130.632Z" fill="#FFCB3D"/>
<path d="M164.26 129.835C166.096 129.707 167.48 128.114 167.352 126.278C167.223 124.442 165.631 123.058 163.795 123.186C161.959 123.315 160.575 124.907 160.703 126.743C160.832 128.579 162.424 129.963 164.26 129.835Z" fill="#3ABF7C"/>
<path d="M72.2587 184.644L68.7484 185.293C68.617 185.317 68.4835 185.327 68.35 185.324C67.2987 185.295 66.4699 184.419 66.4988 183.368C66.7796 173.14 67.8106 166.467 69.5919 163.348C70.1132 162.436 70.785 161.7 71.562 161.13C74.7386 158.115 80.1438 156.416 86.5902 155.319L88.3717 155.005C91.127 154.537 93.7813 154.572 96.2456 155.016C99.3206 155.133 103.106 155.847 106.548 158.116C107.094 158.471 108.26 159.232 109.545 160.488C109.545 160.488 112.067 162.912 115.358 171.161C115.74 172.139 116.294 173.764 117.021 176.035C117.289 176.87 116.829 177.763 115.994 178.031C115.937 178.049 115.879 178.064 115.82 178.075L111.829 178.871L112.881 191.836C112.91 192.186 112.934 192.504 112.995 192.847C113.25 194.478 113.259 196.539 112.207 198.433C110.699 201.212 108.305 205.179 95.7808 207.259C84.132 209.184 80.7441 206.236 78.45 204.191C76.8084 202.741 76.1193 200.477 75.8125 198.92C75.7519 198.576 75.6655 198.269 75.5737 197.931L72.2587 184.644Z" fill="#FF5645"/>
<path opacity="0.176986" d="M96.1899 155.01C102.37 156.106 107.361 159.768 109.767 164.513C110.554 166.05 110.956 167.784 111.066 169.505L111.826 178.871L115.804 178.096C115.863 178.085 115.921 178.07 115.978 178.052C116.814 177.788 117.278 176.897 117.014 176.061C116.292 173.773 115.74 172.14 115.358 171.161C112.066 162.911 109.544 160.488 109.544 160.488C108.259 159.232 107.094 158.471 106.548 158.116C103.051 155.811 99.2721 155.111 96.1899 155.01Z" fill="#444444"/>
<path d="M139.004 349.164C139.358 349.186 139.716 349.192 140.077 349.183L160.08 348.666C160.221 348.662 160.361 348.656 160.501 348.647C161.686 348.575 162.821 348.334 163.884 347.949L162.248 367.788H137.846L139.004 349.164ZM56.9142 349.445L49.4347 362.828L30.3926 348.387L37.0505 337.641C37.3642 337.887 37.693 338.12 38.0365 338.338L52.9629 347.826C54.2077 348.617 55.546 349.153 56.9142 349.445ZM127.464 202.037L132.076 202.549C134.041 201.514 151.939 192.227 153.106 196.731C153.106 196.731 153.029 196.895 152.847 197.177L161.181 194.324C165.777 200.757 161.887 210.812 161.825 210.847C151.19 215.513 143.206 217.992 137.874 218.285C137.258 218.318 136.707 218.279 136.222 218.167C136.214 218.225 136.206 218.284 136.198 218.343C119.373 220.361 101.734 219.614 83.2814 216.102C78.8418 215.257 73.9304 204.923 68.5473 185.102C68.5994 185.097 68.6513 185.09 68.7028 185.08L89.4157 181.251C89.6009 181.217 89.7749 181.157 89.9346 181.076L95.0376 198.438L110.722 200.179C111.236 199.487 111.609 198.82 111.94 198.21C112.992 196.316 112.983 194.255 112.728 192.625C112.667 192.281 112.643 191.963 112.614 191.614L111.798 178.754L115.606 178.119C115.691 178.104 116.241 177.961 116.241 177.961L120.373 186.26C123.925 184.294 134.331 172.089 134.331 172.089C134.331 172.089 134.824 178.735 135.924 193.333L127.464 202.037ZM93.616 151.425L93.9795 154.442C100.42 154.706 103.347 157.209 104.333 158.301C104.333 158.301 97.5384 159.542 83.9483 162.023C80.2834 159.085 74.8286 158.419 71.4398 160.974C73.3214 159.152 76.5713 157.583 81.1895 156.269C82.3977 155.925 83.5479 155.636 84.6427 155.396L83.4592 144.143C83.3904 144.104 83.3215 144.063 83.2528 144.019C82.0149 143.2 81.0809 141.676 81.2587 139.887C81.408 138.237 82.6436 135.967 84.1479 135.696C84.992 135.535 87.3485 136.251 87.182 135.507C87.0711 135.012 86.4212 132.382 85.2325 127.619C85.1317 127.12 85.4235 126.615 85.914 126.483C87.0258 126.218 88.1256 126.153 89.2165 125.565C89.3392 125.533 89.4536 125.469 89.5762 125.436C90.5856 125.034 96.2048 122.707 100.496 126.092C100.862 126.355 101.222 126.718 101.591 127.112C102.461 128.029 103.035 129.19 103.302 130.433L104.527 135.986C104.613 136.554 104.731 137.114 104.756 137.698C105.222 144.835 103.475 150.33 100.949 151.204C100.651 151.317 99.0036 151.791 96.9326 151.787C96.7323 151.775 96.9102 151.826 94.0559 151.474C93.9052 151.458 93.7586 151.441 93.616 151.425Z" fill="#F2A98A"/>
<path opacity="0.2" d="M127.202 202.069L135.904 193.237C134.805 178.61 134.331 172.089 134.331 172.089C134.331 172.089 123.919 184.246 120.367 186.212L116.241 177.961C116.241 177.961 115.765 178.119 114.654 178.278L111.798 178.754L112.609 191.806C112.638 192.155 112.662 192.473 112.723 192.817C112.978 194.448 112.987 196.509 111.935 198.402C111.623 198.976 111.274 199.601 110.806 200.249L127.202 202.069Z" fill="#8C2A00"/>
<path d="M151.873 202.394C153.443 201.943 154.656 201.552 157.356 200.649C160.067 199.743 161.29 199.349 162.877 198.893C163.129 198.821 163.393 198.967 163.466 199.219C163.538 199.472 163.392 199.736 163.14 199.808C161.57 200.259 160.357 200.65 157.657 201.552C154.945 202.459 153.723 202.853 152.136 203.309C151.884 203.381 151.62 203.235 151.547 202.983C151.475 202.73 151.621 202.466 151.873 202.394ZM151.043 208.928C152.752 208.32 154.084 207.88 157.054 206.925C160.015 205.972 161.34 205.534 163.037 204.931C163.285 204.842 163.557 204.972 163.645 205.22C163.734 205.467 163.604 205.739 163.356 205.828C161.648 206.435 160.315 206.876 157.346 207.831C154.385 208.783 153.059 209.221 151.362 209.825C151.115 209.913 150.842 209.784 150.754 209.536C150.666 209.288 150.796 209.016 151.043 208.928Z" fill="#482D1F"/>
<path d="M74.3267 135.923C74.3013 134.697 74.4988 133.359 75.1287 132.042C75.7303 130.73 76.6022 129.938 76.9739 129.609C79.0222 127.811 80.9952 127.94 85.6302 126.599C86.6029 126.306 88.0355 125.889 89.703 125.245C89.8338 125.243 89.9482 125.179 90.0708 125.147C91.0803 124.745 96.6163 122.966 100.682 126.246C100.699 126.307 101.312 126.636 101.306 126.736C101.306 126.736 97.0772 135.853 88.2387 137.712C88.0021 137.457 87.3753 136.853 86.4352 136.47C86.3268 136.434 85.5598 136.146 84.7157 136.307C83.2114 136.579 81.9908 138.154 81.8415 139.804C81.6473 141.532 82.5731 143.025 83.7803 143.852C84.9874 144.678 86.2876 144.626 86.7107 144.611L87.2072 144.467C87.636 145.289 87.9346 146.173 87.5883 146.848C86.9193 148.152 85.674 148.905 83.8524 149.106C82.1675 151.239 79.4123 152.727 76.2157 152.95C70.7079 153.336 65.9753 149.821 65.6452 145.1C65.329 140.579 69.1645 136.592 74.3267 135.923ZM105.105 134.401C104.547 134.649 103.591 135.004 102.65 134.927C101.186 134.859 102.369 133.754 103.642 133.479C104.263 133.345 104.805 133.528 105.147 133.7C105.419 133.857 105.395 134.257 105.105 134.401ZM99.1577 135.994C98.5692 136.251 97.6129 136.605 96.6417 136.537C95.1861 136.5 96.3602 135.364 97.6335 135.088C98.2855 134.947 98.8275 135.13 99.1691 135.301C99.4718 135.45 99.4478 135.851 99.1577 135.994Z" fill="#482D1F"/>
<path d="M103.439 137.377C103.401 136.993 103.634 136.635 104.002 136.536C104.247 136.471 104.494 136.536 104.701 136.94C105.179 137.864 104.606 139.529 104.06 139.084C103.655 138.798 103.517 137.915 103.439 137.377ZM97.9326 138.655C97.8954 138.271 98.128 137.913 98.4958 137.815C98.7411 137.749 98.9885 137.814 99.1955 138.218C99.6729 139.142 99.1005 140.807 98.5541 140.362C98.149 140.076 97.9803 139.201 97.9326 138.655Z" fill="#482D1F"/>
<path d="M101.125 144.437C100.894 144.433 100.323 144.389 100.141 144.076C100.125 144.015 100.069 143.931 100.083 143.862C100.157 143.645 100.58 143.63 101.148 143.544C102.154 143.373 102.926 143.067 102.926 143.067C102.926 143.067 102.845 143.746 102.733 143.94C102.558 144.513 101.487 144.439 101.125 144.437Z" fill="#482D1F"/>
<path d="M101.907 138.038L103.146 141.198L103.157 141.231C103.246 141.566 103.101 141.938 102.782 142.083C102.722 142.105 102.689 142.117 102.655 142.128C102.336 142.236 102.104 142.302 101.269 142.526C101.1 142.571 100.926 142.47 100.88 142.301C100.835 142.132 100.936 141.958 101.105 141.912C101.925 141.693 102.151 141.629 102.451 141.527C102.482 141.517 102.514 141.506 102.545 141.495C102.538 141.497 102.554 141.454 102.546 141.408L101.308 138.248L101.294 138.204L100.871 136.378C100.831 136.208 100.938 136.037 101.108 135.998C101.279 135.958 101.45 136.064 101.489 136.235L101.907 138.038Z" fill="#482D1F"/>
<path d="M90.5193 181.042C89.7477 178.071 88.9239 174.984 88.0477 171.778C87.9784 171.525 87.7166 171.375 87.463 171.445C87.2093 171.514 87.0599 171.776 87.1293 172.029C88.0044 175.231 88.8273 178.315 89.5978 181.281C89.6639 181.536 89.9238 181.688 90.1783 181.622C90.4327 181.556 90.5855 181.296 90.5193 181.042Z" fill="#482D1F"/>
</g>
<path d="M193.506 190.23L194.2 198.918L209.415 197.703L209.903 203.808L194.687 205.023L195.643 216.998L188.035 217.606L185.411 184.732L210.254 182.749L210.741 188.854L193.506 190.23Z" fill="#D7DBE6"/>
<path d="M222.3 192.799C223.079 191.508 224.179 190.491 225.601 189.747C227.054 189.001 228.751 188.551 230.692 188.396L231.231 195.158C230.412 195.161 229.862 195.173 229.58 195.196C227.483 195.363 225.887 196.089 224.792 197.374C223.695 198.627 223.24 200.428 223.427 202.776L224.379 214.704L217.053 215.289L215.036 190.024L222.034 189.465L222.3 192.799Z" fill="#D7DBE6"/>
<path d="M260.613 199.193C260.621 199.287 260.626 199.948 260.63 201.177L241.516 202.702C241.986 204.24 242.898 205.412 244.255 206.217C245.611 207.023 247.244 207.349 249.153 207.197C250.468 207.092 251.612 206.812 252.584 206.356C253.584 205.866 254.489 205.164 255.298 204.249L259.533 208.164C257.372 211.078 254.005 212.717 249.434 213.082C246.585 213.31 244.021 212.963 241.742 212.042C239.461 211.09 237.646 209.675 236.299 207.798C234.952 205.92 234.178 203.729 233.978 201.225C233.781 198.751 234.183 196.482 235.184 194.417C236.213 192.319 237.702 190.64 239.65 189.382C241.626 188.09 243.882 187.343 246.418 187.14C248.891 186.943 251.172 187.296 253.261 188.201C255.35 189.105 257.037 190.515 258.324 192.428C259.64 194.308 260.403 196.563 260.613 199.193ZM246.907 192.678C245.248 192.811 243.892 193.391 242.84 194.421C241.788 195.45 241.202 196.788 241.081 198.436L253.526 197.443C253.148 195.866 252.358 194.653 251.156 193.804C249.952 192.923 248.535 192.548 246.907 192.678Z" fill="#D7DBE6"/>
<path d="M290.239 196.828C290.247 196.922 290.252 197.583 290.256 198.811L271.143 200.337C271.612 201.875 272.525 203.047 273.881 203.852C275.237 204.658 276.87 204.984 278.78 204.832C280.094 204.727 281.238 204.446 282.21 203.991C283.21 203.501 284.115 202.799 284.924 201.884L289.16 205.799C286.998 208.713 283.631 210.352 279.06 210.717C276.211 210.944 273.647 210.598 271.368 209.677C269.087 208.725 267.272 207.31 265.925 205.433C264.578 203.555 263.805 201.364 263.605 198.86C263.407 196.386 263.809 194.117 264.81 192.052C265.84 189.954 267.328 188.275 269.276 187.017C271.252 185.725 273.508 184.978 276.044 184.775C278.517 184.578 280.798 184.931 282.887 185.836C284.976 186.74 286.664 188.149 287.951 190.063C289.267 191.943 290.029 194.198 290.239 196.828ZM276.533 190.313C274.874 190.445 273.518 191.026 272.466 192.055C271.414 193.085 270.828 194.423 270.707 196.071L283.152 195.078C282.774 193.501 281.984 192.288 280.782 191.439C279.578 190.558 278.161 190.183 276.533 190.313Z" fill="#D7DBE6"/>
</g>
<defs>
<clipPath id="clip0_386_5736">
<rect width="472" height="472" fill="white"/>
</clipPath>
<clipPath id="clip1_386_5736">
<rect width="322.446" height="300.548" fill="white" transform="translate(214.467 82.1152)"/>
</clipPath>
<clipPath id="clip2_386_5736">
<rect width="322.446" height="284.997" fill="white" transform="translate(17.0635 106.87)"/>
</clipPath>
</defs>
</svg>
