<svg width="435" height="400" viewBox="0 0 435 400" fill="none" xmlns="http://www.w3.org/2000/svg">
<g clip-path="url(#clip0_384_5437)">
<path d="M320.812 149.226H12.884C5.76836 149.226 0 154.994 0 162.11V386.936C0 394.052 5.76836 399.82 12.884 399.82H320.812C327.927 399.82 333.696 394.052 333.696 386.936V162.11C333.696 154.994 327.927 149.226 320.812 149.226Z" fill="#F2F6FB"/>
<path d="M50.1727 364.218C33.4921 364.218 19.9697 350.556 19.9697 333.704C19.9697 316.852 33.4921 303.19 50.1727 303.19C66.8534 303.19 80.3757 316.852 80.3757 333.704C80.3757 350.556 66.8534 364.218 50.1727 364.218ZM50.2387 333.576C52.4675 333.576 54.2742 331.774 54.2742 329.551C54.2742 327.329 52.4675 325.527 50.2387 325.527C48.01 325.527 46.2032 327.329 46.2032 329.551C46.2032 331.774 48.01 333.576 50.2387 333.576ZM50.2387 335.588C46.1991 335.588 42.9244 338.854 42.9244 342.883H57.553C57.553 338.854 54.2783 335.588 50.2387 335.588ZM264.179 260.782H303.566C305.777 260.782 307.688 261.23 309.263 262.073C310.838 262.915 312.074 264.151 312.916 265.725C313.758 267.3 314.206 269.211 314.206 271.422V271.457C314.206 273.667 313.758 275.579 312.916 277.154C312.074 278.728 310.838 279.964 309.263 280.806C307.688 281.648 305.777 282.097 303.566 282.097H264.179C261.969 282.097 260.057 281.648 258.482 280.806C256.908 279.964 255.672 278.728 254.83 277.154C253.988 275.579 253.539 273.667 253.539 271.457V271.422C253.539 269.211 253.988 267.3 254.83 265.725C255.672 264.151 256.908 262.915 258.482 262.073C260.057 261.23 261.969 260.782 264.179 260.782Z" fill="#474BFF"/>
<path d="M19.9697 187.238C19.9697 185.813 21.1186 184.657 22.5458 184.657H235.796C237.219 184.657 238.372 185.811 238.372 187.238V279.516C238.372 280.941 237.223 282.097 235.796 282.097H22.5458C21.1231 282.097 19.9697 280.943 19.9697 279.516V187.238ZM100.753 328.02H270.01C272.643 328.02 274.778 330.155 274.778 332.788V335.361C274.778 337.994 272.643 340.129 270.01 340.129H100.753C98.12 340.129 95.9853 337.994 95.9853 335.361V332.788C95.9853 330.155 98.12 328.02 100.753 328.02ZM100.753 347.697H300.314C302.947 347.697 305.082 349.831 305.082 352.465V355.038C305.082 357.671 302.947 359.806 300.314 359.806H100.753C98.12 359.806 95.9853 357.671 95.9853 355.038V352.465C95.9853 349.831 98.12 347.697 100.753 347.697ZM100.753 308.343H227.585C230.218 308.343 232.352 310.478 232.352 313.111V315.684C232.352 318.318 230.218 320.452 227.585 320.452H100.753C98.12 320.452 95.9853 318.318 95.9853 315.684V313.111C95.9853 310.478 98.12 308.343 100.753 308.343Z" fill="#E1E5F0"/>
</g>
<g filter="url(#filter0_dd_384_5437)">
<path d="M398.115 116.583H157.828C150.713 116.583 144.944 122.351 144.944 129.467V184.224C144.944 191.339 150.713 197.108 157.828 197.108H398.115C405.231 197.108 410.999 191.339 410.999 184.224V129.467C410.999 122.351 405.231 116.583 398.115 116.583Z" fill="#474BFF"/>
</g>
<path d="M370.705 180.515C357.864 180.515 347.455 170.097 347.455 157.245C347.455 144.394 357.864 133.976 370.705 133.976C383.545 133.976 393.954 144.394 393.954 157.245C393.954 170.097 383.545 180.515 370.705 180.515ZM370.693 156.931C373.859 156.931 376.426 154.397 376.426 151.271C376.426 148.145 373.859 145.611 370.693 145.611C367.527 145.611 364.96 148.145 364.96 151.271C364.96 154.397 367.527 156.931 370.693 156.931ZM370.693 159.761C364.954 159.761 360.302 164.354 360.302 170.02H381.083C381.083 164.354 376.431 159.761 370.693 159.761ZM169.72 154.918H304.317C305.028 154.918 305.605 155.495 305.605 156.207V162.938C305.605 163.649 305.028 164.226 304.317 164.226H169.72C169.008 164.226 168.432 163.649 168.432 162.938V156.207C168.432 155.495 169.008 154.918 169.72 154.918ZM169.72 170.043H315.942C316.653 170.043 317.23 170.62 317.23 171.332V178.063C317.23 178.774 316.653 179.351 315.942 179.351H169.72C169.008 179.351 168.432 178.774 168.432 178.063V171.332C168.432 170.62 169.008 170.043 169.72 170.043Z" fill="#F2F6FB"/>
<path d="M318.267 139.793H169.72C169.008 139.793 168.432 140.37 168.432 141.082V147.813C168.432 148.524 169.008 149.101 169.72 149.101H318.267C318.978 149.101 319.555 148.524 319.555 147.813V141.082C319.555 140.37 318.978 139.793 318.267 139.793Z" fill="#E1E5F0"/>
<g filter="url(#filter1_ddd_384_5437)">
<path d="M320.811 46.365H80.5246C73.409 46.365 67.6406 52.1334 67.6406 59.249V114.006C67.6406 121.122 73.409 126.89 80.5246 126.89H320.811C327.927 126.89 333.695 121.122 333.695 114.006V59.249C333.695 52.1334 327.927 46.365 320.811 46.365Z" fill="#F2F6FB"/>
</g>
<path d="M114.378 109.914C101.537 109.914 91.1279 99.4963 91.1279 86.645C91.1279 73.7937 101.537 63.3757 114.378 63.3757C127.218 63.3757 137.627 73.7937 137.627 86.645C137.627 99.4963 127.218 109.914 114.378 109.914ZM114.366 86.3306C117.532 86.3306 120.099 83.7965 120.099 80.6705C120.099 77.5445 117.532 75.0104 114.366 75.0104C111.2 75.0104 108.633 77.5445 108.633 80.6705C108.633 83.7965 111.2 86.3306 114.366 86.3306ZM114.366 89.1606C108.627 89.1606 103.975 93.7537 103.975 99.4195H124.756C124.756 93.7537 120.104 89.1606 114.366 89.1606ZM150.541 81.9912H285.138C285.849 81.9912 286.426 82.568 286.426 83.2796V90.0105C286.426 90.722 285.849 91.2989 285.138 91.2989H150.541C149.829 91.2989 149.252 90.722 149.252 90.0105V83.2796C149.252 82.568 149.829 81.9912 150.541 81.9912ZM150.541 97.1162H308.387C309.099 97.1162 309.676 97.693 309.676 98.4046V105.136C309.676 105.847 309.099 106.424 308.387 106.424H150.541C149.829 106.424 149.252 105.847 149.252 105.136V98.4046C149.252 97.693 149.829 97.1162 150.541 97.1162Z" fill="#D8DEED"/>
<path d="M252.588 66.8662H150.54C149.829 66.8662 149.252 67.443 149.252 68.1546V74.8855C149.252 75.5971 149.829 76.1739 150.54 76.1739H252.588C253.299 76.1739 253.876 75.5971 253.876 74.8855V68.1546C253.876 67.443 253.299 66.8662 252.588 66.8662Z" fill="#E1E5F0"/>
<defs>
<filter id="filter0_dd_384_5437" x="120.944" y="100.583" width="314.055" height="128.525" filterUnits="userSpaceOnUse" color-interpolation-filters="sRGB">
<feFlood flood-opacity="0" result="BackgroundImageFix"/>
<feColorMatrix in="SourceAlpha" type="matrix" values="0 0 0 0 0 0 0 0 0 0 0 0 0 0 0 0 0 0 127 0" result="hardAlpha"/>
<feMorphology radius="1" operator="dilate" in="SourceAlpha" result="effect1_dropShadow_384_5437"/>
<feOffset/>
<feGaussianBlur stdDeviation="0.5"/>
<feComposite in2="hardAlpha" operator="out"/>
<feColorMatrix type="matrix" values="0 0 0 0 0 0 0 0 0 0 0 0 0 0 0 0 0 0 0.03 0"/>
<feBlend mode="normal" in2="BackgroundImageFix" result="effect1_dropShadow_384_5437"/>
<feColorMatrix in="SourceAlpha" type="matrix" values="0 0 0 0 0 0 0 0 0 0 0 0 0 0 0 0 0 0 127 0" result="hardAlpha"/>
<feOffset dy="8"/>
<feGaussianBlur stdDeviation="12"/>
<feComposite in2="hardAlpha" operator="out"/>
<feColorMatrix type="matrix" values="0 0 0 0 0 0 0 0 0 0 0 0 0 0 0 0 0 0 0.12 0"/>
<feBlend mode="normal" in2="effect1_dropShadow_384_5437" result="effect2_dropShadow_384_5437"/>
<feBlend mode="normal" in="SourceGraphic" in2="effect2_dropShadow_384_5437" result="shape"/>
</filter>
<filter id="filter1_ddd_384_5437" x="27.6406" y="22.365" width="346.055" height="160.525" filterUnits="userSpaceOnUse" color-interpolation-filters="sRGB">
<feFlood flood-opacity="0" result="BackgroundImageFix"/>
<feColorMatrix in="SourceAlpha" type="matrix" values="0 0 0 0 0 0 0 0 0 0 0 0 0 0 0 0 0 0 127 0" result="hardAlpha"/>
<feMorphology radius="1" operator="dilate" in="SourceAlpha" result="effect1_dropShadow_384_5437"/>
<feOffset/>
<feGaussianBlur stdDeviation="0.5"/>
<feComposite in2="hardAlpha" operator="out"/>
<feColorMatrix type="matrix" values="0 0 0 0 0 0 0 0 0 0 0 0 0 0 0 0 0 0 0.03 0"/>
<feBlend mode="normal" in2="BackgroundImageFix" result="effect1_dropShadow_384_5437"/>
<feColorMatrix in="SourceAlpha" type="matrix" values="0 0 0 0 0 0 0 0 0 0 0 0 0 0 0 0 0 0 127 0" result="hardAlpha"/>
<feMorphology radius="1" operator="dilate" in="SourceAlpha" result="effect2_dropShadow_384_5437"/>
<feOffset dy="2"/>
<feGaussianBlur stdDeviation="4"/>
<feComposite in2="hardAlpha" operator="out"/>
<feColorMatrix type="matrix" values="0 0 0 0 0 0 0 0 0 0 0 0 0 0 0 0 0 0 0.05 0"/>
<feBlend mode="normal" in2="effect1_dropShadow_384_5437" result="effect2_dropShadow_384_5437"/>
<feColorMatrix in="SourceAlpha" type="matrix" values="0 0 0 0 0 0 0 0 0 0 0 0 0 0 0 0 0 0 127 0" result="hardAlpha"/>
<feOffset dy="16"/>
<feGaussianBlur stdDeviation="20"/>
<feComposite in2="hardAlpha" operator="out"/>
<feColorMatrix type="matrix" values="0 0 0 0 0 0 0 0 0 0 0 0 0 0 0 0 0 0 0.16 0"/>
<feBlend mode="normal" in2="effect2_dropShadow_384_5437" result="effect3_dropShadow_384_5437"/>
<feBlend mode="normal" in="SourceGraphic" in2="effect3_dropShadow_384_5437" result="shape"/>
</filter>
<clipPath id="clip0_384_5437">
<rect width="334.34" height="250.594" fill="white" transform="translate(0 149.226)"/>
</clipPath>
</defs>
</svg>
