<svg width="470" height="353" viewBox="0 0 470 353" fill="none" xmlns="http://www.w3.org/2000/svg">
<g filter="url(#filter0_ddd_386_5520)">
<g clip-path="url(#clip0_386_5520)">
<path d="M426.649 35.0566H43.3505C41.5001 35.0566 40 36.5567 40 38.4072V293.381C40 295.232 41.5001 296.732 43.3505 296.732H426.649C428.5 296.732 430 295.232 430 293.381V38.4072C430 36.5567 428.5 35.0566 426.649 35.0566Z" fill="#F2F6FB"/>
<path d="M40 30.7025C40 27.0008 42.9982 24 46.7025 24H423.298C426.999 24 430 27.0011 430 30.7025V38.7423H40V30.7025ZM304.136 192.021C304.136 188.319 307.137 185.318 310.838 185.318H400.253C403.954 185.318 406.955 188.32 406.955 192.021V249.524C406.955 253.226 403.954 256.227 400.253 256.227H310.838C307.137 256.227 304.136 253.226 304.136 249.524V192.021ZM183.591 192.021C183.591 188.319 186.592 185.318 190.292 185.318H279.708C283.409 185.318 286.409 188.32 286.409 192.021V249.524C286.409 253.226 283.408 256.227 279.708 256.227H190.292C186.591 256.227 183.591 253.226 183.591 249.524V192.021Z" fill="#D8DEED"/>
<path d="M49.8842 34.7217C51.6421 34.7217 53.0672 33.2966 53.0672 31.5387C53.0672 29.7808 51.6421 28.3557 49.8842 28.3557C48.1262 28.3557 46.7012 29.7808 46.7012 31.5387C46.7012 33.2966 48.1262 34.7217 49.8842 34.7217Z" fill="#FF5645"/>
<path d="M60.2709 34.7217C62.0288 34.7217 63.4539 33.2966 63.4539 31.5387C63.4539 29.7808 62.0288 28.3557 60.2709 28.3557C58.513 28.3557 57.0879 29.7808 57.0879 31.5387C57.0879 33.2966 58.513 34.7217 60.2709 34.7217Z" fill="#FFCB3D"/>
<path d="M70.9926 34.7217C72.7505 34.7217 74.1756 33.2966 74.1756 31.5387C74.1756 29.7808 72.7505 28.3557 70.9926 28.3557C69.2346 28.3557 67.8096 29.7808 67.8096 31.5387C67.8096 33.2966 69.2346 34.7217 70.9926 34.7217Z" fill="#3ABF7C"/>
<path d="M188.616 265.091H267.201C269.977 265.091 272.227 267.341 272.227 270.117V274.247C272.227 277.023 269.977 279.273 267.201 279.273H188.616C185.84 279.273 183.59 277.023 183.59 274.247V270.117C183.59 267.341 185.84 265.091 188.616 265.091ZM309.162 265.091H387.746C390.522 265.091 392.772 267.341 392.772 270.117V274.247C392.772 277.023 390.522 279.273 387.746 279.273H309.162C306.386 279.273 304.136 277.023 304.136 274.247V270.117C304.136 267.341 306.386 265.091 309.162 265.091ZM68.0707 231.409H146.655C149.431 231.409 151.681 233.659 151.681 236.435V240.565C151.681 243.341 149.431 245.591 146.655 245.591H68.0707C65.295 245.591 63.0449 243.341 63.0449 240.565V236.435C63.0449 233.659 65.295 231.409 68.0707 231.409ZM68.0707 254.455H146.655C149.431 254.455 151.681 256.705 151.681 259.48V263.611C151.681 266.386 149.431 268.636 146.655 268.636H68.0707C65.295 268.636 63.0449 266.386 63.0449 263.611V259.48C63.0449 256.705 65.295 254.455 68.0707 254.455Z" fill="#E1E5F0"/>
<path d="M400.18 58.1753H69.8192C66.1183 58.1753 63.1182 61.1754 63.1182 64.8763V162.711C63.1182 166.412 66.1183 169.412 69.8192 169.412H400.18C403.881 169.412 406.881 166.412 406.881 162.711V64.8763C406.881 61.1754 403.881 58.1753 400.18 58.1753Z" fill="#E1E5F0"/>
<path d="M68.0707 185.318H143.11C145.886 185.318 148.136 187.568 148.136 190.344V194.474C148.136 197.25 145.886 199.5 143.11 199.5H68.0707C65.295 199.5 63.0449 197.25 63.0449 194.474V190.344C63.0449 187.568 65.295 185.318 68.0707 185.318ZM68.0707 208.364H132.474C135.249 208.364 137.499 210.614 137.499 213.39V217.52C137.499 220.296 135.249 222.546 132.474 222.546H68.0707C65.295 222.546 63.0449 220.296 63.0449 217.52V213.39C63.0449 210.614 65.295 208.364 68.0707 208.364Z" fill="#474BFF"/>
<path d="M370.9 221.959L341.848 236.485C341.683 236.568 341.481 236.501 341.399 236.335C341.375 236.289 341.363 236.237 341.363 236.185V207.133C341.363 206.948 341.513 206.798 341.698 206.798C341.75 206.798 341.802 206.81 341.848 206.834L370.9 221.36C371.066 221.442 371.133 221.644 371.05 221.809C371.018 221.874 370.965 221.927 370.9 221.959ZM238.433 237.588L236.26 237.613L236.275 237.588H210.49C210.12 237.588 209.979 237.333 210.176 237.017L228.55 207.56C228.746 207.245 229.071 207.239 229.275 207.548L242.452 227.664L247.626 219.353C247.821 219.039 248.149 219.029 248.361 219.337L260.23 236.549C260.441 236.855 260.314 237.112 259.944 237.123L248.681 237.471L248.566 237.473L248.634 237.588C248.634 237.588 248.333 237.588 247.965 237.588H238.433ZM248.39 212.281C246.098 212.281 244.241 210.41 244.241 208.102C244.241 205.794 246.098 203.923 248.39 203.923C250.682 203.923 252.54 205.794 252.54 208.102C252.54 210.41 250.682 212.281 248.39 212.281Z" fill="#F2F6FB"/>
<mask id="mask0_386_5520" style="mask-type:alpha" maskUnits="userSpaceOnUse" x="63" y="58" width="344" height="112">
<path d="M400.18 58.1753H69.8192C66.1183 58.1753 63.1182 61.1754 63.1182 64.8763V162.711C63.1182 166.412 66.1183 169.412 69.8192 169.412H400.18C403.881 169.412 406.881 166.412 406.881 162.711V64.8763C406.881 61.1754 403.881 58.1753 400.18 58.1753Z" fill="white"/>
</mask>
<g mask="url(#mask0_386_5520)">
<mask id="mask1_386_5520" style="mask-type:alpha" maskUnits="userSpaceOnUse" x="63" y="44" width="345" height="182">
<path d="M405.206 44.4382H65.1285C64.0182 44.4382 63.1182 45.3383 63.1182 46.4485V223.021C63.1182 224.131 64.0182 225.031 65.1285 225.031H405.206C406.316 225.031 407.216 224.131 407.216 223.021V46.4485C407.216 45.3383 406.316 44.4382 405.206 44.4382Z" fill="white"/>
</mask>
<g mask="url(#mask1_386_5520)">
<path d="M405.206 44.4382H65.1285C64.0182 44.4382 63.1182 45.3383 63.1182 46.4485V223.021C63.1182 224.131 64.0182 225.031 65.1285 225.031H405.206C406.316 225.031 407.216 224.131 407.216 223.021V46.4485C407.216 45.3383 406.316 44.4382 405.206 44.4382Z" fill="#E1E5F0"/>
<path d="M57.5947 243.605H457.368V58.1944C447.976 86.681 430.081 102.173 410.811 102.173C399.678 102.173 388.089 97.0055 377.41 86.1819C366.853 75.4838 355.014 70.3733 343.336 70.3733C322.761 70.3706 302.682 86.2228 290.948 115.288C281.752 138.064 269.625 149.455 257.499 149.455C245.372 149.455 233.243 138.064 224.041 115.279C212.301 86.2174 192.21 70.3597 171.633 70.357C159.951 70.357 148.116 75.4647 137.557 86.1656C126.878 96.9864 115.285 102.154 104.154 102.154C84.8818 102.154 66.987 86.6646 57.5947 58.1753V243.605Z" fill="#D8DEED"/>
</g>
<mask id="mask2_386_5520" style="mask-type:alpha" maskUnits="userSpaceOnUse" x="81" y="66" width="95" height="95">
<path d="M128.286 160.5C154.284 160.5 175.36 139.424 175.36 113.425C175.36 87.4267 154.284 66.3506 128.286 66.3506C102.287 66.3506 81.2109 87.4267 81.2109 113.425C81.2109 139.424 102.287 160.5 128.286 160.5Z" fill="white"/>
</mask>
<g mask="url(#mask2_386_5520)">
<path d="M128.286 160.5C154.284 160.5 175.36 139.424 175.36 113.425C175.36 87.4267 154.284 66.3506 128.286 66.3506C102.287 66.3506 81.2109 87.4267 81.2109 113.425C81.2109 139.424 102.287 160.5 128.286 160.5Z" fill="#A339FF"/>
<path d="M168.078 174.259L151.589 174.161L151.251 154.748L164.355 152.944L165.334 157.216" fill="#BF865F"/>
<path d="M116.56 109.358C114.157 108.232 107.181 108.718 107.116 108.752C104.672 108.862 100.393 109.325 95.9249 112.519C95.2631 113 94.2709 113.754 93.2511 114.844C92.3624 115.765 90.6564 116.292 88.658 124.671C87.9389 127.632 87.1356 135.01 83.9394 140.039C83.298 141.048 82.4603 145.086 81.4262 152.153C88.903 153.002 94.5987 153.639 98.5135 154.064C97.6809 161.542 97.7357 167.775 98.468 171.821C97.937 174.288 97.7761 175.754 97.9853 176.22C109.083 176.294 115.693 176.346 117.816 176.376C123.045 176.452 137.376 177.537 150.683 176.339C153.977 173.098 153.627 162.313 153.627 162.313C153.516 160.192 153.406 158.174 153.299 156.257C159.564 154.8 164.615 153.195 168.453 151.443C167.061 144.735 166.153 140.805 165.731 139.65C164.501 136.354 161.796 130.556 161.128 127.561C159.058 118.288 156.466 115.685 155.546 114.796C154.489 113.742 150.083 110.074 143.48 109.26C142.032 109.082 139.207 108.873 135.005 108.633C133.148 108.346 131.379 108.234 129.861 108.14C125.479 107.893 120.891 107.624 116.56 109.358Z" fill="#FFCB3D"/>
<path fill-rule="evenodd" clip-rule="evenodd" d="M116.588 109.376C119.902 116.392 121.648 122.959 121.828 129.077C122.007 135.195 122.007 145.71 121.828 160.622L141.703 160.5C141.538 146.869 141.09 136.394 140.358 129.077C139.626 121.759 137.132 114.843 132.876 108.327C127.717 107.845 124.035 107.747 121.828 108.03C119.621 108.314 117.874 108.763 116.588 109.376Z" fill="white"/>
<path d="M120.271 98.7403L119.718 109.748C119.714 109.993 119.81 110.239 120.009 110.347C120.871 110.92 122.099 111.57 123.634 111.946C126.403 112.657 128.79 112.21 130.137 111.815C130.407 111.75 130.612 111.474 130.617 111.195L130.868 104.706C132.614 105.39 132.517 105.323 132.688 105.384C134.789 105.956 136.599 105.921 136.935 105.86C138.143 105.78 139.434 104.798 140.602 103.109C142.183 100.858 143.619 97.3308 144.43 93.0891C144.574 92.4885 144.618 91.8861 144.663 91.2836L144.901 85.2895C144.958 83.9501 144.646 82.6377 144.031 81.3871C143.772 80.8464 143.512 80.4062 143.183 80.0319C141.207 77.4027 138.289 76.4516 135.931 76.1472C134.677 75.9643 133.531 75.9519 132.706 76.0266C132.404 76.0549 131.329 76.1702 129.786 76.2438C128.948 76.2961 128.278 76.2844 127.875 76.3109C122.88 76.4248 120.914 75.7873 118.378 77.0834C117.905 77.3098 116.823 77.894 115.864 79.0502C113.16 82.3205 113.721 86.6196 113.867 87.8955C114.403 91.7251 116.573 94.1087 117.226 95.0919C118.006 96.286 119.33 97.7525 120.271 98.7403Z" fill="#DB9E75"/>
<path d="M103.79 156.981C103.719 157.25 103.879 157.525 104.148 157.595C104.416 157.666 104.691 157.506 104.762 157.238C105.923 152.842 109.64 139.525 110.434 137.058C110.519 136.794 110.373 136.511 110.109 136.426C109.845 136.341 109.562 136.486 109.477 136.75C108.676 139.239 104.956 152.568 103.79 156.981ZM155.031 157.729C155.109 157.996 155.388 158.149 155.654 158.072C155.921 157.994 156.074 157.715 155.996 157.449C154.728 153.083 151.055 139.753 150.465 137.23C150.401 136.96 150.131 136.792 149.861 136.855C149.591 136.919 149.423 137.189 149.486 137.459C150.082 140.005 153.758 153.347 155.031 157.729ZM130.927 104.727L126.352 102.795L130.668 110.076L130.927 104.727ZM140.976 91.7533C140.999 92.3234 141.083 93.2631 141.413 93.604C141.973 94.1164 142.74 92.4543 142.322 91.4082C142.162 90.9697 141.929 90.8986 141.66 90.9275C141.257 90.9874 140.983 91.3513 140.976 91.7533ZM134.981 91.5481C134.938 92.117 134.921 93.055 135.249 93.4629C135.742 94.0411 136.708 92.4495 136.391 91.3717C136.265 90.9338 136.032 90.8292 135.764 90.8246C135.362 90.8175 135.021 91.1467 134.981 91.5481ZM137.607 98.4971C137.941 98.6034 139.007 98.9571 139.384 98.4611C139.555 98.263 139.801 97.5971 139.801 97.5971C139.801 97.5971 138.929 97.6824 137.858 97.5967C137.255 97.5526 136.856 97.4116 136.718 97.6438C136.683 97.7102 136.715 97.8113 136.714 97.8783C136.808 98.2485 137.374 98.426 137.607 98.4971ZM140.441 95.35L140.003 91.7799L140.038 89.8268C140.041 89.6418 139.893 89.4892 139.708 89.486C139.523 89.4827 139.371 89.6301 139.368 89.8151L139.333 91.7916L139.335 91.8382L139.777 95.4401C139.778 95.4465 139.746 95.4845 139.745 95.4859L139.637 95.4924C139.087 95.525 138.75 95.5346 138.162 95.5243C137.977 95.5211 137.824 95.6685 137.821 95.8535C137.818 96.0385 137.965 96.1911 138.15 96.1943C138.757 96.2049 139.111 96.1949 139.677 96.1613C139.731 96.1581 139.731 96.1581 139.815 96.1518C140.198 96.0948 140.497 95.7289 140.441 95.35Z" fill="#482D1F"/>
<path d="M119.115 89.409C119.155 88.5474 119.422 87.6827 119.982 86.9298C121.081 85.441 123.105 84.6386 124.704 85.2027C125.603 85.52 126.194 86.234 126.26 86.3022C126.515 86.6358 126.712 86.974 126.863 87.2863C131.907 84.9949 135.834 83.7725 138.644 83.6191C140.793 83.5019 142.883 83.9774 144.912 85.0459C144.931 83.778 144.62 82.5361 144.036 81.3498C143.778 80.8091 143.517 80.3689 143.189 79.9946C141.212 77.3653 138.294 76.4142 135.937 76.1099C134.682 75.9269 133.536 75.9146 132.711 75.9893C132.409 76.0175 131.335 76.1328 129.792 76.2064C128.953 76.2588 128.283 76.2471 127.881 76.2736C122.886 76.3875 120.92 75.75 118.384 77.0461C117.911 77.2724 116.828 77.8567 115.87 79.0128C113.165 82.2831 113.727 86.5823 113.872 87.8582C113.989 88.6896 114.182 89.4529 114.42 90.1485C115.815 89.979 117.379 89.7325 119.115 89.409ZM143.631 89.4202C143.967 89.3591 144.075 88.9253 143.845 88.6867C143.548 88.4135 143.016 88.1361 142.346 88.1244C140.973 88.1005 139.483 88.9792 141.017 89.4081C141.917 89.6919 142.991 89.5766 143.631 89.4202ZM136.726 89.5343C137.062 89.4731 137.17 89.0394 136.906 88.8002C136.609 88.5269 136.078 88.2496 135.374 88.2373C134.001 88.2133 132.51 89.1256 134.045 89.521C135.011 89.8395 136.053 89.6566 136.726 89.5343Z" fill="#482D1F"/>
<path d="M119.209 88.7442C119.039 89.7231 119.197 90.7948 119.627 91.6619C120.15 92.7544 120.902 93.3583 121.879 93.8299C122.045 93.9104 122.115 94.1107 122.035 94.2773C121.954 94.444 121.754 94.5138 121.587 94.4334C121.158 94.226 120.817 94.0271 120.425 93.7119C119.847 93.2476 119.366 92.6693 119.025 91.9555C118.533 90.9655 118.354 89.7492 118.549 88.6292C118.581 88.4469 118.754 88.3248 118.937 88.3566C119.119 88.3883 119.241 88.5619 119.209 88.7442Z" fill="#482D1F"/>
</g>
</g>
</g>
</g>
<defs>
<filter id="filter0_ddd_386_5520" x="0" y="0" width="470" height="352.732" filterUnits="userSpaceOnUse" color-interpolation-filters="sRGB">
<feFlood flood-opacity="0" result="BackgroundImageFix"/>
<feColorMatrix in="SourceAlpha" type="matrix" values="0 0 0 0 0 0 0 0 0 0 0 0 0 0 0 0 0 0 127 0" result="hardAlpha"/>
<feMorphology radius="1" operator="dilate" in="SourceAlpha" result="effect1_dropShadow_386_5520"/>
<feOffset/>
<feGaussianBlur stdDeviation="0.5"/>
<feComposite in2="hardAlpha" operator="out"/>
<feColorMatrix type="matrix" values="0 0 0 0 0 0 0 0 0 0 0 0 0 0 0 0 0 0 0.03 0"/>
<feBlend mode="normal" in2="BackgroundImageFix" result="effect1_dropShadow_386_5520"/>
<feColorMatrix in="SourceAlpha" type="matrix" values="0 0 0 0 0 0 0 0 0 0 0 0 0 0 0 0 0 0 127 0" result="hardAlpha"/>
<feMorphology radius="1" operator="dilate" in="SourceAlpha" result="effect2_dropShadow_386_5520"/>
<feOffset dy="2"/>
<feGaussianBlur stdDeviation="4"/>
<feComposite in2="hardAlpha" operator="out"/>
<feColorMatrix type="matrix" values="0 0 0 0 0 0 0 0 0 0 0 0 0 0 0 0 0 0 0.05 0"/>
<feBlend mode="normal" in2="effect1_dropShadow_386_5520" result="effect2_dropShadow_386_5520"/>
<feColorMatrix in="SourceAlpha" type="matrix" values="0 0 0 0 0 0 0 0 0 0 0 0 0 0 0 0 0 0 127 0" result="hardAlpha"/>
<feOffset dy="16"/>
<feGaussianBlur stdDeviation="20"/>
<feComposite in2="hardAlpha" operator="out"/>
<feColorMatrix type="matrix" values="0 0 0 0 0 0 0 0 0 0 0 0 0 0 0 0 0 0 0.16 0"/>
<feBlend mode="normal" in2="effect2_dropShadow_386_5520" result="effect3_dropShadow_386_5520"/>
<feBlend mode="normal" in="SourceGraphic" in2="effect3_dropShadow_386_5520" result="shape"/>
</filter>
<clipPath id="clip0_386_5520">
<path d="M40 33.6C40 30.2397 40 28.5595 40.654 27.2761C41.2292 26.1471 42.1471 25.2292 43.2761 24.654C44.5595 24 46.2397 24 49.6 24H420.4C423.76 24 425.44 24 426.724 24.654C427.853 25.2292 428.771 26.1471 429.346 27.2761C430 28.5595 430 30.2397 430 33.6V287.132C430 290.492 430 292.172 429.346 293.456C428.771 294.585 427.853 295.503 426.724 296.078C425.44 296.732 423.76 296.732 420.4 296.732H49.6C46.2397 296.732 44.5595 296.732 43.2761 296.078C42.1471 295.503 41.2292 294.585 40.654 293.456C40 292.172 40 290.492 40 287.132V33.6Z" fill="white"/>
</clipPath>
</defs>
</svg>
