<svg width="471" height="472" viewBox="0 0 471 472" fill="none" xmlns="http://www.w3.org/2000/svg">
<g clip-path="url(#clip0_386_5127)">
<g clip-path="url(#clip1_386_5127)">
<path d="M61.1458 339.864H31.0872C30.1752 339.864 29.3772 339.104 29.3772 338.192V338.002C29.3772 337.09 30.1752 336.33 31.1632 336.33H59.0172C75.8892 336.33 92.7612 336.33 109.595 336.33H135.435C136.347 336.33 137.145 337.09 137.145 338.002V338.192C137.145 339.104 136.385 339.864 135.435 339.864H98.7646L108.873 358.408C116.055 371.632 123.237 384.818 130.457 398.042L142.351 419.854C142.769 420.614 142.427 421.602 141.629 422.058L141.477 422.134C140.679 422.552 139.653 422.324 139.273 421.602L94.7752 339.864H65.1352L20.6372 421.602C20.2572 422.324 19.2312 422.59 18.4332 422.134L18.2812 422.058C17.4832 421.602 17.1412 420.614 17.5592 419.854L29.4532 398.042C36.6352 384.818 43.8172 371.632 51.0372 358.408L61.1458 339.864ZM29.4912 324.972V302.878C29.4912 286.027 29.4912 269.215 29.4912 252.403V232.324C29.4912 229.176 32.0432 226.624 35.1912 226.624H97.2072C100.355 226.624 102.907 229.176 102.907 232.324V325.038C102.907 328.186 100.355 330.738 97.2072 330.738C97.2052 330.738 97.2032 330.738 97.2012 330.738L35.1852 330.672C32.0395 330.669 29.4912 328.118 29.4912 324.972Z" fill="#D8DEED"/>
</g>
<g clip-path="url(#clip2_386_5127)">
<path d="M46.0707 420.88H85.0587C85.9707 420.88 86.7687 420.222 86.7687 419.433V418.907C86.7687 418.118 86.0087 417.46 85.0587 417.46H46.1087C45.1967 417.46 44.3987 418.118 44.3987 418.907V419.433C44.3227 420.222 45.1207 420.88 46.0707 420.88ZM112.941 417.425L75.1973 389.305C74.4373 388.735 73.3353 388.887 72.7653 389.647C72.1953 390.407 72.3473 391.509 73.1073 392.079L111.259 420.503C112.019 421.073 113.121 420.921 113.691 420.161C114.261 419.401 114.109 418.299 113.349 417.729L112.941 417.425H112.399C111.449 417.425 110.651 418.205 110.651 419.135C110.689 420.101 111.449 420.845 112.399 420.845H133.489C134.439 420.845 135.237 420.064 135.237 419.135C135.237 418.205 134.439 417.425 133.489 417.425H112.941Z" fill="#FFCB3D"/>
<path d="M79.7194 397.03L54.8483 393.66L46.022 417.461C46.0397 417.46 46.0575 417.46 46.0753 417.46H85.0253C85.0999 417.46 85.1733 417.464 85.2452 417.472L82.3122 398.962L79.7194 397.03ZM75.1534 389.297C75.1569 389.3 75.1604 389.302 75.164 389.305L112.908 417.425H133.456C133.667 417.425 133.871 417.463 134.06 417.534C134.137 417.256 134.198 416.962 134.211 416.7C134.173 416.434 134.173 416.13 134.097 415.826C133.907 415.142 133.603 414.496 133.261 413.926C132.159 412.178 130.183 410.962 130.183 410.962C127.903 409.48 125.813 408.492 123.343 407.428C122.051 406.858 120.227 406.098 118.099 405.262C117.415 403.058 116.731 400.854 116.047 398.612C114.755 394.318 113.463 390.062 112.209 385.806L89.3329 369.2L75.1534 389.297Z" fill="#474961"/>
<path d="M90.3846 347.243L90.5031 346.826C90.7751 346.103 90.7486 346.076 90.4236 346.747C90.6165 344.253 90.7915 341.536 90.9484 338.57L91.446 330.269L100.193 326.952C96.8957 333.739 93.6066 340.624 90.3592 347.562C90.3677 347.456 90.3762 347.35 90.3846 347.243V347.243ZM46.5286 332.665C46.5704 352.793 47.2178 380.207 47.4384 389.523C47.4764 390.797 47.3244 394.243 49.6044 396.416C50.2504 397.053 50.8964 397.316 52.1124 397.878C53.0624 398.327 57.3184 399.676 65.8304 400.425C66.3624 400.463 66.9324 400.5 67.5024 400.463C76.2356 400.127 78.4241 399.532 81.7767 398.493L73.1673 392.079C72.4073 391.509 72.2553 390.407 72.8253 389.647C73.3873 388.898 74.4663 388.739 75.2249 389.281L81.8242 379.928C84.4244 381.387 88.7429 382.574 95.3471 384.85C108.087 389.249 113.192 392.1 116.899 389.28C118.139 388.379 118.719 387.299 118.945 386.784C124.631 373.373 146.716 335.636 158.148 307.624C158.163 307.552 158.208 307.524 158.223 307.452C161.891 298.422 157.417 290.083 145.285 283.987C140.432 282.1 136.526 281.15 133.331 280.921L133.338 280.91C86.7134 277.366 60.8569 276.117 55.7685 277.164C48.136 278.734 42.44 282.282 38.7408 289.608C35.0415 296.934 33.6931 305.075 35.9569 316.4C38.0477 326.861 44.0391 331.924 46.5286 332.665Z" fill="#474BFF"/>
<path d="M81.4487 380.04C79.7542 378.88 78.488 377.55 78.1512 376.232C77.6585 374.394 77.9953 372.669 78.7563 370.968C82.9189 361.665 85.802 355.495 87.4115 352.447C87.5586 352.169 87.9034 352.063 88.1818 352.21C88.4601 352.357 88.5666 352.701 88.4196 352.98C86.8255 355.998 83.9494 362.153 79.7969 371.434C79.133 372.917 78.8422 374.407 79.254 375.943C79.5045 376.923 80.6099 378.084 82.0929 379.1C82.3526 379.278 82.419 379.633 82.2411 379.892C82.0632 380.152 81.7085 380.218 81.4487 380.04Z" fill="#482D1F"/>
<path opacity="0.176986" d="M46.4165 332.768C46.4152 332.117 46.4146 331.474 46.4146 330.839C46.4146 323.046 46.3766 316.34 46.3006 312.032C46.2246 308.622 45.6545 289.89 53.0266 285.993C53.6726 285.656 54.3186 285.394 55.6106 284.907C56.6366 284.532 61.9566 282.584 68.7965 282.884C73.2425 283.071 79.9305 283.371 85.4406 288.054C93.0406 294.535 92.8506 304.763 92.7746 306.412L91.3293 330.524L100.034 327.222C106.155 314.621 112.304 302.361 118.268 290.739C121.188 285.061 124.661 280.408 133.42 281.11L133.437 281.083C86.8118 277.539 60.9552 276.29 55.8669 277.336C48.2343 278.906 42.5384 282.455 38.8391 289.781C35.1399 297.107 33.7915 305.248 36.0552 316.573C38.0893 326.749 43.815 331.818 46.4165 332.768Z" fill="#444444"/>
<path d="M55.0092 241.278C52.7127 241.125 50.6087 240.913 48.6972 240.641C46.5692 240.641 43.2632 240.261 41.6672 237.981C39.3492 234.713 42.0092 229.431 44.9732 223.503C48.5452 216.397 50.9629 213.675 54.8532 210.013C61.4761 203.778 66.1431 202.985 69.9079 205.868C69.9578 205.906 70.0071 205.949 70.056 205.995C71.7365 205.541 73.5082 205.31 75.3352 205.335L83.6952 205.478C94.2972 205.586 103.113 214.172 102.961 224.554V225.2L102.733 245.209L102.695 264.014C102.29 266.326 102.075 267.577 102.049 267.769C102.011 268.092 102.011 268.379 101.973 268.703C101.897 269.565 101.783 270.355 101.555 271.145C101.479 271.469 99.231 272.87 99.117 273.193C67.8253 275.597 52.0275 276.464 51.7235 275.794C51.107 274.369 52.2022 262.864 55.0092 241.278Z" fill="#FFCB3D"/>
<path d="M76.6778 204.42C77.3195 203.609 77.9026 202.848 78.4272 202.139C80.3585 202.935 82.4728 203.751 84.7701 204.586C84.9954 204.668 85.2409 204.677 85.4715 204.612C86.0771 204.439 86.4285 203.809 86.2563 203.203L85.8124 201.642C84.1998 200.607 83.3847 199.963 82.9834 199.658C82.8809 199.567 80.9675 198.418 80.865 198.327L80.8619 192.294C80.8446 191.871 77.2827 186.702 78.1547 184.872C79.1668 183.139 82.1865 180.24 83.9741 180.645C84.6418 180.815 88.219 182.364 88.3464 181.731L90.0625 171.98C90.1522 171.342 90.7053 170.961 91.3459 171.051C92.7401 171.247 94.1071 171.362 95.5435 171.258C95.7319 171.284 95.8879 171.268 96.0386 171.289C97.4162 171.33 104.752 171.901 107.916 177.82C108.181 178.393 108.447 178.967 108.637 179.529C109.125 180.976 109.215 182.52 108.881 184.081L107.506 190.855C107.358 191.433 107.21 192.011 107.009 192.606C108.095 192.395 108.927 192.314 109.504 192.363C112.162 192.587 112.559 193.952 110.695 196.458L102.584 205.883C115.42 236.093 121.644 255.426 121.255 263.881L140.014 264.824C146.38 266.417 155.414 268.436 155.414 268.436C155.183 273.906 148.461 273.151 145.176 272.417L135.972 274.561L129.069 276.108C127.73 277.105 125.344 279.98 118.315 279.98C109.635 279.98 87.1081 279.058 50.7341 277.214C43.7408 276.353 39.9339 274.816 39.3133 272.6C38.3825 269.277 34.8823 267.364 42.1995 246.746C43.042 244.374 43.8823 242.145 44.6989 240.071C46.1159 240.57 47.6665 240.688 48.8516 240.688C54.5788 241.502 62.0342 241.782 71.2178 241.528C70.1315 244.252 69.3329 246.489 68.8453 247.376C67.6005 250.03 66.9845 251.41 66.9973 251.513L102.316 260.076L102.47 245.615L102.508 245.256L102.736 225.247V224.6C102.846 217.079 98.4482 210.5 91.985 207.405C93.8766 207.839 95.7077 207.953 97.4781 207.749C100.533 207.397 102.843 204.312 104.406 198.493L104.372 198.499C104.844 197.648 105.3 196.737 105.735 195.773C102.789 202.296 98.8492 206.352 95.9854 206.117C94.3221 205.922 92.6906 205.501 91.1389 204.786C90.9423 204.651 91.0804 204.763 88.6005 203.332L87.7764 205.743C90.3955 206.55 91.6431 207.404 91.491 207.31C90.706 208.337 90.2162 208.947 89.3486 209.605C84.2168 213.587 77.3998 212.695 71.9629 210.898C71.4095 208.17 70.7246 206.494 69.9082 205.868C69.6361 205.66 69.36 205.471 69.0794 205.302C71.8691 204.762 74.4027 204.496 76.6778 204.42Z" fill="#ED9474"/>
<path opacity="0.2" d="M91.8945 207.405C93.7862 207.839 95.6172 207.954 97.3876 207.75C100.443 207.397 102.752 204.312 104.315 198.493L104.282 198.499C105.205 196.833 106.071 194.938 106.829 192.858C106.86 192.774 106.889 192.69 106.917 192.607C108.004 192.395 108.836 192.314 109.414 192.363C112.071 192.587 112.468 193.953 110.605 196.458L102.493 205.883C115.397 236.254 121.619 255.631 121.158 264.014L119.931 263.953C116.857 263.377 113.931 262.927 113.759 262.98L102.224 260.183L102.379 245.615L102.417 245.256L102.645 225.247V224.6C102.755 217.079 98.3577 210.5 91.8945 207.405Z" fill="#8C2A00"/>
<path d="M88.6514 203.235C91.1097 204.654 90.9729 204.542 91.1689 204.677C92.7206 205.393 94.3522 205.813 96.0154 206.009C98.465 206.21 101.702 203.271 104.431 198.334L104.55 198.313C102.857 204.439 100.483 207.679 97.4278 208.031C94.3726 208.383 91.1204 207.6 87.671 205.681L88.6514 203.235ZM88.7105 189.505L88.7396 189.489L87.7456 184.821C87.4962 183.865 86.957 183.06 86.289 182.352C85.7398 181.891 85.1371 181.538 84.4703 181.367C82.6852 180.963 80.5328 182.08 79.5211 183.818C78.5469 185.562 78.5947 187.679 79.7108 189.294C80.4065 190.351 81.4455 191.15 82.6555 191.55L83.1073 191.605L86.4315 203.3C86.6037 203.906 86.2523 204.536 85.6466 204.708C85.419 204.773 85.1769 204.765 84.9538 204.686C70.1435 199.433 62.933 194.813 63.3223 190.826C63.6664 187.302 67.0349 182.024 73.4278 174.99C73.9519 173.983 74.6445 173 75.5607 172.134C76.4938 171.229 77.6532 170.624 78.8614 170.218C82.0834 169.136 84.273 170.211 90.2398 170.896C91.4439 171.066 93.2337 171.164 95.5232 171.255C95.7114 171.282 95.8672 171.265 96.0177 171.286C97.3936 171.326 104.382 171.516 107.909 177.869C107.856 177.977 105.312 177.236 103.561 177.412C96.0065 178.192 92.0847 190.534 88.8096 189.537C88.7783 189.528 88.7452 189.518 88.7105 189.505ZM102.63 187.909C101.851 187.992 100.621 188.011 99.6041 187.599C97.8884 186.974 99.6922 186.153 101.321 186.306C102.079 186.374 102.639 186.759 102.973 187.113C103.199 187.414 103.017 187.887 102.63 187.909ZM109.049 188.658C108.259 188.816 107.05 188.953 105.98 188.649C104.173 188.126 105.923 187.144 107.53 187.178C108.374 187.182 108.901 187.524 109.278 187.846C109.585 188.119 109.441 188.598 109.049 188.658Z" fill="#482D1F"/>
<path d="M99.3828 192.173C99.07 191.669 99.3686 190.636 99.5714 190.012C99.6777 189.528 100.172 189.291 100.586 189.349C100.844 189.424 101.161 189.622 101.162 190.159C101.251 191.438 99.7662 192.994 99.3828 192.173ZM105.597 193.008C105.359 192.514 105.583 191.471 105.786 190.847C105.892 190.363 106.386 190.126 106.8 190.184C107.058 190.259 107.375 190.457 107.377 190.994C107.466 192.273 105.943 193.824 105.597 193.008Z" fill="#482D1F"/>
<path d="M105.618 190.108C105.675 189.906 105.557 189.696 105.355 189.639C105.153 189.582 104.943 189.7 104.886 189.902L104.273 192.08L104.263 192.126L103.665 196.109C103.645 196.152 103.605 196.176 103.555 196.174C102.86 196.003 102.131 196.077 101.445 196.351C101.25 196.428 101.155 196.65 101.233 196.844C101.311 197.039 101.532 197.134 101.727 197.057C102.279 196.836 102.856 196.779 103.394 196.917L103.435 196.925C103.875 196.987 104.27 196.724 104.398 196.318L104.411 196.26L105.011 192.263L105.618 190.108Z" fill="#482D1F"/>
<path d="M100.921 199.527C100.663 199.452 100.007 199.206 99.9144 198.771C99.925 198.696 99.8656 198.572 99.9138 198.502C100.053 198.33 101.22 198.494 101.22 198.494C102.757 198.748 103.144 198.726 103.231 198.93C103.252 199.048 103.231 199.199 102.92 199.5C102.492 200.093 101.324 199.66 100.921 199.527Z" fill="#482D1F"/>
<path d="M66.0991 251.283C66.3565 251.102 66.712 251.164 66.8933 251.421C67.0745 251.678 67.0128 252.034 66.7554 252.215L60.4625 256.646C60.2051 256.827 59.8495 256.766 59.6682 256.508C59.487 256.251 59.5487 255.895 59.8061 255.714L66.0991 251.283ZM72.2517 233.269C72.1469 232.972 72.3026 232.646 72.5995 232.542C72.8963 232.437 73.2219 232.593 73.3267 232.889C73.3533 232.965 73.3978 233.1 73.4542 233.286C73.5472 233.592 73.64 233.932 73.7265 234.297C73.9628 235.295 74.1099 236.292 74.1235 237.232C74.1656 240.145 72.9072 242.01 70.0076 241.971C69.6929 241.967 69.4411 241.708 69.4452 241.394C69.4494 241.079 69.708 240.827 70.0227 240.831C72.1633 240.86 73.0175 239.594 72.9836 237.249C72.9714 236.401 72.8359 235.483 72.6172 234.56C72.5364 234.219 72.4497 233.901 72.3633 233.617C72.3121 233.448 72.2729 233.329 72.2517 233.269Z" fill="#482D1F"/>
</g>
<g clip-path="url(#clip3_386_5127)">
<path d="M429.186 337.133V337.204C429.186 338.116 428.388 338.876 427.476 338.876H398.785L408.894 357.42C416.114 370.644 423.296 383.83 430.478 397.054L442.372 418.866C442.79 419.626 442.448 420.614 441.65 421.07L441.498 421.146C440.7 421.602 439.674 421.336 439.294 420.614L394.796 338.876H365.156L320.658 420.614C320.278 421.336 319.252 421.564 318.454 421.146L318.302 421.07C317.504 420.614 317.162 419.626 317.58 418.866L329.474 397.054C336.694 383.83 343.876 370.644 351.058 357.42L361.166 338.876H323.128C322.178 338.876 321.418 338.116 321.418 337.204V337.014C321.418 336.102 322.216 335.342 323.128 335.342H348.968C365.802 335.342 382.674 335.342 399.546 335.342H425.831L429.034 309.426C431.238 291.794 433.404 274.124 435.608 256.454L439.218 227.27C439.332 226.244 440.206 225.484 441.156 225.598L441.346 225.636C442.258 225.75 442.904 226.7 442.79 227.65L429.224 336.938C429.214 337.004 429.201 337.07 429.186 337.133Z" fill="#D8DEED"/>
<path d="M429.186 337.133V337.204C429.186 338.116 428.388 338.876 427.476 338.876H398.785L408.894 357.42C416.114 370.644 423.296 383.83 430.478 397.054L442.372 418.866C442.79 419.626 442.448 420.614 441.65 421.07L441.498 421.146C440.7 421.602 439.674 421.336 439.294 420.614L394.796 338.876H365.156L320.658 420.614C320.278 421.336 319.252 421.564 318.454 421.146L318.302 421.07C317.504 420.614 317.162 419.626 317.58 418.866L329.474 397.054C336.694 383.83 343.876 370.644 351.058 357.42L361.166 338.876H323.128C322.178 338.876 321.418 338.116 321.418 337.204V337.014C321.418 336.102 322.216 335.342 323.128 335.342H348.968C365.802 335.342 382.674 335.342 399.546 335.342H425.831L429.034 309.426C431.238 291.794 433.404 274.124 435.608 256.454L439.218 227.27C439.332 226.244 440.206 225.484 441.156 225.598L441.346 225.636C442.258 225.75 442.904 226.7 442.79 227.65L429.224 336.938C429.214 337.004 429.201 337.069 429.186 337.133Z" fill="#D8DEED"/>
</g>
<g clip-path="url(#clip4_386_5127)">
<path d="M71.874 61.4097H213.306C214.231 61.4097 214.98 62.1759 214.98 63.1211V159.248C214.98 160.194 214.231 160.96 213.306 160.96H71.874C70.9496 160.96 70.2002 160.194 70.2002 159.248V63.1211C70.2002 62.1759 70.9496 61.4097 71.874 61.4097Z" fill="#F2F6FB"/>
<path d="M128.528 85.8222H156.421C157.821 85.8222 158.957 86.9831 158.957 88.4153V88.5679C158.957 90.0001 157.821 91.1611 156.421 91.1611H128.528C127.127 91.1611 125.992 90.0001 125.992 88.5679V88.4153C125.992 86.9831 127.127 85.8222 128.528 85.8222ZM112.209 76.8127H172.74C174.14 76.8127 175.276 77.9737 175.276 79.4059V79.8922C175.276 81.3244 174.14 82.4853 172.74 82.4853H112.209C110.808 82.4853 109.673 81.3244 109.673 79.8922V79.4059C109.673 77.9737 110.808 76.8127 112.209 76.8127Z" fill="#E1E5F0"/>
<path d="M101.677 117.151L96.6896 119.847C96.2809 120.068 96.0124 119.871 96.0904 119.404L97.0434 113.689L93.0064 109.642C92.6771 109.312 92.7821 108.989 93.2407 108.92L98.8132 108.087L101.308 102.888C101.512 102.464 101.841 102.463 102.045 102.888L104.54 108.087L110.113 108.92C110.572 108.989 110.674 109.314 110.347 109.642L106.31 113.689L107.263 119.404C107.341 119.87 107.071 120.068 106.664 119.847L101.677 117.151ZM121.912 117.485L116.925 120.181C116.517 120.402 116.248 120.205 116.326 119.737L117.279 114.023L113.242 109.976C112.913 109.646 113.018 109.322 113.476 109.254L119.049 108.421L121.544 103.222C121.748 102.798 122.077 102.796 122.281 103.222L124.776 108.421L130.349 109.254C130.807 109.322 130.91 109.648 130.583 109.976L126.546 114.023L127.499 119.737C127.577 120.203 127.307 120.401 126.9 120.181L121.912 117.485ZM142.475 117.485L137.487 120.181C137.079 120.402 136.81 120.205 136.888 119.737L137.841 114.023L133.804 109.976C133.475 109.646 133.58 109.322 134.038 109.254L139.611 108.421L142.106 103.222C142.31 102.798 142.639 102.796 142.843 103.222L145.338 108.421L150.911 109.254C151.369 109.322 151.472 109.648 151.145 109.976L147.108 114.023L148.061 119.737C148.139 120.203 147.869 120.401 147.462 120.181L142.475 117.485ZM162.71 117.485L157.723 120.181C157.314 120.402 157.046 120.205 157.124 119.737L158.077 114.023L154.04 109.976C153.711 109.646 153.816 109.322 154.274 109.254L159.847 108.421L162.342 103.222C162.545 102.798 162.875 102.796 163.079 103.222L165.574 108.421L171.146 109.254C171.605 109.322 171.708 109.648 171.381 109.976L167.344 114.023L168.297 119.737C168.374 120.203 168.105 120.401 167.697 120.181L162.71 117.485Z" fill="#474BFF"/>
<path d="M182.782 117.485L177.685 120.187C177.275 120.405 177.007 120.205 177.086 119.737L178.058 114.023L173.937 109.971C173.604 109.643 173.704 109.324 174.161 109.257L179.863 108.421L182.408 103.219C182.615 102.796 182.95 102.796 183.156 103.219L185.702 108.421L191.404 109.257C191.86 109.324 191.96 109.644 191.627 109.971L187.506 114.023L188.478 119.737C188.557 120.203 188.291 120.406 187.879 120.187L182.782 117.485Z" fill="#E1E5F0"/>
<path d="M130.834 136.875H154.115C155.353 136.875 156.134 137.074 156.816 137.447C157.498 137.82 158.033 138.367 158.398 139.064C158.763 139.762 158.957 140.56 158.957 141.826V142.602C158.957 143.869 158.763 144.667 158.398 145.364C158.033 146.062 157.498 146.609 156.816 146.982C156.134 147.355 155.353 147.553 154.115 147.553H130.834C129.596 147.553 128.815 147.355 128.133 146.982C127.451 146.609 126.916 146.062 126.551 145.364C126.186 144.667 125.992 143.869 125.992 142.602V141.826C125.992 140.56 126.186 139.762 126.551 139.064C126.916 138.367 127.451 137.82 128.133 137.447C128.815 137.074 129.596 136.875 130.834 136.875Z" fill="#D8DEED"/>
<path d="M70.2002 55.7061C70.2002 52.5547 72.6979 50 75.7815 50H209.399C212.481 50 214.98 52.555 214.98 55.7061V62.5507H70.2002V55.7061Z" fill="#E1E5F0"/>
<path d="M78.4294 59.1279C79.893 59.1279 81.0795 57.9147 81.0795 56.4181C81.0795 54.9215 79.893 53.7083 78.4294 53.7083C76.9658 53.7083 75.7793 54.9215 75.7793 56.4181C75.7793 57.9147 76.9658 59.1279 78.4294 59.1279Z" fill="#FF5645"/>
<path d="M87.0769 59.1279C88.5405 59.1279 89.727 57.9147 89.727 56.4181C89.727 54.9215 88.5405 53.7083 87.0769 53.7083C85.6133 53.7083 84.4268 54.9215 84.4268 56.4181C84.4268 57.9147 85.6133 59.1279 87.0769 59.1279Z" fill="#FFCB3D"/>
<path d="M96.0036 59.1279C97.4672 59.1279 98.6537 57.9147 98.6537 56.4181C98.6537 54.9215 97.4672 53.7083 96.0036 53.7083C94.54 53.7083 93.3535 54.9215 93.3535 56.4181C93.3535 57.9147 94.54 59.1279 96.0036 59.1279Z" fill="#3ABF7C"/>
</g>
<g clip-path="url(#clip5_386_5127)">
<path d="M236.449 417.652H297.629C298.574 417.652 299.339 418.418 299.339 419.362C299.339 420.307 298.574 421.072 297.629 421.072H236.449C235.505 421.072 234.739 420.307 234.739 419.362C234.739 418.418 235.505 417.652 236.449 417.652ZM366.206 417.723L403.377 390.011C403.646 389.826 403.914 389.717 404.218 389.722C404.751 389.693 405.279 389.931 405.613 390.355L405.724 390.546C406.283 391.202 406.113 392.226 405.42 392.745L367.603 421.084L345.331 421.151C344.457 421.136 343.747 420.439 343.724 419.565L343.728 419.337C343.781 418.464 344.478 417.754 345.352 417.769L366.206 417.723Z" fill="#A339FF"/>
<path d="M298.724 418.042C298.507 417.943 298.265 417.887 298.011 417.887L236.565 417.65C236.681 417.625 236.441 417.65 236.565 417.65C236.565 417.525 236.505 417.465 236.565 417.226C237.021 415.402 238.503 413.882 239.339 413.122C241.087 412.02 242.835 411.07 244.659 410.196C251.423 406.928 253.741 406.966 258.187 404.002C260.011 402.748 261.721 401.342 263.279 399.784C264.318 398.745 266.964 396.876 271.22 394.47L304.471 394.538L298.724 418.042ZM404.456 389.963C404.21 389.989 403.985 390.091 403.759 390.246L366.588 417.957L345.734 418.004C345.565 418.001 345.402 418.025 345.25 418.072C345.201 417.83 345.174 417.575 345.179 417.307C345.221 417.042 345.227 416.738 345.308 416.435C345.796 414.62 347.267 413.087 348.116 412.342C349.845 411.27 351.61 410.312 353.449 409.47C357.064 407.741 359.424 406.96 361.504 406.155C361.813 405.627 362.107 405.084 362.391 404.496C362.746 403.742 363.103 402.912 363.461 401.968C364.22 399.891 364.751 397.772 365.131 395.612L366.98 389.829L367.55 387.82L390.73 370.72L404.456 389.963Z" fill="#474961"/>
<path d="M321.411 280.78C325.207 279.443 328.257 279.496 328.257 279.496C345.357 279.458 407.411 279.344 408.475 279.42C409.995 279.534 417.73 279.242 422.345 287.552C422.383 287.552 422.383 287.59 422.383 287.59C423.067 288.882 423.789 290.478 424.435 292.454C425.651 296.292 426.487 301.46 426.107 307.844C425.879 310.39 425.537 315.938 422.307 321.258C418.963 326.806 414.327 330.53 407.449 332.886C401.597 334.862 395.859 333.95 388.791 333.304H388.715C388.449 333.266 387.917 333.152 387.271 333.038L385.979 332.81C385.257 332.658 384.611 332.544 384.307 332.506H384.231C377.695 331.328 371.881 330.264 366.067 329.162L365.801 329.124C365.334 329.031 364.867 328.94 364.399 328.85C365.377 330.206 366.352 331.573 367.324 332.949C369.832 336.483 372.265 340.017 374.621 343.513L384.158 357.003C385.602 359.017 384.957 361.829 382.715 363.235L370.972 370.531L360.332 377.599L358.243 378.929C356.152 380.221 353.616 379.613 352.01 377.941C347.762 373.516 339.789 363.117 329.78 351.797C329.387 351.351 328.995 350.909 328.605 350.471C322.98 360.955 315.997 374.637 311.917 381.488C311.119 382.856 309.561 383.578 307.965 383.35L277.793 378.866C275.209 378.486 273.689 375.712 274.791 373.318C280.377 361.044 287.483 341.702 293.525 328.706C295.083 325.362 296.565 322.056 297.933 318.94C298.151 318.446 298.377 317.932 298.609 317.4C296.339 314.286 295.003 312.058 293.833 309.237C292.503 306.045 291.287 303.119 291.363 299.167C291.476 293.315 294.403 286.665 300.254 283.093C303.522 281.079 306.715 280.965 308.614 280.813C311.16 280.737 314.086 280.775 317.354 280.775C319.061 280.761 320.345 280.752 321.411 280.78Z" fill="#3ABF7C"/>
<path opacity="0.176986" d="M320.853 280.769C316.408 282.427 311.071 286.008 308.405 293.746C308.369 293.817 302.478 308.001 298.462 317.198C296.281 314.189 294.978 311.996 293.833 309.237C292.503 306.045 291.287 303.119 291.363 299.167C291.477 293.315 294.403 286.665 300.255 283.093C303.523 281.079 306.715 280.965 308.615 280.813C311.161 280.737 314.087 280.775 317.355 280.775C318.774 280.763 319.901 280.756 320.853 280.769V280.769ZM364.299 328.711C365.31 330.113 366.319 331.526 367.325 332.949C369.833 336.483 372.265 340.017 374.621 343.513L384.159 357.003C385.603 359.017 384.957 361.829 382.715 363.235L370.973 370.531L360.333 377.599L358.243 378.929C356.153 380.221 353.616 379.613 352.011 377.941C347.762 373.516 339.789 363.117 329.781 351.797C329.334 351.292 328.89 350.791 328.449 350.295C329.84 347.703 331.147 345.308 332.307 343.26C332.307 343.26 333.371 341.36 335.651 337.75C337.513 334.786 339.451 332.202 341.085 330.036C341.959 328.858 343.175 327.224 344.695 325.324C346.405 325.552 348.115 325.78 349.825 326.046C352.181 326.464 354.537 326.92 356.931 327.338C359.406 327.788 361.855 328.238 364.299 328.711Z" fill="#444444"/>
<path d="M337.453 317.42C339.528 320.181 340.168 320.956 340.835 321.608C341.451 322.21 342.061 322.948 344.103 325.666C344.292 325.918 344.65 325.968 344.901 325.779C345.153 325.59 345.204 325.233 345.015 324.981C342.94 322.22 342.3 321.445 341.632 320.793C341.017 320.191 340.407 319.453 338.365 316.735C338.175 316.484 337.818 316.433 337.566 316.622C337.315 316.811 337.264 317.168 337.453 317.42Z" fill="#482D1F"/>
<path d="M378.045 205.905C384.911 203.936 391.98 205.659 397.107 209.92L397.379 210.101C398.165 210.666 399.037 211.6 399.949 212.79C400.604 213.596 401.203 214.456 401.739 215.367C405.836 221.763 410.102 231.594 410.681 235.401C410.681 236.526 409.99 237.489 409.01 237.89L414.846 257.751C415.203 258.925 416.759 263.668 417.139 270.885C417.392 275.696 414.986 278.592 409.921 279.572C403.977 279.511 394.031 279.622 380.084 279.906C366.136 280.19 357.803 265.104 355.085 234.649C352.083 224.689 356.797 214.331 365.764 209.924L364.627 206.62C364.49 206.223 364.701 205.79 365.098 205.653L375.877 201.942C376.274 201.805 376.706 202.016 376.843 202.413L378.045 205.905Z" fill="#A339FF"/>
<path d="M372.724 190.251L375.924 202.196L365.278 205.861L364.495 202.749C364.343 202.829 364.186 202.91 364.024 202.992C360.985 204.611 361.162 204.478 360.943 204.577C358.63 205.47 356.585 205.647 356.203 205.648C353.005 205.755 348.693 200.362 346.153 192.185C345.93 191.521 345.821 190.845 345.674 190.172L344.66 183.439C344.426 181.936 344.569 180.392 345.148 178.994C345.391 178.395 345.638 177.834 345.934 177.383C349.279 171.759 356.558 171.949 357.859 171.965C358.01 171.949 358.166 171.971 358.317 171.955C359.789 172.144 361.046 171.745 362.402 171.564C363.007 171.5 363.55 171.94 363.651 172.541L364.857 182.195C364.946 182.797 366.105 182.262 368.336 180.588C371.101 182.042 372.774 183.363 373.358 184.55C374.324 186.473 373.934 188.578 372.901 190.023C372.843 190.102 372.784 190.178 372.724 190.251ZM333.104 263.337C338.433 262.049 344.394 260.61 350.988 259.023L354.58 234.933C354.63 234.388 354.706 233.746 354.824 233.025C354.943 233.571 355.084 234.116 355.248 234.661C358.736 244.248 361.978 252.375 364.975 259.043C372.895 257.895 380.372 257.021 385.773 255.809C385.781 255.294 385.245 249.192 384.165 237.503L408.059 238.333C408.088 238.334 408.116 238.335 408.144 238.335C408.758 242.241 408.969 247.044 408.779 252.744C408.418 263.585 409.596 272.421 402.939 277.157C401.388 278.263 400.943 279.019 395.612 279.432C384.464 280.294 374.339 280.043 364.071 279.594C367.574 279.764 371.055 279.915 374.567 280.006C359.061 280.742 307.811 281.363 303.339 281.214C298.062 281.038 295.395 279.312 294.327 276.772C293.469 274.732 298.668 272.062 299.46 271.65C299.619 271.567 301.296 271.126 304.49 270.326C302.103 269.935 299.997 268.837 300.136 266.168C300.136 266.168 320.365 263.057 326.009 262.263L325.879 262.352C327.224 262.178 328.648 262.158 330.195 262.449C331.051 262.598 332.021 262.894 333.104 263.337ZM360.329 377.56L371.159 370.34L382.559 363.31C383.181 362.919 383.903 362.35 384.269 361.79L390.729 370.72L367.572 387.784L360.329 377.56ZM278.439 378.89L307.509 383.26L304.469 394.66L271.219 394.47L278.439 378.89Z" fill="#F2A98A"/>
<path opacity="0.2" d="M364.821 258.984C361.382 259.483 357.86 260.033 354.388 260.686C346.054 262.253 339.673 263.471 335.245 264.34C334.349 263.877 333.513 263.492 332.736 263.185C338.104 261.886 344.117 260.436 350.774 258.833L354.367 234.743C354.417 234.198 354.492 233.557 354.611 232.835C354.73 233.381 354.871 233.926 355.035 234.471C358.545 244.12 361.808 252.291 364.821 258.984ZM374.353 279.816C358.847 280.552 307.598 281.174 303.126 281.024C297.849 280.848 295.182 279.122 294.114 276.582C293.256 274.543 298.454 271.872 299.247 271.46C299.407 271.377 301.106 270.93 304.342 270.119C306.136 270.434 308.112 270.32 309.396 270.178C312.948 270.528 316.464 270.841 320.017 271.191C321.133 271.632 322.25 272.072 323.366 272.513C325.214 275.656 339.528 278.048 345.086 278.457C346.791 278.577 347.814 278.665 350.161 278.741C358.48 279.087 366.338 279.608 374.353 279.816Z" fill="#8C2A00"/>
<path d="M347.012 190.201C347.155 190.836 347.38 191.882 347.05 192.375C346.63 193.107 345.276 191.492 345.413 190.255C345.471 189.714 345.719 189.535 346.022 189.503C346.475 189.456 346.889 189.756 347.012 190.201ZM353.715 189.268C353.896 189.898 354.083 190.948 353.753 191.442C353.333 192.174 351.979 190.558 352.116 189.321C352.174 188.78 352.423 188.601 352.725 188.569C353.178 188.522 353.592 188.822 353.715 189.268Z" fill="#482D1F"/>
<path d="M352.628 197.1C352.885 196.997 353.503 196.703 353.573 196.275C353.565 196.199 353.591 196.082 353.545 196.01C353.37 195.8 352.891 195.965 352.219 196.112C351.021 196.352 350.027 196.342 350.027 196.342C350.027 196.342 350.408 197.066 350.617 197.235C351.059 197.8 352.224 197.257 352.628 197.1Z" fill="#482D1F"/>
<path d="M343.872 187.589C343.486 187.554 343.287 187.116 343.524 186.824C343.832 186.485 344.36 186.048 345.111 185.931C346.653 185.692 348.449 186.421 346.842 187.124C345.823 187.614 344.602 187.627 343.872 187.589ZM354.836 171.665C351.883 170.086 349.81 167.379 349.469 164.132C348.876 158.497 353.726 153.368 360.301 152.677C366.875 151.986 372.685 155.995 373.278 161.63C373.635 165.034 372.008 168.253 369.214 170.421C370.847 170.255 372.147 170.291 373.674 170.855C374.231 171.063 375.546 171.575 376.781 172.782C380.303 176.119 380.172 181.061 380.172 182.513C380.02 186.885 378.009 189.924 377.209 191.04C375.347 193.681 373.63 195.105 372.057 195.311C371.146 193.994 370.427 192.737 369.902 191.541C370.562 191.245 371.486 190.698 372.177 189.696C373.172 188.254 373.566 186.188 372.608 184.34C371.733 182.56 369.692 181.322 367.894 181.664C366.882 181.847 366.148 182.497 366.042 182.585C365.135 183.435 364.586 184.527 364.395 184.948C364.397 184.893 364.399 184.838 364.401 184.782C362.591 184.285 359.602 183.109 356.987 180.403C356.09 179.504 355.378 178.547 354.829 177.688C353.365 178.3 350.956 179.012 348.066 178.781C347.041 178.7 346.128 178.274 345.312 178.052C345.307 178.045 345.304 178.041 345.304 178.041C345.254 177.931 345.729 177.269 345.721 177.193C347.962 173.329 352.15 172.066 354.836 171.665ZM351.204 186.819C350.818 186.783 350.619 186.345 350.893 186.049C351.202 185.711 351.729 185.273 352.519 185.152C354.06 184.914 355.86 185.68 354.249 186.346C353.193 186.839 351.971 186.853 351.204 186.819Z" fill="#DE6903"/>
<path d="M364.85 204.833L368.171 200.412L364.279 202.553L364.85 204.833Z" fill="#482D1F"/>
<path d="M385.384 256.21C385.093 256.091 384.953 255.758 385.071 255.467C385.19 255.175 385.523 255.035 385.814 255.154L390.944 257.244C391.236 257.363 391.376 257.695 391.257 257.987C391.138 258.278 390.806 258.419 390.514 258.3L385.384 256.21ZM384.371 236.634C384.544 236.896 384.472 237.25 384.21 237.423C383.947 237.597 383.593 237.525 383.42 237.262C380.384 232.67 378.839 227.348 378.955 221.85C378.962 221.535 379.222 221.285 379.537 221.292C379.852 221.299 380.102 221.559 380.095 221.874C379.984 227.14 381.463 232.234 384.371 236.634Z" fill="#482D1F"/>
<path d="M349.01 190.31L349.007 190.255L349.007 190.283L349.01 190.31ZM348.978 194.346L348.98 194.389C349.024 194.801 349.346 195.155 349.765 195.18C349.841 195.179 349.884 195.178 349.926 195.176C350.329 195.16 350.616 195.134 351.646 195.026C351.854 195.004 352.006 194.817 351.984 194.608C351.962 194.399 351.775 194.248 351.566 194.27C350.555 194.376 350.275 194.402 349.896 194.417C349.856 194.418 349.817 194.42 349.777 194.421C349.786 194.42 349.749 194.379 349.738 194.324L349.767 190.26L349.763 190.205L349.453 187.983C349.424 187.775 349.232 187.63 349.024 187.659C348.816 187.688 348.671 187.88 348.7 188.088L349.007 190.283L348.978 194.346Z" fill="#482D1F"/>
</g>
<g clip-path="url(#clip6_386_5127)">
<path d="M290.428 275.913C290.807 276.583 291.525 277.035 292.348 277.035H346.954C348.17 277.035 349.12 276.047 349.12 274.831C349.12 273.615 348.132 272.627 346.954 272.627H293.84L275.324 222.809C274.906 221.669 273.652 221.099 272.512 221.517C271.372 221.935 270.802 223.189 271.22 224.329L290.258 275.553C290.305 275.68 290.362 275.801 290.428 275.913Z" fill="#474961"/>
</g>
<g clip-path="url(#clip7_386_5127)">
<path d="M215.741 265.128C206.035 264.219 199.217 250.355 202.639 238.413C204.547 231.753 208.956 226.301 215.741 222.077V217.2C215.741 215.521 217.102 214.16 218.781 214.16H240.441H245.381L241.133 237.974C243.76 240.648 245.381 244.315 245.381 248.36V276.48H215.741V265.128ZM215.741 259.366V257.48V229.027C211.845 232.122 209.325 235.771 208.118 239.984C206.821 244.511 207.399 249.547 209.487 253.603C211.142 256.818 213.475 258.882 215.741 259.366Z" fill="#E1E5F0"/>
<path d="M249.941 250.64H265.521V269.07C265.521 273.372 262.033 276.86 257.731 276.86C253.429 276.86 249.941 273.372 249.941 269.07V250.64ZM190.661 250.64H206.241V269.07C206.241 273.372 202.753 276.86 198.451 276.86C194.149 276.86 190.661 273.372 190.661 269.07V250.64Z" fill="#F2F6FB"/>
<path d="M249.941 260.9H265.521V269.07C265.521 273.372 262.033 276.86 257.731 276.86C253.429 276.86 249.941 273.372 249.941 269.07V260.9ZM190.661 267.36H206.241V269.07C206.241 273.372 202.753 276.86 198.451 276.86C194.149 276.86 190.661 273.372 190.661 269.07V267.36ZM215.741 248.36H245.381V276.86H215.741V248.36Z" fill="#474BFF"/>
</g>
<g clip-path="url(#clip8_386_5127)">
<path d="M334.323 86.4517H192.915C189.571 86.4517 186.859 89.102 186.859 92.3715V186.2C186.859 189.47 189.571 192.12 192.915 192.12H334.323C337.668 192.12 340.379 189.47 340.379 186.2V92.3715C340.379 89.102 337.668 86.4517 334.323 86.4517Z" fill="#F2F6FB"/>
<path d="M225.617 128.186C232.808 128.186 238.638 122.488 238.638 115.458C238.638 108.429 232.808 102.731 225.617 102.731C218.426 102.731 212.597 108.429 212.597 115.458C212.597 122.488 218.426 128.186 225.617 128.186Z" fill="#D8DEED"/>
<path d="M263.77 128.186C270.961 128.186 276.791 122.488 276.791 115.458C276.791 108.429 270.961 102.731 263.77 102.731C256.579 102.731 250.75 108.429 250.75 115.458C250.75 122.488 256.579 128.186 263.77 128.186Z" fill="#D8DEED"/>
<path d="M301.923 128.186C309.114 128.186 314.943 122.488 314.943 115.458C314.943 108.429 309.114 102.731 301.923 102.731C294.732 102.731 288.902 108.429 288.902 115.458C288.902 122.488 294.732 128.186 301.923 128.186Z" fill="#D8DEED"/>
<path d="M225.617 171.4C232.808 171.4 238.638 165.636 238.638 158.525C238.638 151.414 232.808 145.649 225.617 145.649C218.426 145.649 212.597 151.414 212.597 158.525C212.597 165.636 218.426 171.4 225.617 171.4Z" fill="#D8DEED"/>
<path d="M263.77 171.4C270.961 171.4 276.791 165.636 276.791 158.525C276.791 151.414 270.961 145.649 263.77 145.649C256.579 145.649 250.75 151.414 250.75 158.525C250.75 165.636 256.579 171.4 263.77 171.4Z" fill="#D8DEED"/>
<path d="M301.771 171.4C309.046 171.4 314.943 165.636 314.943 158.525C314.943 151.414 309.046 145.649 301.771 145.649C294.497 145.649 288.6 151.414 288.6 158.525C288.6 165.636 294.497 171.4 301.771 171.4Z" fill="#D8DEED"/>
<path d="M225.618 115.458C223.778 115.458 222.287 114.067 222.287 112.35C222.287 110.634 223.778 109.242 225.618 109.242C227.457 109.242 228.948 110.634 228.948 112.35C228.948 114.067 227.457 115.458 225.618 115.458ZM225.618 116.938C228.962 116.938 231.674 119.456 231.674 122.562H219.562C219.562 119.456 222.273 116.938 225.618 116.938Z" fill="#F2F6FB"/>
<path d="M263.771 115.459C261.931 115.459 260.44 114.067 260.44 112.351C260.44 110.634 261.931 109.243 263.771 109.243C265.61 109.243 267.102 110.634 267.102 112.351C267.102 114.067 265.61 115.459 263.771 115.459ZM263.619 116.939C266.88 116.939 269.524 119.457 269.524 122.562H257.715C257.715 119.457 260.358 116.939 263.619 116.939Z" fill="#F2F6FB"/>
<path d="M301.924 115.459C300.085 115.459 298.593 114.067 298.593 112.351C298.593 110.634 300.085 109.243 301.924 109.243C303.764 109.243 305.255 110.634 305.255 112.351C305.255 114.067 303.764 115.459 301.924 115.459ZM301.773 116.939C305.034 116.939 307.677 119.457 307.677 122.562H295.868C295.868 119.457 298.512 116.939 301.773 116.939Z" fill="#F2F6FB"/>
<path d="M225.619 158.377C223.779 158.377 222.288 156.919 222.288 155.121C222.288 153.323 223.779 151.865 225.619 151.865C227.458 151.865 228.949 153.323 228.949 155.121C228.949 156.919 227.458 158.377 225.619 158.377ZM225.619 159.561C228.963 159.561 231.675 162.211 231.675 165.481H219.562C219.562 162.211 222.274 159.561 225.619 159.561Z" fill="#F2F6FB"/>
<path d="M263.771 158.377C261.931 158.377 260.44 156.92 260.44 155.121C260.44 153.323 261.931 151.865 263.771 151.865C265.61 151.865 267.102 153.323 267.102 155.121C267.102 156.92 265.61 158.377 263.771 158.377ZM263.619 159.561C266.88 159.561 269.524 162.212 269.524 165.481H257.715C257.715 162.212 260.358 159.561 263.619 159.561Z" fill="#F2F6FB"/>
<path d="M301.922 158.377C300.083 158.377 298.591 156.919 298.591 155.121C298.591 153.323 300.083 151.865 301.922 151.865C303.762 151.865 305.253 153.323 305.253 155.121C305.253 156.919 303.762 158.377 301.922 158.377ZM301.771 159.561C305.032 159.561 307.675 162.211 307.675 165.481H295.866C295.866 162.211 298.51 159.561 301.771 159.561Z" fill="#F2F6FB"/>
<path d="M236.203 131.442H215.031C213.687 131.442 212.597 132.508 212.597 133.822V134.39C212.597 135.705 213.687 136.77 215.031 136.77H236.203C237.548 136.77 238.638 135.705 238.638 134.39V133.822C238.638 132.508 237.548 131.442 236.203 131.442Z" fill="#E1E5F0"/>
<path d="M274.356 131.442H253.184C251.84 131.442 250.75 132.508 250.75 133.822V134.39C250.75 135.705 251.84 136.77 253.184 136.77H274.356C275.701 136.77 276.791 135.705 276.791 134.39V133.822C276.791 132.508 275.701 131.442 274.356 131.442Z" fill="#E1E5F0"/>
<path d="M312.509 131.442H291.034C289.69 131.442 288.6 132.508 288.6 133.822V134.39C288.6 135.705 289.69 136.77 291.034 136.77H312.509C313.853 136.77 314.943 135.705 314.943 134.39V133.822C314.943 132.508 313.853 131.442 312.509 131.442Z" fill="#E1E5F0"/>
<path d="M236.203 174.361H215.031C213.687 174.361 212.597 175.426 212.597 176.74V177.309C212.597 178.623 213.687 179.688 215.031 179.688H236.203C237.548 179.688 238.638 178.623 238.638 177.309V176.74C238.638 175.426 237.548 174.361 236.203 174.361Z" fill="#E1E5F0"/>
<path d="M274.356 174.361H253.184C251.84 174.361 250.75 175.426 250.75 176.74V177.309C250.75 178.623 251.84 179.688 253.184 179.688H274.356C275.701 179.688 276.791 178.623 276.791 177.309V176.74C276.791 175.426 275.701 174.361 274.356 174.361Z" fill="#E1E5F0"/>
<path d="M312.509 174.361H291.034C289.69 174.361 288.6 175.426 288.6 176.74V177.309C288.6 178.623 289.69 179.688 291.034 179.688H312.509C313.853 179.688 314.943 178.623 314.943 177.309V176.74C314.943 175.426 313.853 174.361 312.509 174.361Z" fill="#E1E5F0"/>
<path d="M186.859 82.9011C186.859 79.6309 189.573 76.98 192.913 76.98H334.326C337.669 76.98 340.379 79.6312 340.379 82.9011V90.0035H186.859V82.9011Z" fill="#E1E5F0"/>
</g>
<g clip-path="url(#clip9_386_5127)">
<path d="M422.08 276.86H39.0399C37.5708 276.86 36.3799 278.051 36.3799 279.52C36.3799 280.989 37.5708 282.18 39.0399 282.18H422.08C423.549 282.18 424.74 280.989 424.74 279.52C424.74 278.051 423.549 276.86 422.08 276.86Z" fill="#D8DEED"/>
</g>
<g clip-path="url(#clip10_386_5127)">
<path d="M172.212 275.913C171.834 276.583 171.115 277.035 170.293 277.035H115.687C114.471 277.035 113.521 276.047 113.521 274.831C113.521 273.615 114.509 272.627 115.687 272.627H168.801L187.317 222.809C187.735 221.669 188.989 221.099 190.129 221.517C191.269 221.935 191.839 223.189 191.421 224.329L172.383 275.553C172.336 275.68 172.279 275.801 172.212 275.913Z" fill="#474961"/>
</g>
</g>
<defs>
<clipPath id="clip0_386_5127">
<rect width="471" height="472" fill="white"/>
</clipPath>
<clipPath id="clip1_386_5127">
<rect width="125.4" height="197.6" fill="white" transform="translate(17.3799 224.8)"/>
</clipPath>
<clipPath id="clip2_386_5127">
<rect width="198.36" height="287.28" fill="white" transform="translate(-2 133.6)"/>
</clipPath>
<clipPath id="clip3_386_5127">
<rect width="125.78" height="195.7" fill="white" transform="translate(317.2 225.56)"/>
</clipPath>
<clipPath id="clip4_386_5127">
<rect width="144.78" height="110.96" fill="white" transform="translate(70.2002 50)"/>
</clipPath>
<clipPath id="clip5_386_5127">
<rect width="198.36" height="287.28" fill="white" transform="translate(231.319 133.6)"/>
</clipPath>
<clipPath id="clip6_386_5127">
<rect width="134.52" height="101.08" fill="white" transform="translate(242.721 176.16)"/>
</clipPath>
<clipPath id="clip7_386_5127">
<rect width="134.52" height="101.08" fill="white" transform="translate(167.101 175.78)"/>
</clipPath>
<clipPath id="clip8_386_5127">
<rect width="153.52" height="115.14" fill="white" transform="translate(186.859 76.98)"/>
</clipPath>
<clipPath id="clip9_386_5127">
<rect width="491.72" height="5.32" fill="white" transform="translate(36.3799 276.86)"/>
</clipPath>
<clipPath id="clip10_386_5127">
<rect width="134.52" height="101.08" fill="white" transform="translate(86.54 176.16)"/>
</clipPath>
</defs>
</svg>
