<svg width="472" height="472" viewBox="0 0 472 472" fill="none" xmlns="http://www.w3.org/2000/svg">
<g clip-path="url(#clip0_333_3367)">
<path d="M392.248 360.734H425.191C426.19 360.734 427.065 359.901 427.065 358.902V358.694C427.065 357.694 426.19 356.861 425.108 356.861H394.58C376.089 356.861 357.598 356.861 339.148 356.861H310.828C309.829 356.861 308.954 357.694 308.954 358.694V358.902C308.954 359.901 309.787 360.734 310.828 360.734H351.018L339.939 381.058C332.068 395.551 324.197 410.003 316.284 424.496L303.248 448.401C302.79 449.234 303.165 450.317 304.04 450.817L304.206 450.9C305.081 451.358 306.205 451.108 306.622 450.317L355.391 360.734H387.875L436.644 450.317C437.06 451.108 438.185 451.4 439.059 450.9L439.226 450.817C440.101 450.317 440.475 449.234 440.017 448.401L426.982 424.496C419.11 410.003 411.239 395.551 403.326 381.058L392.248 360.734ZM426.94 344.414V320.199C426.94 301.73 426.94 283.305 426.94 264.879V242.873C426.94 239.423 424.143 236.626 420.693 236.626H352.725C349.275 236.626 346.478 239.423 346.478 242.873V344.485C346.478 347.935 349.275 350.732 352.725 350.732C352.727 350.732 352.729 350.732 352.732 350.732L420.7 350.661C424.147 350.657 426.94 347.861 426.94 344.414Z" fill="#D8DEED"/>
<g clip-path="url(#clip1_333_3367)">
<path d="M293.056 102.19H191.021C186.421 102.19 182.691 105.919 182.691 110.519V222.55C182.691 227.15 186.421 230.879 191.021 230.879H293.056C297.656 230.879 301.386 227.15 301.386 222.55V110.519C301.386 105.919 297.656 102.19 293.056 102.19Z" fill="#E1E5F0"/>
<path d="M200.257 187.084H283.886C285.077 187.084 286.042 188.05 286.042 189.241C286.042 190.431 285.077 191.397 283.886 191.397H200.257C199.066 191.397 198.101 190.431 198.101 189.241C198.101 188.05 199.066 187.084 200.257 187.084ZM200.257 201.099H283.886C285.077 201.099 286.042 202.065 286.042 203.256C286.042 204.446 285.077 205.412 283.886 205.412H200.257C199.066 205.412 198.101 204.446 198.101 203.256C198.101 202.065 199.066 201.099 200.257 201.099ZM211.587 194.092H272.556C273.747 194.092 274.712 195.057 274.712 196.248C274.712 197.439 273.747 198.404 272.556 198.404H211.587C210.396 198.404 209.43 197.439 209.43 196.248C209.43 195.057 210.396 194.092 211.587 194.092ZM216.982 208.107H267.161C268.352 208.107 269.317 209.072 269.317 210.263C269.317 211.454 268.352 212.419 267.161 212.419H216.982C215.791 212.419 214.826 211.454 214.826 210.263C214.826 209.072 215.791 208.107 216.982 208.107Z" fill="#F2F6FB"/>
<path d="M241.801 147.123C249.847 147.123 256.368 140.607 256.368 132.569C256.368 124.531 249.847 118.015 241.801 118.015C233.756 118.015 227.234 124.531 227.234 132.569C227.234 140.607 233.756 147.123 241.801 147.123Z" fill="#474BFF"/>
<path d="M241.796 132.424C240.327 132.424 239.135 131.25 239.135 129.801C239.135 128.353 240.327 127.179 241.796 127.179C243.265 127.179 244.457 128.353 244.457 129.801C244.457 131.25 243.265 132.424 241.796 132.424ZM241.796 133.735C244.459 133.735 246.618 135.863 246.618 138.488H236.974C236.974 135.863 239.133 133.735 241.796 133.735Z" fill="#F2F6FB"/>
<path d="M257.554 159.521H226.05C224.859 159.521 223.894 160.487 223.894 161.677C223.894 162.868 224.859 163.834 226.05 163.834H257.554C258.745 163.834 259.71 162.868 259.71 161.677C259.71 160.487 258.745 159.521 257.554 159.521Z" fill="#F2F6FB"/>
<path d="M263.801 152.514H219.803C218.612 152.514 217.646 153.479 217.646 154.67C217.646 155.861 218.612 156.826 219.803 156.826H263.801C264.992 156.826 265.957 155.861 265.957 154.67C265.957 153.479 264.992 152.514 263.801 152.514Z" fill="#F2F6FB"/>
</g>
<g clip-path="url(#clip2_333_3367)">
<path d="M269.443 449.109H335.62C336.661 449.109 337.494 448.276 337.494 447.235C337.494 446.194 336.661 445.361 335.62 445.361H269.443C268.402 445.361 267.569 446.194 267.569 447.235C267.569 448.276 268.402 449.109 269.443 449.109ZM391.261 449.109C392.302 449.109 393.135 448.388 393.135 447.523V446.947C393.135 446.082 392.26 445.361 391.261 445.361H348.572C347.531 445.361 346.698 446.082 346.698 446.947V447.523C346.698 448.388 347.573 449.109 348.572 449.109H391.261Z" fill="#A339FF"/>
<path d="M268.821 445.497C269.038 445.409 269.276 445.361 269.526 445.361H335.704C335.97 445.361 336.223 445.415 336.451 445.514C336.507 445.325 336.537 445.125 336.537 444.916L335.121 419.54L306.467 419.123C306.009 419.123 305.593 419.25 305.218 419.545C300.47 424.696 295.931 427.566 292.641 429.255C290.1 430.563 281.604 434.194 277.773 435.967C276.594 436.5 274.85 437.458 272.54 438.841C271.991 439.169 271.496 439.58 271.072 440.059C269.875 441.411 269.123 442.622 268.818 443.692C268.735 443.945 268.735 444.156 268.694 444.41C268.652 444.621 268.694 444.832 268.694 445.043V445.085C268.723 445.229 268.766 445.366 268.821 445.497ZM347.763 445.553C348.028 445.431 348.332 445.361 348.656 445.361H390.725L380.933 419.54L351.155 423.704L347.763 445.553Z" fill="#474961"/>
<path d="M337.913 346.672C339.114 347.269 340.235 347.827 341.277 348.346L341.493 351.64C341.743 355.966 342.034 359.766 342.367 363.114C342.617 365.747 345.824 395.577 346.99 406.524C347.24 409.007 349.031 411.113 351.488 411.79C355.195 412.843 357.568 413.445 367.189 413.784C367.814 413.822 368.438 413.784 369.021 413.746C378.35 412.994 383.015 411.64 384.056 411.188C385.389 410.624 386.097 410.361 386.805 409.721C389.304 407.539 389.137 404.079 389.179 402.8C389.389 394.649 389.955 372.701 390.128 353.818C390.379 353.819 390.632 353.82 390.886 353.821C393.256 353.821 395.536 352.821 397.637 351.072C400.32 348.823 409.752 341.386 410.337 325.737C410.743 314.851 408.848 306.582 404.65 300.929C404.65 300.887 399.424 292.641 396.249 292.641H349.491C346.242 292.752 331.735 293.128 305.968 293.769L305.983 293.869C305.839 293.866 305.695 293.862 305.551 293.859C295.015 293.666 286.477 302.067 286.727 312.326C286.727 312.403 286.727 312.442 286.727 312.519C287.393 344.342 295.181 389.676 295.723 405.007C295.764 405.587 295.931 406.865 296.805 408.22C299.512 412.362 305.843 411.433 320.628 411.782C333.205 412.091 338.286 413.021 340.868 409.614C342.284 407.755 342.242 405.626 342.201 404.658C341.171 385.235 339.672 365.629 337.913 346.672Z" fill="#474BFF"/>
<path opacity="0.176986" d="M338.003 346.592C339.204 347.189 340.325 347.747 341.366 348.265L339.457 319.086C339.416 317.394 339.207 307.162 347.495 300.654C353.534 295.952 360.864 295.651 365.737 295.463C373.233 295.162 379.064 297.118 380.188 297.494C381.604 297.983 382.312 298.247 383.02 298.585C391.1 302.497 390.475 321.306 390.392 324.729C390.308 329.055 390.267 335.788 390.267 343.613C390.267 346.796 390.248 350.192 390.217 353.694C390.439 353.694 390.662 353.695 390.886 353.696C393.256 353.696 395.536 352.696 397.637 350.947C400.32 348.698 409.752 341.261 410.337 325.612C410.743 314.726 408.848 306.457 404.65 300.804C404.65 300.762 399.424 292.516 396.249 292.516H349.491C346.326 292.624 332.121 293.051 306.878 293.796C309.956 293.865 313.008 293.933 316.093 294.001C325.464 294.233 333.252 301.163 334.251 310.222C335.574 321.906 336.845 334.108 338.003 346.592Z" fill="#444444"/>
<path d="M337.728 244.542C331.605 239.961 315.78 227.508 315.78 227.508C310.615 232.173 323.026 240.544 323.026 240.544" fill="#482D1F"/>
<path d="M309.471 225.738C312.577 220.549 311.687 213.723 307.023 209.524C301.724 204.752 293.561 205.18 288.79 210.479C284.019 215.778 284.447 223.941 289.745 228.712C294.299 232.813 300.969 233.073 305.782 229.702L320.574 243.021C320.916 243.329 321.443 243.301 321.751 242.959L324.259 240.174C324.567 239.832 324.539 239.305 324.197 238.997L309.471 225.738ZM304.884 224.97C301.652 228.56 296.122 228.849 292.532 225.617C288.943 222.385 288.653 216.855 291.885 213.266C295.117 209.676 300.647 209.386 304.236 212.618C307.826 215.851 308.116 221.381 304.884 224.97Z" fill="#474961"/>
<path d="M346.854 230.882C346.229 232.519 345.723 234.2 345.336 235.925C343.032 246.183 339.267 252.224 341.86 257.134C343.391 260.031 346.332 260.9 348.612 261.143L350.178 280.719C350.799 286.019 351.214 288.969 351.423 289.566C351.384 294.466 357.539 293.219 368.999 293.219C382.334 293.219 400.122 295.014 401.182 290.08C402.138 285.633 401.908 276.305 400.495 262.096C405.128 260.883 408.537 258.788 409.406 257.091C411.852 252.381 409.045 244.766 405.918 236.221C402.149 225.977 400.104 220.938 395.493 216.775C391.674 213.335 387.501 212.147 383.985 212.811C381.147 211.669 378.029 211.163 374.809 211.447L365.68 212.253C355.958 213.038 348.426 221.171 346.854 230.882Z" fill="#A339FF"/>
<path opacity="0.176986" d="M346.568 231.49C346.032 232.963 345.591 234.47 345.244 236.013C342.941 246.271 339.175 252.312 341.768 257.222C343.281 260.083 346.169 260.966 348.437 261.222L348.337 259.978L348.308 259.563L346.499 237.27L346.446 236.523C346.304 234.823 346.351 233.136 346.568 231.49Z" fill="#444444"/>
<path d="M378.741 211.622C378.02 209.202 376.983 205.204 375.631 199.626L375.511 197.279C375.594 196.821 375.672 196.806 376.088 196.682C377.171 196.39 377.753 195.687 378.503 194.854C379.877 193.271 380.252 190.939 379.586 188.815C378.753 186.775 376.587 185.234 374.588 185.4C373.839 185.483 373.131 185.775 372.464 186.191L372.423 186.233C372.214 186.441 371.923 186.483 371.631 186.525C370.923 186.525 370.34 186.025 370.299 185.317L369.924 174.447C369.924 173.739 369.382 173.239 368.674 173.239C367.133 173.239 365.634 173.156 364.093 172.823C363.885 172.823 363.718 172.781 363.552 172.781C362.053 172.615 354.015 172.115 349.683 178.07C349.309 178.653 348.934 179.236 348.642 179.819C347.893 181.319 347.559 182.985 347.684 184.734L348.142 192.314C348.226 193.063 348.309 193.813 348.476 194.604C350.475 203.975 354.723 210.472 358.304 210.68C360.137 210.722 361.969 210.513 363.76 209.972C363.983 209.861 363.842 209.948 366.345 208.936L366.855 211.692C361.883 212.501 359.116 214.084 358.812 214.239C359.699 215.216 359.822 215.546 360.587 216.164C369.142 223.077 383.027 213.975 384.779 212.809C382.644 212.259 380.63 211.875 378.741 211.622ZM342.207 269.008L341.539 273.794L308.47 280.036C307.493 279.867 306.549 279.774 305.639 279.748C302.508 279.617 299.811 280.225 297.985 280.703C293.419 280.486 288.896 280.225 284.373 280.008C280.677 279.14 272.414 277.838 272.153 283.047C272.153 283.047 275.719 284.002 280.546 285.261C281.675 285.555 282.875 285.867 284.114 286.189C290.516 288.399 298.892 292.957 303.715 294.503L353.123 292.779C352.377 291.863 351.821 290.825 351.489 289.655C351.281 289.057 350.866 286.108 350.245 280.807L349.647 273.342C358.671 278.472 367.051 282.765 374.787 286.22C379.475 288.314 385.205 289.956 389.803 291.527C400.517 293.708 402.541 289.849 403.764 288.584C405.188 287.112 409.931 282.93 407.794 258.922C403.913 261.839 394.638 264.679 385.383 262.164C382.99 261.514 380.853 260.9 378.97 260.322L379.121 261.77L329.65 241.006C329.531 240.914 329.402 240.832 329.263 240.763L314.978 233.974C313.895 233.474 312.562 233.933 312.021 235.015L311.521 235.973C311.014 237.027 311.421 238.228 312.366 238.82C311.36 238.608 310.363 239.082 309.939 240.038L309.439 240.996C309.013 241.88 309.231 242.866 309.869 243.511C309.324 243.676 308.837 244.046 308.537 244.593L307.988 245.523C307.388 246.618 307.82 247.933 308.873 248.531L316.33 252.566C325.442 258.679 334.067 264.16 342.207 269.008ZM306.264 411.552V419.124L335.121 419.54L334.943 412.064C331.75 412.273 327.22 411.941 320.636 411.779C314.507 411.635 309.831 411.71 306.264 411.552ZM351.972 411.922L351.155 423.705L380.932 419.54L379.774 412.328C377.306 412.824 373.77 413.361 369.029 413.744C368.446 413.781 367.822 413.819 367.197 413.781C357.994 413.457 355.422 412.892 351.972 411.922Z" fill="#BF865F"/>
<path d="M376.769 204.111C377.252 206.256 377.679 208.032 377.975 208.933C378.633 208.933 379.294 208.933 379.957 208.933C380.952 208.933 384.551 208.555 387.912 208.35C387.912 208.35 388.162 208.35 388.37 208.309C389.453 208.142 390.494 207.976 391.535 207.434C391.535 207.434 391.869 207.309 392.16 207.059C398.032 202.228 399.323 195.315 396.825 191.442C395.034 188.735 391.535 187.693 391.036 187.527C390.369 187.319 389.703 187.235 389.12 187.194C388.892 186.511 388.665 185.794 388.437 185.073C388.377 182.642 387.836 179.412 385.705 176.74C384.83 175.616 383.664 174.783 382.415 174.158C379.083 172.492 376.542 173.325 369.962 173.159C368.629 173.159 364.029 172.573 363.863 172.573C357.078 172.143 352.334 174.018 349.631 178.198C351.635 177.892 353.262 177.892 354.511 178.198C362.591 180.197 364.965 194.19 368.671 193.607C368.706 193.603 368.744 193.597 368.784 193.588L368.754 193.566L370.545 188.651C370.962 187.652 371.67 186.86 372.503 186.194C373.169 185.778 373.877 185.486 374.627 185.403C376.626 185.236 378.791 186.777 379.624 188.818C379.76 189.167 379.861 189.524 379.929 189.884C380.16 191.652 379.704 193.441 378.583 194.732C378.52 194.802 378.456 194.87 378.39 194.937C378.387 194.942 378.385 194.946 378.382 194.95C377.509 195.85 376.375 196.469 375.134 196.714C375.649 199.477 376.466 203.084 376.769 204.111ZM354.095 189.984C354.928 190.192 356.302 190.4 357.426 190.109C359.384 189.692 357.551 188.526 355.761 188.443C354.928 188.401 354.261 188.735 353.845 189.068C353.553 189.359 353.678 189.901 354.095 189.984ZM347.061 189.985C347.916 190.203 349.235 190.464 350.42 190.151C352.427 189.683 350.568 188.508 348.808 188.453C347.884 188.408 347.287 188.753 346.856 189.083C346.505 189.365 346.635 189.897 347.061 189.985Z" fill="#482D1F"/>
<path opacity="0.2" d="M342.928 269.144C342.724 269.025 342.52 268.905 342.315 268.785L341.616 273.713L308.553 279.914C307.575 279.745 306.63 279.652 305.719 279.625C302.588 279.495 299.891 280.103 298.065 280.58C293.499 280.363 288.976 280.103 284.453 279.886C280.756 279.018 272.494 277.715 272.233 282.924C272.233 282.924 275.799 283.879 280.626 285.138C281.755 285.433 282.955 285.745 284.194 286.067C290.596 288.277 298.971 292.835 303.795 294.381L353.203 292.657C352.457 291.741 351.901 290.702 351.569 289.532C351.36 288.935 350.946 285.986 350.324 280.685L349.764 273.687L349.725 273.529L349.751 273.523L349.727 273.22L342.928 269.144Z" fill="#8C2A00"/>
<path d="M253.466 267.67C253.088 268.949 253.792 270.265 255.071 270.643L312.298 288.227C313.577 288.605 314.893 287.901 315.271 286.622C315.649 285.344 314.945 284.027 313.666 283.649L256.439 266.065C255.202 265.689 253.844 266.391 253.466 267.67Z" fill="#474961"/>
<path d="M366.441 208.762L369.705 207.302L367.054 212.167L366.441 208.762Z" fill="#482D1F"/>
<path d="M350.097 195.065C350.472 194.565 350.347 193.441 350.222 192.691C350.18 192.15 349.68 191.817 349.222 191.817C348.931 191.858 348.556 192.025 348.473 192.608C348.181 193.982 349.597 195.898 350.097 195.065ZM356.969 195.107C357.385 194.607 357.218 193.441 357.094 192.733C357.052 192.191 356.552 191.858 356.094 191.858C355.802 191.9 355.428 192.066 355.344 192.649C355.053 194.024 356.427 195.94 356.969 195.107Z" fill="#482D1F"/>
<path d="M350.822 194.373L350.45 191.948C350.415 191.72 350.571 191.508 350.798 191.473C351.026 191.438 351.238 191.594 351.273 191.821L351.649 194.272L351.654 194.324L351.772 198.736C351.789 198.786 351.829 198.818 351.883 198.822C352.386 198.758 353.035 198.698 353.831 198.64C354.06 198.624 354.259 198.796 354.276 199.026C354.292 199.255 354.12 199.454 353.89 199.471C353.093 199.528 352.449 199.589 351.959 199.652L351.913 199.655C351.427 199.664 351.032 199.325 350.947 198.866L350.94 198.801L350.822 194.373Z" fill="#482D1F"/>
<path d="M354.177 202.853C354.469 202.811 355.219 202.645 355.385 202.187C355.385 202.103 355.468 201.978 355.427 201.895C355.302 201.687 354.011 201.687 354.011 201.687C352.303 201.728 351.887 201.645 351.762 201.853C351.72 201.978 351.72 202.145 352.012 202.52C352.387 203.228 353.761 202.978 354.177 202.853Z" fill="#482D1F"/>
<path d="M379.409 259.768L377.129 238.715C377.092 238.372 377.34 238.064 377.683 238.027C378.026 237.989 378.334 238.237 378.371 238.58L380.652 259.634C380.689 259.977 380.441 260.285 380.098 260.322C379.755 260.359 379.447 260.111 379.409 259.768Z" fill="#482D1F"/>
</g>
<path d="M60.1804 356.879V356.957C60.1804 357.956 61.055 358.789 62.0545 358.789H93.4986L82.4199 379.113C74.507 393.606 66.6357 408.058 58.7644 422.551L45.7289 446.456C45.2707 447.289 45.6456 448.372 46.5201 448.872L46.6867 448.955C47.5613 449.455 48.6858 449.163 49.1023 448.372L97.871 358.789H130.356L179.124 448.372C179.541 449.163 180.665 449.413 181.54 448.955L181.706 448.872C182.581 448.372 182.956 447.289 182.498 446.456L169.462 422.551C161.549 408.058 153.678 393.606 145.807 379.113L134.728 358.789H176.417C177.458 358.789 178.291 357.956 178.291 356.957V356.749C178.291 355.749 177.417 354.916 176.417 354.916H148.097C129.648 354.916 111.156 354.916 92.6651 354.916H63.8575L60.347 326.513C57.9314 307.189 55.5576 287.823 53.142 268.457L49.1856 236.472C49.0606 235.347 48.1027 234.514 47.0616 234.639L46.8533 234.681C45.8538 234.806 45.1458 235.847 45.2707 236.888L60.1387 356.665C60.1495 356.738 60.1635 356.809 60.1804 356.879Z" fill="#D8DEED"/>
<g clip-path="url(#clip3_333_3367)">
<path d="M193.05 445.361H135.279C134.225 445.361 133.381 446.194 133.381 447.235C133.381 448.276 134.225 449.109 135.279 449.109H202.284H249.993C251.034 449.109 251.867 448.276 251.867 447.235C251.867 446.194 251.034 445.361 249.993 445.361H193.05Z" fill="#DE3190"/>
<path d="M250.552 445.402C250.638 445.234 250.702 445.053 250.742 444.861V444.82C250.742 444.611 250.784 444.403 250.742 444.195C250.701 443.945 250.701 443.737 250.617 443.487C250.076 441.613 248.618 440.03 247.66 439.156C247.535 439.031 247.452 438.989 247.327 438.906C245.495 437.781 243.621 436.74 241.663 435.866C237.832 434.116 229.336 430.535 226.795 429.244C223.505 427.578 218.966 424.746 214.218 419.665C213.843 419.373 213.426 419.248 212.968 419.248L184.357 419.415C183.149 419.415 182.191 420.415 182.274 421.664L182.544 431.584C181.332 431.012 180.1 430.377 178.714 429.577C176.745 428.452 173.979 426.62 170.879 423.871C169.16 422.372 167.401 420.873 165.683 419.373L139.745 419.04L134.328 445.717C134.64 445.493 135.026 445.361 135.445 445.361H193.216H250.159C250.294 445.361 250.426 445.375 250.552 445.402Z" fill="#474961"/>
<path opacity="0.176986" d="M201.848 445.361H250.096C250.204 445.171 250.284 444.961 250.331 444.736V444.695C250.331 444.486 250.373 444.278 250.331 444.07C250.289 443.82 250.289 443.612 250.206 443.362C249.665 441.488 248.207 439.905 247.249 439.031C247.124 438.906 247.041 438.864 246.916 438.781C245.084 437.656 243.209 436.615 241.252 435.741C237.421 433.991 228.925 430.41 226.384 429.119C223.094 427.453 218.554 424.621 213.807 419.54C213.432 419.248 213.015 419.123 212.557 419.123L183.946 419.29C182.738 419.29 182.186 420.167 182.27 421.417L182.551 431.798C185.416 433.124 188.279 434.188 192.941 436.407C194.941 437.365 196.856 438.448 198.73 439.655C199.647 440.488 201.229 442.196 201.729 444.195C201.812 444.528 201.812 444.861 201.854 445.153C201.854 445.223 201.852 445.292 201.848 445.361H201.848Z" fill="#444444"/>
<path d="M188.038 425.048C188.18 425.064 188.325 425.073 188.471 425.073L215.516 424.783H217.702C219.851 424.783 221.666 423.126 221.777 420.671C222.036 415.72 222.37 409.202 222.777 401.669C223.889 382.667 224.482 376.615 225.148 361.972C225.26 359.517 225.371 357.316 225.445 355.243C225.741 345.382 226.519 336.156 228.038 324.094C228.89 317.407 229.298 313.26 229.335 309.747C229.372 306.489 228.52 303.272 226.89 300.606C226.075 299.294 225.148 298.151 224.037 297.178C221.184 294.681 217.368 292.565 214.331 292.776C206.457 292.813 198.583 292.818 190.709 292.847C189.06 292.455 187.22 292.262 185.189 292.267L181.241 292.308C181.263 292.261 164.638 292.173 131.366 292.044C121.059 283.953 109.67 280.561 97.2002 281.866C92.2232 282.387 87.7136 283.808 83.6714 286.128C79.2091 288.654 75.3129 292.268 71.9828 296.973C69.9295 299.12 63.7652 308.92 64.9895 323.846C65.2264 326.594 65.7397 332.717 69.0565 338.547C72.5311 344.628 76.7956 349.084 83.9424 351.624C90.26 353.873 97.6437 354.665 105.304 353.79C116.096 351.735 128.579 350.028 142.751 348.667C138.924 359.141 136.445 365.724 135.313 368.417C133.615 372.416 129.006 389.677 127.274 402.901C126.428 409.369 126.723 415.087 128.161 420.056C129.038 423.087 131.815 425.171 134.969 425.168L170.415 425.131L186.327 425.048H188.038Z" fill="#3ABF7C"/>
<path opacity="0.176986" d="M190.135 292.849C193.647 293.598 196.327 295.213 198.176 297.691C202.165 303.042 201.016 308.186 201.016 311.352V311.56C200.976 315.017 200.542 319.098 199.673 325.678C198.055 337.548 197.225 346.585 196.909 356.33C196.831 358.33 196.712 360.537 196.594 362.952C195.922 377.321 195.251 383.276 194.067 402.017C193.593 409.43 193.237 415.802 193 420.717C192.882 423.132 190.947 425.048 188.657 425.048H188.026C188.172 425.069 188.321 425.079 188.471 425.079L215.516 424.783H217.702C219.851 424.783 221.777 423.003 221.777 420.269C222.036 415.333 222.37 408.836 222.777 401.326C223.889 382.384 224.482 376.351 225.148 361.754C225.26 359.307 225.371 357.113 225.445 355.046C225.741 345.216 226.519 336.019 228.038 323.996C228.89 317.33 229.298 313.195 229.335 309.694C229.372 306.445 228.52 303.239 226.89 300.581C226.075 299.273 225.148 298.134 224.037 297.164C221.184 294.675 217.368 292.565 214.331 292.776C206.265 292.814 198.2 292.818 190.135 292.849Z" fill="#444444"/>
<path d="M125.559 216.12C129.182 218.946 132.109 223.295 132.657 224.891C137.205 238.118 142.682 237.593 143.12 240.459C143.774 244.745 138.756 245.267 138.756 245.267C136.425 245.49 134.653 245.661 133.44 245.778L133.152 257.609L133.125 258.026L132.64 278.754L132.531 282.801C132.543 283.133 132.511 283.426 132.481 283.761C132.453 284.137 132.423 284.471 132.394 284.847C132.303 285.809 132.127 286.732 131.867 287.658C131.756 288.037 131.685 288.414 131.532 288.795C96.875 290.005 79.4409 287.585 79.2297 281.536L80.0933 245.431L74.8371 245.253C74.8371 245.253 69.1245 244.868 69.7767 240.557C70.2127 237.675 76.4778 237.909 81.3781 224.472C82.0509 222.628 86.1635 217.059 91.0233 214.194C91.1771 214.103 91.3316 214.015 91.4868 213.93C94.8038 212.056 98.6531 211.025 102.733 211.123L112.326 211.371C117.354 211.471 121.936 213.235 125.559 216.12Z" fill="#DE3190"/>
<path opacity="0.176986" d="M130.069 220.697C131.445 222.452 132.403 224.07 132.693 224.915C137.241 238.142 142.683 237.593 143.12 240.459C143.774 244.745 138.815 245.254 138.815 245.254L133.576 245.761L133.855 234.313L133.871 233.563C134.001 228.794 132.584 224.346 130.069 220.697Z" fill="#444444"/>
<path d="M106.368 193.965C106.292 193.895 106.218 193.822 106.145 193.747C104.826 192.356 104.054 190.147 104.781 188.012C105.459 185.954 107.477 184.288 109.478 184.372C110.605 184.407 113.631 185.099 113.612 184.096L113.392 173.472C113.379 172.803 113.9 172.232 114.571 172.219C116.042 172.164 117.485 171.982 119.038 171.56C119.208 171.536 119.378 171.512 119.548 171.488C120.954 171.26 128.845 170.292 133.367 175.857C133.779 176.317 134.141 176.856 134.494 177.477C135.307 178.898 135.722 180.527 135.713 182.196L135.684 189.621C135.647 190.368 135.61 191.115 135.49 191.854C134.055 201.094 130.226 207.62 126.751 208.007C126.324 208.088 124.09 208.229 121.432 207.617C121.19 207.55 121.383 207.652 117.918 206.435L117.346 212.07C115.692 211.639 113.959 211.393 112.169 211.358L105.014 211.173L105.918 202.602L106.31 198.887L106.368 193.965ZM132.72 274.267L133.071 259.327L133.107 257.925L133.128 257.604L133.296 250.749L133.426 245.789L136.813 245.464L148.5 277.268C149.592 277.474 150.856 277.732 152.337 278.047C154.72 278.034 156.693 278.089 158.255 278.211C164.581 278.705 170.017 278.912 176.382 282.694C187.984 289.589 188.889 292.763 179.096 292.217L159.12 292.101C158.871 292.192 158.623 292.251 158.375 292.273C158.375 292.273 129.184 292.016 70.8016 291.502C68.4534 291.481 66.2482 290.37 64.834 288.496C64.1538 287.594 63.6598 285.944 63.3522 283.546C62.3986 278.486 65.1235 271.24 70.3009 257.165C71.9475 252.703 73.5069 248.645 74.9745 245.04L107.245 246.261C104.756 252.445 100.365 267.154 99.1207 269.409C99.1178 269.41 99.1148 269.411 99.1119 269.413C108.405 270.665 119.54 272.217 132.72 274.267Z" fill="#F2A98A"/>
<path d="M117.609 209.521L113.739 204.614L117.931 206.433L117.609 209.521Z" fill="#482D1F"/>
<path d="M114.274 187.427C114.104 187.118 113.451 186.038 112.259 185.202C112.144 185.106 111.239 184.55 110.112 184.515C108.111 184.431 106.092 186.103 105.415 188.167C104.687 190.31 105.418 192.523 106.737 193.918C107.755 194.995 108.992 195.421 109.748 195.604C109.741 197.019 109.77 198.556 109.836 200.215C106.607 200.003 103.761 198.596 101.298 195.992C100.28 194.922 97.5766 191.957 96.7344 187.221C96.6376 186.618 96.4456 185.467 96.4287 184.042C90.0203 184.147 84.8376 181.285 82.9317 177.224C81.1561 173.399 82.3884 168.82 82.5636 168.172C84.3216 161.648 90.2411 161.723 90.7476 161.71C90.7476 161.71 99.281 158.745 106.026 172.394C106.031 172.403 106.035 172.412 106.039 172.421C107.973 172.269 110.319 172.406 113.892 172.19C115.198 172.117 117.103 171.798 119.442 171.458C119.607 171.475 121.607 171.272 121.777 171.248C122.622 171.248 125.453 170.981 129.114 172.621C132.775 174.26 134.126 176.725 134.071 176.828C133.967 177.027 132.098 177.872 130.981 178.132C127.849 178.849 125.128 178.438 123.456 178.011C123.016 179.011 122.393 180.16 121.563 181.287C119.159 184.636 116.129 186.37 114.239 187.218C114.251 187.287 114.262 187.357 114.274 187.427Z" fill="#482D1F"/>
<path d="M132.961 189.222C133.009 188.652 133.463 188.228 134.035 188.231C134.385 188.207 134.709 188.446 134.883 189.044C135.249 190.5 133.863 192.689 133.23 191.818C132.841 191.278 132.928 190.008 132.961 189.222ZM123.762 189.03C123.81 188.46 124.265 188.036 124.836 188.04C125.186 188.015 125.511 188.254 125.685 188.852C126.05 190.308 124.664 192.497 124.032 191.626C123.642 191.087 123.729 189.817 123.762 189.03Z" fill="#482D1F"/>
<path d="M130.823 189.666L131.479 193.669C131.516 194.177 131.162 194.673 130.677 194.707C130.391 194.75 130.207 194.763 129.466 194.801C129.135 194.818 128.908 194.831 128.641 194.849C128.411 194.866 128.212 194.693 128.196 194.463C128.18 194.234 128.353 194.035 128.583 194.019C128.856 193.999 129.088 193.986 129.424 193.969C130.134 193.932 130.307 193.92 130.588 193.88C130.606 193.877 130.656 193.808 130.652 193.765L130.001 189.801C129.964 189.574 130.118 189.36 130.345 189.323C130.572 189.286 130.786 189.439 130.823 189.666Z" fill="#482D1F"/>
<path d="M128.2 197.401C127.916 197.329 127.221 197.058 127.11 196.609C127.103 196.518 127.054 196.385 127.091 196.337C127.233 196.098 127.761 196.244 128.483 196.331C129.766 196.469 130.834 196.394 130.834 196.394C130.834 196.394 130.532 197.192 130.35 197.433C129.953 198.009 128.648 197.552 128.2 197.401Z" fill="#482D1F"/>
<path d="M117.518 187.292C118.262 185.155 120.22 183.558 122.62 183.39C125.832 183.166 128.618 185.588 128.843 188.8C128.846 188.846 128.849 188.893 128.851 188.939C128.903 188.929 128.958 188.925 129.014 188.929L130.186 189.011C130.444 186.216 132.695 183.938 135.586 183.736C138.798 183.511 141.585 185.933 141.809 189.146C142.034 192.358 139.612 195.144 136.4 195.369C133.29 195.586 130.58 193.324 130.206 190.265L128.927 190.175C128.876 190.172 128.828 190.163 128.782 190.148C128.357 192.758 126.185 194.831 123.433 195.023C120.221 195.248 117.435 192.826 117.21 189.613C117.184 189.238 117.194 188.869 117.237 188.509L114.204 187.765C113.869 187.682 113.664 187.344 113.747 187.009C113.829 186.674 114.167 186.469 114.502 186.551L117.518 187.292ZM131.416 189.745C131.417 189.787 131.42 189.829 131.423 189.872C131.599 192.396 133.788 194.299 136.312 194.122C138.836 193.946 140.739 191.757 140.563 189.233C140.386 186.709 138.197 184.806 135.673 184.982C133.246 185.152 131.393 187.183 131.412 189.583C131.419 189.629 131.421 189.676 131.417 189.723C131.417 189.731 131.416 189.738 131.416 189.745ZM123.346 193.777C125.87 193.6 127.773 191.411 127.597 188.887C127.42 186.363 125.231 184.46 122.707 184.637C120.183 184.813 118.28 187.002 118.456 189.526C118.633 192.05 120.822 193.953 123.346 193.777Z" fill="#482D1F"/>
<path d="M94.428 272.963C94.1251 273.128 93.7457 273.017 93.5804 272.714C93.4151 272.411 93.5266 272.031 93.8295 271.866L99.0353 269.025C99.3382 268.86 99.7177 268.971 99.883 269.274C100.048 269.577 99.9367 269.956 99.6339 270.122L94.428 272.963ZM107.655 246.707C107.521 247.025 107.154 247.173 106.836 247.038C106.519 246.904 106.37 246.537 106.505 246.219L112.083 233.072C112.218 232.755 112.584 232.606 112.902 232.741C113.22 232.876 113.368 233.243 113.233 233.56L107.655 246.707Z" fill="#482D1F"/>
<path opacity="0.2" d="M132.715 274.387L133.097 258.064L133.124 257.647L133.413 245.783L136.802 245.455L148.465 277.345L132.715 274.387Z" fill="#8C2A00"/>
<path d="M143.369 349.004L155.449 336.327C155.687 336.078 155.678 335.682 155.428 335.444C155.178 335.206 154.783 335.216 154.545 335.465L142.464 348.142C142.226 348.392 142.236 348.788 142.486 349.026C142.736 349.264 143.131 349.254 143.369 349.004Z" fill="#482D1F"/>
</g>
<g clip-path="url(#clip4_333_3367)">
<path d="M405.087 291.267H71.4944C69.8843 291.267 68.5791 292.572 68.5791 294.182C68.5791 295.792 69.8843 297.098 71.4944 297.098H405.087C406.697 297.098 408.003 295.792 408.003 294.182C408.003 292.572 406.697 291.267 405.087 291.267Z" fill="#D8DEED"/>
</g>
<g clip-path="url(#clip5_333_3367)">
<path d="M422.83 31.3895H282.811C279.499 31.3895 276.814 34.0738 276.814 37.385V142.006C276.814 145.317 279.499 148.001 282.811 148.001H422.83C426.141 148.001 428.826 145.317 428.826 142.006V37.385C428.826 34.0738 426.141 31.3895 422.83 31.3895Z" fill="#F2F6FB"/>
<path d="M287.309 70.5944H341.039C341.867 70.5944 342.538 71.2654 342.538 72.0932V74.7397C342.538 75.5675 341.867 76.2386 341.039 76.2386H287.309C286.481 76.2386 285.81 75.5675 285.81 74.7397V72.0932C285.81 71.2654 286.481 70.5944 287.309 70.5944ZM287.309 79.7662H348.13C348.958 79.7662 349.63 80.4373 349.63 81.2651V83.9116C349.63 84.7394 348.958 85.4104 348.13 85.4104H287.309C286.481 85.4104 285.81 84.7394 285.81 83.9116V81.2651C285.81 80.4373 286.481 79.7662 287.309 79.7662ZM287.309 98.1099H355.222C356.049 98.1099 356.721 98.781 356.721 99.6088V102.255C356.721 103.083 356.049 103.754 355.222 103.754H287.309C286.481 103.754 285.81 103.083 285.81 102.255V99.6088C285.81 98.781 286.481 98.1099 287.309 98.1099ZM287.309 107.282H333.948C334.776 107.282 335.447 107.953 335.447 108.781V111.427C335.447 112.255 334.776 112.926 333.948 112.926H287.309C286.481 112.926 285.81 112.255 285.81 111.427V108.781C285.81 107.953 286.481 107.282 287.309 107.282ZM287.309 116.454H348.13C348.958 116.454 349.63 117.125 349.63 117.952V120.599C349.63 121.427 348.958 122.098 348.13 122.098H287.309C286.481 122.098 285.81 121.427 285.81 120.599V117.952C285.81 117.125 286.481 116.454 287.309 116.454ZM287.309 125.625H355.222C356.049 125.625 356.721 126.297 356.721 127.124V129.771C356.721 130.599 356.049 131.27 355.222 131.27H287.309C286.481 131.27 285.81 130.599 285.81 129.771V127.124C285.81 126.297 286.481 125.625 287.309 125.625Z" fill="#E1E5F0"/>
<path d="M355.222 61.6666H287.309C286.481 61.6666 285.81 62.3377 285.81 63.1655V65.4194C285.81 66.2472 286.481 66.9183 287.309 66.9183H355.222C356.049 66.9183 356.721 66.2472 356.721 65.4194V63.1655C356.721 62.3377 356.049 61.6666 355.222 61.6666Z" fill="#D8DEED"/>
<path d="M375.028 70.5944H421.931C422.759 70.5944 423.43 71.2654 423.43 72.0932V74.8165C423.43 75.6443 422.759 76.3153 421.931 76.3153H375.028C374.2 76.3153 373.529 75.6443 373.529 74.8165V72.0932C373.529 71.2654 374.2 70.5944 375.028 70.5944ZM375.028 79.8909H407.673C408.501 79.8909 409.172 80.562 409.172 81.3898V84.113C409.172 84.9408 408.501 85.6119 407.673 85.6119H375.028C374.2 85.6119 373.529 84.9408 373.529 84.113V81.3898C373.529 80.562 374.2 79.8909 375.028 79.8909ZM375.028 89.1875H414.802C415.63 89.1875 416.301 89.8586 416.301 90.6864V93.4096C416.301 94.2374 415.63 94.9085 414.802 94.9085H375.028C374.2 94.9085 373.529 94.2374 373.529 93.4096V90.6864C373.529 89.8586 374.2 89.1875 375.028 89.1875ZM375.028 98.4841H400.545C401.373 98.4841 402.044 99.1551 402.044 99.9829V102.706C402.044 103.534 401.373 104.205 400.545 104.205H375.028C374.2 104.205 373.529 103.534 373.529 102.706V99.9829C373.529 99.1551 374.2 98.4841 375.028 98.4841Z" fill="#E1E5F0"/>
<path d="M276.814 37.3863C276.814 34.0744 279.501 31.3895 282.809 31.3895H422.832C426.143 31.3895 428.826 34.0746 428.826 37.3863V44.5795H276.814V37.3863Z" fill="#E1E5F0"/>
</g>
<g clip-path="url(#clip6_333_3367)">
<path d="M195.723 20.9781H33.8913C32.8079 20.9781 31.9297 21.8553 31.9297 22.9374V146.042C31.9297 147.124 32.8079 148.002 33.8913 148.002H195.723C196.807 148.002 197.685 147.124 197.685 146.042V22.9374C197.685 21.8553 196.807 20.9781 195.723 20.9781Z" fill="#F2F6FB"/>
<path d="M68.6687 86.4748C76.7953 86.4748 83.3832 79.9267 83.3832 71.8493C83.3832 63.7718 76.7953 57.2238 68.6687 57.2238C60.542 57.2238 53.9541 63.7718 53.9541 71.8493C53.9541 79.9267 60.542 86.4748 68.6687 86.4748Z" fill="#D8DEED"/>
<path d="M68.6616 71.6412C66.5523 71.6412 64.8424 69.9646 64.8424 67.8964C64.8424 65.8282 66.5523 64.1516 68.6616 64.1516C70.7709 64.1516 72.4808 65.8282 72.4808 67.8964C72.4808 69.9646 70.7709 71.6412 68.6616 71.6412ZM68.6616 73.5136C72.4847 73.5136 75.5839 76.5525 75.5839 80.3011H61.7393C61.7393 76.5525 64.8385 73.5136 68.6616 73.5136Z" fill="#F2F6FB"/>
<path d="M55.6446 90.3235H81.6928C83.0541 90.3235 84.1577 91.4257 84.1577 92.7854V94.0197C84.1577 95.3794 83.0541 96.4816 81.6928 96.4816H55.6446C54.2833 96.4816 53.1797 95.3794 53.1797 94.0197V92.7854C53.1797 91.4257 54.2833 90.3235 55.6446 90.3235ZM59.5168 100.33H77.8206C79.1819 100.33 80.2854 101.433 80.2854 102.792V104.027C80.2854 105.386 79.1819 106.489 77.8206 106.489H59.5168C58.1555 106.489 57.0519 105.386 57.0519 104.027V102.792C57.0519 101.433 58.1555 100.33 59.5168 100.33Z" fill="#E1E5F0"/>
<path d="M58.5743 116.689H78.7631C79.8786 116.689 80.8498 116.916 81.6489 117.343C82.4481 117.77 83.0753 118.396 83.5027 119.195C83.9301 119.993 84.1577 120.963 84.1577 122.077C84.1577 123.192 83.9301 124.162 83.5027 124.96C83.0753 125.758 82.4481 126.384 81.6489 126.811C80.8498 127.238 79.8786 127.466 78.7631 127.466H58.5743C57.4587 127.466 56.4876 127.238 55.6885 126.811C54.8893 126.384 54.2621 125.758 53.8347 124.96C53.4073 124.162 53.1797 123.192 53.1797 122.077C53.1797 120.963 53.4073 119.993 53.8347 119.195C54.2621 118.396 54.8893 117.77 55.6885 117.343C56.4876 116.916 57.4587 116.689 58.5743 116.689ZM104.672 116.689H124.861C125.976 116.689 126.947 116.916 127.747 117.343C128.546 117.77 129.173 118.396 129.6 119.195C130.028 119.993 130.255 120.963 130.255 122.077C130.255 123.192 130.028 124.162 129.6 124.96C129.173 125.758 128.546 126.384 127.747 126.811C126.947 127.238 125.976 127.466 124.861 127.466H104.672C103.556 127.466 102.585 127.238 101.786 126.811C100.987 126.384 100.36 125.758 99.9323 124.96C99.5049 124.162 99.2773 123.192 99.2773 122.077C99.2773 120.963 99.5049 119.993 99.9323 119.195C100.36 118.396 100.987 117.77 101.786 117.343C102.585 116.916 103.556 116.689 104.672 116.689ZM151.096 116.689H171.285C172.401 116.689 173.372 116.916 174.171 117.343C174.97 117.77 175.597 118.396 176.025 119.195C176.452 119.993 176.68 120.963 176.68 122.077C176.68 123.192 176.452 124.162 176.025 124.96C175.597 125.758 174.97 126.384 174.171 126.811C173.372 127.238 172.401 127.466 171.285 127.466H151.096C149.981 127.466 149.01 127.238 148.211 126.811C147.411 126.384 146.784 125.758 146.357 124.96C145.929 124.162 145.702 123.192 145.702 122.077C145.702 120.963 145.929 119.993 146.357 119.195C146.784 118.396 147.411 117.77 148.211 117.343C149.01 116.916 149.981 116.689 151.096 116.689Z" fill="#474BFF"/>
<path d="M114.767 86.4748C122.894 86.4748 129.482 79.9267 129.482 71.8493C129.482 63.7718 122.894 57.2238 114.767 57.2238C106.641 57.2238 100.053 63.7718 100.053 71.8493C100.053 79.9267 106.641 86.4748 114.767 86.4748Z" fill="#D8DEED"/>
<path d="M114.759 71.6413C112.65 71.6413 110.94 69.9647 110.94 67.8965C110.94 65.8283 112.65 64.1517 114.759 64.1517C116.869 64.1517 118.578 65.8283 118.578 67.8965C118.578 69.9647 116.869 71.6413 114.759 71.6413ZM114.759 73.5137C118.582 73.5137 121.682 76.5526 121.682 80.3012H107.837C107.837 76.5526 110.936 73.5137 114.759 73.5137Z" fill="#F2F6FB"/>
<path d="M101.743 90.3235H127.791C129.153 90.3235 130.256 91.4257 130.256 92.7854V94.0197C130.256 95.3794 129.153 96.4816 127.791 96.4816H101.743C100.382 96.4816 99.2783 95.3794 99.2783 94.0197V92.7854C99.2783 91.4257 100.382 90.3235 101.743 90.3235ZM101.743 100.33H127.791C129.153 100.33 130.256 101.433 130.256 102.792V104.027C130.256 105.386 129.153 106.489 127.791 106.489H101.743C100.382 106.489 99.2783 105.386 99.2783 104.027V102.792C99.2783 101.433 100.382 100.33 101.743 100.33Z" fill="#E1E5F0"/>
<path d="M161.191 86.4748C169.318 86.4748 175.906 79.9267 175.906 71.8493C175.906 63.7718 169.318 57.2238 161.191 57.2238C153.064 57.2238 146.477 63.7718 146.477 71.8493C146.477 79.9267 153.064 86.4748 161.191 86.4748Z" fill="#D8DEED"/>
<path d="M161.183 71.6413C159.074 71.6413 157.364 69.9647 157.364 67.8965C157.364 65.8283 159.074 64.1517 161.183 64.1517C163.292 64.1517 165.002 65.8283 165.002 67.8965C165.002 69.9647 163.292 71.6413 161.183 71.6413ZM161.183 73.5137C165.006 73.5137 168.105 76.5526 168.105 80.3012H154.261C154.261 76.5526 157.36 73.5137 161.183 73.5137Z" fill="#F2F6FB"/>
<path d="M152.039 90.3236H170.343C171.704 90.3236 172.808 91.4258 172.808 92.7855V94.0198C172.808 95.3795 171.704 96.4817 170.343 96.4817H152.039C150.678 96.4817 149.574 95.3795 149.574 94.0198V92.7855C149.574 91.4258 150.678 90.3236 152.039 90.3236ZM148.167 100.331H174.215C175.577 100.331 176.68 101.433 176.68 102.792V104.027C176.68 105.386 175.577 106.489 174.215 106.489H148.167C146.806 106.489 145.702 105.386 145.702 104.027V102.792C145.702 101.433 146.806 100.331 148.167 100.331Z" fill="#E1E5F0"/>
<path d="M31.9297 27.5104C31.9297 23.9027 34.8594 20.9781 38.4658 20.9781H191.149C194.759 20.9781 197.685 23.903 197.685 27.5104V35.3458H31.9297V27.5104Z" fill="#D8DEED"/>
<path d="M41.5746 31.4274C43.2899 31.4274 44.6805 30.0385 44.6805 28.3253C44.6805 26.612 43.2899 25.2231 41.5746 25.2231C39.8593 25.2231 38.4688 26.612 38.4688 28.3253C38.4688 30.0385 39.8593 31.4274 41.5746 31.4274Z" fill="#FF5645"/>
<path d="M51.7094 31.4274C53.4247 31.4274 54.8153 30.0385 54.8153 28.3253C54.8153 26.612 53.4247 25.2231 51.7094 25.2231C49.9941 25.2231 48.6035 26.612 48.6035 28.3253C48.6035 30.0385 49.9941 31.4274 51.7094 31.4274Z" fill="#FFCB3D"/>
<path d="M62.1713 31.4274C63.8866 31.4274 65.2772 30.0385 65.2772 28.3253C65.2772 26.612 63.8866 25.2231 62.1713 25.2231C60.456 25.2231 59.0654 26.612 59.0654 28.3253C59.0654 30.0385 60.456 31.4274 62.1713 31.4274Z" fill="#3ABF7C"/>
</g>
</g>
<defs>
<clipPath id="clip0_333_3367">
<rect width="472" height="472" fill="white"/>
</clipPath>
<clipPath id="clip1_333_3367">
<rect width="221.979" height="127.024" fill="white" transform="translate(131.05 102.19)"/>
</clipPath>
<clipPath id="clip2_333_3367">
<rect width="217.398" height="314.852" fill="white" transform="translate(223.09 134.258)"/>
</clipPath>
<clipPath id="clip3_333_3367">
<rect width="217.398" height="314.852" fill="white" transform="translate(49.0049 134.258)"/>
</clipPath>
<clipPath id="clip4_333_3367">
<rect width="538.913" height="5.83059" fill="white" transform="translate(68.5791 291.267)"/>
</clipPath>
<clipPath id="clip5_333_3367">
<rect width="152.012" height="116.612" fill="white" transform="translate(276.814 31.3895)"/>
</clipPath>
<clipPath id="clip6_333_3367">
<rect width="165.755" height="127.024" fill="white" transform="translate(31.9297 20.9781)"/>
</clipPath>
</defs>
</svg>
