<svg width="141" height="48" viewBox="0 0 141 48" fill="none" xmlns="http://www.w3.org/2000/svg">
<path d="M50.324 34V14.4H54.86V30.304H64.688V34H50.324ZM76.2638 34V31.06L75.9838 30.416V25.152C75.9838 24.2187 75.6945 23.4907 75.1158 22.968C74.5558 22.4453 73.6878 22.184 72.5118 22.184C71.7091 22.184 70.9158 22.3147 70.1318 22.576C69.3665 22.8187 68.7131 23.1547 68.1718 23.584L66.6038 20.532C67.4251 19.9533 68.4145 19.5053 69.5718 19.188C70.7291 18.8707 71.9051 18.712 73.0998 18.712C75.3958 18.712 77.1785 19.2533 78.4478 20.336C79.7171 21.4187 80.3518 23.108 80.3518 25.404V34H76.2638ZM71.6718 34.224C70.4958 34.224 69.4878 34.028 68.6478 33.636C67.8078 33.2253 67.1638 32.6747 66.7158 31.984C66.2678 31.2933 66.0438 30.5187 66.0438 29.66C66.0438 28.764 66.2585 27.98 66.6878 27.308C67.1358 26.636 67.8358 26.1133 68.7878 25.74C69.7398 25.348 70.9811 25.152 72.5118 25.152H76.5158V27.7H72.9878C71.9611 27.7 71.2518 27.868 70.8598 28.204C70.4865 28.54 70.2998 28.96 70.2998 29.464C70.2998 30.024 70.5145 30.472 70.9438 30.808C71.3918 31.1253 71.9985 31.284 72.7638 31.284C73.4918 31.284 74.1451 31.116 74.7238 30.78C75.3025 30.4253 75.7225 29.912 75.9838 29.24L76.6558 31.256C76.3385 32.2267 75.7598 32.964 74.9198 33.468C74.0798 33.972 72.9971 34.224 71.6718 34.224ZM93.4611 18.712C94.6557 18.712 95.7197 18.9547 96.6531 19.44C97.6051 19.9067 98.3517 20.6347 98.8931 21.624C99.4344 22.5947 99.7051 23.8453 99.7051 25.376V34H95.3371V26.048C95.3371 24.8347 95.0664 23.9387 94.5251 23.36C94.0024 22.7813 93.2557 22.492 92.2851 22.492C91.5944 22.492 90.9691 22.6413 90.4091 22.94C89.8677 23.22 89.4384 23.6587 89.1211 24.256C88.8224 24.8533 88.6731 25.6187 88.6731 26.552V34H84.3051V18.936H88.4771V23.108L87.6931 21.848C88.2344 20.84 89.0091 20.0653 90.0171 19.524C91.0251 18.9827 92.1731 18.712 93.4611 18.712ZM110.242 34.224C108.823 34.224 107.544 33.9067 106.406 33.272C105.267 32.6187 104.362 31.7133 103.69 30.556C103.036 29.3987 102.71 28.036 102.71 26.468C102.71 24.8813 103.036 23.5093 103.69 22.352C104.362 21.1947 105.267 20.2987 106.406 19.664C107.544 19.0293 108.823 18.712 110.242 18.712C111.511 18.712 112.622 18.992 113.574 19.552C114.526 20.112 115.263 20.9613 115.786 22.1C116.308 23.2387 116.57 24.6947 116.57 26.468C116.57 28.2227 116.318 29.6787 115.814 30.836C115.31 31.9747 114.582 32.824 113.63 33.384C112.696 33.944 111.567 34.224 110.242 34.224ZM110.998 30.64C111.707 30.64 112.351 30.472 112.93 30.136C113.508 29.8 113.966 29.324 114.302 28.708C114.656 28.0733 114.834 27.3267 114.834 26.468C114.834 25.5907 114.656 24.844 114.302 24.228C113.966 23.612 113.508 23.136 112.93 22.8C112.351 22.464 111.707 22.296 110.998 22.296C110.27 22.296 109.616 22.464 109.038 22.8C108.459 23.136 107.992 23.612 107.638 24.228C107.302 24.844 107.134 25.5907 107.134 26.468C107.134 27.3267 107.302 28.0733 107.638 28.708C107.992 29.324 108.459 29.8 109.038 30.136C109.616 30.472 110.27 30.64 110.998 30.64ZM114.946 34V30.92L115.03 26.44L114.75 21.988V13.224H119.118V34H114.946ZM129.629 34.224C128.21 34.224 126.931 33.9067 125.793 33.272C124.654 32.6187 123.749 31.7133 123.077 30.556C122.423 29.3987 122.097 28.036 122.097 26.468C122.097 24.8813 122.423 23.5093 123.077 22.352C123.749 21.1947 124.654 20.2987 125.793 19.664C126.931 19.0293 128.21 18.712 129.629 18.712C130.898 18.712 132.009 18.992 132.961 19.552C133.913 20.112 134.65 20.9613 135.173 22.1C135.695 23.2387 135.957 24.6947 135.957 26.468C135.957 28.2227 135.705 29.6787 135.201 30.836C134.697 31.9747 133.969 32.824 133.017 33.384C132.083 33.944 130.954 34.224 129.629 34.224ZM130.385 30.64C131.094 30.64 131.738 30.472 132.317 30.136C132.895 29.8 133.353 29.324 133.689 28.708C134.043 28.0733 134.221 27.3267 134.221 26.468C134.221 25.5907 134.043 24.844 133.689 24.228C133.353 23.612 132.895 23.136 132.317 22.8C131.738 22.464 131.094 22.296 130.385 22.296C129.657 22.296 129.003 22.464 128.425 22.8C127.846 23.136 127.379 23.612 127.025 24.228C126.689 24.844 126.521 25.5907 126.521 26.468C126.521 27.3267 126.689 28.0733 127.025 28.708C127.379 29.324 127.846 29.8 128.425 30.136C129.003 30.472 129.657 30.64 130.385 30.64ZM134.333 34V30.92L134.417 26.44L134.137 21.988V13.224H138.505V34H134.333Z" fill="#1F1F1F"/>
<path fill-rule="evenodd" clip-rule="evenodd" d="M10 14V11C10 8.23858 12.2386 6 15 6H23C30.1797 6 36 11.8203 36 19C36 25.1472 31.7334 30.2978 26 31.6521V37C26 39.7614 23.7614 42 21 42H5C2.23858 42 0 39.7614 0 37V19C0 16.2386 2.23858 14 5 14H10ZM8 16V29C8 31.7614 10.2386 34 13 34H21C22.0325 34 23.037 33.8796 24 33.6521V21C24 18.2386 21.7614 16 19 16H8Z" fill="url(#paint0_linear_585_345)"/>
<defs>
<linearGradient id="paint0_linear_585_345" x1="31.5" y1="8.5" x2="-7.5" y2="55" gradientUnits="userSpaceOnUse">
<stop stop-color="#2656C9"/>
<stop offset="1" stop-color="#2656C9" stop-opacity="0"/>
</linearGradient>
</defs>
</svg>
