<svg width="122" height="36" viewBox="0 0 122 36" fill="none" xmlns="http://www.w3.org/2000/svg">
<path fill-rule="evenodd" clip-rule="evenodd" d="M49.44 23.36V9.2H46.68V26H56.28V23.36H49.44ZM67.272 14V15.704C66.288 14.36 64.896 13.688 63.072 13.688C61.416 13.688 60.024 14.288 58.848 15.512C57.672 16.736 57.096 18.224 57.096 20C57.096 21.752 57.672 23.264 58.848 24.488C60.024 25.712 61.416 26.312 63.072 26.312C64.896 26.312 66.288 25.64 67.272 24.272V26H69.864V14H67.272ZM60.768 22.76C61.488 23.48 62.4 23.84 63.48 23.84C64.56 23.84 65.472 23.48 66.192 22.76C66.912 22.016 67.272 21.104 67.272 20C67.272 18.896 66.912 17.984 66.192 17.264C65.472 16.52 64.56 16.16 63.48 16.16C62.4 16.16 61.488 16.52 60.768 17.264C60.048 17.984 59.688 18.896 59.688 20C59.688 21.104 60.048 22.016 60.768 22.76ZM83.808 18.632C83.808 15.56 81.96 13.688 79.2 13.688C77.496 13.688 76.272 14.312 75.48 15.536V14H72.888V26H75.48V19.568C75.48 17.24 76.704 16.112 78.528 16.112C80.184 16.112 81.216 17.096 81.216 18.896V26H83.808V18.632ZM96.096 15.704V9.2H98.688V26H96.096V24.272C95.112 25.64 93.72 26.312 91.896 26.312C90.24 26.312 88.848 25.712 87.672 24.488C86.496 23.264 85.92 21.752 85.92 20C85.92 18.224 86.496 16.736 87.672 15.512C88.848 14.288 90.24 13.688 91.896 13.688C93.72 13.688 95.112 14.36 96.096 15.704ZM92.304 23.84C91.224 23.84 90.312 23.48 89.592 22.76C88.872 22.016 88.512 21.104 88.512 20C88.512 18.896 88.872 17.984 89.592 17.264C90.312 16.52 91.224 16.16 92.304 16.16C93.384 16.16 94.296 16.52 95.016 17.264C95.736 17.984 96.096 18.896 96.096 20C96.096 21.104 95.736 22.016 95.016 22.76C94.296 23.48 93.384 23.84 92.304 23.84ZM111.216 15.704V9.2H113.808V26H111.216V24.272C110.232 25.64 108.84 26.312 107.016 26.312C105.36 26.312 103.968 25.712 102.792 24.488C101.616 23.264 101.04 21.752 101.04 20C101.04 18.224 101.616 16.736 102.792 15.512C103.968 14.288 105.36 13.688 107.016 13.688C108.84 13.688 110.232 14.36 111.216 15.704ZM107.424 23.84C106.344 23.84 105.432 23.48 104.712 22.76C103.992 22.016 103.632 21.104 103.632 20C103.632 18.896 103.992 17.984 104.712 17.264C105.432 16.52 106.344 16.16 107.424 16.16C108.504 16.16 109.416 16.52 110.136 17.264C110.856 17.984 111.216 18.896 111.216 20C111.216 21.104 110.856 22.016 110.136 22.76C109.416 23.48 108.504 23.84 107.424 23.84Z" fill="black"/>
<path fill-rule="evenodd" clip-rule="evenodd" d="M10 8V5C10 2.23858 12.2386 0 15 0H23C30.1797 0 36 5.8203 36 13C36 19.1472 31.7334 24.2978 26 25.6521V31C26 33.7614 23.7614 36 21 36H5C2.23858 36 0 33.7614 0 31V13C0 10.2386 2.23858 8 5 8H10ZM8 10V23C8 25.7614 10.2386 28 13 28H21C22.0325 28 23.037 27.8796 24 27.6521V15C24 12.2386 21.7614 10 19 10H8Z" fill="url(#paint0_linear_2_568)"/>
<defs>
<linearGradient id="paint0_linear_2_568" x1="18" y1="-18" x2="-18" y2="18" gradientUnits="userSpaceOnUse">
<stop stop-color="#007AFF"/>
<stop offset="1" stop-color="#007AFF" stop-opacity="0.12"/>
</linearGradient>
</defs>
</svg>
