<svg width="1440" height="1026" viewBox="0 0 1440 1026" fill="none" xmlns="http://www.w3.org/2000/svg">
<rect x="744" y="88" width="696" height="561" fill="url(#paint0_linear_738_4532)" fill-opacity="0.77"/>
<g filter="url(#filter0_b_738_4532)">
<circle r="387.605" transform="matrix(-0.915384 0.402582 0.402582 0.915384 908.785 516.85)" fill="white" fill-opacity="0.01"/>
<circle r="387.605" transform="matrix(-0.915384 0.402582 0.402582 0.915384 908.785 516.85)" fill="url(#paint1_radial_738_4532)" fill-opacity="0.52"/>
<circle r="387.605" transform="matrix(-0.915384 0.402582 0.402582 0.915384 908.785 516.85)" fill="url(#paint2_radial_738_4532)"/>
<circle r="387.605" transform="matrix(-0.915384 0.402582 0.402582 0.915384 908.785 516.85)" fill="url(#paint3_radial_738_4532)" fill-opacity="0.7"/>
<circle r="387.605" transform="matrix(-0.915384 0.402582 0.402582 0.915384 908.785 516.85)" fill="url(#paint4_radial_738_4532)" fill-opacity="0.7"/>
<circle r="387.605" transform="matrix(-0.915384 0.402582 0.402582 0.915384 908.785 516.85)" fill="url(#paint5_radial_738_4532)" fill-opacity="0.6"/>
<circle r="387.605" transform="matrix(-0.915384 0.402582 0.402582 0.915384 908.785 516.85)" fill="url(#paint6_radial_738_4532)" fill-opacity="0.6"/>
<circle r="387.605" transform="matrix(-0.915384 0.402582 0.402582 0.915384 908.785 516.85)" fill="url(#paint7_radial_738_4532)" fill-opacity="0.5"/>
</g>
<g filter="url(#filter1_b_738_4532)">
<circle r="387.605" transform="matrix(-0.915384 0.402582 0.402582 0.915384 908.785 516.85)" fill="white" fill-opacity="0.01"/>
<circle r="387.605" transform="matrix(-0.915384 0.402582 0.402582 0.915384 908.785 516.85)" fill="url(#paint8_radial_738_4532)" fill-opacity="0.52"/>
<circle r="387.605" transform="matrix(-0.915384 0.402582 0.402582 0.915384 908.785 516.85)" fill="url(#paint9_radial_738_4532)"/>
<circle r="387.605" transform="matrix(-0.915384 0.402582 0.402582 0.915384 908.785 516.85)" fill="url(#paint10_radial_738_4532)" fill-opacity="0.7"/>
<circle r="387.605" transform="matrix(-0.915384 0.402582 0.402582 0.915384 908.785 516.85)" fill="url(#paint11_radial_738_4532)" fill-opacity="0.7"/>
<circle r="387.605" transform="matrix(-0.915384 0.402582 0.402582 0.915384 908.785 516.85)" fill="url(#paint12_radial_738_4532)" fill-opacity="0.6"/>
<circle r="387.605" transform="matrix(-0.915384 0.402582 0.402582 0.915384 908.785 516.85)" fill="url(#paint13_radial_738_4532)" fill-opacity="0.6"/>
<circle r="387.605" transform="matrix(-0.915384 0.402582 0.402582 0.915384 908.785 516.85)" fill="url(#paint14_radial_738_4532)" fill-opacity="0.5"/>
</g>
<g filter="url(#filter2_b_738_4532)">
<circle r="387.605" transform="matrix(-0.915384 0.402582 0.402582 0.915384 908.785 516.85)" fill="white" fill-opacity="0.01"/>
<circle r="387.605" transform="matrix(-0.915384 0.402582 0.402582 0.915384 908.785 516.85)" fill="url(#paint15_radial_738_4532)" fill-opacity="0.52"/>
<circle r="387.605" transform="matrix(-0.915384 0.402582 0.402582 0.915384 908.785 516.85)" fill="url(#paint16_radial_738_4532)"/>
<circle r="387.605" transform="matrix(-0.915384 0.402582 0.402582 0.915384 908.785 516.85)" fill="url(#paint17_radial_738_4532)" fill-opacity="0.7"/>
<circle r="387.605" transform="matrix(-0.915384 0.402582 0.402582 0.915384 908.785 516.85)" fill="url(#paint18_radial_738_4532)" fill-opacity="0.7"/>
<circle r="387.605" transform="matrix(-0.915384 0.402582 0.402582 0.915384 908.785 516.85)" fill="url(#paint19_radial_738_4532)" fill-opacity="0.6"/>
<circle r="387.605" transform="matrix(-0.915384 0.402582 0.402582 0.915384 908.785 516.85)" fill="url(#paint20_radial_738_4532)" fill-opacity="0.6"/>
<circle r="387.605" transform="matrix(-0.915384 0.402582 0.402582 0.915384 908.785 516.85)" fill="url(#paint21_radial_738_4532)" fill-opacity="0.5"/>
</g>
<g filter="url(#filter3_d_738_4532)">
<path d="M1264.93 225.419C1263.14 225.419 1261.81 224.987 1260.91 224.122C1260.01 223.258 1259.56 222.037 1259.56 220.46V216.518C1259.56 216.128 1259.46 215.84 1259.25 215.653C1259.05 215.466 1258.79 215.373 1258.47 215.373H1257.6V211.66H1258.47C1258.79 211.66 1259.05 211.567 1259.25 211.38C1259.46 211.177 1259.56 210.888 1259.56 210.515V206.573C1259.56 204.996 1260.01 203.776 1260.91 202.911C1261.81 202.046 1263.14 201.614 1264.93 201.614H1266.58V205.302H1266.22C1265.63 205.302 1265.17 205.463 1264.85 205.785C1264.54 206.09 1264.39 206.539 1264.39 207.133V210.388C1264.39 211.236 1264.27 211.897 1264.03 212.372C1263.8 212.83 1263.42 213.161 1262.92 213.364C1262.42 213.567 1261.78 213.703 1260.98 213.771V213.262C1261.78 213.33 1262.42 213.466 1262.92 213.669C1263.42 213.873 1263.8 214.212 1264.03 214.687C1264.27 215.144 1264.39 215.797 1264.39 216.645V219.9C1264.39 220.494 1264.54 220.943 1264.85 221.248C1265.17 221.571 1265.63 221.732 1266.22 221.732H1266.58V225.419H1264.93ZM1277.9 220.714C1277.08 220.714 1276.4 220.443 1275.84 219.9C1275.28 219.358 1275 218.671 1275 217.84C1275 216.976 1275.28 216.289 1275.84 215.78C1276.4 215.255 1277.08 214.992 1277.9 214.992C1278.71 214.992 1279.4 215.255 1279.96 215.78C1280.52 216.289 1280.8 216.976 1280.8 217.84C1280.8 218.671 1280.52 219.358 1279.96 219.9C1279.4 220.443 1278.71 220.714 1277.9 220.714ZM1285.1 220.714C1284.29 220.714 1283.6 220.443 1283.04 219.9C1282.48 219.358 1282.2 218.671 1282.2 217.84C1282.2 216.976 1282.48 216.289 1283.04 215.78C1283.6 215.255 1284.29 214.992 1285.1 214.992C1285.91 214.992 1286.6 215.255 1287.16 215.78C1287.72 216.289 1288 216.976 1288 217.84C1288 218.671 1287.72 219.358 1287.16 219.9C1286.6 220.443 1285.91 220.714 1285.1 220.714ZM1292.3 220.714C1291.49 220.714 1290.8 220.443 1290.24 219.9C1289.68 219.358 1289.4 218.671 1289.4 217.84C1289.4 216.976 1289.68 216.289 1290.24 215.78C1290.8 215.255 1291.49 214.992 1292.3 214.992C1293.12 214.992 1293.8 215.255 1294.36 215.78C1294.92 216.289 1295.2 216.976 1295.2 217.84C1295.2 218.671 1294.92 219.358 1294.36 219.9C1293.8 220.443 1293.12 220.714 1292.3 220.714ZM1305.31 225.419H1303.63V221.732H1304.01C1304.6 221.732 1305.05 221.571 1305.36 221.248C1305.68 220.943 1305.84 220.494 1305.84 219.9V216.645C1305.84 215.797 1305.96 215.144 1306.2 214.687C1306.43 214.212 1306.8 213.873 1307.29 213.669C1307.8 213.466 1308.45 213.33 1309.25 213.262V213.771C1308.45 213.703 1307.8 213.567 1307.29 213.364C1306.8 213.161 1306.43 212.83 1306.2 212.372C1305.96 211.897 1305.84 211.236 1305.84 210.388V207.133C1305.84 206.539 1305.68 206.09 1305.36 205.785C1305.05 205.463 1304.6 205.302 1304.01 205.302H1303.63V201.614H1305.31C1307.09 201.614 1308.43 202.046 1309.32 202.911C1310.22 203.776 1310.67 204.996 1310.67 206.573V210.515C1310.67 210.888 1310.77 211.177 1310.98 211.38C1311.18 211.567 1311.44 211.66 1311.77 211.66H1312.61V215.373H1311.77C1311.44 215.373 1311.18 215.466 1310.98 215.653C1310.77 215.84 1310.67 216.128 1310.67 216.518V220.46C1310.67 222.037 1310.22 223.258 1309.32 224.122C1308.43 224.987 1307.09 225.419 1305.31 225.419Z" fill="white"/>
</g>
<g filter="url(#filter4_d_738_4532)">
<path d="M1012.09 363V263.016H1037.62V273.698H1025.44V352.317H1037.62V363H1012.09ZM1096.15 363H1070.73V352.317H1082.8V273.698H1070.73V263.016H1096.15V363Z" fill="white"/>
</g>
<g filter="url(#filter5_d_738_4532)">
<path d="M949.475 148V130.197H957.181C958.775 130.197 960.148 130.459 961.301 130.985C962.454 131.494 963.344 132.231 963.972 133.198C964.599 134.164 964.913 135.317 964.913 136.657C964.913 137.979 964.599 139.124 963.972 140.09C963.344 141.057 962.454 141.803 961.301 142.328C960.148 142.837 958.775 143.091 957.181 143.091H951.764L953.595 141.235V148H949.475ZM953.595 141.693L951.764 139.734H956.952C958.224 139.734 959.173 139.463 959.801 138.92C960.428 138.378 960.742 137.623 960.742 136.657C960.742 135.673 960.428 134.91 959.801 134.368C959.173 133.825 958.224 133.554 956.952 133.554H951.764L953.595 131.595V141.693ZM976.75 148.305C975.343 148.305 974.037 148.076 972.833 147.618C971.646 147.161 970.612 146.516 969.73 145.686C968.866 144.855 968.187 143.88 967.696 142.761C967.221 141.642 966.984 140.421 966.984 139.098C966.984 137.776 967.221 136.555 967.696 135.436C968.187 134.317 968.874 133.342 969.756 132.511C970.638 131.68 971.672 131.036 972.859 130.578C974.046 130.12 975.334 129.891 976.725 129.891C978.132 129.891 979.421 130.12 980.59 130.578C981.777 131.036 982.803 131.68 983.668 132.511C984.55 133.342 985.236 134.317 985.728 135.436C986.22 136.538 986.466 137.759 986.466 139.098C986.466 140.421 986.22 141.65 985.728 142.786C985.236 143.905 984.55 144.88 983.668 145.711C982.803 146.525 981.777 147.161 980.59 147.618C979.421 148.076 978.14 148.305 976.75 148.305ZM976.725 144.795C977.522 144.795 978.251 144.66 978.912 144.388C979.59 144.117 980.184 143.727 980.692 143.219C981.201 142.71 981.591 142.108 981.862 141.413C982.15 140.718 982.295 139.946 982.295 139.098C982.295 138.251 982.15 137.479 981.862 136.784C981.591 136.089 981.201 135.487 980.692 134.978C980.2 134.469 979.616 134.079 978.937 133.808C978.259 133.537 977.522 133.401 976.725 133.401C975.928 133.401 975.19 133.537 974.512 133.808C973.851 134.079 973.266 134.469 972.757 134.978C972.248 135.487 971.85 136.089 971.562 136.784C971.29 137.479 971.155 138.251 971.155 139.098C971.155 139.929 971.29 140.701 971.562 141.413C971.85 142.108 972.24 142.71 972.732 143.219C973.24 143.727 973.834 144.117 974.512 144.388C975.19 144.66 975.928 144.795 976.725 144.795ZM995.412 148.305C993.988 148.305 992.623 148.119 991.317 147.746C990.011 147.356 988.96 146.855 988.163 146.245L989.562 143.142C990.325 143.685 991.224 144.134 992.258 144.49C993.309 144.829 994.369 144.999 995.437 144.999C996.251 144.999 996.904 144.923 997.396 144.77C997.904 144.6 998.277 144.372 998.515 144.083C998.752 143.795 998.871 143.464 998.871 143.091C998.871 142.617 998.684 142.244 998.311 141.972C997.938 141.684 997.446 141.455 996.836 141.286C996.226 141.099 995.547 140.93 994.801 140.777C994.072 140.607 993.335 140.404 992.589 140.167C991.86 139.929 991.19 139.624 990.579 139.251C989.969 138.878 989.469 138.386 989.079 137.776C988.706 137.165 988.519 136.385 988.519 135.436C988.519 134.419 988.791 133.494 989.333 132.664C989.893 131.816 990.724 131.146 991.826 130.654C992.945 130.146 994.344 129.891 996.022 129.891C997.141 129.891 998.243 130.027 999.329 130.298C1000.41 130.553 1001.37 130.943 1002.2 131.468L1000.93 134.597C1000.1 134.122 999.269 133.774 998.438 133.554C997.608 133.316 996.794 133.198 995.997 133.198C995.2 133.198 994.547 133.291 994.038 133.478C993.53 133.664 993.165 133.91 992.945 134.215C992.724 134.503 992.614 134.842 992.614 135.232C992.614 135.69 992.801 136.063 993.174 136.351C993.547 136.623 994.038 136.843 994.649 137.013C995.259 137.182 995.929 137.352 996.658 137.521C997.404 137.691 998.142 137.886 998.871 138.106C999.617 138.327 1000.3 138.624 1000.91 138.997C1001.52 139.37 1002.01 139.861 1002.38 140.472C1002.77 141.082 1002.97 141.854 1002.97 142.786C1002.97 143.787 1002.69 144.702 1002.13 145.533C1001.57 146.364 1000.73 147.034 999.608 147.542C998.506 148.051 997.107 148.305 995.412 148.305ZM1009.22 148V133.554H1003.52V130.197H1019.04V133.554H1013.34V148H1009.22Z" fill="white"/>
</g>
<g filter="url(#filter6_d_738_4532)">
<path d="M1163.08 420.607C1160.97 420.607 1159.02 420.277 1157.24 419.615C1155.49 418.929 1153.95 417.962 1152.62 416.716C1151.33 415.47 1150.31 414.007 1149.57 412.329C1148.86 410.65 1148.5 408.806 1148.5 406.797C1148.5 404.788 1148.86 402.944 1149.57 401.265C1150.31 399.587 1151.34 398.124 1152.66 396.878C1153.98 395.632 1155.54 394.678 1157.32 394.017C1159.1 393.33 1161.06 392.987 1163.19 392.987C1165.56 392.987 1167.68 393.381 1169.56 394.169C1171.47 394.958 1173.07 396.102 1174.37 397.603L1170.4 401.265C1169.44 400.248 1168.38 399.497 1167.24 399.014C1166.09 398.506 1164.84 398.251 1163.5 398.251C1162.2 398.251 1161.02 398.455 1159.95 398.862C1158.88 399.269 1157.95 399.854 1157.16 400.617C1156.4 401.38 1155.8 402.282 1155.37 403.325C1154.96 404.368 1154.76 405.525 1154.76 406.797C1154.76 408.043 1154.96 409.188 1155.37 410.23C1155.8 411.273 1156.4 412.189 1157.16 412.977C1157.95 413.74 1158.87 414.325 1159.91 414.732C1160.98 415.139 1162.15 415.342 1163.42 415.342C1164.64 415.342 1165.82 415.152 1166.97 414.77C1168.14 414.363 1169.27 413.689 1170.36 412.748L1173.87 417.212C1172.42 418.305 1170.73 419.145 1168.8 419.73C1166.89 420.315 1164.98 420.607 1163.08 420.607ZM1168.23 416.411V406.377H1173.87V417.212L1168.23 416.411ZM1185.3 404.203H1198.16V409.01H1185.3V404.203ZM1185.76 415.19H1200.29V420.149H1179.61V393.444H1199.8V398.404H1185.76V415.19ZM1210.74 420.149V398.48H1202.2V393.444H1225.47V398.48H1216.92V420.149H1210.74Z" fill="white"/>
</g>
<g filter="url(#filter7_d_738_4532)">
<path d="M958.031 544.304C957.396 544.304 956.837 544.187 956.352 543.954C955.867 543.712 955.489 543.348 955.219 542.863C954.948 542.369 954.813 541.749 954.813 541.003V536.736H956.562V540.765C956.562 541.436 956.711 541.94 957.009 542.276C957.317 542.602 957.751 542.765 958.31 542.765C958.721 542.765 959.075 542.681 959.373 542.513C959.681 542.346 959.919 542.094 960.087 541.758C960.264 541.422 960.353 541.007 960.353 540.513V536.736H962.101V544.206H960.437V542.192L960.73 542.807C960.478 543.292 960.11 543.665 959.625 543.926C959.14 544.178 958.609 544.304 958.031 544.304ZM968.629 536.652C969.226 536.652 969.757 536.769 970.224 537.002C970.699 537.235 971.072 537.594 971.343 538.079C971.613 538.555 971.748 539.17 971.748 539.926V544.206H970V540.149C970 539.487 969.841 538.993 969.524 538.667C969.217 538.34 968.783 538.177 968.223 538.177C967.813 538.177 967.449 538.261 967.132 538.429C966.815 538.597 966.568 538.849 966.391 539.184C966.223 539.511 966.139 539.926 966.139 540.429V544.206H964.391V536.736H966.055V538.751L965.761 538.135C966.023 537.659 966.4 537.296 966.894 537.044C967.398 536.783 967.976 536.652 968.629 536.652ZM977.142 544.304C976.424 544.304 975.775 544.145 975.197 543.828C974.628 543.502 974.181 543.054 973.854 542.485C973.528 541.917 973.365 541.245 973.365 540.471C973.365 539.697 973.528 539.026 973.854 538.457C974.181 537.888 974.628 537.445 975.197 537.128C975.775 536.811 976.424 536.652 977.142 536.652C977.766 536.652 978.326 536.792 978.82 537.072C979.314 537.342 979.706 537.757 979.995 538.317C980.284 538.876 980.429 539.595 980.429 540.471C980.429 541.338 980.289 542.057 980.009 542.625C979.729 543.185 979.342 543.605 978.848 543.884C978.354 544.164 977.785 544.304 977.142 544.304ZM977.351 542.807C977.771 542.807 978.144 542.714 978.47 542.527C978.806 542.341 979.072 542.07 979.268 541.716C979.473 541.362 979.576 540.947 979.576 540.471C979.576 539.986 979.473 539.571 979.268 539.226C979.072 538.872 978.806 538.601 978.47 538.415C978.144 538.228 977.771 538.135 977.351 538.135C976.932 538.135 976.554 538.228 976.218 538.415C975.892 538.601 975.626 538.872 975.421 539.226C975.225 539.571 975.127 539.986 975.127 540.471C975.127 540.947 975.225 541.362 975.421 541.716C975.626 542.07 975.892 542.341 976.218 542.527C976.554 542.714 976.932 542.807 977.351 542.807ZM979.618 544.206V542.444L979.687 540.457L979.548 538.471V533.827H981.282V544.206H979.618ZM987.095 544.304C986.265 544.304 985.537 544.141 984.912 543.814C984.297 543.479 983.817 543.022 983.472 542.444C983.136 541.865 982.968 541.208 982.968 540.471C982.968 539.725 983.131 539.068 983.458 538.499C983.793 537.921 984.25 537.468 984.829 537.142C985.416 536.816 986.083 536.652 986.829 536.652C987.556 536.652 988.204 536.811 988.773 537.128C989.342 537.445 989.79 537.893 990.116 538.471C990.443 539.049 990.606 539.73 990.606 540.513C990.606 540.588 990.601 540.672 990.592 540.765C990.592 540.858 990.587 540.947 990.578 541.031H984.353V539.87H989.655L988.969 540.233C988.978 539.804 988.89 539.427 988.703 539.1C988.517 538.774 988.26 538.517 987.934 538.331C987.617 538.144 987.249 538.051 986.829 538.051C986.4 538.051 986.022 538.144 985.696 538.331C985.379 538.517 985.127 538.779 984.94 539.114C984.763 539.441 984.675 539.828 984.675 540.275V540.555C984.675 541.003 984.777 541.399 984.982 541.744C985.188 542.089 985.477 542.355 985.85 542.541C986.223 542.728 986.652 542.821 987.137 542.821C987.556 542.821 987.934 542.756 988.27 542.625C988.605 542.495 988.904 542.29 989.165 542.01L990.102 543.087C989.766 543.479 989.342 543.782 988.829 543.996C988.326 544.201 987.747 544.304 987.095 544.304ZM992.523 544.206V536.317C992.523 535.533 992.752 534.908 993.209 534.442C993.675 533.967 994.337 533.729 995.195 533.729C995.503 533.729 995.792 533.761 996.062 533.827C996.342 533.892 996.575 533.995 996.762 534.134L996.286 535.449C996.155 535.347 996.006 535.272 995.838 535.226C995.671 535.17 995.498 535.142 995.321 535.142C994.957 535.142 994.682 535.244 994.495 535.449C994.309 535.645 994.216 535.944 994.216 536.345V537.184L994.272 537.967V544.206H992.523ZM991.292 538.191V536.792H996.272V538.191H991.292ZM997.503 544.206V536.736H999.252V544.206H997.503ZM998.384 535.505C998.058 535.505 997.787 535.403 997.573 535.198C997.368 534.992 997.265 534.745 997.265 534.456C997.265 534.158 997.368 533.911 997.573 533.715C997.787 533.51 998.058 533.407 998.384 533.407C998.711 533.407 998.976 533.505 999.182 533.701C999.396 533.887 999.503 534.125 999.503 534.414C999.503 534.722 999.401 534.983 999.196 535.198C998.99 535.403 998.72 535.505 998.384 535.505ZM1005.79 536.652C1006.38 536.652 1006.91 536.769 1007.38 537.002C1007.86 537.235 1008.23 537.594 1008.5 538.079C1008.77 538.555 1008.91 539.17 1008.91 539.926V544.206H1007.16V540.149C1007.16 539.487 1007 538.993 1006.68 538.667C1006.37 538.34 1005.94 538.177 1005.38 538.177C1004.97 538.177 1004.61 538.261 1004.29 538.429C1003.97 538.597 1003.72 538.849 1003.55 539.184C1003.38 539.511 1003.3 539.926 1003.3 540.429V544.206H1001.55V536.736H1003.21V538.751L1002.92 538.135C1003.18 537.659 1003.56 537.296 1004.05 537.044C1004.55 536.783 1005.13 536.652 1005.79 536.652ZM1014.65 544.304C1013.82 544.304 1013.09 544.141 1012.47 543.814C1011.85 543.479 1011.37 543.022 1011.02 542.444C1010.69 541.865 1010.52 541.208 1010.52 540.471C1010.52 539.725 1010.68 539.068 1011.01 538.499C1011.35 537.921 1011.8 537.468 1012.38 537.142C1012.97 536.816 1013.64 536.652 1014.38 536.652C1015.11 536.652 1015.76 536.811 1016.33 537.128C1016.9 537.445 1017.34 537.893 1017.67 538.471C1018 539.049 1018.16 539.73 1018.16 540.513C1018.16 540.588 1018.15 540.672 1018.15 540.765C1018.15 540.858 1018.14 540.947 1018.13 541.031H1011.91V539.87H1017.21L1016.52 540.233C1016.53 539.804 1016.44 539.427 1016.26 539.1C1016.07 538.774 1015.81 538.517 1015.49 538.331C1015.17 538.144 1014.8 538.051 1014.38 538.051C1013.95 538.051 1013.58 538.144 1013.25 538.331C1012.93 538.517 1012.68 538.779 1012.49 539.114C1012.32 539.441 1012.23 539.828 1012.23 540.275V540.555C1012.23 541.003 1012.33 541.399 1012.54 541.744C1012.74 542.089 1013.03 542.355 1013.4 542.541C1013.78 542.728 1014.2 542.821 1014.69 542.821C1015.11 542.821 1015.49 542.756 1015.82 542.625C1016.16 542.495 1016.46 542.29 1016.72 542.01L1017.66 543.087C1017.32 543.479 1016.9 543.782 1016.38 543.996C1015.88 544.201 1015.3 544.304 1014.65 544.304ZM1023 544.304C1022.28 544.304 1021.63 544.145 1021.06 543.828C1020.49 543.502 1020.04 543.054 1019.71 542.485C1019.39 541.917 1019.22 541.245 1019.22 540.471C1019.22 539.697 1019.39 539.026 1019.71 538.457C1020.04 537.888 1020.49 537.445 1021.06 537.128C1021.63 536.811 1022.28 536.652 1023 536.652C1023.62 536.652 1024.18 536.792 1024.68 537.072C1025.17 537.342 1025.56 537.757 1025.85 538.317C1026.14 538.876 1026.29 539.595 1026.29 540.471C1026.29 541.338 1026.15 542.057 1025.87 542.625C1025.59 543.185 1025.2 543.605 1024.71 543.884C1024.21 544.164 1023.64 544.304 1023 544.304ZM1023.21 542.807C1023.63 542.807 1024 542.714 1024.33 542.527C1024.66 542.341 1024.93 542.07 1025.13 541.716C1025.33 541.362 1025.43 540.947 1025.43 540.471C1025.43 539.986 1025.33 539.571 1025.13 539.226C1024.93 538.872 1024.66 538.601 1024.33 538.415C1024 538.228 1023.63 538.135 1023.21 538.135C1022.79 538.135 1022.41 538.228 1022.08 538.415C1021.75 538.601 1021.48 538.872 1021.28 539.226C1021.08 539.571 1020.99 539.986 1020.99 540.471C1020.99 540.947 1021.08 541.362 1021.28 541.716C1021.48 542.07 1021.75 542.341 1022.08 542.527C1022.41 542.714 1022.79 542.807 1023.21 542.807ZM1025.48 544.206V542.444L1025.55 540.457L1025.41 538.471V533.827H1027.14V544.206H1025.48Z" fill="white"/>
</g>
<g filter="url(#filter8_d_738_4532)">
<path d="M1131.49 569.756C1132.57 569.756 1133.54 569.968 1134.39 570.392C1135.25 570.816 1135.93 571.469 1136.42 572.35C1136.92 573.215 1137.16 574.334 1137.16 575.708V583.49H1133.98V576.115C1133.98 574.911 1133.69 574.012 1133.12 573.419C1132.56 572.825 1131.77 572.528 1130.75 572.528C1130.01 572.528 1129.34 572.681 1128.77 572.986C1128.19 573.291 1127.74 573.749 1127.42 574.36C1127.12 574.953 1126.96 575.708 1126.96 576.623V583.49H1123.78V569.909H1126.81V573.571L1126.28 572.452C1126.75 571.587 1127.44 570.926 1128.34 570.468C1129.25 569.994 1130.3 569.756 1131.49 569.756ZM1146.94 583.668C1145.79 583.668 1144.77 583.456 1143.89 583.032C1143.01 582.592 1142.32 581.93 1141.83 581.049C1141.34 580.15 1141.09 579.022 1141.09 577.666V569.909H1144.27V577.234C1144.27 578.454 1144.54 579.37 1145.09 579.98C1145.65 580.574 1146.43 580.871 1147.45 580.871C1148.2 580.871 1148.84 580.718 1149.38 580.413C1149.94 580.108 1150.38 579.65 1150.68 579.039C1151 578.429 1151.16 577.674 1151.16 576.776V569.909H1154.34V583.49H1151.32V579.828L1151.85 580.947C1151.39 581.829 1150.72 582.507 1149.84 582.982C1148.96 583.439 1147.99 583.668 1146.94 583.668ZM1158.51 583.49V564.619H1161.69V583.49H1158.51ZM1165.86 583.49V564.619H1169.04V583.49H1165.86Z" fill="white"/>
</g>
<g filter="url(#filter9_d_738_4532)">
<path d="M1202.37 297.014C1201.18 297.014 1200.25 296.709 1199.6 296.099C1198.95 295.475 1198.63 294.559 1198.63 293.352V283.606H1201.17V293.291C1201.17 293.806 1201.3 294.207 1201.56 294.492C1201.83 294.776 1202.2 294.919 1202.67 294.919C1203.24 294.919 1203.72 294.77 1204.1 294.471L1204.81 296.282C1204.51 296.526 1204.15 296.709 1203.71 296.831C1203.28 296.953 1202.83 297.014 1202.37 297.014ZM1196.83 288.123V286.088H1204.08V288.123H1196.83ZM1211.53 297.014C1210.39 297.014 1209.37 296.777 1208.48 296.302C1207.6 295.814 1206.9 295.149 1206.4 294.308C1205.9 293.467 1205.65 292.511 1205.65 291.439C1205.65 290.354 1205.9 289.398 1206.4 288.571C1206.9 287.73 1207.6 287.072 1208.48 286.597C1209.37 286.122 1210.39 285.885 1211.53 285.885C1212.59 285.885 1213.52 286.102 1214.32 286.536C1215.13 286.956 1215.75 287.58 1216.17 288.408L1214.22 289.547C1213.89 289.032 1213.49 288.652 1213.02 288.408C1212.55 288.164 1212.05 288.042 1211.51 288.042C1210.89 288.042 1210.32 288.177 1209.82 288.449C1209.32 288.72 1208.93 289.113 1208.64 289.629C1208.36 290.131 1208.21 290.734 1208.21 291.439C1208.21 292.145 1208.36 292.755 1208.64 293.271C1208.93 293.773 1209.32 294.159 1209.82 294.43C1210.32 294.702 1210.89 294.837 1211.51 294.837C1212.05 294.837 1212.55 294.715 1213.02 294.471C1213.49 294.227 1213.89 293.847 1214.22 293.332L1216.17 294.471C1215.75 295.285 1215.13 295.916 1214.32 296.363C1213.52 296.797 1212.59 297.014 1211.53 297.014ZM1224.39 297.014C1223.51 297.014 1222.7 296.811 1221.97 296.404C1221.25 295.997 1220.67 295.387 1220.24 294.573C1219.82 293.745 1219.61 292.701 1219.61 291.439C1219.61 290.164 1219.81 289.12 1220.22 288.306C1220.64 287.492 1221.21 286.889 1221.93 286.495C1222.65 286.088 1223.47 285.885 1224.39 285.885C1225.46 285.885 1226.4 286.115 1227.22 286.577C1228.05 287.038 1228.7 287.682 1229.17 288.51C1229.66 289.337 1229.9 290.314 1229.9 291.439C1229.9 292.565 1229.66 293.549 1229.17 294.39C1228.7 295.217 1228.05 295.862 1227.22 296.323C1226.4 296.784 1225.46 297.014 1224.39 297.014ZM1218.37 300.819V286.007H1220.79V288.571L1220.71 291.46L1220.91 294.349V300.819H1218.37ZM1224.11 294.837C1224.72 294.837 1225.26 294.702 1225.73 294.43C1226.22 294.159 1226.61 293.766 1226.89 293.25C1227.18 292.735 1227.32 292.131 1227.32 291.439C1227.32 290.734 1227.18 290.131 1226.89 289.629C1226.61 289.113 1226.22 288.72 1225.73 288.449C1225.26 288.177 1224.72 288.042 1224.11 288.042C1223.5 288.042 1222.95 288.177 1222.46 288.449C1221.97 288.72 1221.58 289.113 1221.3 289.629C1221.01 290.131 1220.87 290.734 1220.87 291.439C1220.87 292.131 1221.01 292.735 1221.3 293.25C1221.58 293.766 1221.97 294.159 1222.46 294.43C1222.95 294.702 1223.5 294.837 1224.11 294.837Z" fill="white"/>
</g>
<g filter="url(#filter10_d_738_4532)">
<path d="M884.67 356.808C885.756 356.808 886.722 357.02 887.57 357.444C888.435 357.868 889.113 358.52 889.604 359.402C890.096 360.267 890.342 361.386 890.342 362.759V370.542H887.163V363.166C887.163 361.962 886.875 361.064 886.298 360.47C885.739 359.877 884.95 359.58 883.933 359.58C883.187 359.58 882.526 359.733 881.949 360.038C881.373 360.343 880.923 360.801 880.601 361.411C880.296 362.005 880.143 362.759 880.143 363.675V370.542H876.964V351.67H880.143V360.623L879.457 359.504C879.931 358.639 880.618 357.978 881.517 357.52C882.432 357.045 883.484 356.808 884.67 356.808ZM899.487 370.72C897.995 370.72 896.842 370.339 896.028 369.576C895.214 368.796 894.807 367.651 894.807 366.142V353.959H897.987V366.066C897.987 366.71 898.148 367.21 898.47 367.566C898.809 367.922 899.275 368.1 899.869 368.1C900.581 368.1 901.174 367.914 901.649 367.541L902.539 369.804C902.166 370.11 901.708 370.339 901.166 370.491C900.623 370.644 900.064 370.72 899.487 370.72ZM892.569 359.606V357.062H901.624V359.606H892.569ZM909.944 370.72C908.452 370.72 907.299 370.339 906.485 369.576C905.671 368.796 905.264 367.651 905.264 366.142V353.959H908.443V366.066C908.443 366.71 908.604 367.21 908.926 367.566C909.265 367.922 909.732 368.1 910.325 368.1C911.037 368.1 911.631 367.914 912.106 367.541L912.996 369.804C912.623 370.11 912.165 370.339 911.622 370.491C911.08 370.644 910.52 370.72 909.944 370.72ZM903.026 359.606V357.062H912.08V359.606H903.026ZM923.139 370.72C922.037 370.72 921.028 370.466 920.113 369.957C919.214 369.448 918.493 368.685 917.951 367.668C917.425 366.634 917.162 365.328 917.162 363.751C917.162 362.157 917.417 360.852 917.925 359.835C918.451 358.817 919.163 358.063 920.062 357.571C920.96 357.062 921.986 356.808 923.139 356.808C924.479 356.808 925.657 357.096 926.674 357.673C927.709 358.249 928.523 359.055 929.116 360.089C929.726 361.123 930.032 362.344 930.032 363.751C930.032 365.159 929.726 366.388 929.116 367.439C928.523 368.473 927.709 369.279 926.674 369.855C925.657 370.432 924.479 370.72 923.139 370.72ZM915.611 375.476V356.961H918.638V360.165L918.536 363.777L918.79 367.388V375.476H915.611ZM922.783 367.999C923.546 367.999 924.224 367.829 924.818 367.49C925.428 367.151 925.911 366.659 926.268 366.015C926.624 365.371 926.802 364.616 926.802 363.751C926.802 362.87 926.624 362.115 926.268 361.488C925.911 360.843 925.428 360.352 924.818 360.013C924.224 359.673 923.546 359.504 922.783 359.504C922.02 359.504 921.333 359.673 920.723 360.013C920.113 360.352 919.629 360.843 919.273 361.488C918.917 362.115 918.739 362.87 918.739 363.751C918.739 364.616 918.917 365.371 919.273 366.015C919.629 366.659 920.113 367.151 920.723 367.49C921.333 367.829 922.02 367.999 922.783 367.999ZM937.243 370.72C936.107 370.72 935.014 370.576 933.962 370.288C932.928 369.982 932.106 369.618 931.495 369.194L932.716 366.778C933.327 367.168 934.056 367.49 934.903 367.744C935.751 367.999 936.599 368.126 937.447 368.126C938.447 368.126 939.168 367.99 939.609 367.719C940.066 367.448 940.295 367.083 940.295 366.625C940.295 366.252 940.143 365.972 939.837 365.786C939.532 365.582 939.134 365.43 938.642 365.328C938.15 365.226 937.599 365.133 936.989 365.048C936.395 364.964 935.794 364.853 935.183 364.718C934.59 364.565 934.047 364.353 933.555 364.082C933.064 363.794 932.665 363.412 932.36 362.937C932.055 362.463 931.902 361.835 931.902 361.055C931.902 360.191 932.148 359.445 932.64 358.817C933.132 358.173 933.818 357.681 934.7 357.342C935.599 356.986 936.658 356.808 937.879 356.808C938.795 356.808 939.719 356.91 940.651 357.113C941.584 357.317 942.355 357.605 942.966 357.978L941.745 360.394C941.101 360.004 940.448 359.741 939.787 359.606C939.142 359.453 938.498 359.377 937.854 359.377C936.887 359.377 936.167 359.521 935.692 359.809C935.234 360.097 935.005 360.462 935.005 360.903C935.005 361.31 935.158 361.615 935.463 361.818C935.768 362.022 936.167 362.183 936.658 362.302C937.15 362.42 937.693 362.522 938.286 362.607C938.896 362.675 939.498 362.785 940.092 362.937C940.685 363.09 941.228 363.302 941.72 363.573C942.228 363.828 942.635 364.192 942.94 364.667C943.246 365.142 943.398 365.761 943.398 366.524C943.398 367.371 943.144 368.109 942.635 368.736C942.143 369.364 941.44 369.855 940.524 370.211C939.609 370.55 938.515 370.72 937.243 370.72ZM947.153 361.03C946.577 361.03 946.085 360.835 945.678 360.445C945.271 360.038 945.068 359.529 945.068 358.919C945.068 358.275 945.271 357.766 945.678 357.393C946.085 357.003 946.577 356.808 947.153 356.808C947.73 356.808 948.222 357.003 948.628 357.393C949.035 357.766 949.239 358.275 949.239 358.919C949.239 359.529 949.035 360.038 948.628 360.445C948.222 360.835 947.73 361.03 947.153 361.03ZM947.153 370.72C946.577 370.72 946.085 370.525 945.678 370.135C945.271 369.728 945.068 369.219 945.068 368.609C945.068 367.965 945.271 367.456 945.678 367.083C946.085 366.693 946.577 366.498 947.153 366.498C947.73 366.498 948.222 366.693 948.628 367.083C949.035 367.456 949.239 367.965 949.239 368.609C949.239 369.219 949.035 369.728 948.628 370.135C948.222 370.525 947.73 370.72 947.153 370.72ZM950.763 373.085L959.157 349.127H962.005L953.612 373.085H950.763ZM958.413 373.085L966.806 349.127H969.655L961.262 373.085H958.413Z" fill="white"/>
</g>
<g filter="url(#filter11_d_738_4532)">
<path d="M867.429 502.231L841.098 492.511V484.286L867.429 474.565V482.363L844.089 490.641V486.155L867.429 494.434V502.231ZM884.114 512.433L901.739 462.12H910.766L893.14 512.433H884.114ZM926.898 502.231V494.434L950.292 486.155V490.641L926.898 482.363V474.565L953.23 484.286V492.511L926.898 502.231Z" fill="white"/>
</g>
<g filter="url(#filter12_f_738_4532)">
<path fill-rule="evenodd" clip-rule="evenodd" d="M1273.22 549.254C1286.6 564.965 1306.53 574.929 1328.79 574.929C1348.16 574.929 1365.77 567.378 1378.83 555.059C1388.94 567.2 1404.16 574.929 1421.19 574.929C1451.6 574.929 1476.25 550.276 1476.25 519.865C1476.25 489.453 1451.6 464.8 1421.19 464.8C1411.73 464.8 1402.83 467.184 1395.05 471.384C1383.49 446.362 1358.16 429 1328.79 429C1293.06 429 1263.32 454.684 1257.04 488.596C1255.91 488.48 1254.75 488.42 1253.58 488.42C1235.04 488.42 1220 503.457 1220 522.005C1220 540.553 1235.04 555.589 1253.58 555.589C1260.91 555.589 1267.7 553.24 1273.22 549.254Z" fill="#FFF8F7"/>
</g>
<path fill-rule="evenodd" clip-rule="evenodd" d="M240 408H180V468H120V528H60V588H0V648H60H120H180H240V408Z" fill="url(#paint22_linear_738_4532)"/>
<g filter="url(#filter13_f_738_4532)">
<path fill-rule="evenodd" clip-rule="evenodd" d="M828.64 316.57C821.677 324.745 811.308 329.929 799.728 329.929C789.647 329.929 780.484 326 773.687 319.59C768.431 325.908 760.511 329.929 751.651 329.929C735.827 329.929 723 317.102 723 301.278C723 285.455 735.827 272.627 751.651 272.627C756.572 272.627 761.203 273.868 765.248 276.053C771.267 263.034 784.442 254 799.728 254C818.319 254 833.789 267.364 837.057 285.009C837.648 284.948 838.249 284.917 838.856 284.917C848.507 284.917 856.331 292.741 856.331 302.392C856.331 312.043 848.507 319.866 838.856 319.866C835.042 319.866 831.513 318.644 828.64 316.57Z" fill="#FFF8F7"/>
</g>
<rect y="543" width="1440" height="483" fill="url(#paint23_linear_738_4532)"/>
<defs>
<filter id="filter0_b_738_4532" x="421.082" y="29.1475" width="975.405" height="975.405" filterUnits="userSpaceOnUse" color-interpolation-filters="sRGB">
<feFlood flood-opacity="0" result="BackgroundImageFix"/>
<feGaussianBlur in="BackgroundImage" stdDeviation="50"/>
<feComposite in2="SourceAlpha" operator="in" result="effect1_backgroundBlur_738_4532"/>
<feBlend mode="normal" in="SourceGraphic" in2="effect1_backgroundBlur_738_4532" result="shape"/>
</filter>
<filter id="filter1_b_738_4532" x="421.082" y="29.1475" width="975.405" height="975.405" filterUnits="userSpaceOnUse" color-interpolation-filters="sRGB">
<feFlood flood-opacity="0" result="BackgroundImageFix"/>
<feGaussianBlur in="BackgroundImage" stdDeviation="50"/>
<feComposite in2="SourceAlpha" operator="in" result="effect1_backgroundBlur_738_4532"/>
<feBlend mode="normal" in="SourceGraphic" in2="effect1_backgroundBlur_738_4532" result="shape"/>
</filter>
<filter id="filter2_b_738_4532" x="421.082" y="29.1475" width="975.405" height="975.405" filterUnits="userSpaceOnUse" color-interpolation-filters="sRGB">
<feFlood flood-opacity="0" result="BackgroundImageFix"/>
<feGaussianBlur in="BackgroundImage" stdDeviation="50"/>
<feComposite in2="SourceAlpha" operator="in" result="effect1_backgroundBlur_738_4532"/>
<feBlend mode="normal" in="SourceGraphic" in2="effect1_backgroundBlur_738_4532" result="shape"/>
</filter>
<filter id="filter3_d_738_4532" x="1247.43" y="191.44" width="75.3516" height="44.1524" filterUnits="userSpaceOnUse" color-interpolation-filters="sRGB">
<feFlood flood-opacity="0" result="BackgroundImageFix"/>
<feColorMatrix in="SourceAlpha" type="matrix" values="0 0 0 0 0 0 0 0 0 0 0 0 0 0 0 0 0 0 127 0" result="hardAlpha"/>
<feOffset/>
<feGaussianBlur stdDeviation="5.08668"/>
<feComposite in2="hardAlpha" operator="out"/>
<feColorMatrix type="matrix" values="0 0 0 0 1 0 0 0 0 0.99 0 0 0 0 0.9 0 0 0 1 0"/>
<feBlend mode="normal" in2="BackgroundImageFix" result="effect1_dropShadow_738_4532"/>
<feBlend mode="normal" in="SourceGraphic" in2="effect1_dropShadow_738_4532" result="shape"/>
</filter>
<filter id="filter4_d_738_4532" x="1001.91" y="252.842" width="104.412" height="120.331" filterUnits="userSpaceOnUse" color-interpolation-filters="sRGB">
<feFlood flood-opacity="0" result="BackgroundImageFix"/>
<feColorMatrix in="SourceAlpha" type="matrix" values="0 0 0 0 0 0 0 0 0 0 0 0 0 0 0 0 0 0 127 0" result="hardAlpha"/>
<feOffset/>
<feGaussianBlur stdDeviation="5.08668"/>
<feComposite in2="hardAlpha" operator="out"/>
<feColorMatrix type="matrix" values="0 0 0 0 1 0 0 0 0 0.99 0 0 0 0 0.9 0 0 0 1 0"/>
<feBlend mode="normal" in2="BackgroundImageFix" result="effect1_dropShadow_738_4532"/>
<feBlend mode="normal" in="SourceGraphic" in2="effect1_dropShadow_738_4532" result="shape"/>
</filter>
<filter id="filter5_d_738_4532" x="939.301" y="119.718" width="89.9097" height="38.7608" filterUnits="userSpaceOnUse" color-interpolation-filters="sRGB">
<feFlood flood-opacity="0" result="BackgroundImageFix"/>
<feColorMatrix in="SourceAlpha" type="matrix" values="0 0 0 0 0 0 0 0 0 0 0 0 0 0 0 0 0 0 127 0" result="hardAlpha"/>
<feOffset/>
<feGaussianBlur stdDeviation="5.08668"/>
<feComposite in2="hardAlpha" operator="out"/>
<feColorMatrix type="matrix" values="0 0 0 0 1 0 0 0 0 0.99 0 0 0 0 0.9 0 0 0 1 0"/>
<feBlend mode="normal" in2="BackgroundImageFix" result="effect1_dropShadow_738_4532"/>
<feBlend mode="normal" in="SourceGraphic" in2="effect1_dropShadow_738_4532" result="shape"/>
</filter>
<filter id="filter6_d_738_4532" x="1138.33" y="382.813" width="97.3101" height="47.9678" filterUnits="userSpaceOnUse" color-interpolation-filters="sRGB">
<feFlood flood-opacity="0" result="BackgroundImageFix"/>
<feColorMatrix in="SourceAlpha" type="matrix" values="0 0 0 0 0 0 0 0 0 0 0 0 0 0 0 0 0 0 127 0" result="hardAlpha"/>
<feOffset/>
<feGaussianBlur stdDeviation="5.08668"/>
<feComposite in2="hardAlpha" operator="out"/>
<feColorMatrix type="matrix" values="0 0 0 0 1 0 0 0 0 0.99 0 0 0 0 0.9 0 0 0 1 0"/>
<feBlend mode="normal" in2="BackgroundImageFix" result="effect1_dropShadow_738_4532"/>
<feBlend mode="normal" in="SourceGraphic" in2="effect1_dropShadow_738_4532" result="shape"/>
</filter>
<filter id="filter7_d_738_4532" x="944.64" y="523.234" width="92.6741" height="31.2432" filterUnits="userSpaceOnUse" color-interpolation-filters="sRGB">
<feFlood flood-opacity="0" result="BackgroundImageFix"/>
<feColorMatrix in="SourceAlpha" type="matrix" values="0 0 0 0 0 0 0 0 0 0 0 0 0 0 0 0 0 0 127 0" result="hardAlpha"/>
<feOffset/>
<feGaussianBlur stdDeviation="5.08668"/>
<feComposite in2="hardAlpha" operator="out"/>
<feColorMatrix type="matrix" values="0 0 0 0 1 0 0 0 0 0.99 0 0 0 0 0.9 0 0 0 1 0"/>
<feBlend mode="normal" in2="BackgroundImageFix" result="effect1_dropShadow_738_4532"/>
<feBlend mode="normal" in="SourceGraphic" in2="effect1_dropShadow_738_4532" result="shape"/>
</filter>
<filter id="filter8_d_738_4532" x="1113.61" y="554.445" width="65.6003" height="39.3965" filterUnits="userSpaceOnUse" color-interpolation-filters="sRGB">
<feFlood flood-opacity="0" result="BackgroundImageFix"/>
<feColorMatrix in="SourceAlpha" type="matrix" values="0 0 0 0 0 0 0 0 0 0 0 0 0 0 0 0 0 0 127 0" result="hardAlpha"/>
<feOffset/>
<feGaussianBlur stdDeviation="5.08668"/>
<feComposite in2="hardAlpha" operator="out"/>
<feColorMatrix type="matrix" values="0 0 0 0 1 0 0 0 0 0.99 0 0 0 0 0.9 0 0 0 1 0"/>
<feBlend mode="normal" in2="BackgroundImageFix" result="effect1_dropShadow_738_4532"/>
<feBlend mode="normal" in="SourceGraphic" in2="effect1_dropShadow_738_4532" result="shape"/>
</filter>
<filter id="filter9_d_738_4532" x="1186.66" y="273.433" width="53.4164" height="37.5596" filterUnits="userSpaceOnUse" color-interpolation-filters="sRGB">
<feFlood flood-opacity="0" result="BackgroundImageFix"/>
<feColorMatrix in="SourceAlpha" type="matrix" values="0 0 0 0 0 0 0 0 0 0 0 0 0 0 0 0 0 0 127 0" result="hardAlpha"/>
<feOffset/>
<feGaussianBlur stdDeviation="5.08668"/>
<feComposite in2="hardAlpha" operator="out"/>
<feColorMatrix type="matrix" values="0 0 0 0 1 0 0 0 0 0.99 0 0 0 0 0.9 0 0 0 1 0"/>
<feBlend mode="normal" in2="BackgroundImageFix" result="effect1_dropShadow_738_4532"/>
<feBlend mode="normal" in="SourceGraphic" in2="effect1_dropShadow_738_4532" result="shape"/>
</filter>
<filter id="filter10_d_738_4532" x="866.791" y="338.954" width="113.038" height="46.6963" filterUnits="userSpaceOnUse" color-interpolation-filters="sRGB">
<feFlood flood-opacity="0" result="BackgroundImageFix"/>
<feColorMatrix in="SourceAlpha" type="matrix" values="0 0 0 0 0 0 0 0 0 0 0 0 0 0 0 0 0 0 127 0" result="hardAlpha"/>
<feOffset/>
<feGaussianBlur stdDeviation="5.08668"/>
<feComposite in2="hardAlpha" operator="out"/>
<feColorMatrix type="matrix" values="0 0 0 0 1 0 0 0 0 0.99 0 0 0 0 0.9 0 0 0 1 0"/>
<feBlend mode="normal" in2="BackgroundImageFix" result="effect1_dropShadow_738_4532"/>
<feBlend mode="normal" in="SourceGraphic" in2="effect1_dropShadow_738_4532" result="shape"/>
</filter>
<filter id="filter11_d_738_4532" x="830.924" y="451.947" width="132.478" height="70.6592" filterUnits="userSpaceOnUse" color-interpolation-filters="sRGB">
<feFlood flood-opacity="0" result="BackgroundImageFix"/>
<feColorMatrix in="SourceAlpha" type="matrix" values="0 0 0 0 0 0 0 0 0 0 0 0 0 0 0 0 0 0 127 0" result="hardAlpha"/>
<feOffset/>
<feGaussianBlur stdDeviation="5.08668"/>
<feComposite in2="hardAlpha" operator="out"/>
<feColorMatrix type="matrix" values="0 0 0 0 1 0 0 0 0 0.99 0 0 0 0 0.9 0 0 0 1 0"/>
<feBlend mode="normal" in2="BackgroundImageFix" result="effect1_dropShadow_738_4532"/>
<feBlend mode="normal" in="SourceGraphic" in2="effect1_dropShadow_738_4532" result="shape"/>
</filter>
<filter id="filter12_f_738_4532" x="1209" y="418" width="278.25" height="167.929" filterUnits="userSpaceOnUse" color-interpolation-filters="sRGB">
<feFlood flood-opacity="0" result="BackgroundImageFix"/>
<feBlend mode="normal" in="SourceGraphic" in2="BackgroundImageFix" result="shape"/>
<feGaussianBlur stdDeviation="5.5" result="effect1_foregroundBlur_738_4532"/>
</filter>
<filter id="filter13_f_738_4532" x="712" y="243" width="155.331" height="97.9297" filterUnits="userSpaceOnUse" color-interpolation-filters="sRGB">
<feFlood flood-opacity="0" result="BackgroundImageFix"/>
<feBlend mode="normal" in="SourceGraphic" in2="BackgroundImageFix" result="shape"/>
<feGaussianBlur stdDeviation="5.5" result="effect1_foregroundBlur_738_4532"/>
</filter>
<linearGradient id="paint0_linear_738_4532" x1="1092" y1="88" x2="1092" y2="649" gradientUnits="userSpaceOnUse">
<stop stop-color="#A8D2FF"/>
<stop offset="0.817735" stop-color="#FFEDE3"/>
<stop offset="1" stop-color="#F5F5F5"/>
</linearGradient>
<radialGradient id="paint1_radial_738_4532" cx="0" cy="0" r="1" gradientUnits="userSpaceOnUse" gradientTransform="translate(441.361 437.624) rotate(-130.667) scale(427.105 574.534)">
<stop stop-color="#FFB5B5" stop-opacity="0"/>
<stop offset="0.62944" stop-color="#FD9CFF" stop-opacity="0"/>
<stop offset="0.848958" stop-color="#FD9CFF" stop-opacity="0.69"/>
<stop offset="1" stop-color="#FD9CFF" stop-opacity="0.12"/>
</radialGradient>
<radialGradient id="paint2_radial_738_4532" cx="0" cy="0" r="1" gradientUnits="userSpaceOnUse" gradientTransform="translate(420.309 346.018) rotate(94.3575) scale(430.436 469.028)">
<stop stop-color="#66FF91" stop-opacity="0"/>
<stop offset="0.71875" stop-color="#9CCFFF" stop-opacity="0.16"/>
<stop offset="0.87346" stop-color="#9CCFFF"/>
<stop offset="1" stop-color="#9CCFFF" stop-opacity="0"/>
</radialGradient>
<radialGradient id="paint3_radial_738_4532" cx="0" cy="0" r="1" gradientUnits="userSpaceOnUse" gradientTransform="translate(130.885 252.183) rotate(37.7563) scale(208.13 391.427)">
<stop stop-color="#9CB2FF"/>
<stop offset="1" stop-color="#9CB2FF" stop-opacity="0"/>
</radialGradient>
<radialGradient id="paint4_radial_738_4532" cx="0" cy="0" r="1" gradientUnits="userSpaceOnUse" gradientTransform="translate(206.413 227.347) rotate(147.676) scale(163.04 108.253)">
<stop stop-color="white"/>
<stop offset="1" stop-color="white" stop-opacity="0"/>
</radialGradient>
<radialGradient id="paint5_radial_738_4532" cx="0" cy="0" r="1" gradientUnits="userSpaceOnUse" gradientTransform="translate(743.491 538.638) rotate(-118.354) scale(248.634 498.359)">
<stop stop-color="#FBF3FF"/>
<stop offset="0.385417" stop-color="#F0D8FF"/>
<stop offset="1" stop-color="#E7BFFF" stop-opacity="0"/>
</radialGradient>
<radialGradient id="paint6_radial_738_4532" cx="0" cy="0" r="1" gradientUnits="userSpaceOnUse" gradientTransform="translate(554.78 652.389) rotate(143.696) scale(207.443 106.436)">
<stop stop-color="#66FF91"/>
<stop offset="1" stop-color="#66FF91" stop-opacity="0"/>
</radialGradient>
<radialGradient id="paint7_radial_738_4532" cx="0" cy="0" r="1" gradientUnits="userSpaceOnUse" gradientTransform="translate(205.73 592.859) rotate(-142.209) scale(130.44 103.822)">
<stop stop-color="white"/>
<stop offset="1" stop-color="white" stop-opacity="0"/>
</radialGradient>
<radialGradient id="paint8_radial_738_4532" cx="0" cy="0" r="1" gradientUnits="userSpaceOnUse" gradientTransform="translate(441.361 437.624) rotate(-130.667) scale(427.105 574.534)">
<stop stop-color="#FFB5B5" stop-opacity="0"/>
<stop offset="0.62944" stop-color="#FD9CFF" stop-opacity="0"/>
<stop offset="0.848958" stop-color="#FD9CFF" stop-opacity="0.69"/>
<stop offset="1" stop-color="#FD9CFF" stop-opacity="0.12"/>
</radialGradient>
<radialGradient id="paint9_radial_738_4532" cx="0" cy="0" r="1" gradientUnits="userSpaceOnUse" gradientTransform="translate(420.309 346.018) rotate(94.3575) scale(430.436 469.028)">
<stop stop-color="#66FF91" stop-opacity="0"/>
<stop offset="0.71875" stop-color="#9CCFFF" stop-opacity="0.16"/>
<stop offset="0.87346" stop-color="#9CCFFF"/>
<stop offset="1" stop-color="#9CCFFF" stop-opacity="0"/>
</radialGradient>
<radialGradient id="paint10_radial_738_4532" cx="0" cy="0" r="1" gradientUnits="userSpaceOnUse" gradientTransform="translate(130.885 252.183) rotate(37.7563) scale(208.13 391.427)">
<stop stop-color="#9CB2FF"/>
<stop offset="1" stop-color="#9CB2FF" stop-opacity="0"/>
</radialGradient>
<radialGradient id="paint11_radial_738_4532" cx="0" cy="0" r="1" gradientUnits="userSpaceOnUse" gradientTransform="translate(206.413 227.347) rotate(147.676) scale(163.04 108.253)">
<stop stop-color="white"/>
<stop offset="1" stop-color="white" stop-opacity="0"/>
</radialGradient>
<radialGradient id="paint12_radial_738_4532" cx="0" cy="0" r="1" gradientUnits="userSpaceOnUse" gradientTransform="translate(743.491 538.638) rotate(-118.354) scale(248.634 498.359)">
<stop stop-color="#FBF3FF"/>
<stop offset="0.385417" stop-color="#F0D8FF"/>
<stop offset="1" stop-color="#E7BFFF" stop-opacity="0"/>
</radialGradient>
<radialGradient id="paint13_radial_738_4532" cx="0" cy="0" r="1" gradientUnits="userSpaceOnUse" gradientTransform="translate(554.78 652.389) rotate(143.696) scale(207.443 106.436)">
<stop stop-color="#66FF91"/>
<stop offset="1" stop-color="#66FF91" stop-opacity="0"/>
</radialGradient>
<radialGradient id="paint14_radial_738_4532" cx="0" cy="0" r="1" gradientUnits="userSpaceOnUse" gradientTransform="translate(205.73 592.859) rotate(-142.209) scale(130.44 103.822)">
<stop stop-color="white"/>
<stop offset="1" stop-color="white" stop-opacity="0"/>
</radialGradient>
<radialGradient id="paint15_radial_738_4532" cx="0" cy="0" r="1" gradientUnits="userSpaceOnUse" gradientTransform="translate(441.361 437.624) rotate(-130.667) scale(427.105 574.534)">
<stop stop-color="#FFB5B5" stop-opacity="0"/>
<stop offset="0.62944" stop-color="#FD9CFF" stop-opacity="0"/>
<stop offset="0.848958" stop-color="#FD9CFF" stop-opacity="0.69"/>
<stop offset="1" stop-color="#FD9CFF" stop-opacity="0.12"/>
</radialGradient>
<radialGradient id="paint16_radial_738_4532" cx="0" cy="0" r="1" gradientUnits="userSpaceOnUse" gradientTransform="translate(420.309 346.018) rotate(94.3575) scale(430.436 469.028)">
<stop stop-color="#66FF91" stop-opacity="0"/>
<stop offset="0.71875" stop-color="#9CCFFF" stop-opacity="0.16"/>
<stop offset="0.87346" stop-color="#9CCFFF"/>
<stop offset="1" stop-color="#9CCFFF" stop-opacity="0"/>
</radialGradient>
<radialGradient id="paint17_radial_738_4532" cx="0" cy="0" r="1" gradientUnits="userSpaceOnUse" gradientTransform="translate(130.885 252.183) rotate(37.7563) scale(208.13 391.427)">
<stop stop-color="#9CB2FF"/>
<stop offset="1" stop-color="#9CB2FF" stop-opacity="0"/>
</radialGradient>
<radialGradient id="paint18_radial_738_4532" cx="0" cy="0" r="1" gradientUnits="userSpaceOnUse" gradientTransform="translate(206.413 227.347) rotate(147.676) scale(163.04 108.253)">
<stop stop-color="white"/>
<stop offset="1" stop-color="white" stop-opacity="0"/>
</radialGradient>
<radialGradient id="paint19_radial_738_4532" cx="0" cy="0" r="1" gradientUnits="userSpaceOnUse" gradientTransform="translate(743.491 538.638) rotate(-118.354) scale(248.634 498.359)">
<stop stop-color="#FBF3FF"/>
<stop offset="0.385417" stop-color="#F0D8FF"/>
<stop offset="1" stop-color="#E7BFFF" stop-opacity="0"/>
</radialGradient>
<radialGradient id="paint20_radial_738_4532" cx="0" cy="0" r="1" gradientUnits="userSpaceOnUse" gradientTransform="translate(554.78 652.389) rotate(143.696) scale(207.443 106.436)">
<stop stop-color="#66FF91"/>
<stop offset="1" stop-color="#66FF91" stop-opacity="0"/>
</radialGradient>
<radialGradient id="paint21_radial_738_4532" cx="0" cy="0" r="1" gradientUnits="userSpaceOnUse" gradientTransform="translate(205.73 592.859) rotate(-142.209) scale(130.44 103.822)">
<stop stop-color="white"/>
<stop offset="1" stop-color="white" stop-opacity="0"/>
</radialGradient>
<linearGradient id="paint22_linear_738_4532" x1="0" y1="648" x2="240" y2="408" gradientUnits="userSpaceOnUse">
<stop stop-color="#A8D2FF"/>
<stop offset="0.817735" stop-color="#FFEDE3"/>
<stop offset="1" stop-color="#F5F5F5"/>
</linearGradient>
<linearGradient id="paint23_linear_738_4532" x1="720" y1="718" x2="720" y2="543" gradientUnits="userSpaceOnUse">
<stop stop-color="white"/>
<stop offset="1" stop-color="white" stop-opacity="0"/>
</linearGradient>
</defs>
</svg>
