<svg width="496" height="600" viewBox="0 0 496 600" fill="none" xmlns="http://www.w3.org/2000/svg">
<g filter="url(#filter0_dd_384_5301)">
<g clip-path="url(#clip0_384_5301)">
<path d="M320.101 115H36.1105C29.422 115 24 120.432 24 127.134V338.866C24 345.568 29.422 351 36.1105 351H320.101C326.789 351 332.211 345.568 332.211 338.866V127.134C332.211 120.432 326.789 115 320.101 115Z" fill="#F2F6FB"/>
<path d="M183.103 293.992C217.601 274.032 229.421 229.825 209.505 195.254C189.589 160.684 145.478 148.84 110.981 168.8C76.4832 188.76 64.6628 232.967 84.579 267.537C104.495 302.108 148.606 313.952 183.103 293.992ZM165.458 263.362C147.841 273.556 125.314 267.507 115.143 249.853C104.973 232.198 111.009 209.623 128.626 199.429C146.243 189.236 168.77 195.285 178.941 212.939C189.111 230.594 183.075 253.169 165.458 263.362Z" fill="#E1E5F0"/>
<mask id="mask0_384_5301" style="mask-type:alpha" maskUnits="userSpaceOnUse" x="57" y="153" width="179" height="168">
<path d="M102.069 153.617C59.4185 178.296 44.8017 232.947 69.421 275.683C94.0404 318.419 148.573 333.058 191.223 308.38C233.873 283.701 248.49 229.05 223.871 186.314L193.511 203.881C208.452 229.816 199.581 262.982 173.698 277.958C147.815 292.935 114.721 284.051 99.7809 258.116C84.8403 232.181 93.7107 199.015 119.594 184.039L102.069 153.617Z" fill="white"/>
</mask>
<g mask="url(#mask0_384_5301)">
<path d="M102.068 153.617C59.4183 178.295 44.8019 232.946 69.4215 275.683C94.0411 318.419 148.574 333.058 191.224 308.38C233.874 283.702 248.49 229.051 223.87 186.315L193.511 203.881C208.451 229.817 199.581 262.982 173.699 277.959C147.816 292.935 114.722 284.051 99.7812 258.116C84.8404 232.18 93.7106 199.015 119.593 184.038L102.068 153.617Z" fill="white"/>
<path d="M103.614 153.388C56.3416 169.504 40.7312 235.057 65.3549 277.799C89.9787 320.542 164.969 335.444 192.784 308.173L175.466 275.798C149.464 290.843 116.061 283.961 101.118 258.022C86.1748 232.083 95.1397 198.859 121.142 183.814L103.614 153.388Z" fill="#474BFF"/>
</g>
<path d="M292.246 190.765H272.264C271.595 190.765 271.053 191.308 271.053 191.978V211.742C271.053 212.412 271.595 212.955 272.264 212.955H292.246C292.915 212.955 293.457 212.412 293.457 211.742V191.978C293.457 191.308 292.915 190.765 292.246 190.765Z" fill="#474BFF"/>
<path d="M292.246 223.258H272.264C271.595 223.258 271.053 223.801 271.053 224.471V244.235C271.053 244.905 271.595 245.448 272.264 245.448H292.246C292.915 245.448 293.457 244.905 293.457 244.235V224.471C293.457 223.801 292.915 223.258 292.246 223.258Z" fill="white"/>
<path d="M292.246 255.751H272.264C271.595 255.751 271.053 256.294 271.053 256.964V276.728C271.053 277.398 271.595 277.941 272.264 277.941H292.246C292.915 277.941 293.457 277.398 293.457 276.728V256.964C293.457 256.294 292.915 255.751 292.246 255.751Z" fill="#E1E5F0"/>
</g>
</g>
<g filter="url(#filter1_ddd_384_5301)">
<path d="M443.89 249H161.11C154.422 249 149 254.432 149 261.134V472.866C149 479.568 154.422 485 161.11 485H443.89C450.578 485 456 479.568 456 472.866V261.134C456 254.432 450.578 249 443.89 249Z" fill="#F2F6FB"/>
<path d="M226.508 340.002C240.888 340.002 252.546 328.322 252.546 313.915C252.546 299.507 240.888 287.827 226.508 287.827C212.128 287.827 200.471 299.507 200.471 313.915C200.471 328.322 212.128 340.002 226.508 340.002Z" fill="#D8DEED"/>
<path d="M302.804 340.002C317.184 340.002 328.842 328.322 328.842 313.915C328.842 299.507 317.184 287.827 302.804 287.827C288.424 287.827 276.767 299.507 276.767 313.915C276.767 328.322 288.424 340.002 302.804 340.002Z" fill="#D8DEED"/>
<path d="M379.1 340.002C393.48 340.002 405.137 328.322 405.137 313.915C405.137 299.507 393.48 287.827 379.1 287.827C364.72 287.827 353.062 299.507 353.062 313.915C353.062 328.322 364.72 340.002 379.1 340.002Z" fill="#D8DEED"/>
<path d="M226.508 428.578C240.888 428.578 252.546 416.763 252.546 402.187C252.546 387.612 240.888 375.797 226.508 375.797C212.128 375.797 200.471 387.612 200.471 402.187C200.471 416.763 212.128 428.578 226.508 428.578Z" fill="#D8DEED"/>
<path d="M302.804 428.578C317.184 428.578 328.842 416.763 328.842 402.187C328.842 387.612 317.184 375.797 302.804 375.797C288.424 375.797 276.767 387.612 276.767 402.187C276.767 416.763 288.424 428.578 302.804 428.578Z" fill="#D8DEED"/>
<path d="M378.797 428.578C393.345 428.578 405.138 416.763 405.138 402.187C405.138 387.612 393.345 375.797 378.797 375.797C364.25 375.797 352.457 387.612 352.457 402.187C352.457 416.763 364.25 428.578 378.797 428.578Z" fill="#D8DEED"/>
<path d="M226.508 313.915C222.829 313.915 219.847 311.063 219.847 307.545C219.847 304.027 222.829 301.175 226.508 301.175C230.187 301.175 233.169 304.027 233.169 307.545C233.169 311.063 230.187 313.915 226.508 313.915ZM226.508 316.948C233.196 316.948 238.618 322.109 238.618 328.475H214.397C214.397 322.109 219.819 316.948 226.508 316.948Z" fill="#F2F6FB"/>
<path d="M302.802 313.915C299.123 313.915 296.141 311.063 296.141 307.545C296.141 304.027 299.123 301.175 302.802 301.175C306.481 301.175 309.463 304.027 309.463 307.545C309.463 311.063 306.481 313.915 302.802 313.915ZM302.499 316.949C309.02 316.949 314.307 322.109 314.307 328.476H290.691C290.691 322.109 295.978 316.949 302.499 316.949Z" fill="#F2F6FB"/>
<path d="M379.098 313.915C375.419 313.915 372.437 311.063 372.437 307.545C372.437 304.027 375.419 301.175 379.098 301.175C382.776 301.175 385.759 304.027 385.759 307.545C385.759 311.063 382.776 313.915 379.098 313.915ZM378.795 316.949C385.316 316.949 390.603 322.109 390.603 328.476H366.987C366.987 322.109 372.274 316.949 378.795 316.949Z" fill="#F2F6FB"/>
<path d="M226.506 401.884C222.827 401.884 219.845 398.896 219.845 395.211C219.845 391.525 222.827 388.537 226.506 388.537C230.185 388.537 233.167 391.525 233.167 395.211C233.167 398.896 230.185 401.884 226.506 401.884ZM226.506 404.311C233.194 404.311 238.616 409.743 238.616 416.445H214.396C214.396 409.743 219.818 404.311 226.506 404.311Z" fill="#F2F6FB"/>
<path d="M302.802 401.884C299.123 401.884 296.141 398.896 296.141 395.211C296.141 391.525 299.123 388.537 302.802 388.537C306.481 388.537 309.463 391.525 309.463 395.211C309.463 398.896 306.481 401.884 302.802 401.884ZM302.499 404.311C309.02 404.311 314.307 409.743 314.307 416.445H290.691C290.691 409.743 295.978 404.311 302.499 404.311Z" fill="#F2F6FB"/>
<path d="M379.097 401.884C375.418 401.884 372.436 398.896 372.436 395.211C372.436 391.525 375.418 388.537 379.097 388.537C382.775 388.537 385.758 391.525 385.758 395.211C385.758 398.896 382.775 401.884 379.097 401.884ZM378.794 404.311C385.315 404.311 390.602 409.743 390.602 416.445H366.986C366.986 409.743 372.273 404.311 378.794 404.311Z" fill="#F2F6FB"/>
<path d="M247.677 346.676H205.338C202.649 346.676 200.47 348.86 200.47 351.554V352.719C200.47 355.413 202.649 357.597 205.338 357.597H247.677C250.365 357.597 252.545 355.413 252.545 352.719V351.554C252.545 348.86 250.365 346.676 247.677 346.676Z" fill="#E1E5F0"/>
<path d="M323.972 346.676H281.634C278.945 346.676 276.766 348.86 276.766 351.554V352.719C276.766 355.413 278.945 357.597 281.634 357.597H323.972C326.661 357.597 328.841 355.413 328.841 352.719V351.554C328.841 348.86 326.661 346.676 323.972 346.676Z" fill="#E1E5F0"/>
<path d="M400.268 346.676H357.324C354.636 346.676 352.456 348.86 352.456 351.554V352.719C352.456 355.413 354.636 357.597 357.324 357.597H400.268C402.957 357.597 405.137 355.413 405.137 352.719V351.554C405.137 348.86 402.957 346.676 400.268 346.676Z" fill="#E1E5F0"/>
<path d="M247.677 434.645H205.338C202.649 434.645 200.47 436.829 200.47 439.523V440.688C200.47 443.382 202.649 445.566 205.338 445.566H247.677C250.365 445.566 252.545 443.382 252.545 440.688V439.523C252.545 436.829 250.365 434.645 247.677 434.645Z" fill="#E1E5F0"/>
<path d="M323.972 434.645H281.634C278.945 434.645 276.766 436.829 276.766 439.523V440.688C276.766 443.382 278.945 445.566 281.634 445.566H323.972C326.661 445.566 328.841 443.382 328.841 440.688V439.523C328.841 436.829 326.661 434.645 323.972 434.645Z" fill="#E1E5F0"/>
<path d="M400.268 434.645H357.324C354.636 434.645 352.456 436.829 352.456 439.523V440.688C352.456 443.382 354.636 445.566 357.324 445.566H400.268C402.957 445.566 405.137 443.382 405.137 440.688V439.523C405.137 436.829 402.957 434.645 400.268 434.645Z" fill="#E1E5F0"/>
</g>
<defs>
<filter id="filter0_dd_384_5301" x="0" y="99" width="355" height="284" filterUnits="userSpaceOnUse" color-interpolation-filters="sRGB">
<feFlood flood-opacity="0" result="BackgroundImageFix"/>
<feColorMatrix in="SourceAlpha" type="matrix" values="0 0 0 0 0 0 0 0 0 0 0 0 0 0 0 0 0 0 127 0" result="hardAlpha"/>
<feMorphology radius="1" operator="dilate" in="SourceAlpha" result="effect1_dropShadow_384_5301"/>
<feOffset/>
<feGaussianBlur stdDeviation="0.5"/>
<feComposite in2="hardAlpha" operator="out"/>
<feColorMatrix type="matrix" values="0 0 0 0 0 0 0 0 0 0 0 0 0 0 0 0 0 0 0.03 0"/>
<feBlend mode="normal" in2="BackgroundImageFix" result="effect1_dropShadow_384_5301"/>
<feColorMatrix in="SourceAlpha" type="matrix" values="0 0 0 0 0 0 0 0 0 0 0 0 0 0 0 0 0 0 127 0" result="hardAlpha"/>
<feOffset dy="8"/>
<feGaussianBlur stdDeviation="12"/>
<feComposite in2="hardAlpha" operator="out"/>
<feColorMatrix type="matrix" values="0 0 0 0 0 0 0 0 0 0 0 0 0 0 0 0 0 0 0.12 0"/>
<feBlend mode="normal" in2="effect1_dropShadow_384_5301" result="effect2_dropShadow_384_5301"/>
<feBlend mode="normal" in="SourceGraphic" in2="effect2_dropShadow_384_5301" result="shape"/>
</filter>
<filter id="filter1_ddd_384_5301" x="109" y="225" width="387" height="316" filterUnits="userSpaceOnUse" color-interpolation-filters="sRGB">
<feFlood flood-opacity="0" result="BackgroundImageFix"/>
<feColorMatrix in="SourceAlpha" type="matrix" values="0 0 0 0 0 0 0 0 0 0 0 0 0 0 0 0 0 0 127 0" result="hardAlpha"/>
<feMorphology radius="1" operator="dilate" in="SourceAlpha" result="effect1_dropShadow_384_5301"/>
<feOffset/>
<feGaussianBlur stdDeviation="0.5"/>
<feComposite in2="hardAlpha" operator="out"/>
<feColorMatrix type="matrix" values="0 0 0 0 0 0 0 0 0 0 0 0 0 0 0 0 0 0 0.03 0"/>
<feBlend mode="normal" in2="BackgroundImageFix" result="effect1_dropShadow_384_5301"/>
<feColorMatrix in="SourceAlpha" type="matrix" values="0 0 0 0 0 0 0 0 0 0 0 0 0 0 0 0 0 0 127 0" result="hardAlpha"/>
<feMorphology radius="1" operator="dilate" in="SourceAlpha" result="effect2_dropShadow_384_5301"/>
<feOffset dy="2"/>
<feGaussianBlur stdDeviation="4"/>
<feComposite in2="hardAlpha" operator="out"/>
<feColorMatrix type="matrix" values="0 0 0 0 0 0 0 0 0 0 0 0 0 0 0 0 0 0 0.05 0"/>
<feBlend mode="normal" in2="effect1_dropShadow_384_5301" result="effect2_dropShadow_384_5301"/>
<feColorMatrix in="SourceAlpha" type="matrix" values="0 0 0 0 0 0 0 0 0 0 0 0 0 0 0 0 0 0 127 0" result="hardAlpha"/>
<feOffset dy="16"/>
<feGaussianBlur stdDeviation="20"/>
<feComposite in2="hardAlpha" operator="out"/>
<feColorMatrix type="matrix" values="0 0 0 0 0 0 0 0 0 0 0 0 0 0 0 0 0 0 0.16 0"/>
<feBlend mode="normal" in2="effect2_dropShadow_384_5301" result="effect3_dropShadow_384_5301"/>
<feBlend mode="normal" in="SourceGraphic" in2="effect3_dropShadow_384_5301" result="shape"/>
</filter>
<clipPath id="clip0_384_5301">
<path d="M24 153.476C24 140.008 24 133.274 26.621 128.13C28.9265 123.605 32.6053 119.927 37.1301 117.621C42.2742 115 49.0081 115 62.4759 115H292.524C305.992 115 312.726 115 317.87 117.621C322.395 119.927 326.073 123.605 328.379 128.13C331 133.274 331 140.008 331 153.476V312.524C331 325.992 331 332.726 328.379 337.87C326.073 342.395 322.395 346.073 317.87 348.379C312.726 351 305.992 351 292.524 351H62.4759C49.0081 351 42.2742 351 37.1301 348.379C32.6053 346.073 28.9265 342.395 26.621 337.87C24 332.726 24 325.992 24 312.524V153.476Z" fill="white"/>
</clipPath>
</defs>
</svg>
